g m_wizard_portalfloat_02
v -50.473232 114.76697 -1.0226974
v -34.77044 107.33844 -1.0226974
v -30.598938 125.74104 -1.0226974
v -45.089046 139.79662 -1.0226974
v -22.504704 138.38393 -1.0226974
v -32.756584 156.3825 -1.0227011
v -12.612367 145.61884 -1.0226974
v -18.541029 165.86157 -1.0226974
v -1.1446045E-15 148.05055 -1.0226974
v -1.699716E-15 170.01407 -1.0226974
v 12.612367 145.61884 -1.0226974
v 18.541029 165.86156 -1.0226974
v 22.504698 138.38391 -1.0226974
v 32.756577 156.38248 -1.0226974
v 30.59893 125.74103 -1.0226974
v 45.089027 139.7966 -1.0226936
v 34.770424 107.33843 -1.0226965
v 50.473213 114.76695 -1.0226974
v 35.46976 89.48311 -1.0226974
v 50.27163 89.293564 -1.0226974
v 32.75698 71.54209 -1.0226974
v 47.96266 64.2805 -1.0226974
v 28.585476 56.53485 -1.0226974
v 43.833748 42.084362 -1.0226974
v 23.259733 43.92046 -1.0226994
v 35.98427 29.36003 -1.0226974
v 12.360682 32.151367 -1.0226974
v 18.541023 14.87149 -1.0226974
v 1.1920929E-06 29.799564 -1.0226974
v 1.7881396E-06 10.682253 -1.0226974
v -12.360679 32.15138 -1.0226974
v -18.541018 14.87149 -1.0226974
v -23.25973 43.92046 -1.0226994
v -35.98426 29.36003 -1.0226974
v -28.585472 56.53486 -1.0226974
v -43.83374 42.084362 -1.0226936
v -32.756973 71.5421 -1.0226974
v -47.962646 64.2805 -1.0226974
v -35.46975 89.48311 -1.0226974
v -50.271618 89.293564 -1.0226974
v 5.9604645E-07 58.32796 -1.0226974
v -6.1803403 59.69041 -1.0226974
v -11.755705 63.60799 -1.0226974
v -16.18034 70.130356 -1.0226974
v -19.021132 78.919525 -1.0226974
v -19.49664 88.97975 -1.0226974
v -19.021143 99.03997 -1.0226974
v -16.180351 108.11543 -1.0226974
v -11.755712 115.317764 -1.0226974
v -6.180343 119.94194 -1.0226974
v -1.0335821E-15 121.53532 -1.0226974
v 6.180343 119.94194 -1.0226974
v 11.755709 115.317764 -1.0226974
v 16.180346 108.11543 -1.0226974
v 19.021135 99.03997 -1.0226974
v 19.496643 88.97975 -1.0226974
v 19.021135 78.919525 -1.0226974
v 16.180344 70.130356 -1.0226974
v 11.755707 63.60799 -1.0226974
v 6.1803412 59.690407 -1.0226974
v -1.0335821E-15 88.97975 -1.0226974
vt 0.7910156 0.6713867
vt 0.7006836 0.62890625
vt 0.67626953 0.7348633
vt 0.7597656 0.81591797
vt 0.6298828 0.8076172
vt 0.68896484 0.9116211
vt 0.5727539 0.8496094
vt 0.6069336 0.9663086
vt 0.5 0.86328125
vt 0.5 0.9902344
vt 0.4272461 0.8496094
vt 0.3930664 0.9663086
vt 0.37036133 0.8076172
vt 0.31103516 0.9116211
vt 0.32348633 0.7348633
vt 0.23999023 0.81591797
vt 0.29956055 0.62890625
vt 0.20898438 0.6713867
vt 0.29541016 0.5258789
vt 0.21020508 0.52490234
vt 0.31103516 0.42138672
vt 0.22351074 0.37597656
vt 0.33520508 0.3239746
vt 0.24731445 0.21911621
vt 0.3659668 0.21264648
vt 0.28027344 0.009880066
vt 0.42871094 0.1694336
vt 0.3930664 0.009880066
vt 0.5 0.15185547
vt 0.5 0.009880066
vt 0.57128906 0.1694336
vt 0.6069336 0.009880066
vt 0.63427734 0.21264648
vt 0.71972656 0.009880066
vt 0.66503906 0.3239746
vt 0.7529297 0.21911621
vt 0.68896484 0.42138672
vt 0.7763672 0.37597656
vt 0.70458984 0.5258789
vt 0.79003906 0.52490234
vt 0.5 0.33520508
vt 0.53564453 0.34448242
vt 0.5678711 0.37109375
vt 0.5932617 0.41259766
vt 0.6098633 0.46484375
vt 0.6123047 0.5229492
vt 0.6098633 0.5810547
vt 0.5932617 0.6333008
vt 0.5678711 0.6748047
vt 0.53564453 0.70166016
vt 0.5 0.7104492
vt 0.46435547 0.70166016
vt 0.4321289 0.6748047
vt 0.40673828 0.6333008
vt 0.39038086 0.5810547
vt 0.3876953 0.5229492
vt 0.39038086 0.46484375
vt 0.40673828 0.41259766
vt 0.4321289 0.37109375
vt 0.46435547 0.34448242
vt 0.5 0.5229492
vn -0 0 -1
vn -0 0 -1
vn -0 0 -1
vn -0 0 -1
vn -0 0 -1
vn -0 0 -1
vn -0 0 -1
vn -0 0 -1
vn -0 0 -1
vn -0 0 -1
vn -0 0 -1
vn -0 0 -1
vn -0 0 -1
vn -0 0 -1
vn -0 0 -1
vn -0 0 -1
vn -0 0 -1
vn -0 0 -1
vn -0 0 -1
vn -0 0 -1
vn -0 0 -1
vn -0 0 -1
vn -0 0 -1
vn -0 0 -1
vn -0 0 -1
vn -0 0 -1
vn -0 0 -1
vn -0 0 -1
vn -0 0 -1
vn -0 0 -1
vn -0 0 -1
vn -0 0 -1
vn -0 0 -1
vn -0 0 -1
vn -0 0 -1
vn -0 0 -1
vn -0 0 -1
vn -0 0 -1
vn -0 0 -1
vn -0 0 -1
vn -0 0 -1
vn -0 0 -1
vn -0 0 -1
vn -0 0 -1
vn -0 0 -1
vn -0 0 -1
vn -0 0 -1
vn -0 0 -1
vn -0 0 -1
vn -0 0 -1
vn -0 0 -1
vn -0 0 -1
vn -0 0 -1
vn -0 0 -1
vn -0 0 -1
vn -0 0 -1
vn -0 0 -1
vn -0 0 -1
vn -0 0 -1
vn -0 0 -1
vn -0 0 -1
g m_wizard_portalfloat_02_0
f 3/3/3 2/2/2 1/1/1
f 4/4/4 3/3/3 1/1/1
f 5/5/5 3/3/3 4/4/4
f 6/6/6 5/5/5 4/4/4
f 7/7/7 5/5/5 6/6/6
f 8/8/8 7/7/7 6/6/6
f 9/9/9 7/7/7 8/8/8
f 10/10/10 9/9/9 8/8/8
f 11/11/11 9/9/9 10/10/10
f 12/12/12 11/11/11 10/10/10
f 13/13/13 11/11/11 12/12/12
f 14/14/14 13/13/13 12/12/12
f 15/15/15 13/13/13 14/14/14
f 16/16/16 15/15/15 14/14/14
f 17/17/17 15/15/15 16/16/16
f 18/18/18 17/17/17 16/16/16
f 19/19/19 17/17/17 18/18/18
f 20/20/20 19/19/19 18/18/18
f 21/21/21 19/19/19 20/20/20
f 22/22/22 21/21/21 20/20/20
f 23/23/23 21/21/21 22/22/22
f 24/24/24 23/23/23 22/22/22
f 25/25/25 23/23/23 24/24/24
f 26/26/26 25/25/25 24/24/24
f 27/27/27 25/25/25 26/26/26
f 28/28/28 27/27/27 26/26/26
f 29/29/29 27/27/27 28/28/28
f 30/30/30 29/29/29 28/28/28
f 31/31/31 29/29/29 30/30/30
f 32/32/32 31/31/31 30/30/30
f 33/33/33 31/31/31 32/32/32
f 34/34/34 33/33/33 32/32/32
f 35/35/35 33/33/33 34/34/34
f 36/36/36 35/35/35 34/34/34
f 37/37/37 35/35/35 36/36/36
f 38/38/38 37/37/37 36/36/36
f 39/39/39 37/37/37 38/38/38
f 40/40/40 39/39/39 38/38/38
f 2/2/2 39/39/39 40/40/40
f 1/1/1 2/2/2 40/40/40
f 29/29/29 41/41/41 27/27/27
f 42/42/42 41/41/41 29/29/29
f 31/31/31 42/42/42 29/29/29
f 43/43/43 42/42/42 31/31/31
f 33/33/33 43/43/43 31/31/31
f 44/44/44 43/43/43 33/33/33
f 35/35/35 44/44/44 33/33/33
f 45/45/45 44/44/44 35/35/35
f 37/37/37 45/45/45 35/35/35
f 46/46/46 45/45/45 37/37/37
f 39/39/39 46/46/46 37/37/37
f 47/47/47 46/46/46 39/39/39
f 2/2/2 47/47/47 39/39/39
f 48/48/48 47/47/47 2/2/2
f 3/3/3 48/48/48 2/2/2
f 49/49/49 48/48/48 3/3/3
f 5/5/5 49/49/49 3/3/3
f 50/50/50 49/49/49 5/5/5
f 7/7/7 50/50/50 5/5/5
f 51/51/51 50/50/50 7/7/7
f 9/9/9 51/51/51 7/7/7
f 52/52/52 51/51/51 9/9/9
f 11/11/11 52/52/52 9/9/9
f 53/53/53 52/52/52 11/11/11
f 13/13/13 53/53/53 11/11/11
f 54/54/54 53/53/53 13/13/13
f 15/15/15 54/54/54 13/13/13
f 55/55/55 54/54/54 15/15/15
f 17/17/17 55/55/55 15/15/15
f 56/56/56 55/55/55 17/17/17
f 19/19/19 56/56/56 17/17/17
f 57/57/57 56/56/56 19/19/19
f 21/21/21 57/57/57 19/19/19
f 58/58/58 57/57/57 21/21/21
f 23/23/23 58/58/58 21/21/21
f 59/59/59 58/58/58 23/23/23
f 25/25/25 59/59/59 23/23/23
f 60/60/60 59/59/59 25/25/25
f 27/27/27 60/60/60 25/25/25
f 41/41/41 60/60/60 27/27/27
f 55/55/55 61/61/61 54/54/54
f 56/56/56 61/61/61 55/55/55
f 57/57/57 61/61/61 56/56/56
f 58/58/58 61/61/61 57/57/57
f 59/59/59 61/61/61 58/58/58
f 60/60/60 61/61/61 59/59/59
f 41/41/41 61/61/61 60/60/60
f 54/54/54 61/61/61 53/53/53
f 53/53/53 61/61/61 52/52/52
f 52/52/52 61/61/61 51/51/51
f 51/51/51 61/61/61 50/50/50
f 50/50/50 61/61/61 49/49/49
f 49/49/49 61/61/61 48/48/48
f 48/48/48 61/61/61 47/47/47
f 42/42/42 61/61/61 41/41/41
f 43/43/43 61/61/61 42/42/42
f 44/44/44 61/61/61 43/43/43
f 45/45/45 61/61/61 44/44/44
f 46/46/46 61/61/61 45/45/45
f 47/47/47 61/61/61 46/46/46
