g m_cooked_pizza_Cheese
v 0.16741797 0.14839615 -0.17151557
v 0.12855724 0.14928332 -0.20450194
v 0.12034025 0.14626382 -0.18873279
v 0.15641835 0.14545274 -0.15848556
v 0.12839155 0.15674038 -0.19789243
v 0.1672575 0.15585332 -0.16490643
v 0.15614763 0.15788037 -0.14746806
v 0.12006799 0.15869138 -0.17771462
v 0.18298382 0.15686755 -0.11073735
v 0.021787217 0.1550321 0.011190459
v 0.037584882 0.1595429 -0.21155258
v 0.079572715 0.1592699 -0.20001388
v 0.03936917 0.15767802 -0.23494554
v 0.08472059 0.15737465 -0.22224401
v 0.0848824 0.1499176 -0.22885542
v 0.039525922 0.15022087 -0.24155496
v 0.037857145 0.14711533 -0.22256933
v 0.07984516 0.14684233 -0.21103153
v -0.05366259 0.15953374 -0.21456127
v -0.00861024 0.15965554 -0.21736556
v -0.0597994 0.15767913 -0.2384708
v -0.010825273 0.15780863 -0.24147367
v -0.010691136 0.15035142 -0.24807909
v -0.059686974 0.15022175 -0.24506812
v -0.053390373 0.14710614 -0.22557801
v -0.008338038 0.14722796 -0.22838214
v -0.108870335 0.15741746 -0.23051007
v -0.0985917 0.1592997 -0.20747934
v -0.15305308 0.15689379 -0.21266246
v -0.13887976 0.15882038 -0.19116299
v -0.10874047 0.1499601 -0.23710805
v -0.15290806 0.14943661 -0.21926792
v -0.1386105 0.14639275 -0.20217973
v -0.098320976 0.1468721 -0.21849613
v -0.20099954 0.15751967 -0.1453642
v -0.17531133 0.15820408 -0.16964725
v -0.22220027 0.15550788 -0.163708
v -0.1934607 0.15623845 -0.18970203
v -0.19332615 0.14878127 -0.19630793
v -0.22207001 0.14805062 -0.1703107
v -0.20073032 0.14509201 -0.15638226
v -0.17504236 0.14577644 -0.18066494
v -0.22681327 0.15576981 -0.08244487
v -0.22031157 0.15660177 -0.11248965
v -0.25132212 0.15360433 -0.09530653
v -0.24392824 0.1545133 -0.12808242
v -0.24378097 0.14705613 -0.13468865
v -0.2511623 0.1461472 -0.101915985
v -0.22654104 0.14334224 -0.09346163
v -0.22004054 0.14417416 -0.12350707
v -0.25019044 0.15247245 -0.05432063
v -0.22600079 0.15473358 -0.044822685
v -0.23770213 0.15143938 -0.016746094
v -0.21495385 0.15378952 -0.010375214
v -0.19486864 0.14917085 0.065897994
v -0.17580722 0.15170434 0.065760374
v -0.13389395 0.14677402 0.1518124
v -0.11963783 0.14950189 0.14486162
v -0.2500264 0.14501475 -0.060914278
v -0.2375334 0.14398128 -0.023327362
v -0.21468458 0.14136189 -0.02139197
v -0.22572955 0.14230599 -0.055839427
v -0.17554094 0.13927662 0.05474368
v -0.1947089 0.14171375 0.05928708
v -0.11936561 0.13707429 0.13384359
v -0.13373712 0.1393168 0.1452029
v -0.04985741 0.1476043 0.21194546
v -0.086791515 0.14846234 0.18170531
v -0.05835839 0.14473566 0.2238472
v -0.09836493 0.14565477 0.19145373
v -0.09820618 0.13819759 0.18484512
v -0.05819567 0.13727862 0.21723612
v -0.04958521 0.13517672 0.20092884
v -0.08651899 0.13603476 0.17068782
v 0.030912537 0.14675297 0.24229746
v -0.015076 0.14706777 0.23098257
v 0.02945082 0.14383034 0.2561178
v -0.020516973 0.14416306 0.24416669
v -0.020341065 0.13670604 0.237554
v 0.029643157 0.13637342 0.24950016
v 0.031184768 0.13432541 0.2312791
v -0.014803827 0.13464022 0.21996528
v 0.070640594 0.14383376 0.25621277
v 0.06850321 0.146758 0.24235529
v 0.120213054 0.14426996 0.24121968
v 0.11377435 0.14716229 0.22849843
v 0.070818566 0.13637686 0.24959439
v 0.12037275 0.13681288 0.23460896
v 0.11404363 0.13473466 0.21748032
v 0.06877404 0.13433042 0.23133649
v 0.18140663 0.14875871 0.17321481
v 0.14873332 0.147755 0.20802684
v 0.19391109 0.14600383 0.18119192
v 0.15826634 0.14491333 0.21899846
v 0.15842758 0.13745628 0.21238726
v 0.19407384 0.13854685 0.1745795
v 0.18167892 0.13633104 0.16219807
v 0.14900398 0.13532732 0.19700938
v 0.21865667 0.15124679 0.08672322
v 0.20387243 0.14981027 0.13669148
v 0.23459643 0.14867912 0.08816482
v 0.21836263 0.14713416 0.14192638
v 0.21852523 0.13967717 0.13531469
v 0.23475917 0.14122212 0.08155397
v 0.21892883 0.1388192 0.075706415
v 0.20414506 0.13738263 0.12567493
v 0.24061386 0.15026295 0.033000715
v 0.22415607 0.152725 0.035264853
v 0.23438038 0.15183583 -0.021967836
v 0.2183134 0.15419102 -0.01596788
v 0.24077725 0.14280595 0.02638971
v 0.23454314 0.14437883 -0.02857875
v 0.21858272 0.14176336 -0.026984679
v 0.22442688 0.1402974 0.02424803
v 0.20755264 0.15545173 -0.060306482
v 0.19613917 0.15474984 -0.12497451
v 0.22272928 0.153207 -0.070132494
v 0.22288896 0.14574987 -0.07674252
v 0.196296 0.14729263 -0.13158406
v 0.18325308 0.14443989 -0.12175412
v 0.20782144 0.14302406 -0.07132309
vt 0.67330194 0.32882342
vt 0.67949533 0.33443034
vt 0.6812483 0.33220196
vt 0.6744925 0.32641017
vt 0.6780311 0.33502442
vt 0.6719121 0.32954216
vt 0.6694436 0.33166987
vt 0.67505443 0.33680344
vt 0.66304684 0.32811683
vt 0.64766747 0.35605982
vt 0.68227804 0.34932652
vt 0.6794814 0.3428356
vt 0.6859503 0.34851027
vt 0.6828276 0.34152678
vt 0.6843201 0.34105918
vt 0.6875009 0.34814438
vt 0.6902107 0.34671044
vt 0.68658054 0.33920595
vt 0.684574 0.3639578
vt 0.6841536 0.35664883
vt 0.6885305 0.3645918
vt 0.6880098 0.35654348
vt 0.6895619 0.356306
vt 0.6901329 0.36449772
vt 0.6933641 0.3637854
vt 0.6925304 0.3552317
vt 0.6878402 0.37270948
vt 0.6841004 0.37125978
vt 0.685591 0.38012505
vt 0.6820491 0.37789866
vt 0.68939644 0.3727451
vt 0.68715745 0.38033387
vt 0.69066846 0.3807761
vt 0.69272417 0.37248483
vt 0.67538714 0.38800818
vt 0.6789934 0.38381827
vt 0.6781986 0.39129037
vt 0.68212223 0.38675123
vt 0.6836016 0.3871397
vt 0.6796087 0.3918267
vt 0.68235636 0.3944571
vt 0.68702036 0.388481
vt 0.6659416 0.3929335
vt 0.67047083 0.39139754
vt 0.6683172 0.396478
vt 0.6729741 0.3948164
vt 0.6742648 0.39547956
vt 0.6695335 0.39743018
vt 0.6692791 0.40144002
vt 0.6758281 0.39939922
vt 0.662174 0.39707133
vt 0.6601541 0.39361703
vt 0.6562201 0.39618725
vt 0.6546479 0.39270598
vt 0.6422519 0.3912791
vt 0.6419335 0.38822702
vt 0.6273742 0.38321587
vt 0.62835705 0.3808272
vt 0.663152 0.39825624
vt 0.6568465 0.39769793
vt 0.6542895 0.40022755
vt 0.661396 0.40168375
vt 0.6403296 0.39514202
vt 0.6425078 0.39285737
vt 0.6257104 0.3872001
vt 0.6272968 0.38478702
vt 0.61694443 0.37081975
vt 0.6221153 0.37617296
vt 0.6150551 0.37223542
vt 0.62061256 0.3781001
vt 0.6201547 0.37959063
vt 0.61420035 0.37351632
vt 0.6120877 0.37547445
vt 0.61835676 0.38186115
vt 0.6111702 0.3588664
vt 0.6135981 0.3657164
vt 0.6089756 0.35924643
vt 0.6115533 0.36668754
vt 0.6103227 0.36759663
vt 0.60744524 0.359627
vt 0.6046906 0.36027294
vt 0.6078227 0.36893457
vt 0.6083599 0.35308713
vt 0.610571 0.35317445
vt 0.60961604 0.3452999
vt 0.6117828 0.34605193
vt 0.6068628 0.35285008
vt 0.6082971 0.34446257
vt 0.60566795 0.3434226
vt 0.6039332 0.35259324
vt 0.6187518 0.3346155
vt 0.6142112 0.34036472
vt 0.6171285 0.33286384
vt 0.61224633 0.33916843
vt 0.611385 0.3379144
vt 0.6167212 0.3313507
vt 0.61507016 0.32915506
vt 0.60924876 0.33615512
vt 0.63118076 0.32689446
vt 0.6238584 0.33039504
vt 0.63044053 0.32443297
vt 0.6225991 0.3283081
vt 0.62269014 0.32678813
vt 0.6309189 0.322951
vt 0.6303812 0.3203413
vt 0.62168473 0.32430437
vt 0.6389044 0.32220393
vt 0.6390633 0.32483804
vt 0.6477241 0.32176015
vt 0.6472418 0.32449117
vt 0.6396914 0.3208695
vt 0.6487478 0.32054797
vt 0.6489972 0.31798658
vt 0.63961506 0.31828207
vt 0.65448594 0.3252774
vt 0.664984 0.32570192
vt 0.655637 0.32265025
vt 0.6568166 0.32162386
vt 0.66630244 0.32481524
vt 0.66698647 0.32229218
vt 0.6573031 0.31920302
vn 0.47773424 -0.7271198 -0.49301812
vn 0.37070632 -0.7279705 -0.57674575
vn 0.083607055 -0.9858344 -0.14539781
vn 0.11098526 -0.9854419 -0.12878846
vn 0.22087345 0.93288153 -0.28451172
vn 0.30794346 0.91838884 -0.24846053
vn 0.01441824 0.99979717 0.014064813
vn 0.0103351185 0.9998791 0.011614553
vn 0.017759513 0.99969137 0.017369296
vn 5.0785427E-05 0.9996 0.02828459
vn 0.002535608 0.9999467 0.010008936
vn 0.0064501613 0.99993026 0.009896353
vn 0.0672824 0.9485516 -0.30939144
vn 0.14237222 0.94026965 -0.3092299
vn 0.24593379 -0.7293681 -0.6383876
vn 0.12587339 -0.73920995 -0.6616075
vn 0.027902983 -0.98687696 -0.15904516
vn 0.05485551 -0.9864146 -0.15484543
vn -0.0028731208 0.99993765 0.010795899
vn -0.0003177304 0.999954 0.009584539
vn -0.038344096 0.9529778 -0.30060458
vn 0.01056933 0.94951534 -0.3135428
vn 0.02150577 -0.7497555 -0.6613654
vn -0.06794203 -0.7665206 -0.6386157
vn -0.012409092 -0.9879495 -0.15427825
vn 0.0065421895 -0.98747164 -0.15766099
vn -0.094400354 0.9502536 -0.29682752
vn -0.00527161 0.99992657 0.010908589
vn -0.14585096 0.95289564 -0.26592737
vn -0.007914716 0.99988675 0.012801233
vn -0.15695678 -0.7803898 -0.6052738
vn -0.24066012 -0.8130003 -0.53020114
vn -0.049863476 -0.98977894 -0.13360901
vn -0.030114532 -0.98872024 -0.14671528
vn -0.013015539 0.9997589 0.017685667
vn -0.010006261 0.9998442 0.014537479
vn -0.27239946 0.94517916 -0.18009686
vn -0.19590683 0.95188063 -0.23567697
vn -0.30123448 -0.8335148 -0.46315324
vn -0.3467969 -0.87838596 -0.32889214
vn -0.078083746 -0.99273455 -0.09154806
vn -0.062688045 -0.99108607 -0.11755302
vn -0.016760362 0.99951947 0.026073392
vn -0.01535273 0.99964786 0.021645997
vn -0.41720763 0.9088024 0.003987247
vn -0.327318 0.94013315 -0.09493448
vn -0.40610364 -0.88641137 -0.22215955
vn -0.4053035 -0.91072977 -0.07937496
vn -0.10196275 -0.9941942 -0.03437235
vn -0.090558164 -0.9937801 -0.06480933
vn -0.45253596 0.88365895 0.119824894
vn -0.01865295 0.9993407 0.031146022
vn -0.6409084 0.6962246 0.32327673
vn -0.025235305 0.99894637 0.038331345
vn -0.5563634 0.74230736 0.37341598
vn -0.027859898 0.998588 0.045229647
vn -0.48863274 0.77199626 0.4065216
vn -0.020636324 0.99878937 0.04465352
vn -0.4233643 -0.9056519 0.023606606
vn -0.3907708 -0.9096336 0.14094271
vn -0.116632946 -0.9927644 0.028559163
vn -0.11006994 -0.9939108 -0.0050905435
vn -0.1149302 -0.9923396 0.045311373
vn -0.37743768 -0.9051266 0.19566983
vn -0.11024652 -0.99227095 0.05695598
vn -0.36522102 -0.89702874 0.24890393
vn -0.010985315 0.9989213 0.045117456
vn -0.014874231 0.9989267 0.043864153
vn -0.41598892 0.6327406 0.65314054
vn -0.4944315 0.66956615 0.5542732
vn -0.30206612 -0.91102374 0.28069884
vn -0.24364468 -0.914528 0.3229174
vn -0.07895477 -0.9931399 0.08625169
vn -0.09663781 -0.9926993 0.07217457
vn -0.0023236088 0.9988697 0.04747406
vn -0.0072493725 0.99884486 0.04750055
vn -0.10590955 0.5379117 0.83632183
vn -0.27231008 0.55441314 0.7864307
vn -0.14725843 -0.9213415 0.35978442
vn -0.05480232 -0.9231407 0.38053647
vn -0.018640976 -0.9938274 0.10936017
vn -0.048735604 -0.99365085 0.10140466
vn 0.12688443 0.54296744 0.8301125
vn 0.0029576714 0.9988668 0.047502566
vn 0.30625817 0.56206876 0.7682998
vn 0.0072931377 0.9989219 0.04584659
vn 0.07083385 -0.91975206 0.3860554
vn 0.16916066 -0.9190456 0.3560055
vn 0.055626873 -0.9934058 0.100252524
vn 0.023211075 -0.99382824 0.108474724
vn 0.014744829 0.9990784 0.040312048
vn 0.011928413 0.9989813 0.04352143
vn 0.559615 0.67653173 0.4786813
vn 0.45808366 0.6397608 0.61714315
vn 0.29498523 -0.90115076 0.31766498
vn 0.36935872 -0.89563596 0.2478113
vn 0.11643913 -0.9913585 0.060417037
vn 0.09145742 -0.99249554 0.081167415
vn 0.019950883 0.99925846 0.032931462
vn 0.018262098 0.9991586 0.036723245
vn 0.5874541 0.79315096 0.16065249
vn 0.57937354 0.7564217 0.30356652
vn 0.48169148 -0.86055106 0.16560549
vn 0.52332664 -0.84950745 0.066831365
vn 0.15017958 -0.9886585 0.0006614671
vn 0.13787776 -0.9900152 0.029318253
vn 0.5607017 0.82693195 0.042392593
vn 0.020845216 0.9993705 0.028706465
vn 0.5166134 0.8544218 -0.05544307
vn 0.019381553 0.9994954 0.025167907
vn 0.573058 -0.8182792 -0.04498526
vn 0.5771485 -0.8053723 -0.13518529
vn 0.15607528 -0.9861752 -0.055669267
vn 0.15560468 -0.98736304 -0.030023357
vn 0.019561818 0.99958473 0.021161566
vn 0.40104797 0.89406055 -0.19954005
vn 0.44825262 0.88493234 -0.1263497
vn 0.60556835 -0.7489766 -0.26892585
vn 0.54463077 -0.75737286 -0.36022723
vn 0.13534914 -0.9851113 -0.10600125
vn 0.14823526 -0.98546565 -0.08296746
g m_cooked_pizza_Cheese_0
f 3/3/3 2/2/2 1/1/1
f 4/4/4 3/3/3 1/1/1
f 2/2/2 5/5/5 1/1/1
f 5/5/5 6/6/6 1/1/1
f 6/6/6 5/5/5 7/7/7
f 5/5/5 8/8/8 7/7/7
f 7/7/7 8/8/8 9/9/9
f 6/6/6 7/7/7 9/9/9
f 8/8/8 10/10/10 9/9/9
f 11/11/11 10/10/10 8/8/8
f 12/12/12 11/11/11 8/8/8
f 13/13/13 11/11/11 12/12/12
f 14/14/14 13/13/13 12/12/12
f 14/14/14 12/12/12 8/8/8
f 5/5/5 14/14/14 8/8/8
f 14/14/14 5/5/5 2/2/2
f 13/13/13 14/14/14 15/15/15
f 15/15/15 14/14/14 2/2/2
f 16/16/16 13/13/13 15/15/15
f 17/17/17 16/16/16 15/15/15
f 18/18/18 17/17/17 15/15/15
f 19/19/19 10/10/10 11/11/11
f 20/20/20 19/19/19 11/11/11
f 21/21/21 19/19/19 20/20/20
f 22/22/22 21/21/21 20/20/20
f 22/22/22 20/20/20 11/11/11
f 13/13/13 22/22/22 11/11/11
f 22/22/22 13/13/13 16/16/16
f 21/21/21 22/22/22 23/23/23
f 23/23/23 22/22/22 16/16/16
f 24/24/24 21/21/21 23/23/23
f 25/25/25 24/24/24 23/23/23
f 26/26/26 25/25/25 23/23/23
f 26/26/26 23/23/23 16/16/16
f 17/17/17 26/26/26 16/16/16
f 21/21/21 27/27/27 19/19/19
f 27/27/27 21/21/21 24/24/24
f 27/27/27 28/28/28 19/19/19
f 27/27/27 29/29/29 28/28/28
f 29/29/29 30/30/30 28/28/28
f 28/28/28 30/30/30 19/19/19
f 29/29/29 27/27/27 31/31/31
f 31/31/31 27/27/27 24/24/24
f 32/32/32 29/29/29 31/31/31
f 33/33/33 32/32/32 31/31/31
f 34/34/34 33/33/33 31/31/31
f 34/34/34 31/31/31 24/24/24
f 25/25/25 34/34/34 24/24/24
f 30/30/30 10/10/10 19/19/19
f 35/35/35 10/10/10 30/30/30
f 36/36/36 35/35/35 30/30/30
f 37/37/37 35/35/35 36/36/36
f 38/38/38 37/37/37 36/36/36
f 38/38/38 36/36/36 30/30/30
f 29/29/29 38/38/38 30/30/30
f 38/38/38 29/29/29 32/32/32
f 37/37/37 38/38/38 39/39/39
f 39/39/39 38/38/38 32/32/32
f 40/40/40 37/37/37 39/39/39
f 41/41/41 40/40/40 39/39/39
f 42/42/42 41/41/41 39/39/39
f 42/42/42 39/39/39 32/32/32
f 33/33/33 42/42/42 32/32/32
f 43/43/43 10/10/10 35/35/35
f 44/44/44 43/43/43 35/35/35
f 45/45/45 43/43/43 44/44/44
f 46/46/46 45/45/45 44/44/44
f 46/46/46 44/44/44 35/35/35
f 37/37/37 46/46/46 35/35/35
f 46/46/46 37/37/37 40/40/40
f 45/45/45 46/46/46 47/47/47
f 47/47/47 46/46/46 40/40/40
f 48/48/48 45/45/45 47/47/47
f 49/49/49 48/48/48 47/47/47
f 50/50/50 49/49/49 47/47/47
f 50/50/50 47/47/47 40/40/40
f 41/41/41 50/50/50 40/40/40
f 45/45/45 51/51/51 43/43/43
f 51/51/51 45/45/45 48/48/48
f 51/51/51 52/52/52 43/43/43
f 51/51/51 53/53/53 52/52/52
f 53/53/53 54/54/54 52/52/52
f 52/52/52 54/54/54 43/43/43
f 53/53/53 55/55/55 54/54/54
f 55/55/55 56/56/56 54/54/54
f 55/55/55 57/57/57 56/56/56
f 57/57/57 58/58/58 56/56/56
f 53/53/53 51/51/51 59/59/59
f 59/59/59 51/51/51 48/48/48
f 60/60/60 53/53/53 59/59/59
f 55/55/55 53/53/53 60/60/60
f 61/61/61 60/60/60 59/59/59
f 62/62/62 61/61/61 59/59/59
f 62/62/62 59/59/59 48/48/48
f 49/49/49 62/62/62 48/48/48
f 61/61/61 63/63/63 60/60/60
f 63/63/63 64/64/64 60/60/60
f 64/64/64 55/55/55 60/60/60
f 57/57/57 55/55/55 64/64/64
f 63/63/63 65/65/65 64/64/64
f 65/65/65 66/66/66 64/64/64
f 66/66/66 57/57/57 64/64/64
f 56/56/56 10/10/10 54/54/54
f 58/58/58 10/10/10 56/56/56
f 54/54/54 10/10/10 43/43/43
f 67/67/67 10/10/10 58/58/58
f 68/68/68 67/67/67 58/58/58
f 69/69/69 67/67/67 68/68/68
f 70/70/70 69/69/69 68/68/68
f 70/70/70 68/68/68 58/58/58
f 57/57/57 70/70/70 58/58/58
f 70/70/70 57/57/57 66/66/66
f 69/69/69 70/70/70 71/71/71
f 71/71/71 70/70/70 66/66/66
f 72/72/72 69/69/69 71/71/71
f 73/73/73 72/72/72 71/71/71
f 74/74/74 73/73/73 71/71/71
f 74/74/74 71/71/71 66/66/66
f 65/65/65 74/74/74 66/66/66
f 75/75/75 10/10/10 67/67/67
f 76/76/76 75/75/75 67/67/67
f 77/77/77 75/75/75 76/76/76
f 78/78/78 77/77/77 76/76/76
f 78/78/78 76/76/76 67/67/67
f 69/69/69 78/78/78 67/67/67
f 78/78/78 69/69/69 72/72/72
f 77/77/77 78/78/78 79/79/79
f 79/79/79 78/78/78 72/72/72
f 80/80/80 77/77/77 79/79/79
f 81/81/81 80/80/80 79/79/79
f 82/82/82 81/81/81 79/79/79
f 82/82/82 79/79/79 72/72/72
f 73/73/73 82/82/82 72/72/72
f 77/77/77 83/83/83 75/75/75
f 83/83/83 77/77/77 80/80/80
f 83/83/83 84/84/84 75/75/75
f 83/83/83 85/85/85 84/84/84
f 85/85/85 86/86/86 84/84/84
f 84/84/84 86/86/86 75/75/75
f 85/85/85 83/83/83 87/87/87
f 87/87/87 83/83/83 80/80/80
f 88/88/88 85/85/85 87/87/87
f 89/89/89 88/88/88 87/87/87
f 90/90/90 89/89/89 87/87/87
f 90/90/90 87/87/87 80/80/80
f 81/81/81 90/90/90 80/80/80
f 86/86/86 10/10/10 75/75/75
f 91/91/91 10/10/10 86/86/86
f 92/92/92 91/91/91 86/86/86
f 93/93/93 91/91/91 92/92/92
f 94/94/94 93/93/93 92/92/92
f 94/94/94 92/92/92 86/86/86
f 85/85/85 94/94/94 86/86/86
f 94/94/94 85/85/85 88/88/88
f 93/93/93 94/94/94 95/95/95
f 95/95/95 94/94/94 88/88/88
f 96/96/96 93/93/93 95/95/95
f 97/97/97 96/96/96 95/95/95
f 98/98/98 97/97/97 95/95/95
f 98/98/98 95/95/95 88/88/88
f 89/89/89 98/98/98 88/88/88
f 99/99/99 10/10/10 91/91/91
f 100/100/100 99/99/99 91/91/91
f 101/101/101 99/99/99 100/100/100
f 102/102/102 101/101/101 100/100/100
f 102/102/102 100/100/100 91/91/91
f 93/93/93 102/102/102 91/91/91
f 102/102/102 93/93/93 96/96/96
f 101/101/101 102/102/102 103/103/103
f 103/103/103 102/102/102 96/96/96
f 104/104/104 101/101/101 103/103/103
f 105/105/105 104/104/104 103/103/103
f 106/106/106 105/105/105 103/103/103
f 106/106/106 103/103/103 96/96/96
f 97/97/97 106/106/106 96/96/96
f 101/101/101 107/107/107 99/99/99
f 107/107/107 101/101/101 104/104/104
f 107/107/107 108/108/108 99/99/99
f 107/107/107 109/109/109 108/108/108
f 109/109/109 110/110/110 108/108/108
f 108/108/108 110/110/110 99/99/99
f 109/109/109 107/107/107 111/111/111
f 111/111/111 107/107/107 104/104/104
f 112/112/112 109/109/109 111/111/111
f 113/113/113 112/112/112 111/111/111
f 114/114/114 113/113/113 111/111/111
f 114/114/114 111/111/111 104/104/104
f 105/105/105 114/114/114 104/104/104
f 110/110/110 10/10/10 99/99/99
f 9/9/9 10/10/10 110/110/110
f 115/115/115 9/9/9 110/110/110
f 9/9/9 115/115/115 116/116/116
f 115/115/115 117/117/117 116/116/116
f 110/110/110 109/109/109 117/117/117
f 115/115/115 110/110/110 117/117/117
f 117/117/117 109/109/109 112/112/112
f 116/116/116 117/117/117 118/118/118
f 118/118/118 117/117/117 112/112/112
f 119/119/119 116/116/116 118/118/118
f 119/119/119 118/118/118 120/120/120
f 118/118/118 121/121/121 120/120/120
f 112/112/112 113/113/113 121/121/121
f 118/118/118 112/112/112 121/121/121
f 116/116/116 6/6/6 9/9/9
f 6/6/6 116/116/116 119/119/119
f 1/1/1 6/6/6 119/119/119
f 4/4/4 1/1/1 119/119/119
f 120/120/120 4/4/4 119/119/119
f 18/18/18 15/15/15 2/2/2
f 3/3/3 18/18/18 2/2/2
