g Chicken_Raw1
v -10.26589 -14.79656 31.84716
v -16.50152 -14.79656 18.18809
v -23.76271 -11.70756 23.77103
v -16.71343 -11.70756 37.76705
v -5.554114 -14.79656 35.13996
v -8.232529 -11.70756 47.02465
v -8.872879 -14.79656 19.20648
v -0.07770681 -14.79656 40.83758
v -0.1853578 -11.70756 51.22898
v 5.58932 -14.79656 34.7504
v 8.380341 -11.70756 46.50225
v 8.915167 -14.79656 19.198
v -3.814697E-06 -14.79656 18.94046
v 10.41064 -14.79656 31.0921
v 17.15374 -11.70756 37.22198
v 16.504 -14.79656 18.17163
v 23.76269 -11.70756 23.77103
v 20.14862 -14.79656 6.110247
v 28.77061 -11.70756 6.498949
v 31.42677 -11.70756 -8.803205
v 22.21786 -14.79656 -9.218657
v 11.27573 -14.79656 6.337244
v 11.9477 -14.79656 -8.997236
v -8.48147E-05 -14.79656 6.509142
v 8.21853E-05 -14.79656 -8.826765
v -11.23197 -14.79656 6.337244
v -11.90106 -14.79656 -8.997236
v -20.14861 -14.79656 6.110231
v -22.21786 -14.79656 -9.218626
v -28.77061 -11.70756 6.498949
v -31.42678 -11.70756 -8.803205
v -31.42678 -11.70756 -26.22898
v -22.21786 -14.79656 -21.12238
v -24.01612 -11.70756 -42.044
v -18.32488 -14.79656 -34.66492
v -12.74251 -11.70756 -49.25793
v -9.818042 -14.79656 -37.88452
v -11.95077 -14.79656 -21.90889
v -3.814697E-06 -11.70756 -51.22898
v 0.06429219 -14.79656 -38.86966
v 12.17066 -11.70756 -50.25336
v 9.098206 -14.79656 -38.38889
v -3.814697E-06 -14.79656 -21.44561
v 11.99747 -14.79656 -21.86158
v 24.63147 -11.70756 -41.12807
v 16.77401 -14.79656 -35.64256
v 31.42677 -11.70756 -26.22898
v 22.21786 -14.79656 -21.03068
v -16.71343 0.9630842 37.76705
v -23.76271 0.9630842 23.77103
v -17.08194 8.553346 18.87538
v -12.02706 8.553346 28.5027
v -8.232529 0.9630842 47.02465
v -5.750191 8.553346 36.42316
v -9.185692 11.23162 19.92928
v -17.40064 -4.736875 39.71955
v -8.602893 -4.736875 49.18952
v -16.71343 -11.70756 37.76705
v -8.232529 -11.70756 47.02465
v -23.76271 -11.70756 23.77103
v -24.82909 -4.736875 24.89295
v -0.1853578 -11.70756 51.22898
v -0.1853578 -4.736875 53.4728
v 8.380341 -11.70756 46.50225
v 8.755498 -4.736875 48.6437
v -0.1853578 0.9630842 51.22898
v 8.380341 0.9630842 46.50225
v -0.08043981 8.553346 42.15723
v 5.785195 8.553346 36.01994
v -3.814697E-06 13.9099 19.65421
v 9.22803 11.23162 19.92049
v 17.84985 -4.736875 39.12904
v 17.15374 -11.70756 37.22198
v 24.82908 -4.736875 24.89295
v 23.76269 -11.70756 23.77103
v 23.76269 0.9630842 23.77103
v 17.15374 0.9630842 37.22198
v 12.41891 8.553346 28.18858
v 17.08452 8.553346 18.85833
v 28.77066 0.9630842 6.498438
v 20.87639 8.557063 6.101191
v 23.07948 8.481162 -9.224936
v 31.42677 0.9630842 -8.802694
v 30.09084 -4.736875 6.496286
v 32.8371 -4.736875 -8.800528
v 12.36272 11.66554 -8.997793
v 11.65483 11.53325 6.336435
v 28.77061 -11.70756 6.498949
v 31.42677 -11.70756 -8.803205
v -0.0003678147 14.79656 -8.820555
v 0.0003281853 14.75051 6.515261
v -12.31611 11.6658 -8.997793
v -11.61113 11.53377 6.336451
v -23.07904 8.481555 -9.224936
v -20.87679 8.556672 6.101175
v -31.42678 0.9630842 -8.802694
v -28.77067 0.9630852 6.498438
v -32.8371 -4.736875 -8.800528
v -30.09085 -4.736875 6.496286
v -31.42678 -11.70756 -8.803205
v -28.77061 -11.70756 6.498949
v -22.99933 8.553346 -21.81779
v -31.42678 0.9630842 -26.22898
v -16.71074 8.553346 -34.89162
v -24.01612 0.9630861 -42.044
v -8.946891 8.553346 -38.68228
v -12.74251 0.9630842 -49.25793
v -12.37195 11.23162 -22.63227
v -25.07911 -4.736874 -43.97918
v -32.8371 -4.736875 -27.35089
v -24.01612 -11.70756 -42.044
v -12.74251 -11.70756 -49.25793
v -13.31539 -4.736875 -51.41388
v -31.42678 -11.70756 -26.22898
v -3.814697E-06 13.9099 -22.15239
v 0.06654619 8.553346 -40.1893
v 12.41865 11.23162 -22.5833
v 8.723295 8.553346 -39.51321
v -3.814697E-06 0.9630842 -51.22898
v 12.17066 0.9630842 -50.25336
v -3.814697E-06 -4.736875 -53.4728
v 12.71579 -4.736875 -52.45399
v -3.814697E-06 -11.70756 -51.22898
v 12.17066 -11.70756 -50.25336
v 22.99933 8.553346 -21.72285
v 17.20867 8.553346 -33.39093
v 24.63147 0.9630842 -41.12807
v 31.42677 0.9630842 -26.22898
v 25.64296 -4.736875 -43.14985
v 32.8371 -4.736875 -27.35089
v 31.42677 -11.70756 -26.22898
v 24.63147 -11.70756 -41.12807
vt 0.120605 0.735126
vt 0.204358 0.69731
vt 0.168807 0.64919
vt 0.08191 0.693153
vt 0.100316 0.763854
vt 0.024976 0.746572
vt 0.197868 0.74404
vt 0.066181 0.797127
vt 0 0.797727
vt 0.102511 0.832038
vt 0.028498 0.850139
vt 0.197176 0.853253
vt 0.199156 0.798398
vt 0.124563 0.861667
vt 0.084826 0.905071
vt 0.203029 0.899652
vt 0.167054 0.946808
vt 0.276749 0.922683
vt 0.273129 0.97895
vt 0.367739 0.996057
vt 0.370791 0.93602
vt 0.275821 0.868258
vt 0.369817 0.872989
vt 0.275312 0.799032
vt 0.369286 0.799759
vt 0.276906 0.730162
vt 0.370927 0.726845
vt 0.278733 0.675457
vt 0.372934 0.663507
vt 0.276051 0.618898
vt 0.370966 0.603832
vt 0.478154 0.605652
vt 0.445829 0.664473
vt 0.574841 0.652093
vt 0.527751 0.689387
vt 0.619538 0.722135
vt 0.547245 0.74101
vt 0.449946 0.727368
vt 0.631515 0.801248
vt 0.553058 0.801422
vt 0.624899 0.876564
vt 0.549735 0.856695
vt 0.446532 0.800336
vt 0.448594 0.8737
vt 0.568285 0.953527
vt 0.532265 0.903322
vt 0.475941 0.996057
vt 0.443243 0.936306
vt 0.13741 0.40268
vt 0.212974 0.455404
vt 0.251326 0.402062
vt 0.199351 0.36983
vt 0.094663 0.352215
vt 0.159828 0.334438
vt 0.24824 0.354616
vt 0.107563 0.42412
vt 0.062452 0.36229
vt 0.07726 0.464238
vt 0.023312 0.388539
vt 0.170658 0.534288
vt 0.191686 0.486916
vt 0 0.321036
vt 0.049447 0.315046
vt 0 0.236148
vt 0.056115 0.257561
vt 0.079695 0.311239
vt 0.091464 0.26346
vt 0.133581 0.304628
vt 0.15914 0.272311
vt 0.251579 0.301326
vt 0.246726 0.248334
vt 0.095991 0.181753
vt 0.058521 0.138653
vt 0.180664 0.112625
vt 0.157529 0.062106
vt 0.204551 0.144958
vt 0.130507 0.202652
vt 0.197393 0.232398
vt 0.248292 0.200112
vt 0.315619 0.10498
vt 0.323463 0.17465
vt 0.414655 0.162853
vt 0.416295 0.093331
vt 0.308383 0.064195
vt 0.41858 0.054186
vt 0.41104 0.228001
vt 0.32338 0.231701
vt 0.294279 0.010986
vt 0.420361 0
vt 0.409184 0.299599
vt 0.323859 0.30041
vt 0.412038 0.370718
vt 0.324592 0.369163
vt 0.416431 0.435238
vt 0.325655 0.426326
vt 0.418372 0.50454
vt 0.319542 0.494104
vt 0.420125 0.54459
vt 0.312796 0.532775
vt 0.420751 0.597854
vt 0.298584 0.583745
vt 0.487861 0.428356
vt 0.524179 0.488903
vt 0.556374 0.390094
vt 0.609051 0.434253
vt 0.575255 0.346448
vt 0.646854 0.368691
vt 0.487487 0.367611
vt 0.638871 0.457851
vt 0.542621 0.522119
vt 0.674614 0.500145
vt 0.741369 0.40357
vt 0.684096 0.380852
vt 0.556679 0.573531
vt 0.481838 0.298915
vt 0.582781 0.296955
vt 0.486895 0.230575
vt 0.578467 0.250745
vt 0.65827 0.29418
vt 0.647237 0.22559
vt 0.697741 0.292399
vt 0.681421 0.212723
vt 0.756046 0.290138
vt 0.729939 0.189317
vt 0.486638 0.170849
vt 0.548178 0.204885
vt 0.598815 0.157452
vt 0.520588 0.11101
vt 0.627645 0.133803
vt 0.537672 0.078051
vt 0.552081 0.0282
vt 0.655711 0.093728
vn -0.171724 -0.9776847 0.121011
vn -0.198036 -0.9771591 0.077084
vn -0.6998612 -0.6622742 0.2675581
vn -0.6108669 -0.6844838 0.3978989
vn -0.08053497 -0.9922407 0.09472296
vn -0.4527092 -0.6983793 0.5543652
vn 0 -1 0
vn 0.005719999 -0.9895359 0.144174
vn 0.01939801 -0.7514532 0.6595012
vn 0.083946 -0.9917051 0.09733501
vn 0.4513201 -0.7002631 0.5531201
vn 0 -1 0
vn 0 -1 0
vn 0.1689909 -0.9781497 0.1211
vn 0.605582 -0.688129 0.399686
vn 0.196843 -0.9774548 0.07638699
vn 0.6986629 -0.665278 0.263202
vn 0.185202 -0.9817408 0.043418
vn 0.7195458 -0.6743878 0.165695
vn 0.73088 -0.6799989 0.05844699
vn 0.1783359 -0.9838605 0.01465499
vn 0 -1 0
vn 0 -1 0
vn 0 -1 0
vn 0 -1 0
vn 0 -1 0
vn 0 -1 0
vn -0.1848031 -0.9818204 0.04331902
vn -0.1778501 -0.9839495 0.01459301
vn -0.7195228 -0.6744148 0.1656859
vn -0.7305571 -0.6803501 0.05839501
vn -0.7360009 -0.6585729 -0.156794
vn -0.1861529 -0.9819455 -0.03361598
vn -0.5537319 -0.7099378 -0.4351659
vn -0.141864 -0.9828039 -0.118199
vn -0.223807 -0.758596 -0.611917
vn -0.034709 -0.992243 -0.119369
vn 0 -1 0
vn -0.023593 -0.7883949 -0.6147169
vn -0.003835002 -0.9938154 -0.110978
vn 0.2404002 -0.7482845 -0.6182864
vn 0.033731 -0.9924452 -0.117961
vn 0 -1 0
vn 0 -1 0
vn 0.5486701 -0.724975 -0.41638
vn 0.1316891 -0.9838355 -0.1213501
vn 0.7189183 -0.6788282 -0.1494951
vn 0.1867951 -0.9816835 -0.03748702
vn -0.6726405 0.5905556 0.4458687
vn -0.7792494 0.5506582 0.2992421
vn -0.5284361 0.8242691 0.203312
vn -0.4719403 0.8263315 0.3073252
vn -0.5186372 0.6192463 0.5895333
vn -0.353597 0.872482 0.33726
vn -0.2802821 0.9503325 0.1353151
vn -0.8297508 -0.0003979999 0.5581339
vn -0.6252424 -0.0004860003 0.7804305
vn -0.6108669 -0.6844838 0.3978989
vn -0.4527092 -0.6983793 0.5543652
vn -0.6998612 -0.6622742 0.2675581
vn -0.9335167 -0.0002469999 0.3585339
vn 0.01939801 -0.7514532 0.6595012
vn 0.03096 -0.001179 0.9995199
vn 0.4513201 -0.7002631 0.5531201
vn 0.623164 -0.000418 0.7820911
vn 0.021746 0.6683921 0.7434911
vn 0.5169364 0.6168764 0.5934984
vn 0.011102 0.9086717 0.4173639
vn 0.3533831 0.8706023 0.3423041
vn 0.00133 0.9899318 0.141539
vn 0.279535 0.9504499 0.136034
vn 0.8263178 -0.0004029999 0.5632039
vn 0.605582 -0.688129 0.399686
vn 0.9357327 -0.0002369999 0.3527099
vn 0.6986629 -0.665278 0.263202
vn 0.7823502 0.5489791 0.2941941
vn 0.6695451 0.5908861 0.4500701
vn 0.4673738 0.8280388 0.3096989
vn 0.528821 0.824949 0.199518
vn 0.8096759 0.5575929 0.183071
vn 0.5271131 0.8423461 0.112271
vn 0.5136399 0.8572998 0.03480099
vn 0.8192156 0.5698437 0.06452797
vn 0.9735556 -0.0001889999 0.2284499
vn 0.996822 -0.000277 0.079661
vn 0.260464 0.9654722 -0.004699001
vn 0.2830511 0.9581124 0.04362101
vn 0.7195458 -0.6743878 0.165695
vn 0.73088 -0.6799989 0.05844699
vn -6.900004E-05 0.9998684 -0.01622301
vn 1.4E-05 0.9993537 0.03594699
vn -0.26042 0.9654841 -0.004679
vn -0.2830081 0.9581273 0.04357201
vn -0.5126301 0.8579101 0.03465001
vn -0.5262668 0.8429006 0.112079
vn -0.8190809 0.5700449 0.06446099
vn -0.8096751 0.557597 0.183062
vn -0.996822 -0.000278 0.079661
vn -0.9735559 -0.00019 0.228449
vn -0.7305571 -0.6803501 0.05839501
vn -0.7195228 -0.6744148 0.1656859
vn -0.493504 0.861869 -0.116772
vn -0.7833998 0.5959638 -0.176386
vn -0.350658 0.883624 -0.310238
vn -0.5983349 0.6513198 -0.4666668
vn -0.163796 0.9099669 -0.3809609
vn -0.2598568 0.6763256 -0.6892446
vn -0.200224 0.9729028 -0.115631
vn -0.7778733 -0.001013 -0.6284203
vn -0.9755146 -0.0008759996 -0.2199329
vn -0.5537319 -0.7099378 -0.4351659
vn -0.223807 -0.758596 -0.611917
vn -0.358962 -0.000515 -0.9333521
vn -0.7360009 -0.6585729 -0.156794
vn -0.001618 0.9897452 -0.142835
vn -0.011346 0.9199779 -0.3918059
vn 0.2015229 0.9726446 -0.1155469
vn 0.172703 0.9083372 -0.3809161
vn -0.03000899 0.6866857 -0.7263348
vn 0.280433 0.6861659 -0.6712179
vn -0.039645 -0.000265 -0.9992138
vn 0.3801552 -0.0006620004 -0.9249225
vn -0.023593 -0.7883949 -0.6147169
vn 0.2404002 -0.7482845 -0.6182864
vn 0.4923049 0.8631299 -0.11244
vn 0.3598849 0.8822178 -0.3036029
vn 0.5983444 0.6539134 -0.4630133
vn 0.7847451 0.5964361 -0.168639
vn 0.7800528 -0.0009599998 -0.6257129
vn 0.9779363 -0.0008639994 -0.2089009
vn 0.7189183 -0.6788282 -0.1494951
vn 0.5486701 -0.724975 -0.41638
g Chicken_Raw1_0
f 3/3/3 2/2/2 1/1/1
f 4/4/4 3/3/3 1/1/1
f 1/1/1 5/5/5 4/4/4
f 5/5/5 1/1/1 2/2/2
f 5/5/5 6/6/6 4/4/4
f 7/7/7 5/5/5 2/2/2
f 5/5/5 8/8/8 6/6/6
f 8/8/8 9/9/9 6/6/6
f 8/8/8 10/10/10 9/9/9
f 10/10/10 11/11/11 9/9/9
f 12/12/12 10/10/10 8/8/8
f 13/13/13 12/12/12 8/8/8
f 13/13/13 8/8/8 5/5/5
f 7/7/7 13/13/13 5/5/5
f 10/10/10 14/14/14 11/11/11
f 14/14/14 15/15/15 11/11/11
f 15/15/15 14/14/14 16/16/16
f 16/16/16 14/14/14 10/10/10
f 12/12/12 16/16/16 10/10/10
f 17/17/17 15/15/15 16/16/16
f 17/17/17 16/16/16 18/18/18
f 18/18/18 16/16/16 12/12/12
f 19/19/19 17/17/17 18/18/18
f 19/19/19 18/18/18 20/20/20
f 18/18/18 21/21/21 20/20/20
f 18/18/18 22/22/22 21/21/21
f 22/22/22 12/12/12 13/13/13
f 22/22/22 18/18/18 12/12/12
f 22/22/22 23/23/23 21/21/21
f 23/23/23 22/22/22 24/24/24
f 24/24/24 22/22/22 13/13/13
f 25/25/25 23/23/23 24/24/24
f 24/24/24 26/26/26 25/25/25
f 26/26/26 27/27/27 25/25/25
f 27/27/27 26/26/26 28/28/28
f 29/29/29 27/27/27 28/28/28
f 29/29/29 28/28/28 30/30/30
f 31/31/31 29/29/29 30/30/30
f 29/29/29 31/31/31 32/32/32
f 33/33/33 29/29/29 32/32/32
f 27/27/27 29/29/29 33/33/33
f 33/33/33 32/32/32 34/34/34
f 35/35/35 33/33/33 34/34/34
f 34/34/34 36/36/36 35/35/35
f 36/36/36 37/37/37 35/35/35
f 38/38/38 33/33/33 35/35/35
f 37/37/37 38/38/38 35/35/35
f 38/38/38 27/27/27 33/33/33
f 36/36/36 39/39/39 37/37/37
f 39/39/39 40/40/40 37/37/37
f 37/37/37 40/40/40 38/38/38
f 39/39/39 41/41/41 40/40/40
f 41/41/41 42/42/42 40/40/40
f 40/40/40 42/42/42 43/43/43
f 40/40/40 43/43/43 38/38/38
f 42/42/42 44/44/44 43/43/43
f 41/41/41 45/45/45 42/42/42
f 45/45/45 46/46/46 42/42/42
f 42/42/42 46/46/46 44/44/44
f 45/45/45 47/47/47 46/46/46
f 47/47/47 48/48/48 46/46/46
f 46/46/46 48/48/48 44/44/44
f 47/47/47 20/20/20 48/48/48
f 20/20/20 21/21/21 48/48/48
f 43/43/43 44/44/44 25/25/25
f 44/44/44 23/23/23 25/25/25
f 48/48/48 21/21/21 23/23/23
f 44/44/44 48/48/48 23/23/23
f 43/43/43 25/25/25 27/27/27
f 38/38/38 43/43/43 27/27/27
f 51/51/51 50/50/50 49/49/49
f 52/52/52 51/51/51 49/49/49
f 49/49/49 53/53/53 52/52/52
f 53/53/53 54/54/54 52/52/52
f 55/55/55 51/51/51 52/52/52
f 54/54/54 55/55/55 52/52/52
f 53/53/53 49/49/49 56/56/56
f 56/56/56 49/49/49 50/50/50
f 57/57/57 53/53/53 56/56/56
f 57/57/57 56/56/56 58/58/58
f 59/59/59 57/57/57 58/58/58
f 60/60/60 58/58/58 56/56/56
f 61/61/61 60/60/60 56/56/56
f 61/61/61 56/56/56 50/50/50
f 59/59/59 62/62/62 57/57/57
f 62/62/62 63/63/63 57/57/57
f 57/57/57 63/63/63 53/53/53
f 63/63/63 62/62/62 64/64/64
f 65/65/65 63/63/63 64/64/64
f 63/63/63 65/65/65 66/66/66
f 63/63/63 66/66/66 53/53/53
f 53/53/53 66/66/66 54/54/54
f 65/65/65 67/67/67 66/66/66
f 66/66/66 67/67/67 68/68/68
f 66/66/66 68/68/68 54/54/54
f 54/54/54 68/68/68 55/55/55
f 67/67/67 69/69/69 68/68/68
f 68/68/68 69/69/69 70/70/70
f 68/68/68 70/70/70 55/55/55
f 69/69/69 71/71/71 70/70/70
f 65/65/65 64/64/64 72/72/72
f 65/65/65 72/72/72 67/67/67
f 64/64/64 73/73/73 72/72/72
f 74/74/74 72/72/72 73/73/73
f 75/75/75 74/74/74 73/73/73
f 74/74/74 76/76/76 72/72/72
f 76/76/76 77/77/77 72/72/72
f 72/72/72 77/77/77 67/67/67
f 67/67/67 77/77/77 69/69/69
f 77/77/77 76/76/76 78/78/78
f 77/77/77 78/78/78 69/69/69
f 69/69/69 78/78/78 71/71/71
f 76/76/76 79/79/79 78/78/78
f 78/78/78 79/79/79 71/71/71
f 76/76/76 80/80/80 79/79/79
f 80/80/80 81/81/81 79/79/79
f 82/82/82 81/81/81 80/80/80
f 83/83/83 82/82/82 80/80/80
f 80/80/80 84/84/84 83/83/83
f 74/74/74 75/75/75 84/84/84
f 84/84/84 80/80/80 76/76/76
f 74/74/74 84/84/84 76/76/76
f 84/84/84 85/85/85 83/83/83
f 82/82/82 86/86/86 81/81/81
f 86/86/86 87/87/87 81/81/81
f 79/79/79 81/81/81 87/87/87
f 85/85/85 84/84/84 88/88/88
f 75/75/75 88/88/88 84/84/84
f 89/89/89 85/85/85 88/88/88
f 86/86/86 90/90/90 87/87/87
f 90/90/90 91/91/91 87/87/87
f 91/91/91 90/90/90 92/92/92
f 93/93/93 91/91/91 92/92/92
f 93/93/93 92/92/92 94/94/94
f 95/95/95 93/93/93 94/94/94
f 94/94/94 96/96/96 95/95/95
f 96/96/96 97/97/97 95/95/95
f 96/96/96 98/98/98 97/97/97
f 98/98/98 99/99/99 97/97/97
f 99/99/99 98/98/98 100/100/100
f 101/101/101 99/99/99 100/100/100
f 95/95/95 97/97/97 50/50/50
f 51/51/51 95/95/95 50/50/50
f 93/93/93 95/95/95 51/51/51
f 94/94/94 102/102/102 96/96/96
f 102/102/102 103/103/103 96/96/96
f 98/98/98 96/96/96 103/103/103
f 103/103/103 102/102/102 104/104/104
f 105/105/105 103/103/103 104/104/104
f 104/104/104 106/106/106 105/105/105
f 106/106/106 104/104/104 102/102/102
f 106/106/106 107/107/107 105/105/105
f 108/108/108 106/106/106 102/102/102
f 103/103/103 105/105/105 109/109/109
f 110/110/110 103/103/103 109/109/109
f 110/110/110 98/98/98 103/103/103
f 110/110/110 109/109/109 111/111/111
f 112/112/112 111/111/111 109/109/109
f 113/113/113 112/112/112 109/109/109
f 113/113/113 109/109/109 105/105/105
f 107/107/107 113/113/113 105/105/105
f 114/114/114 110/110/110 111/111/111
f 108/108/108 115/115/115 106/106/106
f 115/115/115 116/116/116 106/106/106
f 106/106/106 116/116/116 107/107/107
f 115/115/115 117/117/117 116/116/116
f 117/117/117 118/118/118 116/116/116
f 116/116/116 118/118/118 119/119/119
f 116/116/116 119/119/119 107/107/107
f 107/107/107 119/119/119 113/113/113
f 118/118/118 120/120/120 119/119/119
f 121/121/121 119/119/119 120/120/120
f 119/119/119 121/121/121 113/113/113
f 113/113/113 121/121/121 112/112/112
f 122/122/122 121/121/121 120/120/120
f 121/121/121 122/122/122 123/123/123
f 121/121/121 123/123/123 112/112/112
f 122/122/122 124/124/124 123/123/123
f 117/117/117 125/125/125 118/118/118
f 125/125/125 126/126/126 118/118/118
f 118/118/118 126/126/126 120/120/120
f 127/127/127 126/126/126 125/125/125
f 126/126/126 127/127/127 120/120/120
f 128/128/128 127/127/127 125/125/125
f 129/129/129 127/127/127 128/128/128
f 120/120/120 127/127/127 129/129/129
f 122/122/122 120/120/120 129/129/129
f 122/122/122 129/129/129 124/124/124
f 130/130/130 129/129/129 128/128/128
f 130/130/130 131/131/131 129/129/129
f 131/131/131 132/132/132 129/129/129
f 129/129/129 132/132/132 124/124/124
f 128/128/128 125/125/125 82/82/82
f 83/83/83 128/128/128 82/82/82
f 130/130/130 128/128/128 83/83/83
f 89/89/89 131/131/131 130/130/130
f 85/85/85 89/89/89 130/130/130
f 85/85/85 130/130/130 83/83/83
f 82/82/82 125/125/125 117/117/117
f 86/86/86 82/82/82 117/117/117
f 86/86/86 117/117/117 115/115/115
f 90/90/90 86/86/86 115/115/115
f 90/90/90 115/115/115 108/108/108
f 92/92/92 90/90/90 108/108/108
f 92/92/92 108/108/108 94/94/94
f 108/108/108 102/102/102 94/94/94
f 2/2/2 3/3/3 30/30/30
f 28/28/28 2/2/2 30/30/30
f 7/7/7 2/2/2 28/28/28
f 26/26/26 7/7/7 28/28/28
f 26/26/26 24/24/24 7/7/7
f 24/24/24 13/13/13 7/7/7
f 114/114/114 100/100/100 98/98/98
f 110/110/110 114/114/114 98/98/98
f 55/55/55 93/93/93 51/51/51
f 55/55/55 70/70/70 93/93/93
f 70/70/70 91/91/91 93/93/93
f 70/70/70 71/71/71 91/91/91
f 71/71/71 87/87/87 91/91/91
f 71/71/71 79/79/79 87/87/87
f 101/101/101 60/60/60 61/61/61
f 99/99/99 101/101/101 61/61/61
f 99/99/99 61/61/61 97/97/97
f 61/61/61 50/50/50 97/97/97
