g Potato
v 0.1041604 0.4355596 -0.4136229
v 0.1908113 0.4323838 -0.3525347
v 0.110165 0.4938072 -0.3346155
v 0.060137 0.4691374 -0.39978
v 0 0.5153931 -0.3280565
v 0 0.4813982 -0.3947132
v -0.110165 0.4938072 -0.3346155
v -0.060137 0.4691374 -0.39978
v -0.1908113 0.4323838 -0.3525347
v -0.1041604 0.4354888 -0.4136229
v -0.22033 0.3427982 -0.3770125
v -0.120274 0.3877886 -0.4325328
v -0.1908113 0.2504401 -0.4014904
v -0.1041604 0.3389488 -0.4514427
v -0.110165 0.1828292 -0.4194095
v -0.060137 0.3031956 -0.4652858
v 0 0.1580819 -0.4259682
v 0 0.290109 -0.4703526
v 0 0.5268417 -0.2638288
v -0.1432715 0.5006027 -0.2684011
v -0.2481535 0.4222275 -0.280893
v -0.286543 0.3042284 -0.2979569
v -0.2481535 0.1815151 -0.3150208
v -0.1432715 0.09168287 -0.3275125
v 0 0.05880195 -0.3320847
v -0.1601555 0.4993345 -0.1990819
v 0 0.5262341 -0.1973651
v 0.1432715 0.5006027 -0.2684011
v 0.2481535 0.4222275 -0.280893
v 0.22033 0.3427982 -0.3770125
v 0.120274 0.3877886 -0.4325328
v 0.1041604 0.3389488 -0.4514427
v 0.1908113 0.2504401 -0.4014904
v 0.060137 0.3031956 -0.4652858
v 0.110165 0.1828292 -0.4194095
v 0 0.290109 -0.4703526
v 0 0.1580819 -0.4259682
v 0.1432715 0.09168287 -0.3275125
v 0 0.05880195 -0.3320847
v 0.2481535 0.1815151 -0.3150208
v 0.286543 0.3042284 -0.2979569
v 0.1601555 0.04562346 -0.2212758
v 0 0.008593045 -0.2229924
v 0.2773974 0.1467923 -0.2165857
v 0.320311 0.2849915 -0.2101789
v 0.2773974 0.4158617 -0.2037719
v 0.1601555 0.4993345 -0.1990819
v 0.1691307 0.4980265 -0.1120459
v 0.2929429 0.415545 -0.1121404
v 0 0.5234177 -0.1120114
v -0.1691307 0.4980265 -0.1120459
v -0.2929429 0.415545 -0.1121404
v -0.2773974 0.4158617 -0.2037719
v -0.320311 0.2849915 -0.2101789
v -0.2773974 0.1467923 -0.2165857
v -0.1601555 0.04562346 -0.2212758
v 0 0.008593045 -0.2229924
v -0.3382613 0.280475 -0.1122693
v -0.2929429 0.1345287 -0.1123984
v -0.1691307 0.02759 -0.1124927
v 0 -0.01155227 -0.1125273
v -0.3492456 0.280369 0.005130577
v -0.3024556 0.1297767 0.005130577
v -0.1746228 0.01936542 0.005130577
v 0 -0.02104791 0.005130577
v -0.2929425 0.1346844 0.1229551
v -0.3382608 0.2806303 0.1226135
v -0.3024556 0.4181854 0.005130577
v -0.1746228 0.5000385 0.005130577
v 0 0.5243697 0.005130577
v 0.1746228 0.5000385 0.005130577
v 0.3024556 0.4181854 0.005130577
v 0.3382613 0.280475 -0.1122693
v 0.2929429 0.1345287 -0.1123984
v 0.1691307 0.02759 -0.1124927
v 0 -0.01155227 -0.1125273
v 0.1746228 0.01936542 0.005130577
v 0 -0.02104791 0.005130577
v 0.3024556 0.1297767 0.005130577
v 0.3492456 0.280369 0.005130577
v 0.1691304 0.4981435 0.1220221
v 0.2929425 0.4156861 0.1222721
v 0.1691304 0.02774615 0.1232051
v 0 -0.011396 0.1232965
v 0.2929425 0.1346844 0.1229551
v 0.3382608 0.2806303 0.1226135
v 0.1600588 0.5025688 0.2100493
v 0.2772299 0.4190516 0.2151387
v 0 0.529535 0.2081865
v 0 0.5235238 0.1219304
v -0.1691304 0.4981435 0.1220221
v -0.2929425 0.4156861 0.1222721
v -0.1600588 0.5025688 0.2100493
v -0.2772299 0.4190516 0.2151387
v -0.3201176 0.2884553 0.2220908
v -0.2772299 0.1503627 0.2290429
v -0.1600588 0.04927194 0.2341323
v -0.1691304 0.02774615 0.1232051
v 0 -0.011396 0.1232965
v 0 0.01227014 0.2359951
v -0.2471805 0.4293058 0.294767
v -0.1427098 0.5078005 0.2826907
v 0 0.534242 0.2782707
v 0.1427098 0.5078005 0.2826907
v 0.2471805 0.4293058 0.294767
v 0 0.06729011 0.3442563
v -0.1427098 0.1000582 0.339836
v 0.3201176 0.2884553 0.2220908
v 0.2772299 0.1503627 0.2290429
v 0.1600588 0.04927194 0.2341323
v 0 0.01227014 0.2359951
v 0.1427098 0.1000582 0.339836
v 0 0.06729011 0.3442563
v 0.2471805 0.1895822 0.3277598
v 0.2854195 0.3118743 0.3112634
v 0 0.1607601 0.4294929
v -0.1091416 0.1855085 0.424089
v -0.2471805 0.1895822 0.3277598
v -0.2854195 0.3118743 0.3112634
v -0.2182831 0.3454849 0.3891576
v -0.1890387 0.435388 0.3689899
v -0.1091416 0.4974149 0.3542262
v 0 0.5194565 0.3488223
v 0.1091416 0.4974149 0.3542262
v 0.1890387 0.435388 0.3689899
v -0.1890387 0.2531225 0.4093254
v 0.2182831 0.3454849 0.3891576
v 0.1890387 0.2531225 0.4093254
v 0.1091416 0.1855085 0.424089
v 0 0.1607601 0.4294929
v 0.05931048 0.4584608 0.4194564
v 0.1027288 0.42371 0.4294398
v 0 0.471147 0.4158023
v -0.05931048 0.2886842 0.4666985
v -0.1027288 0.3250052 0.456715
v -0.118621 0.3746205 0.4430775
v -0.1027288 0.42371 0.4294398
v -0.05931048 0.4584608 0.4194564
v 0 0.385954 0.4622832
v 0 0.385954 0.4622832
v 0 0.385954 0.4622832
v 0 0.2753899 0.4703526
v 0.118621 0.3746205 0.4430775
v 0.1027288 0.3250052 0.456715
v 0.05931048 0.2886842 0.4666985
v 0 0.2753899 0.4703526
v 0 0.385954 0.4622832
v 0 0.385954 0.4622832
v 0 0.4084266 -0.4520221
v 0 0.4084266 -0.4520221
v 0 0.4084266 -0.4520221
v 0 0.4084266 -0.4520221
v 0 0.4084266 -0.4520221
vt 0.7606385 0.429076
vt 0.7052587 0.397462
vt 0.6962253 0.440796
vt 0.7491536 0.456708
vt 0.6958458 0.488276
vt 0.7468809 0.486596
vt 0.7009167 0.534966
vt 0.7513362 0.515745
vt 0.7150564 0.576246
vt 0.7640495 0.541746
vt 0.7435353 0.611944
vt 0.7879462 0.562631
vt 0.7910446 0.642761
vt 0.8246531 0.576353
vt 0.8653989 0.666963
vt 0.8746084 0.579294
vt 0.9806655 0.678012
vt 0.9361142 0.565747
vt 0.6559531 0.489449
vt 0.6603756 0.54693
vt 0.6710415 0.597388
vt 0.6948372 0.643791
vt 0.7382037 0.69083
vt 0.8129839 0.742067
vt 0.9446261 0.801558
vt 0.6207654 0.554021
vt 0.6168807 0.490739
vt 0.6535862 0.431246
vt 0.6568471 0.378932
vt 0.7292099 0.357758
vt 0.7845869 0.406197
vt 0.8229291 0.390005
vt 0.7739811 0.31972
vt 0.8785764 0.38402
vt 0.8502518 0.282822
vt 0.9558817 0.396539
vt 0.9812689 0.250597
vt 0.7712716 0.206126
vt 0.8931953 0.115843
vt 0.7067246 0.273267
vt 0.6724979 0.328475
vt 0.6732923 0.16222
vt 0.7508079 0.035552
vt 0.6342118 0.248357
vt 0.6158447 0.314069
vt 0.6100244 0.370287
vt 0.6122903 0.426885
vt 0.5616811 0.425965
vt 0.5559537 0.367924
vt 0.5675055 0.492607
vt 0.5714571 0.558933
vt 0.5755875 0.616226
vt 0.6273391 0.609186
vt 0.6435523 0.662228
vt 0.6758394 0.721424
vt 0.7352923 0.794769
vt 0.8454389 0.896616
vt 0.585029 0.672605
vt 0.6045591 0.739704
vt 0.6416537 0.828151
vt 0.7122869 0.958124
vt 0.5139152 0.678233
vt 0.5206268 0.748873
vt 0.5313064 0.844687
vt 0.550532 0.990096
vt 0.4344327 0.748104
vt 0.4416057 0.678344
vt 0.5091951 0.620684
vt 0.5051548 0.56282
vt 0.5005275 0.495262
vt 0.4948383 0.427665
vt 0.4885813 0.369751
vt 0.5536237 0.309801
vt 0.5564041 0.23908
vt 0.5673935 0.143635
vt 0.5931738 0
vt 0.4521979 0.145698
vt 0.4215406 0.0002680123
vt 0.4698129 0.241503
vt 0.4809155 0.31217
vt 0.4291066 0.432619
vt 0.422582 0.375893
vt 0.3423979 0.166921
vt 0.2604217 0.03960499
vt 0.3862737 0.253781
vt 0.4101566 0.320022
vt 0.3804698 0.438845
vt 0.3713422 0.3852
vt 0.3858001 0.499876
vt 0.4343454 0.497938
vt 0.4390559 0.563499
vt 0.4423455 0.620862
vt 0.3892029 0.561383
vt 0.3888822 0.616298
vt 0.3799689 0.670864
vt 0.3572857 0.7345
vt 0.3114472 0.817473
vt 0.4166471 0.842016
vt 0.3795839 0.98337
vt 0.2220386 0.939041
vt 0.3430381 0.605365
vt 0.3480653 0.555853
vt 0.3465202 0.501231
vt 0.3409565 0.447178
vt 0.3284042 0.399287
vt 0.08806357 0.849664
vt 0.218779 0.767711
vt 0.3521916 0.333585
vt 0.315841 0.276281
vt 0.2502253 0.206128
vt 0.1295888 0.110251
vt 0.1783471 0.263889
vt 0.04067028 0.212387
vt 0.2568673 0.310929
vt 0.3027127 0.355247
vt 0.01873106 0.720761
vt 0.1508565 0.693977
vt 0.2882248 0.705299
vt 0.3253822 0.653178
vt 0.2721263 0.624636
vt 0.2957554 0.587166
vt 0.3047533 0.546565
vt 0.3051614 0.50248
vt 0.2995992 0.459048
vt 0.2852219 0.420289
vt 0.2275572 0.660338
vt 0.2569492 0.38658
vt 0.20962 0.357712
vt 0.1349027 0.336048
vt 0.01873106 0.32938
vt 0.2476673 0.476736
vt 0.2353716 0.451741
vt 0.2521254 0.504474
vt 0.1239611 0.603578
vt 0.1790433 0.597707
vt 0.2163084 0.581803
vt 0.2392522 0.559462
vt 0.2500711 0.532902
vt 0.1498492 0.504418
vt 0.1498492 0.504418
vt 0.1498492 0.504418
vt 0.04655471 0.590758
vt 0.2120524 0.431319
vt 0.175886 0.417934
vt 0.1259785 0.415392
vt 0.06407824 0.429707
vt 0.1498492 0.504418
vt 0.1498492 0.504418
vt 0.8469949 0.486916
vt 0.8469949 0.486916
vt 0.8469949 0.486916
vt 0.8469949 0.486916
vt 0.8469949 0.486916
vn 0.4195002 0.5783139 -0.6996948
vn 0.6123074 0.5864639 -0.5302261
vn 0.3282328 0.8734345 -0.359688
vn 0.2279623 0.7779201 -0.585554
vn 0 0.9569348 -0.2903032
vn 0 0.8388123 -0.5444205
vn -0.328267 0.8733639 -0.3598281
vn -0.2281101 0.777752 -0.5857197
vn -0.6122546 0.5865218 -0.530223
vn -0.4194965 0.5782035 -0.6997882
vn -0.7100847 0.1662712 -0.6842028
vn -0.487985 0.2899467 -0.823287
vn -0.5929045 -0.2222105 -0.7740069
vn -0.4133983 0.0195849 -0.9103397
vn -0.3274478 -0.4800754 -0.8138216
vn -0.2325347 -0.1664692 -0.9582357
vn 0 -0.5670374 -0.823692
vn 0 -0.2316198 -0.9728064
vn 0 0.9964356 -0.08435633
vn -0.3826959 0.9096636 -0.1614187
vn -0.7500491 0.5692074 -0.3367927
vn -0.8788187 0.04153661 -0.4753446
vn -0.7214595 -0.4320152 -0.5411645
vn -0.3900578 -0.7285532 -0.5630854
vn 0 -0.8238918 -0.5667471
vn -0.377163 0.924799 -0.04995022
vn 0 0.9999835 0.005731678
vn 0.3826959 0.9096636 -0.1614187
vn 0.7500491 0.5692074 -0.3367927
vn 0.7100872 0.1662615 -0.6842026
vn 0.4880063 0.2898595 -0.8233051
vn 0.4133983 0.0195849 -0.9103397
vn 0.5929045 -0.2222105 -0.7740069
vn 0.2325347 -0.1664692 -0.9582357
vn 0.3274478 -0.4800754 -0.8138216
vn 0 -0.2316198 -0.9728064
vn 0 -0.5670374 -0.823692
vn 0.3900578 -0.7285532 -0.5630854
vn 0 -0.8238918 -0.5667471
vn 0.7214595 -0.4320152 -0.5411645
vn 0.8788191 0.04153664 -0.4753438
vn 0.4231271 -0.8567746 -0.2947895
vn 0 -0.9556103 -0.2946336
vn 0.7905584 -0.5399069 -0.288995
vn 0.9656045 -0.01647808 -0.2594927
vn 0.7992723 0.5751243 -0.174344
vn 0.3771639 0.9247985 -0.0499502
vn 0.3514015 0.9356971 -0.03142839
vn 0.7929386 0.6019985 -0.09405348
vn 0 0.9999958 -0.002906438
vn -0.3514015 0.9356971 -0.03142839
vn -0.7929386 0.6019985 -0.09405348
vn -0.7992723 0.5751243 -0.174344
vn -0.9656045 -0.01647808 -0.2594927
vn -0.7905584 -0.5399069 -0.288995
vn -0.4231271 -0.8567746 -0.2947895
vn 0 -0.9556103 -0.2946336
vn -0.9915337 -0.008609387 -0.1295638
vn -0.8202752 -0.5562539 -0.1331548
vn -0.4397407 -0.888832 -0.1288627
vn 0 -0.9919566 -0.1265784
vn -0.9999995 -0.001011999 1.082472E-05
vn -0.8309828 -0.5562979 0.0003647931
vn -0.4460968 -0.8949845 0.0005845348
vn 0 -0.9999998 0.0006527308
vn -0.8177641 -0.5580664 0.1407968
vn -0.9914353 -0.01276517 0.1299726
vn -0.7906454 0.6122742 -0.0003377315
vn -0.3444059 0.9388207 -0.0004730403
vn 0 0.9999999 -0.0004762879
vn 0.3444059 0.9388207 -0.0004730403
vn 0.7906454 0.6122742 -0.0003377315
vn 0.9915337 -0.008609387 -0.1295638
vn 0.8202752 -0.5562539 -0.1331548
vn 0.4397407 -0.888832 -0.1288627
vn 0 -0.9919566 -0.1265784
vn 0.4460968 -0.8949845 0.0005845348
vn 0 -0.9999998 0.0006527308
vn 0.8309828 -0.5562979 0.0003647931
vn 0.9999995 -0.001011999 1.082472E-05
vn 0.3531241 0.935412 0.01754324
vn 0.7958223 0.5993674 0.08617197
vn 0.4378051 -0.8879833 0.140757
vn 0 -0.9901865 0.1397524
vn 0.8177641 -0.5580664 0.1407968
vn 0.9914353 -0.01276417 0.1299726
vn 0.3796107 0.9250788 0.01117427
vn 0.802317 0.5767833 0.1536502
vn 0 0.9987491 -0.05000107
vn 0 0.9999177 -0.01283039
vn -0.3531241 0.935412 0.01754324
vn -0.7958223 0.5993674 0.08617197
vn -0.3796107 0.9250788 0.01117427
vn -0.802317 0.5767833 0.1536502
vn -0.9650273 -0.01494142 0.2617234
vn -0.7870231 -0.5348592 0.3074416
vn -0.4205259 -0.8483876 0.3215531
vn -0.4378051 -0.8879833 0.140757
vn 0 -0.9901865 0.1397524
vn 0 -0.9461492 0.3237309
vn -0.7470536 0.5784346 0.3276038
vn -0.380453 0.9132339 0.1458054
vn 0 0.9975396 0.07010489
vn 0.380453 0.9132339 0.1458054
vn 0.7470536 0.5784346 0.3276038
vn 0 -0.8122762 0.583273
vn -0.3873964 -0.7177072 0.5786366
vn 0.9650273 -0.01494142 0.2617234
vn 0.7870231 -0.5348592 0.3074416
vn 0.4205259 -0.8483876 0.3215531
vn 0 -0.9461492 0.3237309
vn 0.3873964 -0.7177072 0.5786366
vn 0 -0.8122762 0.583273
vn 0.7178255 -0.4229228 0.5530488
vn 0.8762545 0.05026309 0.4792199
vn 0 -0.5690807 0.8222817
vn -0.3185991 -0.4841677 0.8149087
vn -0.7178255 -0.4229228 0.5530488
vn -0.8762545 0.05026309 0.4792199
vn -0.6915243 0.1507753 0.7064425
vn -0.5947145 0.5655931 0.5713311
vn -0.3181999 0.8481902 0.4234644
vn 0 0.9310562 0.3648756
vn 0.3181999 0.8481902 0.4234644
vn 0.5947145 0.5655931 0.5713311
vn -0.5773433 -0.2316496 0.7829515
vn 0.6915243 0.1507753 0.7064425
vn 0.5773433 -0.2316496 0.7829515
vn 0.3185991 -0.4841677 0.8149087
vn 0 -0.5690807 0.8222817
vn 0.2127355 0.6844779 0.6973045
vn 0.385122 0.4943173 0.7793148
vn 0 0.7458628 0.6660997
vn -0.2144902 -0.1977619 0.9564958
vn -0.3800071 -0.02330709 0.9246899
vn -0.446912 0.2277308 0.8651059
vn -0.385122 0.4943173 0.7793148
vn -0.2127355 0.6844779 0.6973045
vn 0 0.277349 0.9607692
vn 0 0.277349 0.9607692
vn 0 0.277349 0.9607692
vn 0 -0.2591089 0.9658481
vn 0.446912 0.2277299 0.8651062
vn 0.3800071 -0.02330709 0.9246899
vn 0.2144902 -0.1977619 0.9564958
vn 0 -0.2591089 0.9658481
vn 0 0.277349 0.9607692
vn 0 0.277349 0.9607692
vn -2.806899E-05 0.3872745 -0.9219645
vn -2.806899E-05 0.3872745 -0.9219645
vn -2.806899E-05 0.3872745 -0.9219645
vn -2.806899E-05 0.3872745 -0.9219645
vn -2.806899E-05 0.3872745 -0.9219645
g Potato_0
f 3/3/3 2/2/2 1/1/1
f 4/4/4 3/3/3 1/1/1
f 5/5/5 3/3/3 4/4/4
f 6/6/6 5/5/5 4/4/4
f 7/7/7 5/5/5 6/6/6
f 8/8/8 7/7/7 6/6/6
f 9/9/9 7/7/7 8/8/8
f 10/10/10 9/9/9 8/8/8
f 11/11/11 9/9/9 10/10/10
f 12/12/12 11/11/11 10/10/10
f 13/13/13 11/11/11 12/12/12
f 14/14/14 13/13/13 12/12/12
f 15/15/15 13/13/13 14/14/14
f 16/16/16 15/15/15 14/14/14
f 17/17/17 15/15/15 16/16/16
f 18/18/18 17/17/17 16/16/16
f 5/5/5 19/19/19 3/3/3
f 20/20/20 19/19/19 5/5/5
f 7/7/7 20/20/20 5/5/5
f 21/21/21 20/20/20 7/7/7
f 9/9/9 21/21/21 7/7/7
f 22/22/22 21/21/21 9/9/9
f 11/11/11 22/22/22 9/9/9
f 23/23/23 22/22/22 11/11/11
f 13/13/13 23/23/23 11/11/11
f 24/24/24 23/23/23 13/13/13
f 15/15/15 24/24/24 13/13/13
f 25/25/25 24/24/24 15/15/15
f 17/17/17 25/25/25 15/15/15
f 20/20/20 26/26/26 19/19/19
f 26/26/26 27/27/27 19/19/19
f 19/19/19 27/27/27 28/28/28
f 19/19/19 28/28/28 3/3/3
f 3/3/3 28/28/28 2/2/2
f 28/28/28 29/29/29 2/2/2
f 2/2/2 29/29/29 30/30/30
f 2/2/2 30/30/30 31/31/31
f 31/31/31 30/30/30 32/32/32
f 30/30/30 33/33/33 32/32/32
f 32/32/32 33/33/33 34/34/34
f 33/33/33 35/35/35 34/34/34
f 34/34/34 35/35/35 36/36/36
f 35/35/35 37/37/37 36/36/36
f 1/1/1 2/2/2 31/31/31
f 35/35/35 38/38/38 37/37/37
f 38/38/38 39/39/39 37/37/37
f 40/40/40 38/38/38 35/35/35
f 33/33/33 40/40/40 35/35/35
f 41/41/41 40/40/40 33/33/33
f 30/30/30 41/41/41 33/33/33
f 29/29/29 41/41/41 30/30/30
f 38/38/38 42/42/42 39/39/39
f 42/42/42 43/43/43 39/39/39
f 44/44/44 42/42/42 38/38/38
f 40/40/40 44/44/44 38/38/38
f 45/45/45 44/44/44 40/40/40
f 41/41/41 45/45/45 40/40/40
f 46/46/46 45/45/45 41/41/41
f 29/29/29 46/46/46 41/41/41
f 47/47/47 46/46/46 29/29/29
f 28/28/28 47/47/47 29/29/29
f 27/27/27 47/47/47 28/28/28
f 47/47/47 48/48/48 46/46/46
f 48/48/48 49/49/49 46/46/46
f 46/46/46 49/49/49 45/45/45
f 50/50/50 48/48/48 47/47/47
f 27/27/27 50/50/50 47/47/47
f 51/51/51 50/50/50 27/27/27
f 26/26/26 51/51/51 27/27/27
f 52/52/52 51/51/51 26/26/26
f 53/53/53 52/52/52 26/26/26
f 53/53/53 26/26/26 20/20/20
f 21/21/21 53/53/53 20/20/20
f 54/54/54 53/53/53 21/21/21
f 22/22/22 54/54/54 21/21/21
f 55/55/55 54/54/54 22/22/22
f 23/23/23 55/55/55 22/22/22
f 56/56/56 55/55/55 23/23/23
f 24/24/24 56/56/56 23/23/23
f 57/57/57 56/56/56 24/24/24
f 25/25/25 57/57/57 24/24/24
f 58/58/58 52/52/52 53/53/53
f 54/54/54 58/58/58 53/53/53
f 59/59/59 58/58/58 54/54/54
f 55/55/55 59/59/59 54/54/54
f 60/60/60 59/59/59 55/55/55
f 56/56/56 60/60/60 55/55/55
f 61/61/61 60/60/60 56/56/56
f 57/57/57 61/61/61 56/56/56
f 58/58/58 62/62/62 52/52/52
f 63/63/63 62/62/62 58/58/58
f 59/59/59 63/63/63 58/58/58
f 64/64/64 63/63/63 59/59/59
f 60/60/60 64/64/64 59/59/59
f 65/65/65 64/64/64 60/60/60
f 61/61/61 65/65/65 60/60/60
f 63/63/63 66/66/66 62/62/62
f 66/66/66 67/67/67 62/62/62
f 62/62/62 67/67/67 68/68/68
f 62/62/62 68/68/68 52/52/52
f 52/52/52 68/68/68 51/51/51
f 68/68/68 69/69/69 51/51/51
f 51/51/51 69/69/69 50/50/50
f 69/69/69 70/70/70 50/50/50
f 50/50/50 70/70/70 48/48/48
f 70/70/70 71/71/71 48/48/48
f 48/48/48 71/71/71 49/49/49
f 71/71/71 72/72/72 49/49/49
f 49/49/49 72/72/72 73/73/73
f 49/49/49 73/73/73 45/45/45
f 45/45/45 73/73/73 44/44/44
f 73/73/73 74/74/74 44/44/44
f 44/44/44 74/74/74 42/42/42
f 74/74/74 75/75/75 42/42/42
f 42/42/42 75/75/75 43/43/43
f 75/75/75 76/76/76 43/43/43
f 75/75/75 77/77/77 76/76/76
f 77/77/77 78/78/78 76/76/76
f 79/79/79 77/77/77 75/75/75
f 74/74/74 79/79/79 75/75/75
f 80/80/80 79/79/79 74/74/74
f 73/73/73 80/80/80 74/74/74
f 72/72/72 80/80/80 73/73/73
f 71/71/71 81/81/81 72/72/72
f 81/81/81 82/82/82 72/72/72
f 72/72/72 82/82/82 80/80/80
f 77/77/77 83/83/83 78/78/78
f 83/83/83 84/84/84 78/78/78
f 85/85/85 83/83/83 77/77/77
f 79/79/79 85/85/85 77/77/77
f 86/86/86 85/85/85 79/79/79
f 80/80/80 86/86/86 79/79/79
f 82/82/82 86/86/86 80/80/80
f 81/81/81 87/87/87 82/82/82
f 87/87/87 88/88/88 82/82/82
f 82/82/82 88/88/88 86/86/86
f 89/89/89 87/87/87 81/81/81
f 90/90/90 89/89/89 81/81/81
f 90/90/90 81/81/81 71/71/71
f 70/70/70 90/90/90 71/71/71
f 91/91/91 90/90/90 70/70/70
f 69/69/69 91/91/91 70/70/70
f 92/92/92 91/91/91 69/69/69
f 68/68/68 92/92/92 69/69/69
f 67/67/67 92/92/92 68/68/68
f 93/93/93 89/89/89 90/90/90
f 91/91/91 93/93/93 90/90/90
f 94/94/94 93/93/93 91/91/91
f 92/92/92 94/94/94 91/91/91
f 95/95/95 94/94/94 92/92/92
f 67/67/67 95/95/95 92/92/92
f 96/96/96 95/95/95 67/67/67
f 66/66/66 96/96/96 67/67/67
f 97/97/97 96/96/96 66/66/66
f 98/98/98 97/97/97 66/66/66
f 98/98/98 66/66/66 63/63/63
f 64/64/64 98/98/98 63/63/63
f 99/99/99 98/98/98 64/64/64
f 65/65/65 99/99/99 64/64/64
f 100/100/100 97/97/97 98/98/98
f 99/99/99 100/100/100 98/98/98
f 94/94/94 101/101/101 93/93/93
f 101/101/101 102/102/102 93/93/93
f 93/93/93 102/102/102 89/89/89
f 102/102/102 103/103/103 89/89/89
f 89/89/89 103/103/103 87/87/87
f 103/103/103 104/104/104 87/87/87
f 87/87/87 104/104/104 88/88/88
f 104/104/104 105/105/105 88/88/88
f 100/100/100 106/106/106 97/97/97
f 106/106/106 107/107/107 97/97/97
f 88/88/88 105/105/105 108/108/108
f 88/88/88 108/108/108 86/86/86
f 86/86/86 108/108/108 85/85/85
f 108/108/108 109/109/109 85/85/85
f 85/85/85 109/109/109 83/83/83
f 109/109/109 110/110/110 83/83/83
f 83/83/83 110/110/110 84/84/84
f 110/110/110 111/111/111 84/84/84
f 110/110/110 112/112/112 111/111/111
f 112/112/112 113/113/113 111/111/111
f 114/114/114 112/112/112 110/110/110
f 109/109/109 114/114/114 110/110/110
f 115/115/115 114/114/114 109/109/109
f 108/108/108 115/115/115 109/109/109
f 105/105/105 115/115/115 108/108/108
f 106/106/106 116/116/116 107/107/107
f 116/116/116 117/117/117 107/107/107
f 107/107/107 117/117/117 118/118/118
f 107/107/107 118/118/118 96/96/96
f 96/96/96 118/118/118 95/95/95
f 118/118/118 119/119/119 95/95/95
f 95/95/95 119/119/119 94/94/94
f 119/119/119 101/101/101 94/94/94
f 97/97/97 107/107/107 96/96/96
f 119/119/119 120/120/120 101/101/101
f 120/120/120 121/121/121 101/101/101
f 101/101/101 121/121/121 102/102/102
f 121/121/121 122/122/122 102/102/102
f 102/102/102 122/122/122 103/103/103
f 122/122/122 123/123/123 103/103/103
f 103/103/103 123/123/123 104/104/104
f 123/123/123 124/124/124 104/104/104
f 104/104/104 124/124/124 105/105/105
f 124/124/124 125/125/125 105/105/105
f 126/126/126 120/120/120 119/119/119
f 118/118/118 126/126/126 119/119/119
f 117/117/117 126/126/126 118/118/118
f 105/105/105 125/125/125 115/115/115
f 125/125/125 127/127/127 115/115/115
f 115/115/115 127/127/127 114/114/114
f 127/127/127 128/128/128 114/114/114
f 114/114/114 128/128/128 112/112/112
f 128/128/128 129/129/129 112/112/112
f 112/112/112 129/129/129 113/113/113
f 129/129/129 130/130/130 113/113/113
f 124/124/124 131/131/131 125/125/125
f 131/131/131 132/132/132 125/125/125
f 125/125/125 132/132/132 127/127/127
f 133/133/133 131/131/131 124/124/124
f 117/117/117 134/134/134 126/126/126
f 134/134/134 135/135/135 126/126/126
f 126/126/126 135/135/135 120/120/120
f 135/135/135 136/136/136 120/120/120
f 120/120/120 136/136/136 121/121/121
f 136/136/136 137/137/137 121/121/121
f 121/121/121 137/137/137 122/122/122
f 137/137/137 138/138/138 122/122/122
f 138/138/138 133/133/133 123/123/123
f 122/122/122 138/138/138 123/123/123
f 123/123/123 133/133/133 124/124/124
f 131/131/131 139/139/139 132/132/132
f 133/133/133 139/139/139 131/131/131
f 138/138/138 139/139/139 133/133/133
f 137/137/137 139/139/139 138/138/138
f 136/136/136 139/139/139 137/137/137
f 135/135/135 140/140/140 136/136/136
f 134/134/134 141/141/141 135/135/135
f 142/142/142 141/141/141 134/134/134
f 142/142/142 134/134/134 117/117/117
f 116/116/116 142/142/142 117/117/117
f 132/132/132 139/139/139 143/143/143
f 132/132/132 143/143/143 127/127/127
f 127/127/127 143/143/143 128/128/128
f 143/143/143 144/144/144 128/128/128
f 128/128/128 144/144/144 129/129/129
f 144/144/144 145/145/145 129/129/129
f 129/129/129 145/145/145 130/130/130
f 145/145/145 146/146/146 130/130/130
f 145/145/145 147/147/147 146/146/146
f 144/144/144 147/147/147 145/145/145
f 143/143/143 148/148/148 144/144/144
f 1/1/1 149/149/149 4/4/4
f 4/4/4 149/149/149 6/6/6
f 6/6/6 149/149/149 8/8/8
f 8/8/8 149/149/149 10/10/10
f 10/10/10 149/149/149 12/12/12
f 31/31/31 149/149/149 1/1/1
f 12/12/12 150/150/150 14/14/14
f 14/14/14 151/151/151 16/16/16
f 16/16/16 151/151/151 18/18/18
f 32/32/32 152/152/152 31/31/31
f 34/34/34 153/153/153 32/32/32
f 36/36/36 153/153/153 34/34/34
