g Hat_Tall
v -0.21982753 1.126263 0.12515447
v -0.24192248 1.5363299 -0.100718655
v -0.14118247 1.5733316 -0.04215846
v -0.1244855 1.1584412 0.17035942
v -0.026560178 1.5872017 -0.019034147
v -0.024224428 1.172503 0.19024113
v -0.27406317 1.0618727 0.034993142
v -0.29389724 1.4665719 -0.2120164
v -0.30392405 0.9908186 -0.0643372
v -0.31276673 1.3937346 -0.32514334
v -0.2890949 0.9193092 -0.16440116
v -0.2928802 1.318011 -0.43891615
v -0.22839755 0.85146505 -0.259143
v -0.23194279 1.2465856 -0.53568244
v -0.11307875 0.8223066 -0.2996681
v -0.11879644 1.2121472 -0.5776426
v 0.0012194205 0.81205565 -0.31375533
v 0.0019340372 1.2000606 -0.59451455
v 0.07769564 1.1630628 0.17726108
v 0.089884974 1.5786135 -0.034270752
v 0.17726608 1.1353402 0.13870965
v 0.19596557 1.5463396 -0.08577093
v 0.24040286 1.073633 0.05255494
v 0.2585347 1.4792 -0.19315863
v 0.28017613 1.0041705 -0.044398367
v 0.28837535 1.4074761 -0.3046228
v 0.27548072 0.9322148 -0.14512883
v 0.27976635 1.3311011 -0.41936833
v 0.2245417 0.86181885 -0.24368148
v 0.22888947 1.2571198 -0.5199515
v 0.11370442 0.82749057 -0.29192665
v 0.120556094 1.2176186 -0.56947213
v 0.0012194205 0.81205565 -0.31375533
v 0.0019340372 1.2000606 -0.59451455
v -0.19945651 1.5522679 -0.17174654
v -0.24266642 1.4942343 -0.26435733
v -0.13177362 1.5359551 -0.25527
v -0.11514334 1.583202 -0.1214567
v -0.018090881 1.5505286 -0.24258102
v -0.023913559 1.5952165 -0.101932846
v -0.13249551 1.466705 -0.37279812
v -0.25671306 1.431528 -0.36165896
v -0.011965277 1.4771472 -0.37288877
v -0.122523956 1.3852997 -0.48001507
v -0.23815696 1.3679416 -0.456472
v -0.006035526 1.3878555 -0.486805
v -0.09512159 1.2837487 -0.566383
v -0.18759845 1.3121665 -0.53036475
v -0.00020314693 1.2734306 -0.5810383
v -0.24192248 1.5363299 -0.100718655
v -0.14118247 1.5733316 -0.04215846
v -0.026560178 1.5872017 -0.019034147
v -0.2928802 1.318011 -0.43891615
v -0.31276673 1.3937346 -0.32514334
v -0.29389724 1.4665719 -0.2120164
v -0.11879644 1.2121472 -0.5776426
v -0.23194279 1.2465856 -0.53568244
v 0.0019340372 1.2000606 -0.59451455
v 0.10971422 1.3906084 -0.47208744
v 0.108629204 1.4722167 -0.36456707
v 0.23327446 1.4427284 -0.34493273
v 0.20978138 1.5045767 -0.24891257
v 0.096738756 1.5411786 -0.24746951
v 0.15775633 1.5604335 -0.15955274
v 0.06888782 1.5874087 -0.115174614
v 0.22414516 1.3785093 -0.44069088
v 0.09292565 1.2880473 -0.5599638
v 0.181339 1.3205999 -0.5177707
v 0.19596557 1.5463396 -0.08577093
v 0.089884974 1.5786135 -0.034270752
v 0.2585347 1.4792 -0.19315863
v 0.28837535 1.4074761 -0.3046228
v 0.27976635 1.3311011 -0.41936833
v 0.120556094 1.2176186 -0.56947213
v 0.22888947 1.2571198 -0.5199515
v -0.22839755 0.85146505 -0.259143
v -0.2890949 0.9193092 -0.16440116
v -0.14679769 0.9052912 -0.18369529
v -0.11307875 0.8223066 -0.2996681
v -0.005104929 0.90164876 -0.1884814
v 0.0012194205 0.81205565 -0.31375533
v -0.1586126 0.9941402 -0.059376843
v -0.30392405 0.9908186 -0.0643372
v -0.0118739605 0.9974946 -0.054367788
v -0.14708616 1.0792472 0.059565373
v -0.27406317 1.0618727 0.034993142
v -0.018308174 1.088691 0.07305089
v -0.1244855 1.1584412 0.17035942
v -0.21982753 1.126263 0.12515447
v -0.024224428 1.172503 0.19024113
v 0.11370442 0.82749057 -0.29192665
v 0.13561788 0.911747 -0.17405477
v 0.2245417 0.86181885 -0.24368148
v 0.27548072 0.9322148 -0.14512883
v 0.13486467 1.0008488 -0.049358714
v 0.28017613 1.0041705 -0.044398367
v 0.11138599 1.0851557 0.06838857
v 0.24040286 1.073633 0.05255494
v 0.07769564 1.1630628 0.17726108
v 0.17726608 1.1353402 0.13870965
vt 0.26340368 0.24046516
vt 0.26340368 0.43735957
vt 0.3027761 0.43715674
vt 0.30333948 0.24046504
vt 0.33849972 0.4362745
vt 0.3385656 0.2403172
vt 0.22221987 0.24046516
vt 0.22221987 0.43735957
vt 0.18028963 0.24046493
vt 0.18028963 0.43735957
vt 0.13899775 0.24046504
vt 0.13899775 0.43735957
vt 0.095215425 0.24046516
vt 0.095215425 0.43735957
vt 0.053342715 0.24046516
vt 0.053342715 0.43735957
vt 0.014817374 0.24046516
vt 0.014817374 0.43735957
vt 0.3736007 0.24046504
vt 0.3741639 0.43715674
vt 0.41353664 0.24046516
vt 0.41353664 0.43735957
vt 0.45472 0.24046516
vt 0.45472 0.43735957
vt 0.49665043 0.24046493
vt 0.49665043 0.43735957
vt 0.53794223 0.24046504
vt 0.53794223 0.43735957
vt 0.58172435 0.24046516
vt 0.58172435 0.43735957
vt 0.62359744 0.24046516
vt 0.62359744 0.43735957
vt 0.66212255 0.24046516
vt 0.66212255 0.43735957
vt 0.28370818 0.47367358
vt 0.27179617 0.50776553
vt 0.30527896 0.49915385
vt 0.30905128 0.4560618
vt 0.33842504 0.49466482
vt 0.33842504 0.44998673
vt 0.30506897 0.54231155
vt 0.26786372 0.54431355
vt 0.33842504 0.5419774
vt 0.305772 0.5851909
vt 0.27159905 0.5808064
vt 0.33842504 0.58799267
vt 0.31076807 0.62663275
vt 0.28359357 0.61086756
vt 0.33842504 0.63356465
vt 0.26951936 0.45771137
vt 0.3027761 0.43715674
vt 0.33849972 0.4362745
vt 0.24965024 0.5847837
vt 0.24582541 0.5411309
vt 0.25070888 0.4986844
vt 0.30300975 0.64427406
vt 0.26839343 0.6237828
vt 0.3384698 0.6524424
vt 0.37116787 0.5851909
vt 0.37187096 0.54231155
vt 0.40907624 0.54431355
vt 0.40514353 0.50776553
vt 0.37166104 0.49915385
vt 0.39323178 0.47367358
vt 0.36788878 0.4560618
vt 0.40534094 0.5808064
vt 0.3661717 0.62663275
vt 0.3933464 0.61086756
vt 0.40742067 0.45771137
vt 0.3741639 0.43715674
vt 0.42623106 0.4986844
vt 0.43111464 0.5411309
vt 0.4272898 0.5847837
vt 0.37393036 0.64427406
vt 0.40854678 0.6237828
vt 0.04968384 0.81180346
vt 0.031996876 0.8412405
vt 0.06987052 0.83729553
vt 0.08079076 0.79859173
vt 0.10913906 0.8351289
vt 0.1089887 0.7917204
vt 0.062868744 0.8841695
vt 0.019906014 0.8834148
vt 0.10913906 0.8841695
vt 0.06831615 0.9294652
vt 0.028479367 0.9217346
vt 0.10913906 0.93293726
vt 0.077075675 0.97149086
vt 0.04674433 0.95546705
vt 0.10915539 0.97803557
vt 0.14020468 0.79708314
vt 0.14810765 0.83654135
vt 0.16785467 0.81255794
vt 0.18748994 0.8412405
vt 0.1551093 0.8841695
vt 0.200335 0.8841695
vt 0.15267944 0.9287105
vt 0.19553337 0.9179626
vt 0.14391953 0.97073656
vt 0.17726827 0.9539583
vn -0.7757581 0.2737417 0.56856394
vn -0.7678695 0.2782968 0.57699865
vn -0.39158937 0.41175592 0.8228699
vn -0.39362848 0.41134843 0.8221004
vn -0.040735796 0.44940376 0.8923995
vn -0.04073578 0.44940388 0.8923995
vn -0.95510346 0.12048805 0.2706655
vn -0.9537977 0.12228097 0.27444008
vn -0.9994779 -0.007581354 0.03140982
vn -0.99934524 -0.0050461288 0.03582842
vn -0.9530784 -0.1797503 -0.24358056
vn -0.95401955 -0.17807919 -0.24111106
vn -0.6963017 -0.417131 -0.5840938
vn -0.7034589 -0.41307172 -0.5783748
vn -0.29257485 -0.5568789 -0.7773582
vn -0.2957389 -0.5562701 -0.7765965
vn 0.041024372 -0.5838272 -0.8108407
vn 0.041024398 -0.5838272 -0.8108407
vn 0.3174956 0.42760396 0.8463754
vn 0.3153924 0.42791665 0.8470036
vn 0.7218983 0.30797657 0.61968803
vn 0.71325356 0.3121537 0.6275583
vn 0.9279381 0.16353226 0.3349449
vn 0.92629755 0.16525783 0.33861887
vn 0.99431497 0.03799452 0.0994699
vn 0.99376583 0.040514167 0.10386525
vn 0.9746722 -0.13568406 -0.17777488
vn 0.97536564 -0.13397561 -0.17524964
vn 0.75280356 -0.38400614 -0.53462714
vn 0.75936145 -0.37963328 -0.52844006
vn 0.3699877 -0.54173356 -0.75474095
vn 0.37306142 -0.5409821 -0.75376624
vn 0.041024372 -0.5838272 -0.8108407
vn 0.041024398 -0.5838272 -0.8108407
vn -0.38559455 0.8940537 -0.2280018
vn -0.44600844 0.80979306 -0.3811977
vn -0.15339893 0.8906221 -0.42809
vn -0.17807442 0.97018754 -0.16439445
vn -0.007000542 0.9135489 -0.40666878
vn -0.017703174 0.98942626 -0.14395282
vn -0.1625886 0.8186761 -0.55075806
vn -0.4498296 0.7379251 -0.5031101
vn -5.035388E-05 0.8315894 -0.5553909
vn -0.13304624 0.72740716 -0.6731845
vn -0.42199802 0.64737576 -0.63468283
vn 0.0072047496 0.7204272 -0.693493
vn -0.13768768 0.47712487 -0.86798275
vn -0.32358217 0.50278246 -0.8015636
vn 0.019462787 0.4679705 -0.8835298
vn -0.47592866 0.87503326 -0.0883671
vn -0.247842 0.9678534 0.042826302
vn -0.025776558 0.99575955 0.08830971
vn -0.6353736 0.4940112 -0.5935093
vn -0.677745 0.61574775 -0.40189117
vn -0.640531 0.7262337 -0.2496091
vn -0.20750973 0.22065017 -0.95302314
vn -0.44287094 0.34708017 -0.8266805
vn 0.029144865 0.19038962 -0.9812759
vn 0.14528061 0.7337697 -0.66368335
vn 0.1622139 0.82610077 -0.5396704
vn 0.4489246 0.75846964 -0.47243044
vn 0.43352675 0.8298979 -0.35117522
vn 0.14141075 0.8973609 -0.41802672
vn 0.35902935 0.9110752 -0.2025832
vn 0.14439857 0.97755903 -0.15338661
vn 0.4342871 0.66695005 -0.6054522
vn 0.17460614 0.48426357 -0.8573223
vn 0.35417634 0.5182753 -0.7784278
vn 0.44041005 0.89598 -0.057085793
vn 0.19991362 0.9780888 0.05811021
vn 0.6222389 0.7550994 -0.20650348
vn 0.67474884 0.64666474 -0.35572287
vn 0.65113676 0.52341986 -0.54959303
vn 0.2616948 0.23137613 -0.9370063
vn 0.48188114 0.3682197 -0.79511315
vn -0.001261912 -0.81341875 0.5816771
vn -0.0012807822 -0.81359327 0.58143294
vn -0.0012676227 -0.81353956 0.5815082
vn -0.001261673 -0.81341916 0.58167654
vn -0.0012544726 -0.8135273 0.5815253
vn -0.0012621116 -0.8134192 0.58167654
vn -0.0012892879 -0.81342524 0.58166814
vn -0.0013017756 -0.81344396 0.5816419
vn -0.0012617122 -0.813424 0.5816699
vn -0.00128549 -0.8132874 0.5818608
vn -0.001306587 -0.81322587 0.5819467
vn -0.0012703622 -0.8133018 0.58184075
vn -0.0012624345 -0.81341887 0.58167696
vn -0.0012625272 -0.81341916 0.58167666
vn -0.0012621869 -0.81341875 0.58167714
vn -0.0012625665 -0.8134191 0.5816767
vn -0.0012397448 -0.8135389 0.58150905
vn -0.0012623718 -0.8134189 0.58167696
vn -0.0012192909 -0.8135918 0.58143514
vn -0.0012343402 -0.813424 0.5816699
vn -0.0012195742 -0.8134417 0.581645
vn -0.0012575197 -0.8132869 0.58186144
vn -0.0012455025 -0.8132244 0.5819489
vn -0.0012620075 -0.8134191 0.58167666
vn -0.0012621175 -0.81341994 0.5816756
g Hat_Tall_0
f 3/3/3 2/2/2 1/1/1
f 4/4/4 3/3/3 1/1/1
f 5/5/5 3/3/3 4/4/4
f 6/6/6 5/5/5 4/4/4
f 1/1/1 2/2/2 7/7/7
f 2/2/2 8/8/8 7/7/7
f 7/7/7 8/8/8 9/9/9
f 8/8/8 10/10/10 9/9/9
f 9/9/9 10/10/10 11/11/11
f 10/10/10 12/12/12 11/11/11
f 11/11/11 12/12/12 13/13/13
f 12/12/12 14/14/14 13/13/13
f 15/15/15 13/13/13 14/14/14
f 16/16/16 15/15/15 14/14/14
f 17/17/17 15/15/15 16/16/16
f 18/18/18 17/17/17 16/16/16
f 5/5/5 6/6/6 19/19/19
f 20/20/20 5/5/5 19/19/19
f 20/20/20 19/19/19 21/21/21
f 22/22/22 20/20/20 21/21/21
f 22/22/22 21/21/21 23/23/23
f 24/24/24 22/22/22 23/23/23
f 24/24/24 23/23/23 25/25/25
f 26/26/26 24/24/24 25/25/25
f 26/26/26 25/25/25 27/27/27
f 28/28/28 26/26/26 27/27/27
f 28/28/28 27/27/27 29/29/29
f 30/30/30 28/28/28 29/29/29
f 29/29/29 31/31/31 30/30/30
f 31/31/31 32/32/32 30/30/30
f 31/31/31 33/33/33 32/32/32
f 33/33/33 34/34/34 32/32/32
f 37/37/37 36/36/36 35/35/35
f 38/38/38 37/37/37 35/35/35
f 39/39/39 37/37/37 38/38/38
f 40/40/40 39/39/39 38/38/38
f 37/37/37 41/41/41 36/36/36
f 41/41/41 42/42/42 36/36/36
f 43/43/43 41/41/41 37/37/37
f 39/39/39 43/43/43 37/37/37
f 41/41/41 44/44/44 42/42/42
f 44/44/44 45/45/45 42/42/42
f 46/46/46 44/44/44 41/41/41
f 43/43/43 46/46/46 41/41/41
f 44/44/44 47/47/47 45/45/45
f 47/47/47 48/48/48 45/45/45
f 49/49/49 47/47/47 44/44/44
f 46/46/46 49/49/49 44/44/44
f 38/38/38 35/35/35 50/50/50
f 51/51/51 38/38/38 50/50/50
f 40/40/40 38/38/38 51/51/51
f 52/52/52 40/40/40 51/51/51
f 42/42/42 45/45/45 53/53/53
f 54/54/54 42/42/42 53/53/53
f 36/36/36 42/42/42 54/54/54
f 55/55/55 36/36/36 54/54/54
f 35/35/35 36/36/36 55/55/55
f 50/50/50 35/35/35 55/55/55
f 48/48/48 47/47/47 56/56/56
f 57/57/57 48/48/48 56/56/56
f 45/45/45 48/48/48 57/57/57
f 53/53/53 45/45/45 57/57/57
f 47/47/47 49/49/49 58/58/58
f 56/56/56 47/47/47 58/58/58
f 49/49/49 46/46/46 59/59/59
f 59/59/59 46/46/46 60/60/60
f 59/59/59 60/60/60 61/61/61
f 61/61/61 60/60/60 62/62/62
f 60/60/60 63/63/63 62/62/62
f 62/62/62 63/63/63 64/64/64
f 63/63/63 65/65/65 64/64/64
f 63/63/63 39/39/39 65/65/65
f 39/39/39 40/40/40 65/65/65
f 43/43/43 39/39/39 63/63/63
f 60/60/60 43/43/43 63/63/63
f 46/46/46 43/43/43 60/60/60
f 66/66/66 59/59/59 61/61/61
f 67/67/67 59/59/59 66/66/66
f 68/68/68 67/67/67 66/66/66
f 67/67/67 49/49/49 59/59/59
f 49/49/49 67/67/67 58/58/58
f 64/64/64 65/65/65 69/69/69
f 65/65/65 70/70/70 69/69/69
f 65/65/65 40/40/40 70/70/70
f 64/64/64 69/69/69 71/71/71
f 62/62/62 64/64/64 71/71/71
f 40/40/40 52/52/52 70/70/70
f 62/62/62 71/71/71 72/72/72
f 61/61/61 62/62/62 72/72/72
f 61/61/61 72/72/72 73/73/73
f 66/66/66 61/61/61 73/73/73
f 67/67/67 68/68/68 74/74/74
f 68/68/68 75/75/75 74/74/74
f 66/66/66 73/73/73 75/75/75
f 68/68/68 66/66/66 75/75/75
f 67/67/67 74/74/74 58/58/58
f 78/78/78 77/77/77 76/76/76
f 79/79/79 78/78/78 76/76/76
f 80/80/80 78/78/78 79/79/79
f 81/81/81 80/80/80 79/79/79
f 78/78/78 82/82/82 77/77/77
f 82/82/82 83/83/83 77/77/77
f 84/84/84 82/82/82 78/78/78
f 80/80/80 84/84/84 78/78/78
f 82/82/82 85/85/85 83/83/83
f 85/85/85 86/86/86 83/83/83
f 87/87/87 85/85/85 82/82/82
f 84/84/84 87/87/87 82/82/82
f 85/85/85 88/88/88 86/86/86
f 88/88/88 89/89/89 86/86/86
f 90/90/90 88/88/88 85/85/85
f 87/87/87 90/90/90 85/85/85
f 80/80/80 81/81/81 91/91/91
f 92/92/92 80/80/80 91/91/91
f 84/84/84 80/80/80 92/92/92
f 92/92/92 91/91/91 93/93/93
f 94/94/94 92/92/92 93/93/93
f 95/95/95 92/92/92 94/94/94
f 95/95/95 84/84/84 92/92/92
f 87/87/87 84/84/84 95/95/95
f 96/96/96 95/95/95 94/94/94
f 97/97/97 95/95/95 96/96/96
f 97/97/97 87/87/87 95/95/95
f 90/90/90 87/87/87 97/97/97
f 98/98/98 97/97/97 96/96/96
f 99/99/99 97/97/97 98/98/98
f 99/99/99 90/90/90 97/97/97
f 100/100/100 99/99/99 98/98/98
