g Knife
v -0.49723947 0.10082821 0.16688251
v -0.5725547 0.39524862 0.18234636
v -0.5211834 0.39941794 0.18131542
v -0.54861087 0.096658885 0.16791347
v -0.5732854 0.10243787 0.12830319
v -0.5969459 0.39943153 0.15040131
v -0.57567936 0.11515976 0.0604644
v -0.5981694 0.40592822 0.115710124
v -0.5535744 0.12311636 0.027586196
v -0.5760644 0.4138848 0.08283193
v -0.50220305 0.12728566 0.026555201
v -0.5246931 0.4180541 0.08180094
v -0.47781217 0.12310271 0.05850027
v -0.5003022 0.41387117 0.113746
v -0.4990787 0.4073745 0.14843719
v -0.47541818 0.11038083 0.12633911
v -0.5211834 0.39941794 0.18131542
v -0.49723947 0.10082821 0.16688251
v -0.5458992 0.08755745 0.071607955
v -0.5442971 0.07905037 0.11703449
v -0.53123164 0.08200141 0.14504431
v -0.51292634 0.083487086 0.14467694
v -0.50068367 0.082590066 0.11615924
v -0.49723947 0.10082821 0.16688251
v -0.54861087 0.096658885 0.16791347
v -0.47541818 0.11038083 0.12633911
v -0.5022858 0.09109716 0.07073262
v -0.47781217 0.12310271 0.05850027
v -0.5164287 0.102084234 0.045371037
v -0.50220305 0.12728566 0.026555201
v -0.534734 0.100598544 0.04573841
v -0.5535744 0.12311636 0.027586196
v -0.5966934 1.3529665 0.2594224
v -0.5910108 1.2979486 0.3200764
v -0.61531264 1.3474836 0.35545585
v -0.6253479 1.4313786 0.2751173
v -0.60386205 1.2237115 0.42329973
v -0.5814928 1.1937728 0.3730503
v -0.59530133 1.1156658 0.4535951
v -0.57300293 1.0947491 0.39562652
v -0.58524185 0.9857225 0.46919993
v -0.56357956 0.9816309 0.40772194
v -0.57352215 0.8407869 0.46153167
v -0.55278987 0.8458193 0.39612165
v -0.54220605 0.7098568 0.37365898
v -0.56135285 0.69492924 0.44443053
v -0.52257997 0.45611566 0.32544842
v -0.54204816 0.4411139 0.39648023
v -0.64868534 1.3487468 0.26046583
v -0.5966934 1.3529665 0.2594224
v -0.6324425 1.430803 0.2752597
v -0.6253479 1.4313786 0.2751173
v -0.57931244 1.128252 0.21672685
v -0.6313045 1.1240323 0.21777028
v -0.5710329 1.0212077 0.19638853
v -0.62302494 1.0169879 0.19743194
v -0.5607797 0.88864684 0.17120208
v -0.6127718 0.8844271 0.17224553
v -0.5502578 0.7526115 0.1453555
v -0.6022499 0.7483917 0.14639895
v -0.5306318 0.49887037 0.09714494
v -0.58262384 0.49465063 0.09818838
v -0.64868534 1.3487468 0.26046583
v -0.62561303 1.3466477 0.35566255
v -0.6430029 1.293729 0.32111987
v -0.6324425 1.430803 0.2752597
v -0.6142539 1.2228601 0.42349592
v -0.63348484 1.1895531 0.37409374
v -0.60575455 1.1147987 0.453667
v -0.62499505 1.0905296 0.39666992
v -0.59552383 0.98486066 0.46916693
v -0.61557156 0.97741115 0.40876538
v -0.5828825 0.84000945 0.46156797
v -0.6047819 0.8415996 0.39716515
v -0.5700903 0.6942205 0.4446041
v -0.59419805 0.7056371 0.37470236
v -0.5501244 0.44045842 0.3966423
v -0.57457197 0.451896 0.3264918
v -0.5501244 0.44045842 0.3966423
v -0.54204816 0.4411139 0.39648023
v -0.52257997 0.45611566 0.32544842
v -0.57457197 0.451896 0.3264918
v -0.5271221 0.48023418 0.1966594
v -0.57911414 0.47601447 0.19770283
v -0.5306318 0.49887037 0.09714494
v -0.58262384 0.49465063 0.09818838
v -0.5306318 0.49887037 0.09714494
v -0.5271221 0.48023418 0.1966594
v -0.5502578 0.7526115 0.1453555
v -0.54674816 0.7339753 0.24486999
v -0.52257997 0.45611566 0.32544842
v -0.54220605 0.7098568 0.37365898
v -0.55278987 0.8458193 0.39612165
v -0.55727 0.8700107 0.27071658
v -0.56357956 0.9816309 0.40772194
v -0.5676645 1.0033218 0.291896
v -0.57300293 1.0947491 0.39562652
v -0.57615525 1.1114879 0.30624494
v -0.5607797 0.88864684 0.17120208
v -0.5710329 1.0212077 0.19638853
v -0.57931244 1.128252 0.21672685
v -0.5910108 1.2979486 0.3200764
v -0.5966934 1.3529665 0.2594224
v -0.5814928 1.1937728 0.3730503
v -0.57911414 0.47601447 0.19770283
v -0.58262384 0.49465063 0.09818838
v -0.6022499 0.7483917 0.14639895
v -0.59874016 0.72975564 0.24591339
v -0.57457197 0.451896 0.3264918
v -0.59419805 0.7056371 0.37470236
v -0.6047819 0.8415996 0.39716515
v -0.6092621 0.8657909 0.27176
v -0.61557156 0.97741115 0.40876538
v -0.61965656 0.99910206 0.2929394
v -0.6127718 0.8844271 0.17224553
v -0.62302494 1.0169879 0.19743194
v -0.62814736 1.1072681 0.30728838
v -0.6313045 1.1240323 0.21777028
v -0.62499505 1.0905296 0.39666992
v -0.63348484 1.1895531 0.37409374
v -0.6430029 1.293729 0.32111987
v -0.64868534 1.3487468 0.26046583
v -0.60575455 1.1147987 0.453667
v -0.59530133 1.1156658 0.4535951
v -0.58524185 0.9857225 0.46919993
v -0.59552383 0.98486066 0.46916693
v -0.5828825 0.84000945 0.46156797
v -0.57352215 0.8407869 0.46153167
v -0.5700903 0.6942205 0.4446041
v -0.56135285 0.69492924 0.44443053
v -0.54204816 0.4411139 0.39648023
v -0.5501244 0.44045842 0.3966423
v -0.6142539 1.2228601 0.42349592
v -0.60386205 1.2237115 0.42329973
v -0.61531264 1.3474836 0.35545585
v -0.62561303 1.3466477 0.35566255
v -0.6253479 1.4313786 0.2751173
v -0.6324425 1.430803 0.2752597
v -0.5969459 0.39943153 0.15040131
v -0.5981694 0.40592822 0.115710124
v -0.6044183 0.4867193 0.13106035
v -0.6031948 0.4802226 0.16575153
v -0.5725547 0.39524862 0.18234636
v -0.57880366 0.47603968 0.19769658
v -0.5211834 0.39941794 0.18131542
v -0.52743226 0.480209 0.19666564
v -0.58231336 0.49467584 0.09818214
v -0.53094196 0.4988452 0.09715116
v -0.5003022 0.41387117 0.113746
v -0.50655115 0.49466228 0.12909622
v -0.4990787 0.4073745 0.14843719
v -0.5053276 0.4881656 0.16378742
v -0.52743226 0.480209 0.19666564
v -0.5211834 0.39941794 0.18131542
v -0.53094196 0.4988452 0.09715116
v -0.50655115 0.49466228 0.12909622
v -0.6044183 0.4867193 0.13106035
v -0.58231336 0.49467584 0.09818214
v -0.6031948 0.4802226 0.16575153
v -0.5053276 0.4881656 0.16378742
v -0.57880366 0.47603968 0.19769658
v -0.52743226 0.480209 0.19666564
vt 0.6355727 0.8918594
vt 0.68743956 0.6029371
vt 0.6452088 0.6029371
vt 0.68743443 0.8918593
vt 0.73119366 0.89185935
vt 0.75139236 0.6029372
vt 0.7943829 0.89185935
vt 0.7856338 0.6029372
vt 0.8326891 0.8918593
vt 0.8251139 0.6029371
vt 0.8671477 0.8918594
vt 0.8604643 0.6029371
vt 0.9008814 0.89185935
vt 0.8943388 0.6029372
vt 0.92700756 0.6029374
vt 0.94639206 0.8918596
vt 0.9547583 0.60293734
vt 0.98029196 0.89185965
vt 0.77601206 0.91711915
vt 0.7406726 0.9171303
vt 0.7196715 0.928717
vt 0.7198783 0.9454688
vt 0.7413192 0.95704216
vt 0.698799 0.9606034
vt 0.6982583 0.9135919
vt 0.73400474 0.98186815
vt 0.7756015 0.95703083
vt 0.7915746 0.9818515
vt 0.7972573 0.9454445
vt 0.8211355 0.96056896
vt 0.7975216 0.92869276
vt 0.8219056 0.9135574
vt 0.28427067 0.86232865
vt 0.22338806 0.8248435
vt 0.2017877 0.8744476
vt 0.28427067 0.93366754
vt 0.12356293 0.7790842
vt 0.16108431 0.74391735
vt 0.0800718 0.6912428
vt 0.1256455 0.66252714
vt 0.04559603 0.58223724
vt 0.09688737 0.5673502
vt 0.028580453 0.45655745
vt 0.08472603 0.44887912
vt 0.08184057 0.32853204
vt 0.019474354 0.32853204
vt 0.08184057 0.10292199
vt 0.019249465 0.10292199
vt 0.3297136 0.86232865
vt 0.28427067 0.86232865
vt 0.31009266 0.93366754
vt 0.3038917 0.93366754
vt 0.28427067 0.6625272
vt 0.32971352 0.6625272
vt 0.28427067 0.5673502
vt 0.32971352 0.5673502
vt 0.28427067 0.44948584
vt 0.32971352 0.44948584
vt 0.28427067 0.32853204
vt 0.3297135 0.32853204
vt 0.28427067 0.10292199
vt 0.32948735 0.10292202
vt 0.3297136 0.86232865
vt 0.41219673 0.8744476
vt 0.39059627 0.8248434
vt 0.32971373 0.93366754
vt 0.4904121 0.7790754
vt 0.45290008 0.74391735
vt 0.5337976 0.6912043
vt 0.48833886 0.66252714
vt 0.5681878 0.58217514
vt 0.51709694 0.56735015
vt 0.585277 0.45651752
vt 0.5292583 0.44887903
vt 0.59450823 0.32853192
vt 0.5321436 0.32853198
vt 0.59473467 0.1029219
vt 0.53240037 0.10292193
vt 0.5955472 0.08363846
vt 0.59554714 0.076545686
vt 0.5326574 0.05726233
vt 0.53240037 0.10292193
vt 0.4179192 0.05726233
vt 0.41793457 0.10292196
vt 0.32926145 0.05726248
vt 0.32948735 0.10292202
vt 0.28427067 0.10292199
vt 0.19603397 0.10292199
vt 0.28427067 0.32853204
vt 0.19603397 0.32853204
vt 0.08184057 0.10292199
vt 0.08184057 0.32853204
vt 0.08472603 0.44887912
vt 0.19603397 0.44948584
vt 0.09688737 0.5673502
vt 0.19958688 0.5673502
vt 0.1256455 0.66252714
vt 0.20489748 0.6625272
vt 0.28427067 0.44948584
vt 0.28427067 0.5673502
vt 0.28427067 0.6625272
vt 0.22338806 0.8248435
vt 0.28427067 0.86232865
vt 0.16108431 0.74391735
vt 0.41793457 0.10292196
vt 0.32948735 0.10292202
vt 0.3297135 0.32853204
vt 0.41795015 0.32853198
vt 0.53240037 0.10292193
vt 0.5321436 0.32853198
vt 0.5292583 0.44887903
vt 0.4179502 0.44948578
vt 0.51709694 0.56735015
vt 0.4143973 0.5673502
vt 0.32971352 0.44948584
vt 0.32971352 0.5673502
vt 0.4090868 0.66252714
vt 0.32971352 0.6625272
vt 0.48833886 0.66252714
vt 0.45290008 0.74391735
vt 0.39059627 0.8248434
vt 0.3297136 0.86232865
vt 0.5337976 0.6912043
vt 0.5657943 0.7033181
vt 0.60630774 0.59028745
vt 0.5681878 0.58217514
vt 0.585277 0.45651752
vt 0.6213108 0.45655727
vt 0.59450823 0.32853192
vt 0.6307079 0.32857054
vt 0.63122725 0.10299918
vt 0.59473467 0.1029219
vt 0.4904121 0.7790754
vt 0.52230316 0.79518473
vt 0.44407848 0.89054805
vt 0.41219673 0.8744476
vt 0.36159548 0.9497683
vt 0.32971373 0.93366754
vt 0.75139236 0.6029372
vt 0.7856338 0.6029372
vt 0.7863195 0.5266626
vt 0.7506076 0.5266628
vt 0.68743956 0.6029371
vt 0.6873503 0.5266626
vt 0.6452088 0.6029371
vt 0.64532727 0.5266626
vt 0.824075 0.5266626
vt 0.85805404 0.52666265
vt 0.8943388 0.6029372
vt 0.8918985 0.5266628
vt 0.92700756 0.6029374
vt 0.92455053 0.5266628
vt 0.95223874 0.5266628
vt 0.9547583 0.60293734
vt 0.8216287 0.4495553
vt 0.78690505 0.42488486
vt 0.7863195 0.5266626
vt 0.82136965 0.5040686
vt 0.7506076 0.5266628
vt 0.7497659 0.4248836
vt 0.71547353 0.5040659
vt 0.7151283 0.44955257
vn 0.45288277 -0.06449889 0.88923407
vn -0.4326572 -0.08186277 0.8978341
vn 0.47563553 -0.00814561 0.8796047
vn -0.40075383 -0.13378009 0.90636605
vn -0.9465421 -0.171284 0.27334946
vn -0.96220386 -0.092616126 0.25609738
vn -0.96166843 -0.10393618 -0.25375405
vn -0.97028255 -0.029414348 -0.24018018
vn -0.43330047 0.081144735 -0.89758915
vn -0.4335295 0.13573031 -0.8908588
vn 0.3784285 0.14702457 -0.91387945
vn 0.37012404 0.20095465 -0.90698695
vn 0.95495844 0.05161605 -0.29221606
vn 0.95198166 0.1265959 -0.27875513
vn 0.97398406 0.06452498 0.21723646
vn 0.9719081 -0.015583015 0.23484404
vn 0.47563553 -0.00814561 0.8796047
vn 0.45288277 -0.06449889 0.88923407
vn -0.34965503 -0.90151316 -0.25498116
vn -0.34475163 -0.9373752 -0.049739897
vn -0.17454135 -0.9301934 0.32291707
vn 0.33493337 -0.88884455 0.31268993
vn 0.48908046 -0.8697018 -0.06647668
vn 0.45288277 -0.06449889 0.88923407
vn -0.40075383 -0.13378009 0.90636605
vn 0.9719081 -0.015583015 0.23484404
vn 0.47995433 -0.8341831 -0.2716292
vn 0.95495844 0.05161605 -0.29221606
vn 0.26154968 -0.73968804 -0.62004316
vn 0.3784285 0.14702457 -0.91387945
vn -0.16339862 -0.774176 -0.6115165
vn -0.43330047 0.081144735 -0.89758915
vn 0.9311019 0.3063323 0.19801469
vn 0.9308148 0.2635208 0.25326
vn 0.9314022 0.27738464 0.23568541
vn 0.9311019 0.30633235 0.19801469
vn 0.9325979 0.20485665 0.2971447
vn 0.9336063 0.19541731 0.30031854
vn 0.9385307 0.13523532 0.31760296
vn 0.9388899 0.1300353 0.31871054
vn 0.9440107 0.08176631 0.31962183
vn 0.944305 0.07928689 0.3193769
vn 0.9525209 0.045511466 0.30105236
vn 0.9528568 0.04497126 0.3000694
vn 0.9613927 0.028107736 0.2737409
vn 0.961468 0.027924005 0.27349487
vn 0.9633487 0.023259772 0.2672422
vn 0.9633487 0.023259772 0.2672422
vn -0.03464478 0.18396093 -0.9823229
vn -0.03464478 0.18396091 -0.9823229
vn -0.058859915 0.5135747 -0.85602367
vn -0.058859784 0.5135729 -0.85602486
vn -0.034644745 0.18396094 -0.9823229
vn -0.03464475 0.18396096 -0.9823229
vn -0.034644894 0.18396105 -0.98232275
vn -0.034644894 0.18396103 -0.98232275
vn -0.034645148 0.18396087 -0.9823229
vn -0.03464515 0.18396088 -0.9823229
vn -0.03464532 0.18396083 -0.9823229
vn -0.03464532 0.18396081 -0.9823229
vn -0.03464523 0.18396088 -0.98232275
vn -0.03464523 0.18396087 -0.9823229
vn -0.9596622 0.15287794 0.23595913
vn -0.95379144 0.12438623 0.27351403
vn -0.9502763 0.11085345 0.29100913
vn -0.9596622 0.15287794 0.23595913
vn -0.94282275 0.05436385 0.32883087
vn -0.94278514 0.04520642 0.33032182
vn -0.94330347 -0.014575987 0.33161163
vn -0.94359195 -0.020230236 0.3304921
vn -0.9433738 -0.07142929 0.3239501
vn -0.9432497 -0.07410111 0.32371122
vn -0.94217837 -0.11146572 0.3160304
vn -0.9422055 -0.11211019 0.31572175
vn -0.9429117 -0.12822549 0.3073691
vn -0.94290465 -0.1280903 0.30744678
vn -0.94307154 -0.1314655 0.30550435
vn -0.94307154 -0.13146551 0.3055044
vn 0.08010077 -0.86563766 0.49422187
vn 0.080100685 -0.86563605 0.49422473
vn 0.075769536 -0.9796005 -0.18612319
vn 0.075769536 -0.9796005 -0.18612319
vn 0.07576972 -0.9796005 -0.18612333
vn 0.07576974 -0.9796005 -0.18612333
vn 0.075769946 -0.97960037 -0.1861234
vn 0.07576995 -0.97960037 -0.18612342
vn 0.99652344 0.08087751 -0.019999254
vn 0.9965233 0.08087755 -0.019999309
vn 0.9965233 0.080877624 -0.019999336
vn 0.9965233 0.080877565 -0.019999355
vn 0.9965233 0.08087759 -0.019999351
vn 0.9965233 0.08087753 -0.019999366
vn 0.9965233 0.08087765 -0.019999355
vn 0.9965233 0.08087779 -0.019999405
vn 0.9965233 0.08087792 -0.019999338
vn 0.9965233 0.08087777 -0.01999942
vn 0.9965233 0.08087766 -0.019999452
vn 0.9965233 0.08087753 -0.019999644
vn 0.9965233 0.080877945 -0.019999476
vn 0.9965233 0.08087759 -0.019999515
vn 0.9965233 0.08087751 -0.019999783
vn 0.9965233 0.08087777 -0.019999858
vn 0.9965233 0.080877855 -0.019999899
vn 0.99652344 0.08087722 -0.019999573
vn -0.9965233 -0.080877885 0.01999962
vn -0.9965233 -0.080877796 0.019999526
vn -0.9965233 -0.08087775 0.01999952
vn -0.9965233 -0.080877826 0.019999577
vn -0.9965233 -0.08087794 0.01999969
vn -0.9965233 -0.080877885 0.019999621
vn -0.9965233 -0.080877826 0.019999508
vn -0.9965233 -0.08087782 0.019999543
vn -0.9965233 -0.08087802 0.019999474
vn -0.9965233 -0.08087787 0.019999571
vn -0.9965233 -0.080877796 0.019999593
vn -0.9965233 -0.080877684 0.019999709
vn -0.9965233 -0.08087763 0.01999945
vn -0.99652344 -0.08087745 0.019999329
vn -0.9965233 -0.08087798 0.019999512
vn -0.9965233 -0.08087755 0.019999808
vn -0.99652344 -0.08087749 0.019999158
vn -0.99652344 -0.08087748 0.019999063
vn -0.008838084 0.18817739 0.98209524
vn -0.008844469 0.1887186 0.98199135
vn -0.0016017435 0.031241491 0.99951065
vn -0.0015809177 0.030958088 0.99951947
vn 0.012409638 -0.08209139 0.9965475
vn 0.012431246 -0.08217323 0.9965405
vn 0.02930493 -0.15686516 0.9871852
vn 0.029332122 -0.15700306 0.9871624
vn 0.080100685 -0.86563605 0.49422473
vn 0.08010077 -0.86563766 0.49422187
vn -0.01663126 0.38767865 0.92164445
vn -0.01666207 0.38820887 0.92142075
vn -0.03009286 0.5688499 0.8218906
vn -0.030092841 0.5688497 0.8218907
vn -0.058859784 0.5135729 -0.85602486
vn -0.058859915 0.5135747 -0.85602367
vn -0.93184745 -0.13599086 0.3364026
vn -0.95424104 -0.017082501 -0.29855022
vn -0.9542409 -0.017082458 -0.29855037
vn -0.9318475 -0.13599086 0.33640257
vn -0.37012312 -0.20095453 0.9069874
vn -0.3701227 -0.2009545 0.90698755
vn 0.43353063 -0.13573045 0.89085823
vn 0.43353084 -0.13573045 0.8908581
vn -0.43352935 0.13573024 -0.8908589
vn 0.37012434 0.20095432 -0.90698695
vn 0.93184865 0.13599075 -0.33639938
vn 0.93184876 0.13599077 -0.33639935
vn 0.9542422 0.017083505 0.29854634
vn 0.95424235 0.01708357 0.29854602
vn 0.43353084 -0.13573045 0.8908581
vn 0.43353063 -0.13573045 0.89085823
vn -0.075769804 0.9796006 0.18612234
vn -0.07576966 0.97960037 0.18612377
vn -0.07576966 0.97960037 0.18612374
vn -0.07576979 0.9796006 0.1861223
vn -0.07576957 0.97960037 0.18612397
vn -0.07576957 0.97960037 0.18612398
vn -0.0757695 0.9796005 0.18612298
vn -0.075769514 0.9796005 0.186123
g Knife_0
f 3/3/3 2/2/2 1/1/1
f 4/4/4 1/1/1 2/2/2
f 5/5/5 4/4/4 2/2/2
f 2/2/2 6/6/6 5/5/5
f 7/7/7 5/5/5 6/6/6
f 6/6/6 8/8/8 7/7/7
f 8/8/8 9/9/9 7/7/7
f 9/9/9 8/8/8 10/10/10
f 10/10/10 11/11/11 9/9/9
f 10/10/10 12/12/12 11/11/11
f 12/12/12 13/13/13 11/11/11
f 12/12/12 14/14/14 13/13/13
f 13/13/13 14/14/14 15/15/15
f 15/15/15 16/16/16 13/13/13
f 16/16/16 15/15/15 17/17/17
f 17/17/17 18/18/18 16/16/16
f 5/5/5 7/7/7 19/19/19
f 19/19/19 20/20/20 5/5/5
f 21/21/21 5/5/5 20/20/20
f 22/22/22 21/21/21 20/20/20
f 23/23/23 22/22/22 20/20/20
f 21/21/21 22/22/22 24/24/24
f 24/24/24 25/25/25 21/21/21
f 25/25/25 5/5/5 21/21/21
f 22/22/22 23/23/23 26/26/26
f 26/26/26 24/24/24 22/22/22
f 26/26/26 23/23/23 27/27/27
f 20/20/20 27/27/27 23/23/23
f 19/19/19 27/27/27 20/20/20
f 27/27/27 28/28/28 26/26/26
f 28/28/28 27/27/27 29/29/29
f 29/29/29 27/27/27 19/19/19
f 29/29/29 30/30/30 28/28/28
f 30/30/30 29/29/29 31/31/31
f 19/19/19 31/31/31 29/29/29
f 31/31/31 19/19/19 7/7/7
f 7/7/7 32/32/32 31/31/31
f 32/32/32 30/30/30 31/31/31
f 35/35/35 34/34/34 33/33/33
f 33/33/33 36/36/36 35/35/35
f 34/34/34 35/35/35 37/37/37
f 37/37/37 38/38/38 34/34/34
f 39/39/39 38/38/38 37/37/37
f 39/39/39 40/40/40 38/38/38
f 40/40/40 39/39/39 41/41/41
f 41/41/41 42/42/42 40/40/40
f 42/42/42 41/41/41 43/43/43
f 43/43/43 44/44/44 42/42/42
f 45/45/45 44/44/44 43/43/43
f 43/43/43 46/46/46 45/45/45
f 47/47/47 45/45/45 46/46/46
f 48/48/48 47/47/47 46/46/46
f 51/51/51 50/50/50 49/49/49
f 51/51/51 52/52/52 50/50/50
f 49/49/49 50/50/50 53/53/53
f 49/49/49 53/53/53 54/54/54
f 54/54/54 53/53/53 55/55/55
f 54/54/54 55/55/55 56/56/56
f 56/56/56 55/55/55 57/57/57
f 56/56/56 57/57/57 58/58/58
f 58/58/58 57/57/57 59/59/59
f 58/58/58 59/59/59 60/60/60
f 60/60/60 59/59/59 61/61/61
f 60/60/60 61/61/61 62/62/62
f 65/65/65 64/64/64 63/63/63
f 64/64/64 66/66/66 63/63/63
f 64/64/64 65/65/65 67/67/67
f 68/68/68 67/67/67 65/65/65
f 69/69/69 67/67/67 68/68/68
f 68/68/68 70/70/70 69/69/69
f 71/71/71 69/69/69 70/70/70
f 70/70/70 72/72/72 71/71/71
f 71/71/71 72/72/72 73/73/73
f 72/72/72 74/74/74 73/73/73
f 73/73/73 74/74/74 75/75/75
f 74/74/74 76/76/76 75/75/75
f 75/75/75 76/76/76 77/77/77
f 76/76/76 78/78/78 77/77/77
f 81/81/81 80/80/80 79/79/79
f 79/79/79 82/82/82 81/81/81
f 83/83/83 81/81/81 82/82/82
f 82/82/82 84/84/84 83/83/83
f 85/85/85 83/83/83 84/84/84
f 84/84/84 86/86/86 85/85/85
f 89/89/89 88/88/88 87/87/87
f 88/88/88 89/89/89 90/90/90
f 91/91/91 88/88/88 90/90/90
f 90/90/90 92/92/92 91/91/91
f 92/92/92 90/90/90 93/93/93
f 94/94/94 93/93/93 90/90/90
f 93/93/93 94/94/94 95/95/95
f 96/96/96 95/95/95 94/94/94
f 96/96/96 97/97/97 95/95/95
f 96/96/96 98/98/98 97/97/97
f 96/96/96 94/94/94 99/99/99
f 99/99/99 90/90/90 89/89/89
f 99/99/99 94/94/94 90/90/90
f 99/99/99 100/100/100 96/96/96
f 98/98/98 96/96/96 100/100/100
f 100/100/100 101/101/101 98/98/98
f 102/102/102 98/98/98 101/101/101
f 101/101/101 103/103/103 102/102/102
f 98/98/98 104/104/104 97/97/97
f 102/102/102 104/104/104 98/98/98
f 107/107/107 106/106/106 105/105/105
f 105/105/105 108/108/108 107/107/107
f 108/108/108 105/105/105 109/109/109
f 110/110/110 108/108/108 109/109/109
f 108/108/108 110/110/110 111/111/111
f 111/111/111 112/112/112 108/108/108
f 112/112/112 111/111/111 113/113/113
f 113/113/113 114/114/114 112/112/112
f 115/115/115 112/112/112 114/114/114
f 115/115/115 107/107/107 108/108/108
f 108/108/108 112/112/112 115/115/115
f 114/114/114 116/116/116 115/115/115
f 116/116/116 114/114/114 117/117/117
f 117/117/117 118/118/118 116/116/116
f 119/119/119 114/114/114 113/113/113
f 117/117/117 114/114/114 119/119/119
f 120/120/120 117/117/117 119/119/119
f 121/121/121 117/117/117 120/120/120
f 118/118/118 117/117/117 121/121/121
f 121/121/121 122/122/122 118/118/118
f 125/125/125 124/124/124 123/123/123
f 123/123/123 126/126/126 125/125/125
f 125/125/125 126/126/126 127/127/127
f 127/127/127 128/128/128 125/125/125
f 128/128/128 127/127/127 129/129/129
f 129/129/129 130/130/130 128/128/128
f 131/131/131 130/130/130 129/129/129
f 129/129/129 132/132/132 131/131/131
f 133/133/133 123/123/123 124/124/124
f 124/124/124 134/134/134 133/133/133
f 135/135/135 133/133/133 134/134/134
f 133/133/133 135/135/135 136/136/136
f 137/137/137 136/136/136 135/135/135
f 136/136/136 137/137/137 138/138/138
f 141/141/141 140/140/140 139/139/139
f 139/139/139 142/142/142 141/141/141
f 142/142/142 139/139/139 143/143/143
f 143/143/143 144/144/144 142/142/142
f 144/144/144 143/143/143 145/145/145
f 145/145/145 146/146/146 144/144/144
f 10/10/10 140/140/140 141/141/141
f 141/141/141 147/147/147 10/10/10
f 147/147/147 12/12/12 10/10/10
f 147/147/147 148/148/148 12/12/12
f 148/148/148 149/149/149 12/12/12
f 149/149/149 148/148/148 150/150/150
f 150/150/150 151/151/151 149/149/149
f 151/151/151 150/150/150 152/152/152
f 151/151/151 152/152/152 153/153/153
f 153/153/153 154/154/154 151/151/151
f 157/157/157 156/156/156 155/155/155
f 155/155/155 158/158/158 157/157/157
f 156/156/156 157/157/157 159/159/159
f 159/159/159 160/160/160 156/156/156
f 159/159/159 161/161/161 160/160/160
f 161/161/161 162/162/162 160/160/160
