g air_balloon_side_x2_01
v 9.057861 136.59837 59.999935
v 9.057861 136.59842 -60.000004
v -0.09057617 127.50932 -60.000004
v -0.0904541 127.50931 59.999935
v 12.407227 149.09839 59.999935
v 12.407227 149.09842 -60.000004
v 9.057861 161.59839 59.999935
v 9.057861 161.59842 -60.000004
v -24.743774 127.50931 59.999935
v -24.743774 127.50932 -60.000004
v -34.24341 136.59842 -60.000004
v -34.24341 136.59837 59.999935
v -37.592773 149.09842 -60.000004
v -37.592773 149.09839 59.999935
v -34.24341 161.59842 -60.000004
v -34.24341 161.59839 59.999935
v -25.092775 170.74905 -60.000004
v -25.092775 170.74902 59.999935
v -25.092775 170.74902 59.999935
v -25.092775 170.74905 -60.000004
v -12.592773 174.09842 -60.000004
v -12.592773 174.09839 59.999935
v -0.09277344 170.74905 -60.000004
v -0.09277344 170.74902 59.999935
v 9.057861 161.59842 -60.000004
v 9.057861 161.59839 59.999935
v -41.352295 66.41083 -56.57379
v -41.352295 46.34027 -56.57379
v -38.00769 46.34027 -60.000004
v -38.00769 66.41083 -60.000004
v -41.352295 66.41083 56.736874
v -41.352295 46.34027 56.736874
v -38.00769 69.75548 -56.57379
v -38.00769 69.75548 56.736874
v -41.352295 66.41083 56.736874
v -41.352295 66.41083 -56.57379
v 14.474365 69.75548 -56.57379
v -38.00769 66.41083 -60.000004
v 14.474365 66.41083 -60.000004
v 14.474365 69.75548 56.736874
v 17.819092 66.41083 -56.57379
v 17.819092 66.41083 56.736874
v 14.474365 66.41083 59.999935
v -38.00769 66.41083 59.999935
v 14.474365 66.41083 -60.000004
v 14.474365 46.34027 -60.000004
v 17.819092 46.34027 -56.57379
v 17.819092 66.41083 -56.57379
v -38.00769 46.34027 -60.000004
v -38.00769 66.41083 -60.000004
v -41.352295 46.34027 -56.57379
v -41.352295 46.34027 56.736874
v -38.00769 42.99562 56.736874
v -38.00769 42.99562 -56.57379
v 14.474365 42.99562 -56.57379
v 14.474365 46.34027 -60.000004
v -38.00769 46.34027 -60.000004
v 14.474365 42.99562 56.736874
v -38.00769 46.34027 59.999935
v 14.474365 46.34027 59.999935
v 17.819092 46.34027 -56.57379
v 17.819092 46.34027 56.736874
v 14.474365 42.99562 -56.57379
v 14.474365 42.99562 56.736874
v 17.819092 46.34027 56.736874
v 17.819092 46.34027 -56.57379
v -41.352295 46.34027 56.736874
v -41.352295 66.41083 56.736874
v -38.00769 66.41083 59.999935
v -38.00769 46.34027 59.999935
v 14.474365 46.34027 59.999935
v 14.474365 66.41083 59.999935
v 14.474365 46.34027 59.999935
v 14.474365 66.41083 59.999935
v 17.819092 66.41083 56.736874
v 17.819092 46.34027 56.736874
v 17.819092 66.41083 -56.57379
v 17.819092 46.34027 -56.57379
v -41.352295 66.41083 -56.57379
v -38.00769 66.41083 -60.000004
v -38.00769 69.75548 -56.57379
v 14.474365 66.41083 59.999935
v 14.474365 69.75548 56.736874
v 17.819092 66.41083 56.736874
v -24.743774 127.50931 59.999935
v -24.394775 62.485336 59.999935
v -24.394775 62.485336 -60.000004
v -24.743774 127.50932 -60.000004
v -0.0904541 127.50931 59.999935
v -0.09057617 127.50932 -60.000004
v -0.04410553 60.000004 -59.99999
v -0.04410553 60.000004 59.999985
v -1.999939 -431 -60.000072
v -1.9999238 -431 60.00003
v 1.5258789E-05 -419.99997 60.00003
v -7.6293945E-06 -419.99997 -60.000046
v -7.9999385 -442.99997 -60.000072
v -7.9999237 -442.99997 60.00006
v -14.99994 -453.00003 -60.000072
v -14.999923 -453.00003 60.00003
v -25.999926 -461 -59.999893
v -25.999926 -461 60.00003
v -36.999916 -465 -59.999954
v -36.999924 -465 60.00003
v -48.9999 -467 -59.999935
v -48.999878 -467 60.00003
v -0.04410553 60.000004 59.999985
v -0.04410553 60.000004 -59.99999
v -0 -60.000004 -60.000004
v 1.5258789E-05 -60.000004 60.00003
v 1.5258789E-05 -60.000004 60.00003
v -0 -60.000004 -60.000004
v -7.6293945E-06 -180 -60.000046
v 1.5258789E-05 -180 60.00003
v 1.5258789E-05 -300 60.00003
v -9.52912E-22 -300 -60.000004
v -7.6293945E-06 -419.99997 -60.000046
v 1.5258789E-05 -419.99997 60.00003
v 1.5258789E-05 -180 60.00003
v -9.52912E-22 -180 -60.000004
v -7.6293945E-06 -300 -60.000046
v 1.5258789E-05 -300 60.00003
vt 0.71240234 0.6328125
vt 0.71240234 0.7675781
vt 0.7270508 0.7675781
vt 0.7270508 0.6328125
vt 0.6977539 0.6328125
vt 0.6977539 0.7675781
vt 0.68310547 0.6328125
vt 0.68310547 0.7675781
vt 0.58154297 0.6328125
vt 0.58154297 0.7675781
vt 0.5961914 0.7675781
vt 0.5961914 0.6328125
vt 0.61083984 0.7675781
vt 0.61083984 0.6328125
vt 0.625 0.7675781
vt 0.625 0.6328125
vt 0.63964844 0.7675781
vt 0.63964844 0.6328125
vt 0.63964844 0.6328125
vt 0.63964844 0.7675781
vt 0.6542969 0.7675781
vt 0.6542969 0.6328125
vt 0.6689453 0.7675781
vt 0.6689453 0.6328125
vt 0.68310547 0.7675781
vt 0.68310547 0.6328125
vt 0.84765625 0.13928223
vt 0.8251953 0.13928223
vt 0.8251953 0.14453125
vt 0.84765625 0.14453125
vt 0.84765625 0.011962891
vt 0.8251953 0.011962891
vt 0.45507812 0.018173218
vt 0.58447266 0.019195557
vt 0.5854492 0.013977051
vt 0.45410156 0.012550354
vt 0.4555664 0.0791626
vt 0.44970703 0.017028809
vt 0.45043945 0.080444336
vt 0.58496094 0.07910156
vt 0.4543457 0.08441162
vt 0.5864258 0.08441162
vt 0.59033203 0.0803833
vt 0.58984375 0.018035889
vt 0.84765625 0.20349121
vt 0.8251953 0.20349121
vt 0.8251953 0.2088623
vt 0.84765625 0.2088623
vt 0.8251953 0.14453125
vt 0.84765625 0.14453125
vt 0.3083496 0.08251953
vt 0.43847656 0.08251953
vt 0.43725586 0.07733154
vt 0.30932617 0.07739258
vt 0.31103516 0.018569946
vt 0.30566406 0.01739502
vt 0.30419922 0.078552246
vt 0.4387207 0.018539429
vt 0.4423828 0.078552246
vt 0.4440918 0.01739502
vt 0.30981445 0.013381958
vt 0.4399414 0.013366699
vt 0.31103516 0.018569946
vt 0.4387207 0.018539429
vt 0.4399414 0.013366699
vt 0.30981445 0.013381958
vt 0.90722656 0.011505127
vt 0.8847656 0.011505127
vt 0.8847656 0.016815186
vt 0.90722656 0.016815186
vt 0.90722656 0.07574463
vt 0.8847656 0.07574463
vt 0.90722656 0.07574463
vt 0.8847656 0.07574463
vt 0.8847656 0.08105469
vt 0.90722656 0.08105469
vt 0.8847656 0.20837402
vt 0.90722656 0.20837402
vt 0.45410156 0.012550354
vt 0.44970703 0.017028809
vt 0.45507812 0.018173218
vt 0.59033203 0.0803833
vt 0.58496094 0.07910156
vt 0.5864258 0.08441162
vt -16.109375 16.765625
vt -17.265625 16.765625
vt -17.265625 14.9453125
vt -16.109375 14.9453125
vt -16.109375 16.765625
vt -16.109375 14.9453125
vt -17.265625 14.9453125
vt -17.265625 16.765625
vt 17.546875 14.5078125
vt 17.546875 12.453125
vt 17.34375 12.453125
vt 17.34375 14.5078125
vt 17.765625 14.5078125
vt 17.765625 12.453125
vt 17.96875 14.5078125
vt 17.96875 12.453125
vt 18.171875 14.5078125
vt 18.171875 12.453125
vt 18.375 14.5078125
vt 18.375 12.453125
vt 18.546875 14.5078125
vt 18.546875 12.453125
vt 16.421875 12.453125
vt 16.421875 14.5078125
vt 18.34375 14.5078125
vt 18.328125 12.453125
vt 16.421875 12.453125
vt 16.421875 14.5078125
vt 18.34375 14.5078125
vt 18.328125 12.453125
vt 16.421875 12.453125
vt 16.421875 14.5078125
vt 18.34375 14.5078125
vt 18.328125 12.453125
vt 16.421875 12.453125
vt 16.421875 14.5078125
vt 18.34375 14.5078125
vt 18.328125 12.453125
vn 0.865437 -0.5010177 0
vn 0.865327 -0.5012077 0
vn 0.70480174 -0.7094043 0
vn 0.70480174 -0.7094043 0
vn 1 0 0
vn 1 0 0
vn 0.86602527 0.5000002 0
vn 0.86602527 0.5000002 0
vn -0.69132096 -0.7225479 0
vn -0.69132096 -0.7225479 0
vn -0.86045223 -0.5095312 0
vn -0.86045223 -0.5095312 0
vn -1 0 0
vn -1 0 0
vn -0.86602527 0.5000002 0
vn -0.86602527 0.5000002 0
vn -0.5000002 0.86602527 0
vn -0.5000002 0.86602527 0
vn -0.5000002 0.86602527 0
vn -0.5000002 0.86602527 0
vn -0 1 0
vn -0 1 0
vn 0.49999973 0.8660255 0
vn 0.49999973 0.8660255 0
vn 0.86602527 0.5000002 0
vn 0.86602527 0.5000002 0
vn -1 0 0
vn -1 0 0
vn -0 0 -1
vn -0 0 -1
vn -1 0 0
vn -1 0 0
vn -0 1 0
vn -0 1 0
vn -1 0 0
vn -1 0 0
vn -0 1 0
vn -0 0 -1
vn -0 0 -1
vn -0 1 0
vn 1 0 0
vn 1 0 0
vn -0 0 1
vn -0 0 1
vn -0 0 -1
vn -0 0 -1
vn 1 0 0
vn 1 0 0
vn -0 0 -1
vn -0 0 -1
vn -1 0 0
vn -1 0 0
vn -0 -1 0
vn -0 -1 0
vn -0 -1 0
vn -0 0 -1
vn -0 0 -1
vn -0 -1 0
vn -0 0 1
vn -0 0 1
vn 1 0 0
vn 1 0 0
vn -0 -1 0
vn -0 -1 0
vn 1 0 0
vn 1 0 0
vn -1 0 0
vn -1 0 0
vn -0 0 1
vn -0 0 1
vn -0 0 1
vn -0 0 1
vn -0 0 1
vn -0 0 1
vn 1 0 0
vn 1 0 0
vn 1 0 0
vn 1 0 0
vn -1 0 0
vn -0 0 -1
vn -0 1 0
vn -0 0 1
vn -0 1 0
vn 1 0 0
vn -0.99998236 -0.005937002 0
vn -0.99998236 -0.005937002 0
vn -0.99998236 -0.005937002 0
vn -0.99998236 -0.005937002 0
vn 1 3.9E-05 0
vn 1 3.9E-05 0
vn 1 3.9E-05 0
vn 1 3.9E-05 0
vn 0.991165 -0.13257256 0.0040666526
vn 0.9893841 -0.14526701 0.0040644864
vn 1 0 0
vn 1 0 0
vn 0.867947 -0.49664983 0.0026345893
vn 0.867947 -0.49664983 0.0026345893
vn 0.6964453 -0.71760863 0.0013371035
vn 0.6964453 -0.71760863 0.0013371035
vn 0.4869865 -0.87340945 3.0999658E-05
vn 0.4869865 -0.87340945 3.0999658E-05
vn 0.2568308 -0.96645564 -0.0012151254
vn 0.2568308 -0.96645564 -0.0012151254
vn 0.12848693 -0.99170953 -0.0018445817
vn 0.12848693 -0.99170953 -0.0018445817
vn 0.9999821 0.0056509185 0.0019997247
vn 0.9999821 0.0056509185 0.0019997247
vn 1 0 0
vn 1 0 0
vn 1 0 0
vn 1 0 0
vn 1 0 0
vn 1 0 0
vn 1 0 0
vn 1 0 0
vn 1 0 0
vn 1 0 0
vn 1 0 0
vn 1 0 0
vn 1 0 0
vn 1 0 0
g air_balloon_side_x2_01_0
f 3/3/3 2/2/2 1/1/1
f 4/4/4 3/3/3 1/1/1
f 1/1/1 2/2/2 5/5/5
f 2/2/2 6/6/6 5/5/5
f 5/5/5 6/6/6 7/7/7
f 6/6/6 8/8/8 7/7/7
f 11/11/11 10/10/10 9/9/9
f 12/12/12 11/11/11 9/9/9
f 13/13/13 11/11/11 12/12/12
f 14/14/14 13/13/13 12/12/12
f 15/15/15 13/13/13 14/14/14
f 16/16/16 15/15/15 14/14/14
f 17/17/17 15/15/15 16/16/16
f 18/18/18 17/17/17 16/16/16
f 21/21/21 20/20/20 19/19/19
f 22/22/22 21/21/21 19/19/19
f 23/23/23 21/21/21 22/22/22
f 24/24/24 23/23/23 22/22/22
f 25/25/25 23/23/23 24/24/24
f 26/26/26 25/25/25 24/24/24
f 29/29/29 28/28/28 27/27/27
f 30/30/30 29/29/29 27/27/27
f 31/31/31 27/27/27 28/28/28
f 32/32/32 31/31/31 28/28/28
f 35/35/35 34/34/34 33/33/33
f 36/36/36 35/35/35 33/33/33
f 37/37/37 33/33/33 34/34/34
f 33/33/33 37/37/37 38/38/38
f 37/37/37 39/39/39 38/38/38
f 40/40/40 37/37/37 34/34/34
f 37/37/37 40/40/40 41/41/41
f 37/37/37 41/41/41 39/39/39
f 40/40/40 42/42/42 41/41/41
f 43/43/43 40/40/40 34/34/34
f 44/44/44 43/43/43 34/34/34
f 35/35/35 44/44/44 34/34/34
f 47/47/47 46/46/46 45/45/45
f 48/48/48 47/47/47 45/45/45
f 46/46/46 49/49/49 45/45/45
f 49/49/49 50/50/50 45/45/45
f 53/53/53 52/52/52 51/51/51
f 54/54/54 53/53/53 51/51/51
f 53/53/53 54/54/54 55/55/55
f 56/56/56 55/55/55 54/54/54
f 57/57/57 56/56/56 54/54/54
f 57/57/57 54/54/54 51/51/51
f 58/58/58 53/53/53 55/55/55
f 53/53/53 58/58/58 59/59/59
f 52/52/52 53/53/53 59/59/59
f 58/58/58 60/60/60 59/59/59
f 56/56/56 61/61/61 55/55/55
f 62/62/62 60/60/60 58/58/58
f 65/65/65 64/64/64 63/63/63
f 66/66/66 65/65/65 63/63/63
f 69/69/69 68/68/68 67/67/67
f 70/70/70 69/69/69 67/67/67
f 69/69/69 70/70/70 71/71/71
f 72/72/72 69/69/69 71/71/71
f 75/75/75 74/74/74 73/73/73
f 76/76/76 75/75/75 73/73/73
f 77/77/77 75/75/75 76/76/76
f 78/78/78 77/77/77 76/76/76
f 81/81/81 80/80/80 79/79/79
f 84/84/84 83/83/83 82/82/82
g air_balloon_side_x2_01_1
f 87/87/87 86/86/86 85/85/85
f 88/88/88 87/87/87 85/85/85
f 91/91/91 90/90/90 89/89/89
f 92/92/92 91/91/91 89/89/89
f 95/95/95 94/94/94 93/93/93
f 96/96/96 95/95/95 93/93/93
f 93/93/93 94/94/94 97/97/97
f 94/94/94 98/98/98 97/97/97
f 97/97/97 98/98/98 99/99/99
f 98/98/98 100/100/100 99/99/99
f 99/99/99 100/100/100 101/101/101
f 100/100/100 102/102/102 101/101/101
f 101/101/101 102/102/102 103/103/103
f 102/102/102 104/104/104 103/103/103
f 103/103/103 104/104/104 105/105/105
f 104/104/104 106/106/106 105/105/105
f 109/109/109 108/108/108 107/107/107
f 110/110/110 109/109/109 107/107/107
f 113/113/113 112/112/112 111/111/111
f 114/114/114 113/113/113 111/111/111
f 117/117/117 116/116/116 115/115/115
f 118/118/118 117/117/117 115/115/115
f 121/121/121 120/120/120 119/119/119
f 122/122/122 121/121/121 119/119/119
