g airballoon_empty_01
v -41.352303 66.41083 -116.57379
v -41.352303 46.34027 -116.57379
v -38.00775 46.34027 -120
v -41.35228 66.41083 -3.2631264
v -41.35228 46.34027 -3.2631264
v -41.352303 66.41083 -116.57379
v -38.00775 46.34027 -120
v -38.00775 66.41083 -120
v 14.474431 66.41083 -120
v 14.474431 46.34027 -120
v -38.007668 69.75548 -116.57382
v -38.007675 69.75548 -3.2631035
v -41.35228 66.41083 -3.2631264
v -41.352303 66.41083 -116.57379
v 14.474332 69.75548 -116.57379
v -38.00775 66.41083 -120
v 14.474431 66.41083 -120
v 14.474343 69.75548 -3.2631302
v 17.819118 66.41083 -116.57379
v 17.819061 66.41083 -3.263157
v 14.474431 66.41083 -120
v 14.474431 46.34027 -120
v 17.819118 46.34027 -116.57379
v 17.819118 66.41083 -116.57379
v -41.352303 46.34027 -116.57379
v -41.35228 46.34027 -3.2631264
v -38.007675 42.99562 -3.2631035
v -38.007668 42.99562 -116.57382
v 14.474332 42.99562 -116.57379
v 14.474343 42.99562 -3.2631302
v 17.819061 46.34027 -3.263157
v 17.819118 46.34027 -116.57379
v -38.00773 46.34027 -3.4332275E-05
v 14.474401 46.34027 -3.2424927E-05
v -38.007668 42.99562 -116.57382
v 14.474332 42.99562 -116.57379
v 14.474431 46.34027 -120
v -38.00775 46.34027 -120
v -41.35228 46.34027 -3.2631264
v -41.35228 66.41083 -3.2631264
v -38.00773 66.41083 -3.4332275E-05
v -38.00773 46.34027 -3.4332275E-05
v -38.007675 69.75548 -3.2631035
v 14.474343 69.75548 -3.2631302
v 14.474401 66.41083 -3.2424927E-05
v -38.00773 66.41083 -3.4332275E-05
v -41.35228 66.41083 -3.2631264
v 14.474401 46.34027 -3.2424927E-05
v 14.474401 66.41083 -3.2424927E-05
v 17.819061 66.41083 -3.263157
v 17.819061 46.34027 -3.263157
v 17.819118 66.41083 -116.57379
v 17.819118 46.34027 -116.57379
v 14.474401 46.34027 -3.2424927E-05
v -38.00773 46.34027 -3.4332275E-05
v -38.00773 66.41083 -3.4332275E-05
v 14.474401 66.41083 -3.2424927E-05
v -41.352303 46.34027 -116.57379
v -38.007668 42.99562 -116.57382
v -38.00775 46.34027 -120
v 14.474332 42.99562 -116.57379
v 17.819118 46.34027 -116.57379
v 14.474431 46.34027 -120
v 14.474401 66.41083 -3.2424927E-05
v 14.474343 69.75548 -3.2631302
v 17.819061 66.41083 -3.263157
v -41.352303 66.41083 3.4262085
v -41.352303 46.34027 3.4262085
v -38.00773 46.34027 -3.4332275E-05
v -38.00773 66.41083 -3.4332275E-05
v -41.35228 66.41083 116.73688
v -41.35228 46.34027 116.73688
v -38.007668 69.75548 3.4261818
v -38.007675 69.75548 116.73689
v -41.35228 66.41083 116.73688
v -41.352303 66.41083 3.4262085
v -38.00773 66.41083 -3.4332275E-05
v -38.007706 66.41083 119.99994
v -38.00773 66.41083 -3.4332275E-05
v 14.474401 66.41083 -3.2424927E-05
v 14.474332 69.75548 3.4262085
v -38.007668 69.75548 3.4261818
v -38.007675 69.75548 116.73689
v 14.474343 69.75548 116.73687
v 17.819118 66.41083 3.4262047
v 17.819061 66.41083 116.73685
v 14.474373 66.41083 119.99993
v 14.474401 66.41083 -3.2424927E-05
v 14.474401 46.34027 -3.2424927E-05
v 17.819118 46.34027 3.4262047
v 17.819118 66.41083 3.4262047
v -41.352303 46.34027 3.4262085
v -41.35228 46.34027 116.73688
v -38.007675 42.99562 116.73689
v -38.007668 42.99562 3.4261818
v 14.474332 42.99562 3.4262085
v 14.474401 46.34027 -3.2424927E-05
v -38.00773 46.34027 -3.4332275E-05
v 14.474343 42.99562 116.73687
v -38.007706 46.34027 119.99994
v 14.474373 46.34027 119.99993
v 17.819118 46.34027 3.4262047
v 14.474332 42.99562 3.4262085
v 14.474343 42.99562 116.73687
v 17.819061 46.34027 116.73685
v 17.819118 46.34027 3.4262047
v 14.474373 46.34027 119.99993
v -41.35228 46.34027 116.73688
v -41.35228 66.41083 116.73688
v -38.007706 66.41083 119.99994
v -38.007706 46.34027 119.99994
v 14.474373 46.34027 119.99993
v 14.474373 66.41083 119.99993
v 17.819061 66.41083 116.73685
v -38.007675 69.75548 116.73689
v 14.474343 69.75548 116.73687
v 14.474373 66.41083 119.99993
v -38.007706 66.41083 119.99994
v 14.474373 46.34027 119.99993
v 17.819061 66.41083 116.73685
v 17.819061 46.34027 116.73685
v 17.819118 66.41083 3.4262047
v 17.819118 46.34027 3.4262047
v 14.474401 66.41083 -3.2424927E-05
v -38.00773 66.41083 -3.4332275E-05
v -38.00773 46.34027 -3.4332275E-05
v 14.474401 46.34027 -3.2424927E-05
v -1.9999352 -191 -120.00011
v -1.9999294 -191 -4.005432E-05
v -5.722046E-06 -179.99997 -2.0980835E-05
v -1.1444092E-05 -179.99997 -120.00008
v -7.999973 -202.99997 -120.000046
v -7.9999332 -202.99997 7.6293945E-06
v -14.999944 -213.00003 -120.00004
v -14.9999275 -213.00003 -3.8146973E-06
v -25.999865 -221 -119.99989
v -25.99989 -221 7.247925E-05
v -36.999886 -225 -119.999985
v -36.999893 -225 7.6293945E-06
v -48.999878 -227 -119.99997
v -48.999878 -227 3.2424927E-05
v -1.9073486E-06 -60.000004 -1.335144E-05
v -3.8146973E-06 -60.000004 -120.00006
v -1.1444092E-05 -179.99997 -120.00008
v -5.722046E-06 -179.99997 -2.0980835E-05
v 1.9073486E-06 60.000004 0
v 3.8146973E-06 60.000004 -120.00003
v -3.8146973E-06 -60.000004 -120.00006
v -1.9073486E-06 -60.000004 -1.335144E-05
v -1.9999294 -191 -4.005432E-05
v -1.9999238 -191 120.00003
v -0 -179.99997 120.00003
v -5.722046E-06 -179.99997 -2.0980835E-05
v -7.9999332 -202.99997 7.6293945E-06
v -7.999893 -202.99997 120.00006
v -14.9999275 -213.00003 -3.8146973E-06
v -14.999911 -213.00003 120.00003
v -25.99989 -221 7.247925E-05
v -25.999916 -221 120.00004
v -36.999893 -225 7.6293945E-06
v -36.999905 -225 120
v -48.999878 -227 3.2424927E-05
v -48.999878 -227 120.00003
v -0 -60.000004 120.00003
v -1.9073486E-06 -60.000004 -1.335144E-05
v -5.722046E-06 -179.99997 -2.0980835E-05
v -0 -179.99997 120.00003
v -0 60.000004 120.00003
v 1.9073486E-06 60.000004 0
v -1.9073486E-06 -60.000004 -1.335144E-05
v -0 -60.000004 120.00003
vt 0.84765625 0.13928223
vt 0.8251953 0.13928223
vt 0.8251953 0.14453125
vt 0.84765625 0.011962891
vt 0.8251953 0.011962891
vt 0.84765625 0.13928223
vt 0.8251953 0.14453125
vt 0.84765625 0.14453125
vt 0.84765625 0.20349121
vt 0.8251953 0.20349121
vt 0.45507812 0.018173218
vt 0.58447266 0.019195557
vt 0.5854492 0.013977051
vt 0.45410156 0.012550354
vt 0.4555664 0.0791626
vt 0.44970703 0.017028809
vt 0.45043945 0.080444336
vt 0.58496094 0.07910156
vt 0.4543457 0.08441162
vt 0.5864258 0.08441162
vt 0.84765625 0.20349121
vt 0.8251953 0.20349121
vt 0.8251953 0.2088623
vt 0.84765625 0.2088623
vt 0.3083496 0.08251953
vt 0.43847656 0.08251953
vt 0.43725586 0.07733154
vt 0.30932617 0.07739258
vt 0.31103516 0.018569946
vt 0.4387207 0.018539429
vt 0.4399414 0.013366699
vt 0.30981445 0.013381958
vt 0.4423828 0.078552246
vt 0.4440918 0.01739502
vt 0.30932617 0.07739258
vt 0.31103516 0.018569946
vt 0.30566406 0.01739502
vt 0.30419922 0.078552246
vt 0.90722656 0.011505127
vt 0.8847656 0.011505127
vt 0.8847656 0.016815186
vt 0.90722656 0.016815186
vt 0.58447266 0.019195557
vt 0.58496094 0.07910156
vt 0.59033203 0.0803833
vt 0.58984375 0.018035889
vt 0.5854492 0.013977051
vt 0.90722656 0.07574463
vt 0.8847656 0.07574463
vt 0.8847656 0.08105469
vt 0.90722656 0.08105469
vt 0.8847656 0.20837402
vt 0.90722656 0.20837402
vt 0.90722656 0.07574463
vt 0.90722656 0.016815186
vt 0.8847656 0.016815186
vt 0.8847656 0.07574463
vt 0.3083496 0.08251953
vt 0.30932617 0.07739258
vt 0.30419922 0.078552246
vt 0.31103516 0.018569946
vt 0.30981445 0.013381958
vt 0.30566406 0.01739502
vt 0.59033203 0.0803833
vt 0.58496094 0.07910156
vt 0.5864258 0.08441162
vt 0.84765625 0.13928223
vt 0.8251953 0.13928223
vt 0.8251953 0.14453125
vt 0.84765625 0.14453125
vt 0.84765625 0.011962891
vt 0.8251953 0.011962891
vt 0.45507812 0.018173218
vt 0.58447266 0.019195557
vt 0.5854492 0.013977051
vt 0.45410156 0.012550354
vt 0.44970703 0.017028809
vt 0.58984375 0.018035889
vt 0.44970703 0.017028809
vt 0.45043945 0.080444336
vt 0.4555664 0.0791626
vt 0.45507812 0.018173218
vt 0.58447266 0.019195557
vt 0.58496094 0.07910156
vt 0.4543457 0.08441162
vt 0.5864258 0.08441162
vt 0.59033203 0.0803833
vt 0.84765625 0.20349121
vt 0.8251953 0.20349121
vt 0.8251953 0.2088623
vt 0.84765625 0.2088623
vt 0.3083496 0.08251953
vt 0.43847656 0.08251953
vt 0.43725586 0.07733154
vt 0.30932617 0.07739258
vt 0.31103516 0.018569946
vt 0.30566406 0.01739502
vt 0.30419922 0.078552246
vt 0.4387207 0.018539429
vt 0.4423828 0.078552246
vt 0.4440918 0.01739502
vt 0.30981445 0.013381958
vt 0.31103516 0.018569946
vt 0.4387207 0.018539429
vt 0.4399414 0.013366699
vt 0.30981445 0.013381958
vt 0.4440918 0.01739502
vt 0.90722656 0.011505127
vt 0.8847656 0.011505127
vt 0.8847656 0.016815186
vt 0.90722656 0.016815186
vt 0.90722656 0.07574463
vt 0.8847656 0.07574463
vt 0.8847656 0.08105469
vt 0.58447266 0.019195557
vt 0.58496094 0.07910156
vt 0.59033203 0.0803833
vt 0.58984375 0.018035889
vt 0.90722656 0.07574463
vt 0.8847656 0.08105469
vt 0.90722656 0.08105469
vt 0.8847656 0.20837402
vt 0.90722656 0.20837402
vt 0.84765625 0.20349121
vt 0.84765625 0.14453125
vt 0.8251953 0.14453125
vt 0.8251953 0.20349121
vt 17.546875 14.5078125
vt 17.546875 12.453125
vt 17.34375 12.453125
vt 17.34375 14.5078125
vt 17.765625 14.5078125
vt 17.765625 12.453125
vt 17.96875 14.5078125
vt 17.96875 12.453125
vt 18.171875 14.5078125
vt 18.171875 12.453125
vt 18.375 14.5078125
vt 18.375 12.453125
vt 18.546875 14.5078125
vt 18.546875 12.453125
vt 16.421875 12.453125
vt 16.421875 14.5078125
vt 18.34375 14.5078125
vt 18.328125 12.453125
vt 16.421875 12.453125
vt 16.421875 14.5078125
vt 18.34375 14.5078125
vt 18.328125 12.453125
vt 17.546875 14.5078125
vt 17.546875 12.453125
vt 17.34375 12.453125
vt 17.34375 14.5078125
vt 17.765625 14.5078125
vt 17.765625 12.453125
vt 17.96875 14.5078125
vt 17.96875 12.453125
vt 18.171875 14.5078125
vt 18.171875 12.453125
vt 18.375 14.5078125
vt 18.375 12.453125
vt 18.546875 14.5078125
vt 18.546875 12.453125
vt 16.421875 12.453125
vt 16.421875 14.5078125
vt 18.34375 14.5078125
vt 18.328125 12.453125
vt 16.421875 12.453125
vt 16.421875 14.5078125
vt 18.34375 14.5078125
vt 18.328125 12.453125
vn -1 0 0
vn -1 0 0
vn -0 0 -1
vn -1 0 0
vn -1 0 0
vn -1 0 0
vn -0 0 -1
vn -0 0 -1
vn -0 0 -1
vn -0 0 -1
vn -0 1 0
vn -0 1 0
vn -1 0 0
vn -1 0 0
vn -0 1 0
vn -0 0 -1
vn -0 0 -1
vn -0 1 0
vn 1 0 0
vn 1 0 0
vn -0 0 -1
vn -0 0 -1
vn 1 0 0
vn 1 0 0
vn -1 0 0
vn -1 0 0
vn -0 -1 0
vn -0 -1 0
vn -0 -1 0
vn -0 -1 0
vn 1 0 0
vn 1 0 0
vn -0 0 1
vn -0 0 1
vn -0 -1 0
vn -0 -1 0
vn -0 0 -1
vn -0 0 -1
vn -1 0 0
vn -1 0 0
vn -0 0 1
vn -0 0 1
vn -0 1 0
vn -0 1 0
vn -0 0 1
vn -0 0 1
vn -1 0 0
vn -0 0 1
vn -0 0 1
vn 1 0 0
vn 1 0 0
vn 1 0 0
vn 1 0 0
vn -0 0 1
vn -0 0 1
vn -0 0 1
vn -0 0 1
vn -1 0 0
vn -0 -1 0
vn -0 0 -1
vn -0 -1 0
vn 1 0 0
vn -0 0 -1
vn -0 0 1
vn -0 1 0
vn 1 0 0
vn -1 0 0
vn -1 0 0
vn -0 0 -1
vn -0 0 -1
vn -1 0 0
vn -1 0 0
vn -0 1 0
vn -0 1 0
vn -1 0 0
vn -1 0 0
vn -0 0 -1
vn -0 0 1
vn -0 0 -1
vn -0 0 -1
vn -0 1 0
vn -0 1 0
vn -0 1 0
vn -0 1 0
vn 1 0 0
vn 1 0 0
vn -0 0 1
vn -0 0 -1
vn -0 0 -1
vn 1 0 0
vn 1 0 0
vn -1 0 0
vn -1 0 0
vn -0 -1 0
vn -0 -1 0
vn -0 -1 0
vn -0 0 -1
vn -0 0 -1
vn -0 -1 0
vn -0 0 1
vn -0 0 1
vn 1 0 0
vn -0 -1 0
vn -0 -1 0
vn 1 0 0
vn 1 0 0
vn -0 0 1
vn -1 0 0
vn -1 0 0
vn -0 0 1
vn -0 0 1
vn -0 0 1
vn -0 0 1
vn 1 0 0
vn -0 1 0
vn -0 1 0
vn -0 0 1
vn -0 0 1
vn -0 0 1
vn 1 0 0
vn 1 0 0
vn 1 0 0
vn 1 0 0
vn -0 0 -1
vn -0 0 -1
vn -0 0 -1
vn -0 0 -1
vn 0.991165 -0.13257256 0.0040666526
vn 0.991165 -0.13257256 0.0040666526
vn 1 0 0
vn 1 0 0
vn 0.867947 -0.49664983 0.0026345893
vn 0.867947 -0.49664983 0.0026345893
vn 0.6964453 -0.71760863 0.0013371035
vn 0.6964453 -0.71760863 0.0013371035
vn 0.4869865 -0.87340945 3.0999658E-05
vn 0.4869865 -0.87340945 3.0999658E-05
vn 0.2568308 -0.96645564 -0.0012151254
vn 0.2568308 -0.96645564 -0.0012151254
vn 0.12848693 -0.99170953 -0.0018445817
vn 0.12848693 -0.99170953 -0.0018445817
vn 1 0 0
vn 1 0 0
vn 1 0 0
vn 1 0 0
vn 1 0 0
vn 1 0 0
vn 1 0 0
vn 1 0 0
vn 0.991165 -0.13257256 0.0040666526
vn 0.9893841 -0.14526701 0.0040644864
vn 1 0 0
vn 1 0 0
vn 0.867947 -0.49664983 0.0026345893
vn 0.867947 -0.49664983 0.0026345893
vn 0.6964453 -0.71760863 0.0013371035
vn 0.6964453 -0.71760863 0.0013371035
vn 0.4869865 -0.87340945 3.0999658E-05
vn 0.4869865 -0.87340945 3.0999658E-05
vn 0.2568308 -0.96645564 -0.0012151254
vn 0.2568308 -0.96645564 -0.0012151254
vn 0.12848693 -0.99170953 -0.0018445817
vn 0.12848693 -0.99170953 -0.0018445817
vn 1 0 0
vn 1 0 0
vn 1 0 0
vn 1 0 0
vn 1 0 0
vn 1 0 0
vn 1 0 0
vn 1 0 0
g airballoon_empty_01_0
f 3/3/3 2/2/2 1/1/1
f 4/4/4 1/1/1 2/2/2
f 5/5/5 4/4/4 2/2/2
f 8/8/8 7/7/7 6/6/6
f 7/7/7 8/8/8 9/9/9
f 10/10/10 7/7/7 9/9/9
f 13/13/13 12/12/12 11/11/11
f 14/14/14 13/13/13 11/11/11
f 15/15/15 11/11/11 12/12/12
f 11/11/11 15/15/15 16/16/16
f 11/11/11 16/16/16 14/14/14
f 15/15/15 17/17/17 16/16/16
f 18/18/18 15/15/15 12/12/12
f 15/15/15 18/18/18 19/19/19
f 15/15/15 19/19/19 17/17/17
f 18/18/18 20/20/20 19/19/19
f 23/23/23 22/22/22 21/21/21
f 24/24/24 23/23/23 21/21/21
f 27/27/27 26/26/26 25/25/25
f 28/28/28 27/27/27 25/25/25
f 27/27/27 28/28/28 29/29/29
f 30/30/30 27/27/27 29/29/29
f 31/31/31 30/30/30 29/29/29
f 32/32/32 31/31/31 29/29/29
f 27/27/27 30/30/30 33/33/33
f 26/26/26 27/27/27 33/33/33
f 30/30/30 34/34/34 33/33/33
f 31/31/31 34/34/34 30/30/30
f 37/37/37 36/36/36 35/35/35
f 38/38/38 37/37/37 35/35/35
f 41/41/41 40/40/40 39/39/39
f 42/42/42 41/41/41 39/39/39
f 45/45/45 44/44/44 43/43/43
f 46/46/46 45/45/45 43/43/43
f 47/47/47 46/46/46 43/43/43
f 50/50/50 49/49/49 48/48/48
f 51/51/51 50/50/50 48/48/48
f 52/52/52 50/50/50 51/51/51
f 53/53/53 52/52/52 51/51/51
f 56/56/56 55/55/55 54/54/54
f 57/57/57 56/56/56 54/54/54
f 60/60/60 59/59/59 58/58/58
f 63/63/63 62/62/62 61/61/61
f 66/66/66 65/65/65 64/64/64
f 69/69/69 68/68/68 67/67/67
f 70/70/70 69/69/69 67/67/67
f 71/71/71 67/67/67 68/68/68
f 72/72/72 71/71/71 68/68/68
f 75/75/75 74/74/74 73/73/73
f 76/76/76 75/75/75 73/73/73
f 73/73/73 77/77/77 76/76/76
f 75/75/75 78/78/78 74/74/74
f 81/81/81 80/80/80 79/79/79
f 82/82/82 81/81/81 79/79/79
f 81/81/81 82/82/82 83/83/83
f 84/84/84 81/81/81 83/83/83
f 81/81/81 84/84/84 85/85/85
f 81/81/81 85/85/85 80/80/80
f 84/84/84 86/86/86 85/85/85
f 86/86/86 84/84/84 87/87/87
f 90/90/90 89/89/89 88/88/88
f 91/91/91 90/90/90 88/88/88
f 94/94/94 93/93/93 92/92/92
f 95/95/95 94/94/94 92/92/92
f 94/94/94 95/95/95 96/96/96
f 97/97/97 96/96/96 95/95/95
f 98/98/98 97/97/97 95/95/95
f 98/98/98 95/95/95 92/92/92
f 99/99/99 94/94/94 96/96/96
f 94/94/94 99/99/99 100/100/100
f 93/93/93 94/94/94 100/100/100
f 99/99/99 101/101/101 100/100/100
f 97/97/97 102/102/102 96/96/96
f 105/105/105 104/104/104 103/103/103
f 106/106/106 105/105/105 103/103/103
f 105/105/105 107/107/107 104/104/104
f 110/110/110 109/109/109 108/108/108
f 111/111/111 110/110/110 108/108/108
f 110/110/110 111/111/111 112/112/112
f 113/113/113 110/110/110 112/112/112
f 114/114/114 113/113/113 112/112/112
f 117/117/117 116/116/116 115/115/115
f 118/118/118 117/117/117 115/115/115
f 121/121/121 120/120/120 119/119/119
f 122/122/122 120/120/120 121/121/121
f 123/123/123 122/122/122 121/121/121
f 126/126/126 125/125/125 124/124/124
f 127/127/127 126/126/126 124/124/124
g airballoon_empty_01_1
f 130/130/130 129/129/129 128/128/128
f 131/131/131 130/130/130 128/128/128
f 128/128/128 129/129/129 132/132/132
f 129/129/129 133/133/133 132/132/132
f 132/132/132 133/133/133 134/134/134
f 133/133/133 135/135/135 134/134/134
f 134/134/134 135/135/135 136/136/136
f 135/135/135 137/137/137 136/136/136
f 136/136/136 137/137/137 138/138/138
f 137/137/137 139/139/139 138/138/138
f 138/138/138 139/139/139 140/140/140
f 139/139/139 141/141/141 140/140/140
f 144/144/144 143/143/143 142/142/142
f 145/145/145 144/144/144 142/142/142
f 148/148/148 147/147/147 146/146/146
f 149/149/149 148/148/148 146/146/146
f 152/152/152 151/151/151 150/150/150
f 153/153/153 152/152/152 150/150/150
f 150/150/150 151/151/151 154/154/154
f 151/151/151 155/155/155 154/154/154
f 154/154/154 155/155/155 156/156/156
f 155/155/155 157/157/157 156/156/156
f 156/156/156 157/157/157 158/158/158
f 157/157/157 159/159/159 158/158/158
f 158/158/158 159/159/159 160/160/160
f 159/159/159 161/161/161 160/160/160
f 160/160/160 161/161/161 162/162/162
f 161/161/161 163/163/163 162/162/162
f 166/166/166 165/165/165 164/164/164
f 167/167/167 166/166/166 164/164/164
f 170/170/170 169/169/169 168/168/168
f 171/171/171 170/170/170 168/168/168
