g arrows
v -1.382569 -0.062184438 1.5195023
v -0.5100623 -0.062184524 1.5195023
v -0.50895303 -0.12525205 1.5220098
v -1.3836285 -0.12525205 1.5220098
v -1.3820937 -0.029588947 1.5094467
v -0.5105597 -0.02958906 1.5094467
v -1.3817679 -0.0057023903 1.4843583
v -0.5109005 -0.005702419 1.4843584
v -1.3816488 0.0029730797 1.4510655
v -0.5110252 0.0029730606 1.4510655
v -1.3816522 0.0029730797 0.3696205
v -0.51102203 0.0029730797 0.3696205
v -1.3817679 -0.005702362 0.33632767
v -0.5109006 -0.0057024 0.33632758
v -1.3820934 -0.0295975 0.31123397
v -0.51055986 -0.029597616 0.3112339
v -1.3825635 -0.06308737 0.30114746
v -0.5100678 -0.063087456 0.30114746
v -1.3836285 -0.12525204 0.29867622
v -0.50895303 -0.12525204 0.29867622
vt 0.7302211 1.0130508
vt 0.26990682 1.0131309
vt 0.2694067 1.0521654
vt 0.7307066 1.0520852
vt 0.7300032 0.9925379
vt 0.2701309 0.99261796
vt 0.72985303 0.97193
vt 0.2702836 0.97201
vt 0.72979677 0.951232
vt 0.27033803 0.95131195
vt 0.7297052 0.048670176
vt 0.27024356 0.048750155
vt 0.72975576 0.027972195
vt 0.27018633 0.028052118
vt 0.7299015 0.007364072
vt 0.2700293 0.0074441056
vt 0.7301129 -0.013687018
vt 0.2698036 -0.013606902
vt 0.73059297 -0.05216533
vt 0.26929325 -0.0520851
vn -0 0.12895744 0.9916501
vn -0 0.12890422 0.991657
vn -0 0.03972991 0.9992105
vn -0 0.039729904 0.9992105
vn -0 0.5265453 0.85014707
vn -0 0.526469 0.8501944
vn -0 0.8727945 0.4880878
vn -0 0.87277037 0.48813084
vn -0 0.9999696 0.007799925
vn -0 0.9999696 0.007800714
vn -0 0.9999696 -0.007799507
vn -0 0.9999696 -0.007800295
vn -0 0.8727634 -0.4881435
vn -0 0.87273943 -0.48818642
vn -0 0.5209122 -0.8536102
vn -0 0.52083576 -0.8536569
vn -0 0.12893796 -0.99165267
vn -0 0.12888557 -0.99165946
vn -0 0.039721724 -0.9992107
vn -0 0.039721724 -0.9992107
g arrows_0
f 3/3/3 2/2/2 1/1/1
f 4/4/4 3/3/3 1/1/1
f 5/5/5 1/1/1 2/2/2
f 6/6/6 5/5/5 2/2/2
f 7/7/7 5/5/5 6/6/6
f 8/8/8 7/7/7 6/6/6
f 9/9/9 7/7/7 8/8/8
f 10/10/10 9/9/9 8/8/8
f 11/11/11 9/9/9 10/10/10
f 12/12/12 11/11/11 10/10/10
f 13/13/13 11/11/11 12/12/12
f 14/14/14 13/13/13 12/12/12
f 15/15/15 13/13/13 14/14/14
f 16/16/16 15/15/15 14/14/14
f 17/17/17 15/15/15 16/16/16
f 18/18/18 17/17/17 16/16/16
f 19/19/19 17/17/17 18/18/18
f 20/20/20 19/19/19 18/18/18
