g background_mesh
v -0.04085921 -5.26378E-10 0.07392269
v 0.031810224 -5.26378E-10 0.074349485
v 0.031810224 0.029789612 0.074349485
v -0.04085921 0.029789612 0.07392269
v -0.04085921 0.050337538 0.07392269
v 0.031810224 0.050337538 0.074349485
v -0.04085921 0.029789612 -0.069582544
v 0.031810224 0.029789612 -0.07000935
v 0.031810224 -5.26378E-10 -0.07000935
v -0.04085921 -5.26378E-10 -0.069582544
v -0.04085921 0.050337538 -0.069582544
v 0.031810224 0.050337538 -0.07000935
v -0.04085921 -5.26378E-10 -0.069582544
v -0.04085921 -5.26378E-10 0.07392269
v -0.04085921 0.029789612 0.07392269
v -0.04085921 0.029789612 -0.069582544
v -0.04085921 0.050337538 -0.069582544
v -0.04085921 0.050337538 0.07392269
v -0.04085921 -0.1361103 0.044193324
v -0.04085921 -0.1361103 -0.038957056
v 0.031810224 0.029789612 0.074349485
v 0.031810224 -5.26378E-10 0.074349485
v 0.031810224 -5.26378E-10 0.1280564
v 0.031810224 0.029789612 0.1280564
v 0.031810224 0.050337538 0.074349485
v 0.031810224 0.05033754 0.1280564
v 0.031810228 -0.1361103 0.08640072
v 0.031810224 -0.1361103 0.044620123
v 0.031810224 -5.26378E-10 -0.07000935
v 0.031810224 0.029789612 -0.07000935
v 0.031810224 0.029789612 -0.12713933
v 0.031810224 -5.26378E-10 -0.12713933
v 0.031810224 0.050337538 -0.12713933
v 0.031810224 0.050337538 -0.07000935
v 0.031810224 -0.1361103 -0.039383862
v 0.031810228 -0.1361103 -0.06924518
v 0.031810224 -5.26378E-10 0.1280564
v 0.13874264 -5.26378E-10 0.1280564
v 0.13874264 0.029789612 0.1280564
v 0.031810224 0.029789612 0.1280564
v 0.13874264 0.050337538 0.1280564
v 0.031810224 0.05033754 0.1280564
v 0.13874264 -5.26378E-10 0.1280564
v 0.13874264 -5.26378E-10 0.2037368
v 0.13874264 0.029789612 0.2037368
v 0.13874264 0.029789612 0.1280564
v 0.13874264 0.050337538 0.2037368
v 0.13874264 0.050337538 0.1280564
v 0.031810224 0.050337538 -0.12713933
v 0.15991023 0.050337538 -0.12713933
v 0.15991023 0.029789612 -0.12713933
v 0.031810224 0.029789612 -0.12713933
v 0.031810224 0.029789612 -0.12713933
v 0.15991023 0.029789612 -0.12713933
v 0.15991023 -5.26378E-10 -0.12713933
v 0.031810224 -5.26378E-10 -0.12713933
v -0.04085921 -5.26378E-10 0.07392269
v -0.04085921 -0.1361103 0.044193324
v 0.031810224 -0.1361103 0.044620123
v 0.031810224 -5.26378E-10 0.074349485
v 0.031810224 -5.26378E-10 -0.07000935
v 0.031810224 -0.1361103 -0.039383862
v -0.04085921 -0.1361103 -0.038957056
v -0.04085921 -5.26378E-10 -0.069582544
v 0.031810224 -5.26378E-10 0.1280564
v 0.031810228 -0.1361103 0.08640072
v 0.18283828 -0.1361103 0.08640072
v 0.13874264 -5.26378E-10 0.1280564
v 0.13874264 -5.26378E-10 0.1280564
v 0.18283828 -0.1361103 0.08640072
v 0.18283825 -0.1361103 0.2037368
v 0.13874264 -5.26378E-10 0.2037368
v 0.15991023 -5.26378E-10 -0.12713933
v 0.18808292 -0.1361103 -0.06924518
v 0.031810228 -0.1361103 -0.06924518
v 0.031810224 -5.26378E-10 -0.12713933
v 0.031810228 -0.1361103 0.08640072
v 0.031810228 -0.1361103 -0.06924518
v 0.18808292 -0.1361103 -0.06924518
v 0.18283828 -0.1361103 0.08640072
v -0.04085921 -0.1361103 0.044193324
v -0.04085921 -0.1361103 -0.038957056
v 0.031810224 -0.1361103 -0.039383862
v 0.031810224 -0.1361103 0.044620123
vt -0.46606946 1.2355635E-08
vt -1.6710677 3.8818518E-05
vt -1.6710677 0.58766574
vt -0.4660695 0.58766574
vt -0.4660695 1.0187885
vt -1.6710677 1.0187885
vt 1.777731 0.58766574
vt 3.5580375 0.58766574
vt 3.5580375 -8.047954E-09
vt 1.777731 -3.42546E-08
vt 1.777731 1.0187885
vt 3.5580375 1.0187885
vt 1.777731 -3.42546E-08
vt -0.46606946 1.2355635E-08
vt -0.4660695 0.58766574
vt 1.777731 0.58766574
vt 1.777731 1.0187885
vt -0.4660695 1.0187885
vt -0.46606952 -0.98025584
vt 1.777731 -0.98025596
vt -1.6710677 0.58766574
vt -1.6710677 3.8818518E-05
vt -2.8893974 0.00039053662
vt -2.8893974 0.58766574
vt -1.6710677 1.0187885
vt -2.8893974 1.0187885
vt -2.8893974 -0.9799831
vt -1.6710677 -0.9801397
vt 3.5580375 -8.047954E-09
vt 3.5580375 0.58766574
vt 4.649961 0.58766574
vt 4.649961 0.00020956657
vt 4.649961 1.0187885
vt 3.5580375 1.0187885
vt 3.5580375 -0.98025644
vt 4.649961 -0.9802563
vt -2.8893974 0.00039053662
vt -4.7640214 0.0007235662
vt -4.7640214 0.58766574
vt -2.8893974 0.58766574
vt -4.7640214 1.0187885
vt -2.8893974 1.0187885
vt -4.7640214 0.0007235662
vt -5.8287034 0.0007425705
vt -5.8287034 0.58766574
vt -4.7640214 0.58766574
vt -5.8287034 1.0187885
vt -4.7640214 1.0187885
vt 4.649961 0.58766574
vt 4.649961 1.0187885
vt 5.8704643 1.0187885
vt 5.8704643 0.58766574
vt 4.649961 0.58766574
vt 5.8704643 0.58766574
vt 5.8704643 0.0067013893
vt 4.649961 0.00020956657
vt -0.46606946 1.2355635E-08
vt -0.4660695 -0.98025596
vt -1.6710677 -0.98025584
vt -1.6710677 3.8818518E-05
vt 3.5580375 -8.047954E-09
vt 3.5580375 -0.98025584
vt 1.777731 -0.98025596
vt 1.777731 -3.42546E-08
vt -2.8893974 0.00039053662
vt -2.8893974 -0.9797468
vt -4.7640214 -0.9796087
vt -4.7640214 0.0007235662
vt -4.7640214 0.0007235662
vt -4.7640214 -0.97949916
vt -5.8287034 -0.9795083
vt -5.8287034 0.0007425705
vt 5.8704643 0.0067013893
vt 5.8704643 -0.9739642
vt 4.649961 -0.9794083
vt 4.649961 0.00020956657
vt 0.11092055 1.9867064
vt 0.11092055 3.6565056
vt 0.9491055 3.6565056
vt 0.81060123 1.9867064
vt 0.9666058 1.989499
vt 0.9666058 2.9284837
vt 1.4420972 2.9312763
vt 1.4420972 1.9867064
vn 0.0058730207 0 -0.99998283
vn 0.0058730207 0 -0.99998283
vn 0.005873025 0 -0.99998283
vn 0.005873025 0 -0.99998283
vn 0.005873032 0 -0.99998283
vn 0.005873032 0 -0.99998283
vn 0.0058731562 0 0.99998283
vn 0.0058731562 0 0.99998283
vn 0.0058731535 0 0.99998283
vn 0.0058731535 0 0.99998283
vn 0.00587316 0 0.99998283
vn 0.00587316 0 0.99998283
vn 1 0 0
vn 1 0 0
vn 1 0 0
vn 1 0 0
vn 1 0 0
vn 1 0 0
vn 1 0 0
vn 1 0 0
vn 1 0 0
vn 1 0 0
vn 1 0 0
vn 1 0 0
vn 1 0 0
vn 1 0 0
vn 1 0 0
vn 1 0 0
vn 1 0 0
vn 1 0 0
vn 1 0 0
vn 1 0 0
vn 1 0 0
vn 1 0 0
vn 1 0 0
vn 1 0 0
vn -0 0 -1
vn -0 0 -1
vn -0 0 -1
vn -0 0 -1
vn -0 0 -1
vn -0 0 -1
vn 1 0 0
vn 1 0 0
vn 1 0 0
vn 1 0 0
vn 1 0 0
vn 1 0 0
vn -0 0 1
vn -0 0 1
vn -0 0 1
vn -0 0 1
vn -0 0 1
vn -0 0 1
vn -0 0 1
vn -0 0 1
vn 0.0057377657 0.21338667 -0.97695094
vn 0.0057377666 0.21338667 -0.97695094
vn 0.0057377657 0.21338667 -0.97695094
vn 0.0057377666 0.21338667 -0.97695094
vn 0.0057299584 0.21951313 0.97559273
vn 0.0057299575 0.21951312 0.97559273
vn 0.0057299584 0.21951313 0.97559273
vn 0.0057299575 0.21951312 0.97559273
vn -0 0.29264536 -0.95622104
vn -0 0.29264534 -0.95622104
vn -0 0.29264534 -0.95622104
vn -0 0.29264536 -0.95622104
vn 0.9513218 0.3081995 1.9338829E-07
vn 0.9513218 0.30819947 1.933883E-07
vn 0.9513218 0.3081995 1.9338827E-07
vn 0.9513218 0.3081995 1.9338827E-07
vn -0 0.39141127 0.9202158
vn -0 0.3914113 0.9202158
vn -0 0.39141127 0.9202158
vn -0 0.39141127 0.9202158
vn -0 1 0
vn -0 1 0
vn -0 1 0
vn -0 1 0
vn -0 1 0
vn -0 1 0
vn -0 1 0
vn -0 1 0
g background_mesh_0
f 3/3/3 2/2/2 1/1/1
f 4/4/4 3/3/3 1/1/1
f 4/4/4 5/5/5 3/3/3
f 5/5/5 6/6/6 3/3/3
f 9/9/9 8/8/8 7/7/7
f 10/10/10 9/9/9 7/7/7
f 7/7/7 8/8/8 11/11/11
f 8/8/8 12/12/12 11/11/11
f 15/15/15 14/14/14 13/13/13
f 16/16/16 15/15/15 13/13/13
f 16/16/16 17/17/17 15/15/15
f 17/17/17 18/18/18 15/15/15
f 14/14/14 19/19/19 13/13/13
f 19/19/19 20/20/20 13/13/13
f 23/23/23 22/22/22 21/21/21
f 24/24/24 23/23/23 21/21/21
f 24/24/24 21/21/21 25/25/25
f 26/26/26 24/24/24 25/25/25
f 23/23/23 27/27/27 22/22/22
f 27/27/27 28/28/28 22/22/22
f 31/31/31 30/30/30 29/29/29
f 32/32/32 31/31/31 29/29/29
f 31/31/31 33/33/33 30/30/30
f 33/33/33 34/34/34 30/30/30
f 29/29/29 35/35/35 32/32/32
f 35/35/35 36/36/36 32/32/32
f 39/39/39 38/38/38 37/37/37
f 40/40/40 39/39/39 37/37/37
f 41/41/41 39/39/39 40/40/40
f 42/42/42 41/41/41 40/40/40
f 45/45/45 44/44/44 43/43/43
f 46/46/46 45/45/45 43/43/43
f 47/47/47 45/45/45 46/46/46
f 48/48/48 47/47/47 46/46/46
f 51/51/51 50/50/50 49/49/49
f 52/52/52 51/51/51 49/49/49
f 55/55/55 54/54/54 53/53/53
f 56/56/56 55/55/55 53/53/53
f 59/59/59 58/58/58 57/57/57
f 60/60/60 59/59/59 57/57/57
f 63/63/63 62/62/62 61/61/61
f 64/64/64 63/63/63 61/61/61
f 67/67/67 66/66/66 65/65/65
f 68/68/68 67/67/67 65/65/65
f 71/71/71 70/70/70 69/69/69
f 72/72/72 71/71/71 69/69/69
f 75/75/75 74/74/74 73/73/73
f 76/76/76 75/75/75 73/73/73
f 79/79/79 78/78/78 77/77/77
f 80/80/80 79/79/79 77/77/77
f 83/83/83 82/82/82 81/81/81
f 84/84/84 83/83/83 81/81/81
