g balloon_string
v -0.042834472 4.1629252 0.21037719
v -0.042609863 4.2001038 0.011121826
v 0.10507812 4.1860943 0.074823
v -0.19062988 4.2007995 0.07533325
v -0.2520996 4.1975718 0.22479126
v -0.19084716 4.1958995 0.36843383
v -0.043088377 4.2171354 0.41810423
v 0.10484619 4.203171 0.36756223
v 0.16624999 4.1910977 0.22435912
v 0.12463867 4.133436 0.05600952
v -0.04293457 4.1545033 -0.023121336
v -0.21049072 4.1471076 0.05678833
v -0.27990234 4.1384425 0.22947143
v -0.2104956 4.1400175 0.39565796
v -0.042924803 4.1714044 0.45943725
v 0.12463867 4.1482997 0.3949719
v 0.19404785 4.13305 0.22952026
v -0.04293457 4.1545033 -0.023121336
v -0.043232422 4.0503263 0.010562744
v 0.09412109 4.0456853 0.08263061
v 0.12463867 4.133436 0.05600952
v -0.21049072 4.1471076 0.05678833
v -0.18026367 4.051872 0.08241577
v -0.27990234 4.1384425 0.22947143
v -0.236875 4.0600696 0.22520141
v -0.2104956 4.1400175 0.39565796
v -0.18005615 4.0696564 0.36550415
v -0.042924803 4.1714044 0.45943725
v -0.042773437 4.080113 0.42882934
v 0.12463867 4.1482997 0.3949719
v 0.0943457 4.076778 0.36467895
v 0.19404785 4.13305 0.22952026
v 0.15102294 4.053639 0.2262732
v -0.043012694 4.0322013 0.2191809
v 0.040690918 0.1971933 0.0414917
v 0.036120605 0.5614575 0.06424805
v -0.012531738 0.5627066 0.044135742
v -0.012531738 0.19882599 0.019506836
v -0.061184082 0.5614575 0.06424805
v -0.06575439 0.1971933 0.0414917
v -0.08133789 0.55844235 0.11280762
v -0.08779785 0.19325164 0.09456787
v -0.061184082 0.55542696 0.16136718
v -0.06575439 0.18931 0.14764404
v -0.012531738 0.5541782 0.18148193
v -0.012531738 0.18767731 0.1696289
v 0.06273682 0.19325164 0.09456787
v 0.056274414 0.55844235 0.11280762
v 0.040690918 0.18931 0.14764404
v 0.036120605 0.55542696 0.16136718
v -0.012531738 0.18767731 0.1696289
v -0.012531738 0.5541782 0.18148193
v -0.057531737 0.92635494 0.07170654
v -0.07616943 0.92433745 0.116660155
v -0.057531737 0.92232025 0.1616162
v -0.012531738 0.92148465 0.18023682
v 0.03246826 0.92232025 0.1616162
v -0.012531738 0.92148465 0.18023682
v 0.051108398 0.92433745 0.116660155
v 0.03246826 0.92635494 0.07170654
v -0.012531738 0.92719054 0.053085938
v -0.012531738 1.2922037 0.042521972
v 0.03246826 1.2917111 0.061154783
v -0.057531737 1.2917111 0.061154783
v -0.07616943 1.2905219 0.10613769
v -0.057531737 1.2893325 0.15112305
v -0.012531738 1.28884 0.16975586
v 0.03246826 1.2893325 0.15112305
v -0.012531738 1.28884 0.16975586
v 0.051108398 1.2905219 0.10613769
v -0.012531738 1.6572083 0.023710936
v 0.03246826 1.6570059 0.042351075
v -0.057531737 1.6570059 0.042351075
v -0.07616943 1.6565171 0.08734619
v -0.057531737 1.6560284 0.13234375
v -0.012531738 1.655826 0.15098144
v 0.03246826 1.6560284 0.13234375
v -0.012531738 1.655826 0.15098144
v 0.051108398 1.6565171 0.08734619
v -0.012531738 2.0223165 0.007363281
v 0.03246826 2.0222867 0.026000977
v -0.057531737 2.0222867 0.026000977
v -0.07616943 2.0222147 0.07100098
v -0.057531737 2.0221426 0.11600097
v -0.012531738 2.0221126 0.13463867
v 0.03246826 2.0221426 0.11600097
v -0.012531738 2.0221126 0.13463867
v 0.051108398 2.0222147 0.07100098
v -0.012531738 2.3878098 0.003852539
v 0.03246826 2.3878098 0.022492675
v -0.057531737 2.3878098 0.022492675
v -0.07616943 2.3878098 0.06749267
v -0.057531737 2.3878098 0.11249023
v -0.012531738 2.3878098 0.13113037
v 0.03246826 2.3878098 0.11249023
v -0.012531738 2.3878098 0.13113037
v 0.051108398 2.3878098 0.06749267
v -0.012531738 2.753402 0.003852539
v 0.03246826 2.753402 0.022492675
v -0.057531737 2.753402 0.022492675
v -0.07616943 2.753402 0.06749267
v -0.057531737 2.753402 0.11249023
v -0.012531738 2.753402 0.13113037
v 0.03246826 2.753402 0.11249023
v -0.012531738 2.753402 0.13113037
v 0.051108398 2.753402 0.06749267
v -0.012531738 3.1189945 0.003852539
v 0.03246826 3.1189945 0.022492675
v -0.057531737 3.1189945 0.022492675
v -0.07616943 3.1189945 0.06749267
v -0.057531737 3.1189945 0.11249023
v -0.012531738 3.1189945 0.13113037
v 0.03246826 3.1189945 0.11249023
v -0.012531738 3.1189945 0.13113037
v 0.051108398 3.1189945 0.06749267
v -0.012531738 3.4845867 0.003852539
v 0.03246826 3.4845867 0.022492675
v -0.057531737 3.4845867 0.022492675
v -0.07616943 3.4845867 0.06749267
v -0.057531737 3.4845867 0.11249023
v -0.012531738 3.4845867 0.13113037
v 0.03246826 3.4845867 0.11249023
v -0.012531738 3.4845867 0.13113037
v 0.051108398 3.4845867 0.06749267
v -0.0095141595 3.8314137 0.02248291
v 0.034660645 3.8294928 0.042910155
v -0.05525879 3.8297665 0.03913086
v -0.07577637 3.825515 0.08310059
v -0.05904785 3.8211505 0.12863526
v -0.014873046 3.8192294 0.1490625
v 0.030871581 3.820877 0.132417
v -0.014873046 3.8192294 0.1490625
v 0.051389158 3.825128 0.088447265
v -0.007163086 4.1748013 0.07426025
v 0.036103513 4.1707726 0.096264645
v -0.05357422 4.1716905 0.0887085
v -0.07594238 4.1632614 0.13114502
v -0.06116699 4.1544523 0.17671387
v -0.01790039 4.150423 0.19871826
v 0.028510742 4.153534 0.18427001
v -0.01790039 4.150423 0.19871826
v 0.050878905 4.1619635 0.1418335
v 0.04724365 -0.1410263 0.009553222
v -0.012531738 -0.13910247 -0.015131836
v -0.012531738 -0.17119293 0.014672851
v 0.024548339 -0.17239715 0.02998291
v 0.07200439 -0.14567108 0.069147944
v 0.039868165 -0.17530425 0.06694824
v -0.04958496 -0.17239928 0.030009765
v -0.072307125 -0.1410263 0.009553222
v -0.06487793 -0.17530425 0.06694824
v -0.09706787 -0.14567108 0.069147944
v -0.049519043 -0.17820434 0.1038208
v -0.072307125 -0.15031585 0.12874511
v -0.012531738 -0.17940551 0.119096674
v -0.012531738 -0.15223938 0.15343018
v 0.04724365 -0.15031585 0.12874511
v 0.024482422 -0.17820679 0.10384765
v -0.012531738 -0.15223938 0.15343018
v 0.07200439 -0.14567108 0.069147944
v 0.04724365 -0.1410263 0.009553222
v -0.012531738 -0.13910247 -0.015131836
v -0.072307125 -0.1410263 0.009553222
v -0.09706787 -0.14567108 0.069147944
v -0.072307125 -0.15031585 0.12874511
v -0.012531738 -0.15223938 0.15343018
v -0.012531738 -0.17530425 0.06694824
vt 0.5932617 0.35717773
vt 0.5991211 0.35595703
vt 0.5961914 0.3515625
vt 0.59814453 0.36108398
vt 0.5942383 0.36401367
vt 0.58935547 0.36328125
vt 0.58691406 0.35864258
vt 0.5878906 0.35351562
vt 0.5917969 0.35058594
vt 0.59716797 0.34985352
vt 0.6010742 0.35546875
vt 0.5996094 0.3623047
vt 0.5942383 0.36621094
vt 0.5883789 0.36499023
vt 0.5854492 0.35913086
vt 0.5859375 0.35253906
vt 0.5908203 0.3486328
vt 0.6230469 0.35864258
vt 0.6201172 0.35864258
vt 0.6176758 0.3630371
vt 0.6201172 0.36547852
vt 0.6201172 0.35180664
vt 0.61816406 0.3544922
vt 0.61376953 0.34936523
vt 0.61376953 0.35229492
vt 0.60791016 0.35205078
vt 0.6098633 0.3540039
vt 0.60498047 0.35839844
vt 0.6074219 0.35864258
vt 0.6074219 0.36499023
vt 0.609375 0.36328125
vt 0.61328125 0.36791992
vt 0.61376953 0.36499023
vt 0.61376953 0.35864258
vt 0.51220703 0.2685547
vt 0.51220703 0.27783203
vt 0.51464844 0.27783203
vt 0.51464844 0.2685547
vt 0.51708984 0.27783203
vt 0.51708984 0.2685547
vt 0.51953125 0.27783203
vt 0.51953125 0.2685547
vt 0.52246094 0.27783203
vt 0.52246094 0.2685547
vt 0.52490234 0.27783203
vt 0.52490234 0.2685547
vt 0.5097656 0.2685547
vt 0.5097656 0.27783203
vt 0.5078125 0.2685547
vt 0.5078125 0.27783203
vt 0.5053711 0.2685547
vt 0.5053711 0.27783203
vt 0.51708984 0.28710938
vt 0.51953125 0.28710938
vt 0.52246094 0.28710938
vt 0.52490234 0.28710938
vt 0.5078125 0.28710938
vt 0.5053711 0.28710938
vt 0.5097656 0.28710938
vt 0.51220703 0.28710938
vt 0.51464844 0.28710938
vt 0.51464844 0.29663086
vt 0.51220703 0.29663086
vt 0.51708984 0.29663086
vt 0.51953125 0.29663086
vt 0.52246094 0.29663086
vt 0.52490234 0.29663086
vt 0.5078125 0.29663086
vt 0.5053711 0.29663086
vt 0.5097656 0.29663086
vt 0.51464844 0.3059082
vt 0.51220703 0.3059082
vt 0.51708984 0.3059082
vt 0.51953125 0.3059082
vt 0.52246094 0.3059082
vt 0.52490234 0.3059082
vt 0.5078125 0.3059082
vt 0.5053711 0.3059082
vt 0.5097656 0.3059082
vt 0.51464844 0.3154297
vt 0.51220703 0.3154297
vt 0.51708984 0.3154297
vt 0.51953125 0.3154297
vt 0.52246094 0.3154297
vt 0.52490234 0.3154297
vt 0.5078125 0.3154297
vt 0.5053711 0.3154297
vt 0.5097656 0.3154297
vt 0.51464844 0.32470703
vt 0.51220703 0.32470703
vt 0.51708984 0.32470703
vt 0.51953125 0.32470703
vt 0.52246094 0.32470703
vt 0.52490234 0.32470703
vt 0.5078125 0.32470703
vt 0.5053711 0.32470703
vt 0.5097656 0.32470703
vt 0.51464844 0.33422852
vt 0.51220703 0.33422852
vt 0.51708984 0.33422852
vt 0.51953125 0.33422852
vt 0.52246094 0.33422852
vt 0.52490234 0.33422852
vt 0.5078125 0.33422852
vt 0.5053711 0.33422852
vt 0.5097656 0.33422852
vt 0.51464844 0.34350586
vt 0.51220703 0.34350586
vt 0.51708984 0.34350586
vt 0.51953125 0.34350586
vt 0.52246094 0.34350586
vt 0.52490234 0.34350586
vt 0.5078125 0.34350586
vt 0.5053711 0.34350586
vt 0.5097656 0.34350586
vt 0.51464844 0.35302734
vt 0.51220703 0.35302734
vt 0.51708984 0.35302734
vt 0.51953125 0.35302734
vt 0.52246094 0.35302734
vt 0.52490234 0.35302734
vt 0.5078125 0.35302734
vt 0.5053711 0.35302734
vt 0.5097656 0.35302734
vt 0.51464844 0.3618164
vt 0.51220703 0.3618164
vt 0.51708984 0.3618164
vt 0.51953125 0.3618164
vt 0.52246094 0.3618164
vt 0.52490234 0.3618164
vt 0.5078125 0.3618164
vt 0.5053711 0.3618164
vt 0.5097656 0.3618164
vt 0.51464844 0.37036133
vt 0.51220703 0.37036133
vt 0.51708984 0.37036133
vt 0.51953125 0.37036133
vt 0.52246094 0.37036133
vt 0.52490234 0.37036133
vt 0.5078125 0.37036133
vt 0.5053711 0.37036133
vt 0.5097656 0.37036133
vt 0.5107422 0.25268555
vt 0.5083008 0.24951172
vt 0.5073242 0.25170898
vt 0.5083008 0.2536621
vt 0.5107422 0.25683594
vt 0.5083008 0.25585938
vt 0.5048828 0.25146484
vt 0.50439453 0.24902344
vt 0.50341797 0.2529297
vt 0.50146484 0.25146484
vt 0.50341797 0.2553711
vt 0.50097656 0.25561523
vt 0.50439453 0.25732422
vt 0.5029297 0.25927734
vt 0.5078125 0.26000977
vt 0.50683594 0.25732422
vt 0.5053711 0.25976562
vt 0.5097656 0.25976562
vt 0.51220703 0.25976562
vt 0.51464844 0.25976562
vt 0.51708984 0.25976562
vt 0.51953125 0.25976562
vt 0.52246094 0.25976562
vt 0.52490234 0.25976562
vt 0.5058594 0.25463867
vn 0.015538572 0.9995851 -0.024254624
vn 0.03618589 0.9259691 -0.37586138
vn 0.35415858 0.8906177 -0.2852573
vn -0.30842146 0.91421753 -0.26283523
vn -0.43942824 0.898266 0.004589043
vn -0.34916985 0.902797 0.25107384
vn -0.020942336 0.96145296 0.2741708
vn 0.33531746 0.91761744 0.21340218
vn 0.4560526 0.8885135 -0.050594218
vn 0.721995 -0.08812732 -0.68626297
vn -0.010793072 -0.03484119 -0.9993345
vn -0.725838 -0.0652696 -0.68476206
vn -0.99488336 -0.10088613 0.005383656
vn -0.68843406 -0.0672086 0.72217834
vn 0.0023618317 0.04578414 0.99894863
vn 0.6881028 -0.043594845 0.72430253
vn 0.9938532 -0.10942713 0.016778845
vn -0.010793072 -0.03484119 -0.9993345
vn -0.020352706 -0.68190795 -0.7311547
vn 0.48084357 -0.73901683 -0.4718513
vn 0.721995 -0.08812732 -0.68626297
vn -0.725838 -0.0652696 -0.68476206
vn -0.5074293 -0.713957 -0.4824736
vn -0.99488336 -0.10088613 0.005383656
vn -0.6564242 -0.75439 0.0016833871
vn -0.68843406 -0.0672086 0.72217834
vn -0.42227176 -0.7579977 0.49711788
vn 0.0023618317 0.04578414 0.99894863
vn 0.017251799 -0.7117262 0.7022451
vn 0.6881028 -0.043594845 0.72430253
vn 0.43072638 -0.7365124 0.52155936
vn 0.9938532 -0.10942713 0.016778845
vn 0.63424605 -0.77201 0.041622415
vn -0.008082495 -0.9971343 0.075217724
vn 0.7086459 0.06667775 -0.7024066
vn 0.709557 0.03786333 -0.70363
vn -0 0.046879165 -0.99890053
vn -0 0.08508258 -0.99637395
vn -0.70955706 0.03786341 -0.70362985
vn -0.7086461 0.06667789 -0.7024065
vn -0.99985576 0.015941236 0.0058655604
vn -0.9997385 0.022339696 0.0048695174
vn -0.7042044 -0.006179616 0.70997036
vn -0.7051911 -0.02186155 0.70868015
vn -0 -0.015394889 0.9998815
vn -0 -0.040129997 0.99919444
vn 0.9997385 0.022339616 0.0048694727
vn 0.99985576 0.015941264 0.005865643
vn 0.70519114 -0.02186164 0.70868015
vn 0.7042044 -0.0061796443 0.70997036
vn -0 -0.040129997 0.99919444
vn -0 -0.015394889 0.9998815
vn -0.7093117 0.0009440977 -0.7048943
vn -0.99995756 0.0074845604 0.0053717312
vn -0.70390314 0.013333378 0.7101708
vn -0 0.015549656 0.9998791
vn 0.7039031 0.01333324 0.71017087
vn -0 0.015549656 0.9998791
vn 0.99995756 0.0074843573 0.005371767
vn 0.7093117 0.0009439491 -0.70489424
vn -0 -0.0019618636 -0.9999981
vn -0 -0.040357765 -0.99918526
vn 0.7078982 -0.028355602 -0.70574504
vn -0.7078982 -0.028355679 -0.70574504
vn -0.9999949 0.00028156635 0.0031808272
vn -0.70473003 0.028283235 0.7089115
vn -0 0.03965358 0.99921346
vn 0.70473003 0.02828321 0.7089115
vn -0 0.03965358 0.99921346
vn 0.9999949 0.00028156402 0.0031808123
vn -0 -0.048032567 -0.9988458
vn 0.70618707 -0.03402867 -0.70720714
vn -0.70618707 -0.034028802 -0.7072072
vn -0.9999999 -9.116609E-05 -0.0004983858
vn -0.70668435 0.033872146 0.70671767
vn -0 0.047901213 0.99885213
vn 0.70668435 0.03387224 0.70671767
vn -0 0.047901213 0.99885213
vn 0.9999999 -9.111489E-05 -0.00049840804
vn -0 -0.027043505 -0.99963427
vn 0.7048404 -0.019268122 -0.70910424
vn -0.7048404 -0.019268103 -0.70910424
vn -0.9999914 -0.00023957425 -0.0041354243
vn -0.7089698 0.019125588 0.7049796
vn -0 0.027236713 0.999629
vn 0.70896965 0.019125588 0.7049796
vn -0 0.027236713 0.999629
vn 0.9999914 -0.00023966882 -0.0041354243
vn -0 -0.004794679 -0.99998856
vn 0.7065289 -0.003396742 -0.707676
vn -0.7065289 -0.0033966727 -0.707676
vn -0.9999994 -1.0963636E-05 -0.0011484977
vn -0.70766723 0.0033908277 0.7065378
vn -0 0.004804761 0.99998844
vn 0.7076672 0.0033908288 0.7065378
vn -0 0.004804761 0.99998844
vn 0.9999994 -1.0963865E-05 -0.0011484976
vn -0 0 -1
vn 0.7071144 0 -0.7070991
vn -0.7071144 0 -0.7070991
vn -1 0 0
vn -0.70709956 0 0.707114
vn -0 0 1
vn 0.7070996 0 0.7071139
vn -0 0 1
vn 1 0 0
vn -0 0 -1
vn 0.7071144 0 -0.7070991
vn -0.7071144 0 -0.7070991
vn -1 0 0
vn -0.70709956 0 0.707114
vn -0 0 1
vn 0.70709956 0 0.707114
vn -0 0 1
vn 1 0 0
vn 0.009129153 0.025843963 -0.99962425
vn 0.70970935 0.017806381 -0.7042696
vn -0.69668555 0.019152597 -0.71712095
vn -0.9998584 0.0013711216 -0.0167721
vn -0.7173036 -0.017390434 0.6965437
vn -0.009363329 -0.025867967 0.9996215
vn 0.7041908 -0.018797947 0.70976186
vn -0.009363329 -0.025867967 0.9996215
vn 0.99999845 -0.0005753807 0.0016538529
vn 0.04190387 0.100995794 -0.99400395
vn 0.7292666 0.06860485 -0.68078154
vn -0.66928005 0.075773455 -0.7391364
vn -0.99840444 0.006678532 -0.056070834
vn -0.74320835 -0.06708111 0.6656888
vn -0.042519066 -0.1012665 0.99395037
vn 0.68381995 -0.074582934 0.725829
vn -0.042519066 -0.1012665 0.99395037
vn 0.9996094 -0.0036915424 0.027702555
vn 0.06550195 0.14836743 -0.9867606
vn 0.745185 0.099864125 -0.6593379
vn -0.65170276 0.112079196 -0.7501479
vn -0.99690634 0.010694943 -0.07786709
vn -0.7573624 -0.097860694 0.6456202
vn -0.064912386 -0.14851367 0.98677766
vn 0.6662217 -0.11029285 0.7375528
vn -0.064912386 -0.14851367 0.98677766
vn 0.99865156 -0.006749627 0.051474847
vn 0.70691335 0.015788013 -0.70712394
vn -8.387379E-06 0.037701573 -0.99928904
vn -0.00011666828 -0.7890372 -0.61434543
vn 0.39013144 -0.80134916 -0.45347214
vn 0.9993081 -0.03712843 -0.0021751726
vn 0.5521638 -0.8312479 -0.0643597
vn -0.3901246 -0.80148184 -0.4532435
vn -0.7069203 0.01574657 -0.70711786
vn -0.55191064 -0.8314151 -0.06436952
vn -0.99930596 -0.03718661 -0.002179335
vn -0.3905587 -0.86133397 0.32491198
vn -0.7063195 -0.09005821 0.70214117
vn -0.00011384551 -0.8736986 0.4864677
vn -7.765487E-06 -0.11192929 0.9937162
vn 0.7063128 -0.0900174 0.7021531
vn 0.39057246 -0.86123365 0.3251609
vn -7.765487E-06 -0.11192929 0.9937162
vn 0.9993081 -0.03712843 -0.0021751726
vn 0.70691335 0.015788013 -0.70712394
vn -8.387379E-06 0.037701573 -0.99928904
vn -0.7069203 0.01574657 -0.70711786
vn -0.99930596 -0.03718661 -0.002179335
vn -0.7063195 -0.09005821 0.70214117
vn -7.765487E-06 -0.11192929 0.9937162
vn -7.8673787E-07 -0.9969214 -0.07840748
g balloon_string_0
f 3/3/3 2/2/2 1/1/1
f 2/2/2 4/4/4 1/1/1
f 4/4/4 5/5/5 1/1/1
f 5/5/5 6/6/6 1/1/1
f 6/6/6 7/7/7 1/1/1
f 7/7/7 8/8/8 1/1/1
f 8/8/8 9/9/9 1/1/1
f 9/9/9 3/3/3 1/1/1
f 3/3/3 10/10/10 2/2/2
f 10/10/10 11/11/11 2/2/2
f 2/2/2 11/11/11 4/4/4
f 11/11/11 12/12/12 4/4/4
f 4/4/4 12/12/12 5/5/5
f 12/12/12 13/13/13 5/5/5
f 5/5/5 13/13/13 6/6/6
f 13/13/13 14/14/14 6/6/6
f 6/6/6 14/14/14 7/7/7
f 14/14/14 15/15/15 7/7/7
f 7/7/7 15/15/15 8/8/8
f 15/15/15 16/16/16 8/8/8
f 8/8/8 16/16/16 9/9/9
f 16/16/16 17/17/17 9/9/9
f 17/17/17 10/10/10 3/3/3
f 9/9/9 17/17/17 3/3/3
f 20/20/20 19/19/19 18/18/18
f 21/21/21 20/20/20 18/18/18
f 18/18/18 19/19/19 22/22/22
f 19/19/19 23/23/23 22/22/22
f 22/22/22 23/23/23 24/24/24
f 23/23/23 25/25/25 24/24/24
f 24/24/24 25/25/25 26/26/26
f 25/25/25 27/27/27 26/26/26
f 26/26/26 27/27/27 28/28/28
f 27/27/27 29/29/29 28/28/28
f 28/28/28 29/29/29 30/30/30
f 29/29/29 31/31/31 30/30/30
f 30/30/30 31/31/31 32/32/32
f 31/31/31 33/33/33 32/32/32
f 33/33/33 20/20/20 21/21/21
f 32/32/32 33/33/33 21/21/21
f 20/20/20 34/34/34 19/19/19
f 19/19/19 34/34/34 23/23/23
f 23/23/23 34/34/34 25/25/25
f 25/25/25 34/34/34 27/27/27
f 27/27/27 34/34/34 29/29/29
f 29/29/29 34/34/34 31/31/31
f 31/31/31 34/34/34 33/33/33
f 33/33/33 34/34/34 20/20/20
f 37/37/37 36/36/36 35/35/35
f 38/38/38 37/37/37 35/35/35
f 39/39/39 37/37/37 38/38/38
f 40/40/40 39/39/39 38/38/38
f 41/41/41 39/39/39 40/40/40
f 42/42/42 41/41/41 40/40/40
f 43/43/43 41/41/41 42/42/42
f 44/44/44 43/43/43 42/42/42
f 45/45/45 43/43/43 44/44/44
f 46/46/46 45/45/45 44/44/44
f 35/35/35 36/36/36 47/47/47
f 36/36/36 48/48/48 47/47/47
f 47/47/47 48/48/48 49/49/49
f 48/48/48 50/50/50 49/49/49
f 49/49/49 50/50/50 51/51/51
f 50/50/50 52/52/52 51/51/51
f 39/39/39 53/53/53 37/37/37
f 54/54/54 53/53/53 39/39/39
f 41/41/41 54/54/54 39/39/39
f 55/55/55 54/54/54 41/41/41
f 43/43/43 55/55/55 41/41/41
f 56/56/56 55/55/55 43/43/43
f 45/45/45 56/56/56 43/43/43
f 50/50/50 57/57/57 52/52/52
f 57/57/57 58/58/58 52/52/52
f 59/59/59 57/57/57 50/50/50
f 48/48/48 59/59/59 50/50/50
f 60/60/60 59/59/59 48/48/48
f 36/36/36 60/60/60 48/48/48
f 61/61/61 60/60/60 36/36/36
f 37/37/37 61/61/61 36/36/36
f 53/53/53 61/61/61 37/37/37
f 61/61/61 62/62/62 60/60/60
f 62/62/62 63/63/63 60/60/60
f 60/60/60 63/63/63 59/59/59
f 64/64/64 62/62/62 61/61/61
f 53/53/53 64/64/64 61/61/61
f 65/65/65 64/64/64 53/53/53
f 54/54/54 65/65/65 53/53/53
f 66/66/66 65/65/65 54/54/54
f 55/55/55 66/66/66 54/54/54
f 67/67/67 66/66/66 55/55/55
f 56/56/56 67/67/67 55/55/55
f 57/57/57 68/68/68 58/58/58
f 68/68/68 69/69/69 58/58/58
f 70/70/70 68/68/68 57/57/57
f 59/59/59 70/70/70 57/57/57
f 63/63/63 70/70/70 59/59/59
f 62/62/62 71/71/71 63/63/63
f 71/71/71 72/72/72 63/63/63
f 63/63/63 72/72/72 70/70/70
f 73/73/73 71/71/71 62/62/62
f 64/64/64 73/73/73 62/62/62
f 74/74/74 73/73/73 64/64/64
f 65/65/65 74/74/74 64/64/64
f 75/75/75 74/74/74 65/65/65
f 66/66/66 75/75/75 65/65/65
f 76/76/76 75/75/75 66/66/66
f 67/67/67 76/76/76 66/66/66
f 68/68/68 77/77/77 69/69/69
f 77/77/77 78/78/78 69/69/69
f 79/79/79 77/77/77 68/68/68
f 70/70/70 79/79/79 68/68/68
f 72/72/72 79/79/79 70/70/70
f 71/71/71 80/80/80 72/72/72
f 80/80/80 81/81/81 72/72/72
f 72/72/72 81/81/81 79/79/79
f 82/82/82 80/80/80 71/71/71
f 73/73/73 82/82/82 71/71/71
f 83/83/83 82/82/82 73/73/73
f 74/74/74 83/83/83 73/73/73
f 84/84/84 83/83/83 74/74/74
f 75/75/75 84/84/84 74/74/74
f 85/85/85 84/84/84 75/75/75
f 76/76/76 85/85/85 75/75/75
f 77/77/77 86/86/86 78/78/78
f 86/86/86 87/87/87 78/78/78
f 88/88/88 86/86/86 77/77/77
f 79/79/79 88/88/88 77/77/77
f 81/81/81 88/88/88 79/79/79
f 80/80/80 89/89/89 81/81/81
f 89/89/89 90/90/90 81/81/81
f 81/81/81 90/90/90 88/88/88
f 91/91/91 89/89/89 80/80/80
f 82/82/82 91/91/91 80/80/80
f 92/92/92 91/91/91 82/82/82
f 83/83/83 92/92/92 82/82/82
f 93/93/93 92/92/92 83/83/83
f 84/84/84 93/93/93 83/83/83
f 94/94/94 93/93/93 84/84/84
f 85/85/85 94/94/94 84/84/84
f 86/86/86 95/95/95 87/87/87
f 95/95/95 96/96/96 87/87/87
f 97/97/97 95/95/95 86/86/86
f 88/88/88 97/97/97 86/86/86
f 90/90/90 97/97/97 88/88/88
f 89/89/89 98/98/98 90/90/90
f 98/98/98 99/99/99 90/90/90
f 90/90/90 99/99/99 97/97/97
f 100/100/100 98/98/98 89/89/89
f 91/91/91 100/100/100 89/89/89
f 101/101/101 100/100/100 91/91/91
f 92/92/92 101/101/101 91/91/91
f 102/102/102 101/101/101 92/92/92
f 93/93/93 102/102/102 92/92/92
f 103/103/103 102/102/102 93/93/93
f 94/94/94 103/103/103 93/93/93
f 95/95/95 104/104/104 96/96/96
f 104/104/104 105/105/105 96/96/96
f 106/106/106 104/104/104 95/95/95
f 97/97/97 106/106/106 95/95/95
f 99/99/99 106/106/106 97/97/97
f 98/98/98 107/107/107 99/99/99
f 107/107/107 108/108/108 99/99/99
f 99/99/99 108/108/108 106/106/106
f 109/109/109 107/107/107 98/98/98
f 100/100/100 109/109/109 98/98/98
f 110/110/110 109/109/109 100/100/100
f 101/101/101 110/110/110 100/100/100
f 111/111/111 110/110/110 101/101/101
f 102/102/102 111/111/111 101/101/101
f 112/112/112 111/111/111 102/102/102
f 103/103/103 112/112/112 102/102/102
f 104/104/104 113/113/113 105/105/105
f 113/113/113 114/114/114 105/105/105
f 115/115/115 113/113/113 104/104/104
f 106/106/106 115/115/115 104/104/104
f 108/108/108 115/115/115 106/106/106
f 107/107/107 116/116/116 108/108/108
f 116/116/116 117/117/117 108/108/108
f 108/108/108 117/117/117 115/115/115
f 118/118/118 116/116/116 107/107/107
f 109/109/109 118/118/118 107/107/107
f 119/119/119 118/118/118 109/109/109
f 110/110/110 119/119/119 109/109/109
f 120/120/120 119/119/119 110/110/110
f 111/111/111 120/120/120 110/110/110
f 121/121/121 120/120/120 111/111/111
f 112/112/112 121/121/121 111/111/111
f 113/113/113 122/122/122 114/114/114
f 122/122/122 123/123/123 114/114/114
f 124/124/124 122/122/122 113/113/113
f 115/115/115 124/124/124 113/113/113
f 117/117/117 124/124/124 115/115/115
f 116/116/116 125/125/125 117/117/117
f 125/125/125 126/126/126 117/117/117
f 117/117/117 126/126/126 124/124/124
f 127/127/127 125/125/125 116/116/116
f 118/118/118 127/127/127 116/116/116
f 128/128/128 127/127/127 118/118/118
f 119/119/119 128/128/128 118/118/118
f 129/129/129 128/128/128 119/119/119
f 120/120/120 129/129/129 119/119/119
f 130/130/130 129/129/129 120/120/120
f 121/121/121 130/130/130 120/120/120
f 122/122/122 131/131/131 123/123/123
f 131/131/131 132/132/132 123/123/123
f 133/133/133 131/131/131 122/122/122
f 124/124/124 133/133/133 122/122/122
f 126/126/126 133/133/133 124/124/124
f 125/125/125 134/134/134 126/126/126
f 134/134/134 135/135/135 126/126/126
f 126/126/126 135/135/135 133/133/133
f 136/136/136 134/134/134 125/125/125
f 127/127/127 136/136/136 125/125/125
f 137/137/137 136/136/136 127/127/127
f 128/128/128 137/137/137 127/127/127
f 138/138/138 137/137/137 128/128/128
f 129/129/129 138/138/138 128/128/128
f 139/139/139 138/138/138 129/129/129
f 130/130/130 139/139/139 129/129/129
f 131/131/131 140/140/140 132/132/132
f 140/140/140 141/141/141 132/132/132
f 142/142/142 140/140/140 131/131/131
f 133/133/133 142/142/142 131/131/131
f 135/135/135 142/142/142 133/133/133
f 145/145/145 144/144/144 143/143/143
f 146/146/146 145/145/145 143/143/143
f 143/143/143 147/147/147 146/146/146
f 147/147/147 148/148/148 146/146/146
f 145/145/145 149/149/149 144/144/144
f 149/149/149 150/150/150 144/144/144
f 149/149/149 151/151/151 150/150/150
f 151/151/151 152/152/152 150/150/150
f 151/151/151 153/153/153 152/152/152
f 153/153/153 154/154/154 152/152/152
f 153/153/153 155/155/155 154/154/154
f 155/155/155 156/156/156 154/154/154
f 148/148/148 147/147/147 157/157/157
f 158/158/158 148/148/148 157/157/157
f 158/158/158 157/157/157 159/159/159
f 155/155/155 158/158/158 159/159/159
f 157/157/157 49/49/49 159/159/159
f 49/49/49 51/51/51 159/159/159
f 47/47/47 49/49/49 157/157/157
f 160/160/160 47/47/47 157/157/157
f 35/35/35 47/47/47 160/160/160
f 161/161/161 35/35/35 160/160/160
f 38/38/38 35/35/35 161/161/161
f 162/162/162 38/38/38 161/161/161
f 40/40/40 38/38/38 162/162/162
f 163/163/163 40/40/40 162/162/162
f 42/42/42 40/40/40 163/163/163
f 164/164/164 42/42/42 163/163/163
f 44/44/44 42/42/42 164/164/164
f 165/165/165 44/44/44 164/164/164
f 46/46/46 44/44/44 165/165/165
f 166/166/166 46/46/46 165/165/165
f 146/146/146 167/167/167 145/145/145
f 145/145/145 167/167/167 149/149/149
f 149/149/149 167/167/167 151/151/151
f 151/151/151 167/167/167 153/153/153
f 153/153/153 167/167/167 155/155/155
f 155/155/155 167/167/167 158/158/158
f 158/158/158 167/167/167 148/148/148
f 148/148/148 167/167/167 146/146/146
