g Ball_Cannonball
v 0.101135254 -0.26427814 -0.041891325
v 0.18687317 -0.20226976 -0.07740509
v 0.14302611 -0.20226976 -0.14302643
v 0.077406004 -0.26427814 -0.077405244
v 0.077406004 -0.20226976 -0.18687285
v 0.041891478 -0.26427814 -0.10113479
v -0 -0.20226976 -0.2022699
v -0 -0.26427814 -0.10946762
v 0.109467775 -0.26427814 -1.5258789E-07
v 0.2022699 -0.20226976 -1.5258789E-07
v 0.101135254 -0.26427814 0.041891478
v 0.18687317 -0.20226976 0.077405244
v 0.077406004 -0.26427814 0.077405244
v 0.14302611 -0.20226976 0.14302628
v 0.041891478 -0.26427814 0.10113479
v 0.077406004 -0.20226976 0.18687285
v -0 -0.26427814 0.10946762
v -0 -0.20226976 0.20226973
v 0.101135254 -0.10946761 -0.24416107
v -0 -0.10946761 -0.2642781
v 0.101135254 -0.10946761 0.24416122
v -0 -0.10946761 0.2642781
v 0.18687256 -0.10946761 0.18687285
v 0.24416137 -0.10946761 0.10113479
v 0.26427794 -0.10946761 -1.5258789E-07
v 0.24416137 -0.10946761 -0.10113464
v -0 -3.0994414E-08 -0.28605255
v 0.109467775 -3.0994414E-08 -0.2642781
v 0.18687317 -0.10946761 -0.1868727
v 0.2022699 -3.0994414E-08 -0.20226973
v 0.26427794 -3.0994414E-08 -0.10946747
v 0.109467775 -3.0994414E-08 0.2642781
v -0 -3.0994414E-08 0.28605255
v 0.2022699 -3.0994414E-08 0.20226973
v 0.26427794 -3.0994414E-08 0.10946762
v 0.28605285 -3.0994414E-08 -1.5258789E-07
v 0.18687317 0.10946755 -0.1868727
v 0.24416137 0.10946755 -0.10113464
v 0.101135254 0.10946755 -0.24416107
v -0 0.10946755 -0.2642781
v 0.101135254 0.10946755 0.24416122
v -0 0.10946755 0.2642781
v 0.24416137 0.10946755 0.10113479
v 0.18687256 0.10946755 0.18687285
v 0.26427794 0.10946755 -1.5258789E-07
v 0.14302611 0.20226966 -0.14302643
v 0.18687317 0.20226966 -0.07740509
v 0.077406004 0.20226966 -0.18687285
v -0 0.20226966 -0.2022699
v 0.077406004 0.20226966 0.18687285
v -0 0.20226966 0.20226973
v 0.14302611 0.20226966 0.14302628
v 0.18687317 0.20226966 0.077405244
v 0.2022699 0.20226966 -1.5258789E-07
v 0.077406004 0.26427802 -0.077405244
v 0.101135254 0.26427802 -0.041891325
v 0.041891478 0.26427802 -0.10113479
v -0 0.26427802 -0.10946762
v 0.041891478 0.26427802 0.10113479
v -0 0.26427802 0.10946762
v 0.077406004 0.26427802 0.077405244
v 0.101135254 0.26427802 0.041891478
v 0.109467775 0.26427802 -1.5258789E-07
v -0 0.28605258 -1.5258789E-07
v -0 -0.26427814 -0.10946762
v -0 -0.20226976 -0.2022699
v -0.07740539 -0.20226976 -0.18687285
v -0.041891478 -0.26427814 -0.10113495
v -0.14302611 -0.20226976 -0.14302643
v -0.07740539 -0.26427814 -0.077405244
v -0.18687256 -0.20226976 -0.07740539
v -0.10113464 -0.26427814 -0.041891478
v -0.2022699 -0.20226976 -1.5258789E-07
v -0.109467775 -0.26427814 -1.5258789E-07
v -0.18687317 -0.20226976 0.077405244
v -0.10113464 -0.26427814 0.041891325
v -0.14302611 -0.20226976 0.14302628
v -0.07740539 -0.26427814 0.077405244
v -0.07740539 -0.20226976 0.18687285
v -0.041891478 -0.26427814 0.10113479
v -0 -0.20226976 0.20226973
v -0 -0.26427814 0.10946762
v -0.18687256 -0.10946761 -0.18687285
v -0.24416137 -0.10946761 -0.10113479
v -0.26427794 -0.10946761 1.5258789E-07
v -0.24416137 -0.10946761 0.10113495
v -0.18687317 -0.10946761 0.1868727
v -0.10113464 -0.10946761 0.24416107
v -0 -0.10946761 0.2642781
v -0.26427794 -3.0994414E-08 -0.10946747
v -0.2022699 -3.0994414E-08 -0.2022699
v -0.10113464 -0.10946761 -0.24416122
v -0 -0.10946761 -0.2642781
v -0.10946716 -3.0994414E-08 -0.2642781
v -0 -3.0994414E-08 -0.28605255
v -0.28605285 -3.0994414E-08 1.5258789E-07
v -0.26427794 -3.0994414E-08 0.10946762
v -0.2022699 -3.0994414E-08 0.20226973
v -0.109467775 -3.0994414E-08 0.2642781
v -0 -3.0994414E-08 0.28605255
v -0.10113464 0.10946755 -0.24416122
v -0 0.10946755 -0.2642781
v -0.18687256 0.10946755 -0.18687285
v -0.24416137 0.10946755 -0.10113479
v -0.26427794 0.10946755 1.5258789E-07
v -0.24416137 0.10946755 0.10113495
v -0.18687317 0.10946755 0.1868727
v -0.10113464 0.10946755 0.24416107
v -0 0.10946755 0.2642781
v -0.07740539 0.20226966 -0.18687285
v -0 0.20226966 -0.2022699
v -0.14302611 0.20226966 -0.14302643
v -0.18687256 0.20226966 -0.07740539
v -0.2022699 0.20226966 -1.5258789E-07
v -0.18687317 0.20226966 0.077405244
v -0.14302611 0.20226966 0.14302628
v -0.07740539 0.20226966 0.18687285
v -0 0.20226966 0.20226973
v -0.041891478 0.26427802 -0.10113495
v -0 0.26427802 -0.10946762
v -0.07740539 0.26427802 -0.077405244
v -0.10113464 0.26427802 -0.041891478
v -0.109467775 0.26427802 -1.5258789E-07
v -0.10113464 0.26427802 0.041891325
v -0.07740539 0.26427802 0.077405244
v -0.041891478 0.26427802 0.10113479
v -0 0.26427802 0.10946762
v -0 0.28605258 -1.5258789E-07
v -0 -0.28605258 -1.5258789E-07
v -0 -0.28605258 -1.5258789E-07
vt 0.254774 0.07426
vt 0.278847 0.134552
vt 0.318593 0.116579
vt 0.278316 0.060001
vt 0.35897 0.087399
vt 0.298326 0.037785
vt 0.398714 0.040923
vt 0.311603 0.006971
vt 0.229266 0.081312
vt 0.239054 0.144477
vt 0.202596 0.081327
vt 0.197821 0.147479
vt 0.175424 0.073693
vt 0.153282 0.142941
vt 0.148894 0.056874
vt 0.103084 0.127968
vt 0.12566 0.028363
vt 0.044749 0.095254
vt 0.400784 0.148103
vt 0.469774 0.107066
vt 0.083627 0.203984
vt 0 0.191842
vt 0.146803 0.206503
vt 0.199576 0.204088
vt 0.247579 0.197964
vt 0.294694 0.18792
vt 0.510642 0.199092
vt 0.423834 0.216899
vt 0.344405 0.172474
vt 0.359124 0.229269
vt 0.305013 0.238937
vt 0.086808 0.278145
vt 0 0.295952
vt 0.151518 0.265776
vt 0.205629 0.256107
vt 0.255321 0.247522
vt 0.363839 0.288541
vt 0.311066 0.290956
vt 0.427015 0.29106
vt 0.510642 0.303202
vt 0.109857 0.346941
vt 0.040867 0.387978
vt 0.215948 0.307124
vt 0.166237 0.322571
vt 0.263063 0.29708
vt 0.35736 0.352103
vt 0.312821 0.347566
vt 0.407558 0.367076
vt 0.465893 0.39979
vt 0.151672 0.407646
vt 0.111928 0.454121
vt 0.192049 0.378465
vt 0.231795 0.360492
vt 0.271588 0.350567
vt 0.335218 0.421351
vt 0.308046 0.413717
vt 0.361749 0.43817
vt 0.384982 0.466681
vt 0.212316 0.45726
vt 0.199039 0.488073
vt 0.232326 0.435043
vt 0.255868 0.420785
vt 0.281376 0.413732
vt 0.291748 0.495045
vt 0.12566 0.528359
vt 0.044749 0.59525
vt 0.103083 0.627963
vt 0.148893 0.556869
vt 0.153282 0.642937
vt 0.175424 0.573688
vt 0.197821 0.647474
vt 0.202596 0.581322
vt 0.239054 0.644473
vt 0.229266 0.581308
vt 0.278847 0.634548
vt 0.254775 0.574255
vt 0.318594 0.616575
vt 0.278317 0.559996
vt 0.358971 0.587394
vt 0.298327 0.53778
vt 0.398715 0.540919
vt 0.311604 0.506966
vt 0.146803 0.706499
vt 0.199576 0.704084
vt 0.247579 0.69796
vt 0.294694 0.687916
vt 0.344405 0.67247
vt 0.400785 0.648099
vt 0.469775 0.607063
vt 0.205629 0.756103
vt 0.151517 0.765771
vt 0.083627 0.70398
vt 0 0.691837
vt 0.086808 0.77814
vt 0 0.795948
vt 0.255321 0.747518
vt 0.305013 0.738933
vt 0.359124 0.729265
vt 0.423834 0.716896
vt 0.510642 0.699089
vt 0.109857 0.846937
vt 0.040867 0.887974
vt 0.166237 0.822566
vt 0.215947 0.807119
vt 0.263063 0.797076
vt 0.311066 0.790952
vt 0.363838 0.788537
vt 0.427015 0.791057
vt 0.510641 0.8032
vt 0.151671 0.907641
vt 0.111928 0.954116
vt 0.192048 0.878461
vt 0.231795 0.860488
vt 0.271588 0.850563
vt 0.312821 0.847561
vt 0.357359 0.852099
vt 0.407558 0.867073
vt 0.465892 0.899787
vt 0.212315 0.957255
vt 0.199038 0.988068
vt 0.232325 0.935039
vt 0.255867 0.920781
vt 0.281375 0.913728
vt 0.308045 0.913713
vt 0.335217 0.921347
vt 0.361747 0.938166
vt 0.38498 0.966677
vt 0.291746 0.99504
vt 0.218895 0
vt 0.218894 0.499995
vn 0.44643384 -0.8755007 -0.18491994
vn 0.6888354 -0.66640437 -0.28532615
vn 0.5272121 -0.66640514 -0.52721107
vn 0.34168705 -0.87550014 -0.34168604
vn 0.28532502 -0.66640514 -0.68883514
vn 0.184918 -0.87550104 -0.44643402
vn -0 -0.666405 -0.74559
vn -0 -0.8755007 -0.48321688
vn 0.48321688 -0.8755007 0
vn 0.74559087 -0.66640395 0
vn 0.44643384 -0.8755007 0.18491994
vn 0.6888357 -0.6664038 0.28532687
vn 0.34168696 -0.87549984 0.34168696
vn 0.5272119 -0.66640484 0.5272119
vn 0.184918 -0.87550104 0.44643402
vn 0.28532502 -0.66640514 0.68883514
vn -0 -0.8755 0.483218
vn -0 -0.666406 0.745589
vn 0.35721007 -0.3587401 -0.8623842
vn -0 -0.35873985 -0.9334375
vn 0.35721007 -0.3587401 0.8623842
vn -0 -0.35873985 0.9334375
vn 0.66004026 -0.3587411 0.6600392
vn 0.8623836 -0.35873982 0.35721183
vn 0.93343794 -0.35873896 0
vn 0.8623839 -0.35873997 -0.35721096
vn -0 0 -1
vn 0.3826829 0 -0.92387974
vn 0.660041 -0.35874003 -0.660039
vn 0.7071078 0 -0.7071057
vn 0.92387974 0 -0.3826829
vn 0.3826829 0 0.92387974
vn -0 0 1
vn 0.70710826 0 0.7071052
vn 0.92387974 0 0.3826829
vn 1 0 0
vn 0.660041 0.35874003 -0.660039
vn 0.8623839 0.35873997 -0.35721096
vn 0.35721007 0.3587401 -0.8623842
vn -0 0.35873985 -0.9334375
vn 0.35721007 0.3587401 0.8623842
vn -0 0.35873985 0.9334375
vn 0.8623836 0.35873982 0.35721183
vn 0.66004026 0.3587411 0.6600392
vn 0.93343794 0.35873896 0
vn 0.5272121 0.66640514 -0.52721107
vn 0.68883497 0.66640496 -0.28532594
vn 0.28532502 0.66640514 -0.68883514
vn -0 0.666405 -0.74559
vn 0.28532502 0.66640514 0.68883514
vn -0 0.666406 0.745589
vn 0.5272119 0.66640484 0.5272119
vn 0.68883526 0.66640425 0.28532708
vn 0.74559087 0.66640395 0
vn 0.34168705 0.87550014 -0.34168604
vn 0.44643384 0.8755007 -0.18491994
vn 0.184918 0.87550104 -0.44643402
vn -0 0.8755007 -0.48321688
vn 0.184918 0.87550104 0.44643402
vn -0 0.8755 0.483218
vn 0.34168696 0.87549984 0.34168696
vn 0.44643384 0.8755007 0.18491994
vn 0.48321605 0.87550116 0
vn -0 1 0
vn -0 -0.8755007 -0.48321688
vn -0 -0.666405 -0.74559
vn -0.28532594 -0.66640496 -0.68883497
vn -0.18491994 -0.8755007 -0.44643384
vn -0.5272128 -0.66640484 -0.52721083
vn -0.34168795 -0.87549984 -0.34168595
vn -0.6888347 -0.6664048 -0.2853269
vn -0.44643494 -0.87549984 -0.18492097
vn -0.74559087 -0.66640395 -1.9999998E-06
vn -0.483218 -0.8755 -1.0000001E-06
vn -0.68883497 -0.66640496 0.28532594
vn -0.44643384 -0.8755007 0.18491994
vn -0.5272108 -0.6664057 0.52721184
vn -0.34168696 -0.87549984 0.34168696
vn -0.28532594 -0.66640496 0.68883497
vn -0.18491994 -0.8755007 0.44643384
vn -0 -0.666406 0.745589
vn -0 -0.8755 0.483218
vn -0.66004044 -0.35874024 -0.6600394
vn -0.8623839 -0.35873997 -0.35721096
vn -0.9334375 -0.35873985 -9.999995E-07
vn -0.8623839 -0.35873997 0.35721096
vn -0.66004044 -0.35874024 0.6600394
vn -0.35721096 -0.35873997 0.8623839
vn -0 -0.35873985 0.9334375
vn -0.92387974 0 -0.3826829
vn -0.7071078 0 -0.7071057
vn -0.35721198 -0.358739 -0.8623839
vn -0 -0.35873985 -0.9334375
vn -0.3826829 0 -0.92387974
vn -0 0 -1
vn -1 0 0
vn -0.9238801 0 0.38268206
vn -0.7071073 0 0.70710623
vn -0.3826841 0 0.9238793
vn -0 0 1
vn -0.35721183 0.35873982 -0.8623836
vn -0 0.35873985 -0.9334375
vn -0.66004044 0.35874024 -0.6600394
vn -0.8623839 0.35873997 -0.35721096
vn -0.9334375 0.35873985 -9.999995E-07
vn -0.8623839 0.35873997 0.35721096
vn -0.66004044 0.35874024 0.6600394
vn -0.35721096 0.35873997 0.8623839
vn -0 0.35873985 0.9334375
vn -0.28532594 0.66640496 -0.68883497
vn -0 0.666405 -0.74559
vn -0.5272128 0.66640484 -0.52721083
vn -0.6888347 0.6664048 -0.2853269
vn -0.74559087 0.66640395 -1.9999998E-06
vn -0.68883497 0.66640496 0.28532594
vn -0.527211 0.666406 0.527211
vn -0.28532594 0.66640496 0.68883497
vn -0 0.666406 0.745589
vn -0.18491994 0.8755007 -0.44643384
vn -0 0.8755007 -0.48321688
vn -0.34168795 0.87549984 -0.34168595
vn -0.44643494 0.87549984 -0.18492097
vn -0.483218 0.8755 -1.0000001E-06
vn -0.44643384 0.8755007 0.18491994
vn -0.34168696 0.87549984 0.34168696
vn -0.18491994 0.8755007 0.44643384
vn -0 0.8755 0.483218
vn -0 1 0
vn -0 -1 0
vn -0 -1 0
g Ball_Cannonball_0
f 3/3/3 2/2/2 1/1/1
f 4/4/4 3/3/3 1/1/1
f 5/5/5 3/3/3 4/4/4
f 6/6/6 5/5/5 4/4/4
f 7/7/7 5/5/5 6/6/6
f 8/8/8 7/7/7 6/6/6
f 1/1/1 2/2/2 9/9/9
f 2/2/2 10/10/10 9/9/9
f 9/9/9 10/10/10 11/11/11
f 10/10/10 12/12/12 11/11/11
f 11/11/11 12/12/12 13/13/13
f 12/12/12 14/14/14 13/13/13
f 13/13/13 14/14/14 15/15/15
f 14/14/14 16/16/16 15/15/15
f 15/15/15 16/16/16 17/17/17
f 16/16/16 18/18/18 17/17/17
f 5/5/5 19/19/19 3/3/3
f 20/20/20 19/19/19 5/5/5
f 7/7/7 20/20/20 5/5/5
f 16/16/16 21/21/21 18/18/18
f 21/21/21 22/22/22 18/18/18
f 23/23/23 21/21/21 16/16/16
f 14/14/14 23/23/23 16/16/16
f 24/24/24 23/23/23 14/14/14
f 12/12/12 24/24/24 14/14/14
f 25/25/25 24/24/24 12/12/12
f 10/10/10 25/25/25 12/12/12
f 26/26/26 25/25/25 10/10/10
f 20/20/20 27/27/27 19/19/19
f 27/27/27 28/28/28 19/19/19
f 19/19/19 28/28/28 29/29/29
f 29/29/29 26/26/26 2/2/2
f 3/3/3 29/29/29 2/2/2
f 19/19/19 29/29/29 3/3/3
f 2/2/2 26/26/26 10/10/10
f 29/29/29 30/30/30 26/26/26
f 28/28/28 30/30/30 29/29/29
f 30/30/30 31/31/31 26/26/26
f 26/26/26 31/31/31 25/25/25
f 21/21/21 32/32/32 22/22/22
f 32/32/32 33/33/33 22/22/22
f 34/34/34 32/32/32 21/21/21
f 23/23/23 34/34/34 21/21/21
f 35/35/35 34/34/34 23/23/23
f 24/24/24 35/35/35 23/23/23
f 36/36/36 35/35/35 24/24/24
f 25/25/25 36/36/36 24/24/24
f 31/31/31 36/36/36 25/25/25
f 30/30/30 37/37/37 31/31/31
f 37/37/37 38/38/38 31/31/31
f 31/31/31 38/38/38 36/36/36
f 39/39/39 37/37/37 30/30/30
f 28/28/28 39/39/39 30/30/30
f 40/40/40 39/39/39 28/28/28
f 27/27/27 40/40/40 28/28/28
f 32/32/32 41/41/41 33/33/33
f 41/41/41 42/42/42 33/33/33
f 35/35/35 43/43/43 34/34/34
f 43/43/43 44/44/44 34/34/34
f 44/44/44 41/41/41 32/32/32
f 34/34/34 44/44/44 32/32/32
f 38/38/38 45/45/45 36/36/36
f 45/45/45 43/43/43 35/35/35
f 36/36/36 45/45/45 35/35/35
f 37/37/37 46/46/46 38/38/38
f 46/46/46 47/47/47 38/38/38
f 38/38/38 47/47/47 45/45/45
f 48/48/48 46/46/46 37/37/37
f 39/39/39 48/48/48 37/37/37
f 49/49/49 48/48/48 39/39/39
f 40/40/40 49/49/49 39/39/39
f 41/41/41 50/50/50 42/42/42
f 50/50/50 51/51/51 42/42/42
f 52/52/52 50/50/50 41/41/41
f 44/44/44 52/52/52 41/41/41
f 53/53/53 52/52/52 44/44/44
f 43/43/43 53/53/53 44/44/44
f 54/54/54 53/53/53 43/43/43
f 45/45/45 54/54/54 43/43/43
f 47/47/47 54/54/54 45/45/45
f 46/46/46 55/55/55 47/47/47
f 55/55/55 56/56/56 47/47/47
f 47/47/47 56/56/56 54/54/54
f 57/57/57 55/55/55 46/46/46
f 48/48/48 57/57/57 46/46/46
f 58/58/58 57/57/57 48/48/48
f 49/49/49 58/58/58 48/48/48
f 50/50/50 59/59/59 51/51/51
f 59/59/59 60/60/60 51/51/51
f 61/61/61 59/59/59 50/50/50
f 52/52/52 61/61/61 50/50/50
f 62/62/62 61/61/61 52/52/52
f 53/53/53 62/62/62 52/52/52
f 63/63/63 62/62/62 53/53/53
f 54/54/54 63/63/63 53/53/53
f 56/56/56 63/63/63 54/54/54
f 55/55/55 64/64/64 56/56/56
f 57/57/57 64/64/64 55/55/55
f 58/58/58 64/64/64 57/57/57
f 59/59/59 64/64/64 60/60/60
f 61/61/61 64/64/64 59/59/59
f 62/62/62 64/64/64 61/61/61
f 63/63/63 64/64/64 62/62/62
f 56/56/56 64/64/64 63/63/63
f 67/67/67 66/66/66 65/65/65
f 68/68/68 67/67/67 65/65/65
f 69/69/69 67/67/67 68/68/68
f 70/70/70 69/69/69 68/68/68
f 71/71/71 69/69/69 70/70/70
f 72/72/72 71/71/71 70/70/70
f 73/73/73 71/71/71 72/72/72
f 74/74/74 73/73/73 72/72/72
f 75/75/75 73/73/73 74/74/74
f 76/76/76 75/75/75 74/74/74
f 77/77/77 75/75/75 76/76/76
f 78/78/78 77/77/77 76/76/76
f 79/79/79 77/77/77 78/78/78
f 80/80/80 79/79/79 78/78/78
f 81/81/81 79/79/79 80/80/80
f 82/82/82 81/81/81 80/80/80
f 69/69/69 83/83/83 67/67/67
f 84/84/84 83/83/83 69/69/69
f 71/71/71 84/84/84 69/69/69
f 85/85/85 84/84/84 71/71/71
f 73/73/73 85/85/85 71/71/71
f 86/86/86 85/85/85 73/73/73
f 75/75/75 86/86/86 73/73/73
f 87/87/87 86/86/86 75/75/75
f 77/77/77 87/87/87 75/75/75
f 88/88/88 87/87/87 77/77/77
f 79/79/79 88/88/88 77/77/77
f 89/89/89 88/88/88 79/79/79
f 81/81/81 89/89/89 79/79/79
f 84/84/84 90/90/90 83/83/83
f 90/90/90 91/91/91 83/83/83
f 83/83/83 91/91/91 92/92/92
f 83/83/83 92/92/92 67/67/67
f 67/67/67 92/92/92 66/66/66
f 92/92/92 93/93/93 66/66/66
f 92/92/92 94/94/94 93/93/93
f 91/91/91 94/94/94 92/92/92
f 94/94/94 95/95/95 93/93/93
f 96/96/96 90/90/90 84/84/84
f 85/85/85 96/96/96 84/84/84
f 97/97/97 96/96/96 85/85/85
f 86/86/86 97/97/97 85/85/85
f 98/98/98 97/97/97 86/86/86
f 87/87/87 98/98/98 86/86/86
f 99/99/99 98/98/98 87/87/87
f 88/88/88 99/99/99 87/87/87
f 100/100/100 99/99/99 88/88/88
f 89/89/89 100/100/100 88/88/88
f 94/94/94 101/101/101 95/95/95
f 101/101/101 102/102/102 95/95/95
f 103/103/103 101/101/101 94/94/94
f 91/91/91 103/103/103 94/94/94
f 104/104/104 103/103/103 91/91/91
f 90/90/90 104/104/104 91/91/91
f 105/105/105 104/104/104 90/90/90
f 96/96/96 105/105/105 90/90/90
f 106/106/106 105/105/105 96/96/96
f 97/97/97 106/106/106 96/96/96
f 107/107/107 106/106/106 97/97/97
f 98/98/98 107/107/107 97/97/97
f 108/108/108 107/107/107 98/98/98
f 99/99/99 108/108/108 98/98/98
f 109/109/109 108/108/108 99/99/99
f 100/100/100 109/109/109 99/99/99
f 101/101/101 110/110/110 102/102/102
f 110/110/110 111/111/111 102/102/102
f 112/112/112 110/110/110 101/101/101
f 103/103/103 112/112/112 101/101/101
f 113/113/113 112/112/112 103/103/103
f 104/104/104 113/113/113 103/103/103
f 114/114/114 113/113/113 104/104/104
f 105/105/105 114/114/114 104/104/104
f 115/115/115 114/114/114 105/105/105
f 106/106/106 115/115/115 105/105/105
f 116/116/116 115/115/115 106/106/106
f 107/107/107 116/116/116 106/106/106
f 117/117/117 116/116/116 107/107/107
f 108/108/108 117/117/117 107/107/107
f 118/118/118 117/117/117 108/108/108
f 109/109/109 118/118/118 108/108/108
f 110/110/110 119/119/119 111/111/111
f 119/119/119 120/120/120 111/111/111
f 121/121/121 119/119/119 110/110/110
f 112/112/112 121/121/121 110/110/110
f 122/122/122 121/121/121 112/112/112
f 113/113/113 122/122/122 112/112/112
f 123/123/123 122/122/122 113/113/113
f 114/114/114 123/123/123 113/113/113
f 124/124/124 123/123/123 114/114/114
f 115/115/115 124/124/124 114/114/114
f 125/125/125 124/124/124 115/115/115
f 116/116/116 125/125/125 115/115/115
f 126/126/126 125/125/125 116/116/116
f 117/117/117 126/126/126 116/116/116
f 127/127/127 126/126/126 117/117/117
f 118/118/118 127/127/127 117/117/117
f 119/119/119 128/128/128 120/120/120
f 121/121/121 128/128/128 119/119/119
f 122/122/122 128/128/128 121/121/121
f 123/123/123 128/128/128 122/122/122
f 124/124/124 128/128/128 123/123/123
f 125/125/125 128/128/128 124/124/124
f 126/126/126 128/128/128 125/125/125
f 127/127/127 128/128/128 126/126/126
f 1/1/1 129/129/129 4/4/4
f 4/4/4 129/129/129 6/6/6
f 6/6/6 129/129/129 8/8/8
f 9/9/9 129/129/129 1/1/1
f 11/11/11 129/129/129 9/9/9
f 13/13/13 129/129/129 11/11/11
f 15/15/15 129/129/129 13/13/13
f 17/17/17 129/129/129 15/15/15
f 65/65/65 130/130/130 68/68/68
f 68/68/68 130/130/130 70/70/70
f 70/70/70 130/130/130 72/72/72
f 72/72/72 130/130/130 74/74/74
f 74/74/74 130/130/130 76/76/76
f 76/76/76 130/130/130 78/78/78
f 78/78/78 130/130/130 80/80/80
f 80/80/80 130/130/130 82/82/82
