g balloon_string
v -0.0007470703 4.168361 0.13434447
v -0.0005224609 4.205539 -0.06491089
v 0.14716552 4.19153 -0.0012097168
v -0.14854248 4.2062354 -0.0006994629
v -0.2100122 4.2030077 0.14875855
v -0.14875977 4.2013354 0.2924011
v -0.0010009765 4.222571 0.34207153
v 0.14693359 4.2086067 0.29152954
v 0.2083374 4.1965337 0.14832641
v 0.16672607 4.138872 -0.020023193
v -0.000847168 4.1599393 -0.09915405
v -0.16840331 4.152543 -0.019244384
v -0.23781493 4.143878 0.15343872
v -0.1684082 4.145453 0.31962523
v -0.0008374023 4.1768403 0.38340452
v 0.16672607 4.153735 0.3189392
v 0.23613524 4.138486 0.15348755
v -0.000847168 4.1599393 -0.09915405
v -0.0011450195 4.055762 -0.06546997
v 0.13620849 4.051121 0.0065979003
v 0.16672607 4.138872 -0.020023193
v -0.16840331 4.152543 -0.019244384
v -0.13817626 4.0573072 0.0063830563
v -0.23781493 4.143878 0.15343872
v -0.19478759 4.0655055 0.1491687
v -0.1684082 4.145453 0.31962523
v -0.13796875 4.075092 0.28947142
v -0.0008374023 4.1768403 0.38340452
v -0.00068603514 4.0855484 0.3527966
v 0.16672607 4.153735 0.3189392
v 0.13643311 4.082214 0.28864622
v 0.23613524 4.138486 0.15348755
v 0.19311035 4.059075 0.15024048
v -0.00092529296 4.037637 0.14314818
v 0.04080322 0.20262909 -0.027723389
v 0.03623535 0.5668933 -0.004967041
v -0.012416992 0.56814235 -0.025079345
v -0.012416992 0.20426178 -0.04970825
v -0.061069336 0.5668933 -0.004967041
v -0.065639645 0.20262909 -0.027723389
v -0.081223145 0.5638782 0.043592528
v -0.08768555 0.19868743 0.025352784
v -0.061069336 0.5608627 0.0921521
v -0.065639645 0.19474578 0.078428954
v -0.012416992 0.55961394 0.112266846
v -0.012416992 0.19311309 0.100413814
v 0.06284912 0.19868743 0.025352784
v 0.056386717 0.5638782 0.043592528
v 0.04080322 0.19474578 0.078428954
v 0.03623535 0.5608627 0.0921521
v -0.012416992 0.19311309 0.100413814
v -0.012416992 0.55961394 0.112266846
v -0.05741699 0.93179077 0.002491455
v -0.07605713 0.9297732 0.047445066
v -0.05741699 0.927756 0.092401125
v -0.012416992 0.9269205 0.11102173
v 0.032580566 0.927756 0.092401125
v -0.012416992 0.9269205 0.11102173
v 0.0512207 0.9297732 0.047445066
v 0.032580566 0.93179077 0.002491455
v -0.012416992 0.9326263 -0.01612915
v -0.012416992 1.2976395 -0.026693115
v 0.032580566 1.2971469 -0.008060303
v -0.05741699 1.2971469 -0.008060303
v -0.07605713 1.2959576 0.036922608
v -0.05741699 1.2947683 0.08190796
v -0.012416992 1.2942758 0.10054077
v 0.032580566 1.2947683 0.08190796
v -0.012416992 1.2942758 0.10054077
v 0.0512207 1.2959576 0.036922608
v -0.012416992 1.6626441 -0.04550415
v 0.032580566 1.6624417 -0.026864013
v -0.05741699 1.6624417 -0.026864013
v -0.07605713 1.661953 0.018131103
v -0.05741699 1.6614642 0.06312866
v -0.012416992 1.6612617 0.08176635
v 0.032580566 1.6614642 0.06312866
v -0.012416992 1.6612617 0.08176635
v 0.0512207 1.661953 0.018131103
v -0.012416992 2.0277522 -0.061851807
v 0.032580566 2.0277224 -0.04321411
v -0.05741699 2.0277224 -0.04321411
v -0.07605713 2.0276504 0.0017858887
v -0.05741699 2.0275784 0.046785887
v -0.012416992 2.0275486 0.065423585
v 0.032580566 2.0275784 0.046785887
v -0.012416992 2.0275486 0.065423585
v 0.0512207 2.0276504 0.0017858887
v -0.012416992 2.3932455 -0.06536255
v 0.032580566 2.3932455 -0.046722412
v -0.05741699 2.3932455 -0.046722412
v -0.07605713 2.3932455 -0.0017224121
v -0.05741699 2.3932455 0.043275144
v -0.012416992 2.3932455 0.061915282
v 0.032580566 2.3932455 0.043275144
v -0.012416992 2.3932455 0.061915282
v 0.0512207 2.3932455 -0.0017224121
v -0.012416992 2.758838 -0.06536255
v 0.032580566 2.758838 -0.046722412
v -0.05741699 2.758838 -0.046722412
v -0.07605713 2.758838 -0.0017224121
v -0.05741699 2.758838 0.043275144
v -0.012416992 2.758838 0.061915282
v 0.032580566 2.758838 0.043275144
v -0.012416992 2.758838 0.061915282
v 0.0512207 2.758838 -0.0017224121
v -0.012416992 3.1244302 -0.06536255
v 0.032580566 3.1244302 -0.046722412
v -0.05741699 3.1244302 -0.046722412
v -0.07605713 3.1244302 -0.0017224121
v -0.05741699 3.1244302 0.043275144
v -0.012416992 3.1244302 0.061915282
v 0.032580566 3.1244302 0.043275144
v -0.012416992 3.1244302 0.061915282
v 0.0512207 3.1244302 -0.0017224121
v -0.012416992 3.4900224 -0.06536255
v 0.032580566 3.4900224 -0.046722412
v -0.05741699 3.4900224 -0.046722412
v -0.07605713 3.4900224 -0.0017224121
v -0.05741699 3.4900224 0.043275144
v -0.012416992 3.4900224 0.061915282
v 0.032580566 3.4900224 0.043275144
v -0.012416992 3.4900224 0.061915282
v 0.0512207 3.4900224 -0.0017224121
v -0.009399414 3.8368497 -0.046732176
v 0.03477539 3.8349285 -0.02630493
v -0.05514404 3.8352022 -0.030084228
v -0.07566162 3.8309507 0.013885498
v -0.058933105 3.8265862 0.059420165
v -0.0147583 3.824665 0.07984741
v 0.030986328 3.8263128 0.063201904
v -0.0147583 3.824665 0.07984741
v 0.051503904 3.8305638 0.019232178
v -0.0070483396 4.1802373 0.005045166
v 0.03621826 4.1762085 0.02704956
v -0.053459473 4.177126 0.019493409
v -0.075827636 4.168697 0.06192993
v -0.061052244 4.159888 0.10749878
v -0.017785644 4.1558585 0.12950318
v 0.028623046 4.15897 0.11505493
v -0.017785644 4.1558585 0.12950318
v 0.05099365 4.1673994 0.07261841
v 0.047358397 -0.13559051 -0.059661865
v -0.012416992 -0.13366668 -0.08434692
v -0.012416992 -0.16575713 -0.054542236
v 0.024660643 -0.16696136 -0.039232176
v 0.07211914 -0.14023529 -6.713867E-05
v 0.039982907 -0.16986847 -0.0022668457
v -0.049470212 -0.1669635 -0.03920532
v -0.07219482 -0.13559051 -0.059661865
v -0.06476318 -0.16986847 -0.0022668457
v -0.096953124 -0.14023529 -6.713867E-05
v -0.049404297 -0.17276855 0.03460571
v -0.07219482 -0.14488006 0.059530027
v -0.012416992 -0.17396972 0.049881592
v -0.012416992 -0.14680359 0.08421509
v 0.047358397 -0.14488006 0.059530027
v 0.024597168 -0.17277099 0.034632567
v -0.012416992 -0.14680359 0.08421509
v 0.07211914 -0.14023529 -6.713867E-05
v 0.047358397 -0.13559051 -0.059661865
v -0.012416992 -0.13366668 -0.08434692
v -0.07219482 -0.13559051 -0.059661865
v -0.096953124 -0.14023529 -6.713867E-05
v -0.07219482 -0.14488006 0.059530027
v -0.012416992 -0.14680359 0.08421509
v -0.012416992 -0.16986847 -0.0022668457
vt 0.60009766 0.30615234
vt 0.60595703 0.30493164
vt 0.60302734 0.3005371
vt 0.60498047 0.3100586
vt 0.6010742 0.31298828
vt 0.5961914 0.31201172
vt 0.59375 0.3076172
vt 0.59472656 0.30249023
vt 0.5986328 0.29956055
vt 0.6040039 0.29882812
vt 0.60791016 0.30444336
vt 0.6064453 0.3112793
vt 0.6010742 0.31518555
vt 0.59521484 0.31396484
vt 0.59228516 0.30810547
vt 0.59277344 0.30126953
vt 0.59765625 0.29760742
vt 0.5683594 0.25732422
vt 0.5649414 0.25732422
vt 0.5629883 0.2614746
vt 0.5649414 0.26391602
vt 0.5654297 0.25048828
vt 0.5629883 0.2529297
vt 0.55908203 0.2479248
vt 0.55908203 0.25073242
vt 0.5527344 0.25073242
vt 0.5546875 0.25268555
vt 0.5498047 0.25708008
vt 0.5527344 0.25708008
vt 0.5527344 0.26342773
vt 0.5546875 0.26171875
vt 0.55859375 0.26635742
vt 0.55908203 0.26342773
vt 0.55908203 0.25732422
vt 0.51220703 0.2685547
vt 0.51220703 0.27783203
vt 0.51464844 0.27783203
vt 0.51464844 0.2685547
vt 0.51708984 0.27783203
vt 0.51708984 0.2685547
vt 0.51953125 0.27783203
vt 0.51953125 0.2685547
vt 0.52246094 0.27783203
vt 0.52246094 0.2685547
vt 0.52490234 0.27783203
vt 0.52490234 0.2685547
vt 0.5097656 0.2685547
vt 0.5097656 0.27783203
vt 0.5078125 0.2685547
vt 0.5078125 0.27783203
vt 0.5053711 0.2685547
vt 0.5053711 0.27783203
vt 0.51708984 0.28710938
vt 0.51953125 0.28710938
vt 0.52246094 0.28710938
vt 0.52490234 0.28710938
vt 0.5078125 0.28710938
vt 0.5053711 0.28710938
vt 0.5097656 0.28710938
vt 0.51220703 0.28710938
vt 0.51464844 0.28710938
vt 0.51464844 0.29663086
vt 0.51220703 0.29663086
vt 0.51708984 0.29663086
vt 0.51953125 0.29663086
vt 0.52246094 0.29663086
vt 0.52490234 0.29663086
vt 0.5078125 0.29663086
vt 0.5053711 0.29663086
vt 0.5097656 0.29663086
vt 0.51464844 0.3059082
vt 0.51220703 0.3059082
vt 0.51708984 0.3059082
vt 0.51953125 0.3059082
vt 0.52246094 0.3059082
vt 0.52490234 0.3059082
vt 0.5078125 0.3059082
vt 0.5053711 0.3059082
vt 0.5097656 0.3059082
vt 0.51464844 0.3154297
vt 0.51220703 0.3154297
vt 0.51708984 0.3154297
vt 0.51953125 0.3154297
vt 0.52246094 0.3154297
vt 0.52490234 0.3154297
vt 0.5078125 0.3154297
vt 0.5053711 0.3154297
vt 0.5097656 0.3154297
vt 0.51464844 0.32470703
vt 0.51220703 0.32470703
vt 0.51708984 0.32470703
vt 0.51953125 0.32470703
vt 0.52246094 0.32470703
vt 0.52490234 0.32470703
vt 0.5078125 0.32470703
vt 0.5053711 0.32470703
vt 0.5097656 0.32470703
vt 0.51464844 0.33422852
vt 0.51220703 0.33422852
vt 0.51708984 0.33422852
vt 0.51953125 0.33422852
vt 0.52246094 0.33422852
vt 0.52490234 0.33422852
vt 0.5078125 0.33422852
vt 0.5053711 0.33422852
vt 0.5097656 0.33422852
vt 0.51464844 0.34350586
vt 0.51220703 0.34350586
vt 0.51708984 0.34350586
vt 0.51953125 0.34350586
vt 0.52246094 0.34350586
vt 0.52490234 0.34350586
vt 0.5078125 0.34350586
vt 0.5053711 0.34350586
vt 0.5097656 0.34350586
vt 0.51464844 0.35302734
vt 0.51220703 0.35302734
vt 0.51708984 0.35302734
vt 0.51953125 0.35302734
vt 0.52246094 0.35302734
vt 0.52490234 0.35302734
vt 0.5078125 0.35302734
vt 0.5053711 0.35302734
vt 0.5097656 0.35302734
vt 0.51464844 0.3618164
vt 0.51220703 0.3618164
vt 0.51708984 0.3618164
vt 0.51953125 0.3618164
vt 0.52246094 0.3618164
vt 0.52490234 0.3618164
vt 0.5078125 0.3618164
vt 0.5053711 0.3618164
vt 0.5097656 0.3618164
vt 0.51464844 0.37036133
vt 0.51220703 0.37036133
vt 0.51708984 0.37036133
vt 0.51953125 0.37036133
vt 0.52246094 0.37036133
vt 0.52490234 0.37036133
vt 0.5078125 0.37036133
vt 0.5053711 0.37036133
vt 0.5097656 0.37036133
vt 0.5107422 0.25268555
vt 0.5083008 0.24951172
vt 0.5073242 0.25170898
vt 0.5083008 0.2536621
vt 0.5107422 0.25683594
vt 0.5083008 0.25585938
vt 0.5048828 0.25146484
vt 0.50439453 0.24902344
vt 0.50341797 0.2529297
vt 0.50146484 0.25146484
vt 0.50341797 0.2553711
vt 0.50097656 0.25561523
vt 0.50439453 0.25732422
vt 0.5029297 0.25927734
vt 0.5078125 0.26000977
vt 0.50683594 0.25732422
vt 0.5053711 0.25976562
vt 0.5097656 0.25976562
vt 0.51220703 0.25976562
vt 0.51464844 0.25976562
vt 0.51708984 0.25976562
vt 0.51953125 0.25976562
vt 0.52246094 0.25976562
vt 0.52490234 0.25976562
vt 0.5058594 0.25463867
vn 0.015538593 0.9995851 -0.024254624
vn 0.036185052 0.9259691 -0.3758614
vn 0.35415894 0.8906176 -0.28525722
vn -0.30842188 0.91421753 -0.26283506
vn -0.4394279 0.8982661 0.0045892275
vn -0.34916925 0.90279716 0.25107417
vn -0.020941166 0.96145296 0.2741708
vn 0.33531824 0.9176172 0.21340197
vn 0.45605332 0.88851315 -0.050593846
vn 0.7219945 -0.08812741 -0.68626344
vn -0.010794986 -0.034841124 -0.9993345
vn -0.7258382 -0.065269716 -0.68476176
vn -0.99488336 -0.100886054 0.005383718
vn -0.6884338 -0.06720826 0.72217864
vn 0.0023634923 0.04578418 0.99894863
vn 0.68810296 -0.043595057 0.72430223
vn 0.9938531 -0.10942738 0.016779399
vn -0.010794986 -0.034841124 -0.9993345
vn -0.020353695 -0.6819079 -0.7311548
vn 0.48084274 -0.7390171 -0.4718516
vn 0.7219945 -0.08812741 -0.68626344
vn -0.7258382 -0.065269716 -0.68476176
vn -0.50742894 -0.7139573 -0.48247364
vn -0.99488336 -0.100886054 0.005383718
vn -0.6564244 -0.75438994 0.0016832837
vn -0.6884338 -0.06720826 0.72217864
vn -0.4222725 -0.75799733 0.49711767
vn 0.0023634923 0.04578418 0.99894863
vn 0.01725237 -0.7117262 0.702245
vn 0.68810296 -0.043595057 0.72430223
vn 0.43072635 -0.7365124 0.5215593
vn 0.9938531 -0.10942738 0.016779399
vn 0.6342456 -0.7720104 0.04162271
vn -0.008082051 -0.9971343 0.07521773
vn 0.70864546 0.066677846 -0.70240706
vn 0.70955724 0.03786329 -0.70362973
vn -0 0.046879146 -0.99890053
vn -0 0.08508263 -0.99637395
vn -0.7095573 0.03786329 -0.70362973
vn -0.7086456 0.06667783 -0.7024069
vn -0.99985576 0.015941285 0.0058645955
vn -0.9997385 0.022339799 0.004870264
vn -0.7042053 -0.006179591 0.7099695
vn -0.7051914 -0.021861464 0.7086799
vn -0 -0.015394919 0.9998815
vn -0 -0.0401301 0.99919444
vn 0.9997385 0.02233955 0.0048702327
vn 0.99985576 0.015941307 0.0058646975
vn 0.7051914 -0.02186161 0.70867985
vn 0.7042053 -0.006179575 0.7099696
vn -0 -0.0401301 0.99919444
vn -0 -0.015394919 0.9998815
vn -0.7093119 0.0009438516 -0.704894
vn -0.99995756 0.007484219 0.005370856
vn -0.70390236 0.013333225 0.7101716
vn -0 0.015549698 0.9998791
vn 0.70390224 0.013333381 0.71017164
vn -0 0.015549698 0.9998791
vn 0.99995756 0.007484388 0.0053709415
vn 0.7093119 0.000943812 -0.704894
vn -0 -0.0019620296 -0.9999981
vn -0 -0.040357787 -0.99918526
vn 0.7078966 -0.02835581 -0.70574665
vn -0.7078966 -0.02835577 -0.70574665
vn -0.9999949 0.00028143282 0.003180833
vn -0.70473003 0.028283104 0.7089116
vn -0 0.03965358 0.99921346
vn 0.70473003 0.028283093 0.7089116
vn -0 0.03965358 0.99921346
vn 0.9999949 0.00028127598 0.003180833
vn -0 -0.04803256 -0.9988458
vn 0.70618534 -0.03402898 -0.7072089
vn -0.70618534 -0.03402898 -0.7072089
vn -0.9999999 -9.120542E-05 -0.0004973309
vn -0.7066818 0.033872303 0.7067202
vn -0 0.047901295 0.99885213
vn 0.7066818 0.033872258 0.7067202
vn -0 0.047901295 0.99885213
vn 0.9999999 -9.142915E-05 -0.0004973309
vn -0 -0.027043518 -0.99963427
vn 0.70484006 -0.0192682 -0.70910454
vn -0.70484006 -0.019268205 -0.70910454
vn -0.9999914 -0.00023955513 -0.0041343584
vn -0.7089702 0.019125652 0.7049791
vn -0 0.027236793 0.999629
vn 0.7089702 0.019125743 0.7049791
vn -0 0.027236793 0.999629
vn 0.9999914 -0.0002396257 -0.0041343584
vn -0 -0.004794679 -0.99998856
vn 0.7065305 -0.0033966654 -0.70767444
vn -0.7065305 -0.003396666 -0.70767444
vn -0.9999994 -1.0893946E-05 -0.0011484942
vn -0.70766866 0.0033908326 0.7065363
vn -0 0.0048047374 0.99998844
vn 0.7076687 0.0033908333 0.7065363
vn -0 0.0048047374 0.99998844
vn 0.9999994 -1.0917357E-05 -0.0011484942
vn -0 0 -1
vn 0.7071144 0 -0.7070991
vn -0.7071144 0 -0.7070991
vn -1 0 0
vn -0.70709956 0 0.707114
vn -0 0 1
vn 0.7070996 0 0.7071139
vn -0 0 1
vn 1 0 0
vn -0 0 -1
vn 0.7071144 0 -0.7070991
vn -0.7071144 0 -0.7070991
vn -1 0 0
vn -0.70709956 0 0.707114
vn -0 0 1
vn 0.70709956 0 0.707114
vn -0 0 1
vn 1 0 0
vn 0.009126132 0.025843913 -0.9996244
vn 0.7097102 0.01780643 -0.70426875
vn -0.6966859 0.019152876 -0.71712047
vn -0.9998584 0.0013716794 -0.01677347
vn -0.71730447 -0.017390242 0.69654286
vn -0.009363416 -0.025868006 0.9996215
vn 0.7041913 -0.0187979 0.70976144
vn -0.009363416 -0.025868006 0.9996215
vn 0.99999845 -0.0005752673 0.0016553812
vn 0.04190363 0.100995935 -0.99400395
vn 0.7292674 0.068604864 -0.6807807
vn -0.66927886 0.07577384 -0.7391374
vn -0.99840444 0.006678877 -0.05607207
vn -0.74320984 -0.06708112 0.6656871
vn -0.04252208 -0.10126664 0.9939501
vn 0.68382037 -0.07458293 0.7258285
vn -0.04252208 -0.10126664 0.9939501
vn 0.9996094 -0.0036917792 0.027704487
vn 0.06550773 0.14836778 -0.98676026
vn 0.745185 0.09986415 -0.65933794
vn -0.65169936 0.11207963 -0.7501507
vn -0.99690646 0.010694466 -0.0778666
vn -0.75736374 -0.09786105 0.6456185
vn -0.06491816 -0.14851381 0.98677725
vn 0.66622144 -0.11029307 0.737553
vn -0.06491816 -0.14851381 0.98677725
vn 0.99865144 -0.006750347 0.051475655
vn 0.7069152 0.015787687 -0.7071221
vn -8.171702E-06 0.037701704 -0.99928904
vn -0.00011455144 -0.7890368 -0.61434597
vn 0.39013344 -0.8013487 -0.45347106
vn 0.9993081 -0.037129145 -0.0021734708
vn 0.5521642 -0.8312476 -0.06435892
vn -0.39012474 -0.80148154 -0.453244
vn -0.70692205 0.015746195 -0.70711607
vn -0.5519156 -0.83141184 -0.06437004
vn -0.99930596 -0.03718678 -0.0021777404
vn -0.39056134 -0.8613327 0.32491198
vn -0.70631534 -0.090058476 0.7021454
vn -0.000114220624 -0.8736981 0.4864684
vn -7.825403E-06 -0.11192935 0.9937162
vn 0.7063085 -0.090018176 0.7021575
vn 0.39057142 -0.861234 0.3251614
vn -7.825403E-06 -0.11192935 0.9937162
vn 0.9993081 -0.037129145 -0.0021734708
vn 0.7069152 0.015787687 -0.7071221
vn -8.171702E-06 0.037701704 -0.99928904
vn -0.70692205 0.015746195 -0.70711607
vn -0.99930596 -0.03718678 -0.0021777404
vn -0.70631534 -0.090058476 0.7021454
vn -7.825403E-06 -0.11192935 0.9937162
vn -7.867315E-07 -0.9969214 -0.07840742
g balloon_string_0
f 3/3/3 2/2/2 1/1/1
f 2/2/2 4/4/4 1/1/1
f 4/4/4 5/5/5 1/1/1
f 5/5/5 6/6/6 1/1/1
f 6/6/6 7/7/7 1/1/1
f 7/7/7 8/8/8 1/1/1
f 8/8/8 9/9/9 1/1/1
f 9/9/9 3/3/3 1/1/1
f 3/3/3 10/10/10 2/2/2
f 10/10/10 11/11/11 2/2/2
f 2/2/2 11/11/11 4/4/4
f 11/11/11 12/12/12 4/4/4
f 4/4/4 12/12/12 5/5/5
f 12/12/12 13/13/13 5/5/5
f 5/5/5 13/13/13 6/6/6
f 13/13/13 14/14/14 6/6/6
f 6/6/6 14/14/14 7/7/7
f 14/14/14 15/15/15 7/7/7
f 7/7/7 15/15/15 8/8/8
f 15/15/15 16/16/16 8/8/8
f 8/8/8 16/16/16 9/9/9
f 16/16/16 17/17/17 9/9/9
f 17/17/17 10/10/10 3/3/3
f 9/9/9 17/17/17 3/3/3
f 20/20/20 19/19/19 18/18/18
f 21/21/21 20/20/20 18/18/18
f 18/18/18 19/19/19 22/22/22
f 19/19/19 23/23/23 22/22/22
f 22/22/22 23/23/23 24/24/24
f 23/23/23 25/25/25 24/24/24
f 24/24/24 25/25/25 26/26/26
f 25/25/25 27/27/27 26/26/26
f 26/26/26 27/27/27 28/28/28
f 27/27/27 29/29/29 28/28/28
f 28/28/28 29/29/29 30/30/30
f 29/29/29 31/31/31 30/30/30
f 30/30/30 31/31/31 32/32/32
f 31/31/31 33/33/33 32/32/32
f 33/33/33 20/20/20 21/21/21
f 32/32/32 33/33/33 21/21/21
f 20/20/20 34/34/34 19/19/19
f 19/19/19 34/34/34 23/23/23
f 23/23/23 34/34/34 25/25/25
f 25/25/25 34/34/34 27/27/27
f 27/27/27 34/34/34 29/29/29
f 29/29/29 34/34/34 31/31/31
f 31/31/31 34/34/34 33/33/33
f 33/33/33 34/34/34 20/20/20
f 37/37/37 36/36/36 35/35/35
f 38/38/38 37/37/37 35/35/35
f 39/39/39 37/37/37 38/38/38
f 40/40/40 39/39/39 38/38/38
f 41/41/41 39/39/39 40/40/40
f 42/42/42 41/41/41 40/40/40
f 43/43/43 41/41/41 42/42/42
f 44/44/44 43/43/43 42/42/42
f 45/45/45 43/43/43 44/44/44
f 46/46/46 45/45/45 44/44/44
f 35/35/35 36/36/36 47/47/47
f 36/36/36 48/48/48 47/47/47
f 47/47/47 48/48/48 49/49/49
f 48/48/48 50/50/50 49/49/49
f 49/49/49 50/50/50 51/51/51
f 50/50/50 52/52/52 51/51/51
f 39/39/39 53/53/53 37/37/37
f 54/54/54 53/53/53 39/39/39
f 41/41/41 54/54/54 39/39/39
f 55/55/55 54/54/54 41/41/41
f 43/43/43 55/55/55 41/41/41
f 56/56/56 55/55/55 43/43/43
f 45/45/45 56/56/56 43/43/43
f 50/50/50 57/57/57 52/52/52
f 57/57/57 58/58/58 52/52/52
f 59/59/59 57/57/57 50/50/50
f 48/48/48 59/59/59 50/50/50
f 60/60/60 59/59/59 48/48/48
f 36/36/36 60/60/60 48/48/48
f 61/61/61 60/60/60 36/36/36
f 37/37/37 61/61/61 36/36/36
f 53/53/53 61/61/61 37/37/37
f 61/61/61 62/62/62 60/60/60
f 62/62/62 63/63/63 60/60/60
f 60/60/60 63/63/63 59/59/59
f 64/64/64 62/62/62 61/61/61
f 53/53/53 64/64/64 61/61/61
f 65/65/65 64/64/64 53/53/53
f 54/54/54 65/65/65 53/53/53
f 66/66/66 65/65/65 54/54/54
f 55/55/55 66/66/66 54/54/54
f 67/67/67 66/66/66 55/55/55
f 56/56/56 67/67/67 55/55/55
f 57/57/57 68/68/68 58/58/58
f 68/68/68 69/69/69 58/58/58
f 70/70/70 68/68/68 57/57/57
f 59/59/59 70/70/70 57/57/57
f 63/63/63 70/70/70 59/59/59
f 62/62/62 71/71/71 63/63/63
f 71/71/71 72/72/72 63/63/63
f 63/63/63 72/72/72 70/70/70
f 73/73/73 71/71/71 62/62/62
f 64/64/64 73/73/73 62/62/62
f 74/74/74 73/73/73 64/64/64
f 65/65/65 74/74/74 64/64/64
f 75/75/75 74/74/74 65/65/65
f 66/66/66 75/75/75 65/65/65
f 76/76/76 75/75/75 66/66/66
f 67/67/67 76/76/76 66/66/66
f 68/68/68 77/77/77 69/69/69
f 77/77/77 78/78/78 69/69/69
f 79/79/79 77/77/77 68/68/68
f 70/70/70 79/79/79 68/68/68
f 72/72/72 79/79/79 70/70/70
f 71/71/71 80/80/80 72/72/72
f 80/80/80 81/81/81 72/72/72
f 72/72/72 81/81/81 79/79/79
f 82/82/82 80/80/80 71/71/71
f 73/73/73 82/82/82 71/71/71
f 83/83/83 82/82/82 73/73/73
f 74/74/74 83/83/83 73/73/73
f 84/84/84 83/83/83 74/74/74
f 75/75/75 84/84/84 74/74/74
f 85/85/85 84/84/84 75/75/75
f 76/76/76 85/85/85 75/75/75
f 77/77/77 86/86/86 78/78/78
f 86/86/86 87/87/87 78/78/78
f 88/88/88 86/86/86 77/77/77
f 79/79/79 88/88/88 77/77/77
f 81/81/81 88/88/88 79/79/79
f 80/80/80 89/89/89 81/81/81
f 89/89/89 90/90/90 81/81/81
f 81/81/81 90/90/90 88/88/88
f 91/91/91 89/89/89 80/80/80
f 82/82/82 91/91/91 80/80/80
f 92/92/92 91/91/91 82/82/82
f 83/83/83 92/92/92 82/82/82
f 93/93/93 92/92/92 83/83/83
f 84/84/84 93/93/93 83/83/83
f 94/94/94 93/93/93 84/84/84
f 85/85/85 94/94/94 84/84/84
f 86/86/86 95/95/95 87/87/87
f 95/95/95 96/96/96 87/87/87
f 97/97/97 95/95/95 86/86/86
f 88/88/88 97/97/97 86/86/86
f 90/90/90 97/97/97 88/88/88
f 89/89/89 98/98/98 90/90/90
f 98/98/98 99/99/99 90/90/90
f 90/90/90 99/99/99 97/97/97
f 100/100/100 98/98/98 89/89/89
f 91/91/91 100/100/100 89/89/89
f 101/101/101 100/100/100 91/91/91
f 92/92/92 101/101/101 91/91/91
f 102/102/102 101/101/101 92/92/92
f 93/93/93 102/102/102 92/92/92
f 103/103/103 102/102/102 93/93/93
f 94/94/94 103/103/103 93/93/93
f 95/95/95 104/104/104 96/96/96
f 104/104/104 105/105/105 96/96/96
f 106/106/106 104/104/104 95/95/95
f 97/97/97 106/106/106 95/95/95
f 99/99/99 106/106/106 97/97/97
f 98/98/98 107/107/107 99/99/99
f 107/107/107 108/108/108 99/99/99
f 99/99/99 108/108/108 106/106/106
f 109/109/109 107/107/107 98/98/98
f 100/100/100 109/109/109 98/98/98
f 110/110/110 109/109/109 100/100/100
f 101/101/101 110/110/110 100/100/100
f 111/111/111 110/110/110 101/101/101
f 102/102/102 111/111/111 101/101/101
f 112/112/112 111/111/111 102/102/102
f 103/103/103 112/112/112 102/102/102
f 104/104/104 113/113/113 105/105/105
f 113/113/113 114/114/114 105/105/105
f 115/115/115 113/113/113 104/104/104
f 106/106/106 115/115/115 104/104/104
f 108/108/108 115/115/115 106/106/106
f 107/107/107 116/116/116 108/108/108
f 116/116/116 117/117/117 108/108/108
f 108/108/108 117/117/117 115/115/115
f 118/118/118 116/116/116 107/107/107
f 109/109/109 118/118/118 107/107/107
f 119/119/119 118/118/118 109/109/109
f 110/110/110 119/119/119 109/109/109
f 120/120/120 119/119/119 110/110/110
f 111/111/111 120/120/120 110/110/110
f 121/121/121 120/120/120 111/111/111
f 112/112/112 121/121/121 111/111/111
f 113/113/113 122/122/122 114/114/114
f 122/122/122 123/123/123 114/114/114
f 124/124/124 122/122/122 113/113/113
f 115/115/115 124/124/124 113/113/113
f 117/117/117 124/124/124 115/115/115
f 116/116/116 125/125/125 117/117/117
f 125/125/125 126/126/126 117/117/117
f 117/117/117 126/126/126 124/124/124
f 127/127/127 125/125/125 116/116/116
f 118/118/118 127/127/127 116/116/116
f 128/128/128 127/127/127 118/118/118
f 119/119/119 128/128/128 118/118/118
f 129/129/129 128/128/128 119/119/119
f 120/120/120 129/129/129 119/119/119
f 130/130/130 129/129/129 120/120/120
f 121/121/121 130/130/130 120/120/120
f 122/122/122 131/131/131 123/123/123
f 131/131/131 132/132/132 123/123/123
f 133/133/133 131/131/131 122/122/122
f 124/124/124 133/133/133 122/122/122
f 126/126/126 133/133/133 124/124/124
f 125/125/125 134/134/134 126/126/126
f 134/134/134 135/135/135 126/126/126
f 126/126/126 135/135/135 133/133/133
f 136/136/136 134/134/134 125/125/125
f 127/127/127 136/136/136 125/125/125
f 137/137/137 136/136/136 127/127/127
f 128/128/128 137/137/137 127/127/127
f 138/138/138 137/137/137 128/128/128
f 129/129/129 138/138/138 128/128/128
f 139/139/139 138/138/138 129/129/129
f 130/130/130 139/139/139 129/129/129
f 131/131/131 140/140/140 132/132/132
f 140/140/140 141/141/141 132/132/132
f 142/142/142 140/140/140 131/131/131
f 133/133/133 142/142/142 131/131/131
f 135/135/135 142/142/142 133/133/133
f 145/145/145 144/144/144 143/143/143
f 146/146/146 145/145/145 143/143/143
f 143/143/143 147/147/147 146/146/146
f 147/147/147 148/148/148 146/146/146
f 145/145/145 149/149/149 144/144/144
f 149/149/149 150/150/150 144/144/144
f 149/149/149 151/151/151 150/150/150
f 151/151/151 152/152/152 150/150/150
f 151/151/151 153/153/153 152/152/152
f 153/153/153 154/154/154 152/152/152
f 153/153/153 155/155/155 154/154/154
f 155/155/155 156/156/156 154/154/154
f 148/148/148 147/147/147 157/157/157
f 158/158/158 148/148/148 157/157/157
f 158/158/158 157/157/157 159/159/159
f 155/155/155 158/158/158 159/159/159
f 157/157/157 49/49/49 159/159/159
f 49/49/49 51/51/51 159/159/159
f 47/47/47 49/49/49 157/157/157
f 160/160/160 47/47/47 157/157/157
f 35/35/35 47/47/47 160/160/160
f 161/161/161 35/35/35 160/160/160
f 38/38/38 35/35/35 161/161/161
f 162/162/162 38/38/38 161/161/161
f 40/40/40 38/38/38 162/162/162
f 163/163/163 40/40/40 162/162/162
f 42/42/42 40/40/40 163/163/163
f 164/164/164 42/42/42 163/163/163
f 44/44/44 42/42/42 164/164/164
f 165/165/165 44/44/44 164/164/164
f 46/46/46 44/44/44 165/165/165
f 166/166/166 46/46/46 165/165/165
f 146/146/146 167/167/167 145/145/145
f 145/145/145 167/167/167 149/149/149
f 149/149/149 167/167/167 151/151/151
f 151/151/151 167/167/167 153/153/153
f 153/153/153 167/167/167 155/155/155
f 155/155/155 167/167/167 158/158/158
f 158/158/158 167/167/167 148/148/148
f 148/148/148 167/167/167 146/146/146
