g balloon_string
v 0.038359374 0.28825912 -0.023654785
v 0.03378906 0.65252334 -0.00089843746
v -0.014863281 0.6537724 -0.021010742
v -0.014863281 0.2898918 -0.04563965
v -0.063515626 0.65252334 -0.00089843746
v -0.068083495 0.28825912 -0.023654785
v -0.08366699 0.6495082 0.047661133
v -0.09012939 0.28431746 0.029421385
v -0.063515626 0.6464928 0.0962207
v -0.068083495 0.2803758 0.08249756
v -0.014863281 0.645244 0.116335444
v -0.014863281 0.27874312 0.10448242
v 0.060405273 0.28431746 0.029421385
v 0.05394287 0.6495082 0.047661133
v 0.038359374 0.2803758 0.08249756
v 0.03378906 0.6464928 0.0962207
v -0.014863281 0.27874312 0.10448242
v -0.014863281 0.645244 0.116335444
v -0.059860837 1.0174208 0.0065600583
v -0.07850097 1.0154033 0.051513672
v -0.059860837 1.013386 0.09646972
v -0.014863281 1.0125505 0.11509033
v 0.030136717 1.013386 0.09646972
v -0.014863281 1.0125505 0.11509033
v 0.048776854 1.0154033 0.051513672
v 0.030136717 1.0174208 0.0065600583
v -0.014863281 1.0182563 -0.012060546
v -0.014863281 1.3832694 -0.022624511
v 0.030136717 1.382777 -0.0039916993
v -0.059860837 1.382777 -0.0039916993
v -0.07850097 1.3815876 0.04099121
v -0.059860837 1.3803984 0.08597656
v -0.014863281 1.3799058 0.10460937
v 0.030136717 1.3803984 0.08597656
v -0.014863281 1.3799058 0.10460937
v 0.048776854 1.3815876 0.04099121
v -0.014863281 1.7482742 -0.041435547
v 0.030136717 1.7480717 -0.022795409
v -0.059860837 1.7480717 -0.022795409
v -0.07850097 1.7475829 0.022199707
v -0.059860837 1.7470943 0.06719726
v -0.014863281 1.7468917 0.08583496
v 0.030136717 1.7470943 0.06719726
v -0.014863281 1.7468917 0.08583496
v 0.048776854 1.7475829 0.022199707
v -0.014863281 2.113382 -0.0577832
v 0.030136717 2.1133525 -0.039145507
v -0.059860837 2.1133525 -0.039145507
v -0.07850097 2.1132805 0.005854492
v -0.059860837 2.1132085 0.05085449
v -0.014863281 2.1131785 0.06949218
v 0.030136717 2.1132085 0.05085449
v -0.014863281 2.1131785 0.06949218
v 0.048776854 2.1132805 0.005854492
v -0.014863281 2.4788756 -0.061293945
v 0.030136717 2.4788756 -0.042653807
v -0.059860837 2.4788756 -0.042653807
v -0.07850097 2.4788756 0.0023461913
v -0.059860837 2.4788756 0.04734375
v -0.014863281 2.4788756 0.065983884
v 0.030136717 2.4788756 0.04734375
v -0.014863281 2.4788756 0.065983884
v 0.048776854 2.4788756 0.0023461913
v -0.014863281 2.8444676 -0.061293945
v 0.030136717 2.8444676 -0.042653807
v -0.059860837 2.8444676 -0.042653807
v -0.07850097 2.8444676 0.0023461913
v -0.059860837 2.8444676 0.04734375
v -0.014863281 2.8444676 0.065983884
v 0.030136717 2.8444676 0.04734375
v -0.014863281 2.8444676 0.065983884
v 0.048776854 2.8444676 0.0023461913
v -0.014863281 3.2100604 -0.061293945
v 0.030136717 3.2100604 -0.042653807
v -0.059860837 3.2100604 -0.042653807
v -0.07850097 3.2100604 0.0023461913
v -0.059860837 3.2100604 0.04734375
v -0.014863281 3.2100604 0.065983884
v 0.030136717 3.2100604 0.04734375
v -0.014863281 3.2100604 0.065983884
v 0.048776854 3.2100604 0.0023461913
v -0.014863281 3.5756524 -0.061293945
v 0.030136717 3.5756524 -0.042653807
v -0.059860837 3.5756524 -0.042653807
v -0.07850097 3.5756524 0.0023461913
v -0.059860837 3.5756524 0.04734375
v -0.014863281 3.5756524 0.065983884
v 0.030136717 3.5756524 0.04734375
v -0.014863281 3.5756524 0.065983884
v 0.048776854 3.5756524 0.0023461913
v -0.011843261 3.9224799 -0.042663574
v 0.03233154 3.9205585 -0.022236327
v -0.057587888 3.9208324 -0.026015624
v -0.078105465 3.9165807 0.017954102
v -0.06137939 3.9122162 0.06348877
v -0.01720459 3.9102952 0.083916016
v 0.028540038 3.9119427 0.06727051
v -0.01720459 3.9102952 0.083916016
v 0.049057618 3.9161937 0.02330078
v -0.009494629 4.265867 0.009113769
v 0.033771973 4.2618384 0.031118164
v -0.05590332 4.2627563 0.02356201
v -0.07827392 4.2543273 0.06599853
v -0.06349609 4.245518 0.11156738
v -0.020231932 4.2414885 0.13357177
v 0.026179198 4.2446003 0.11912353
v -0.020231932 4.2414885 0.13357177
v 0.04854736 4.253029 0.07668701
v 0.04491455 -0.04996048 -0.05559326
v -0.014863281 -0.04803665 -0.08027832
v -0.014863281 -0.080127105 -0.05047363
v 0.022216797 -0.08133133 -0.035163574
v 0.06967529 -0.054605253 0.0040014647
v 0.03753662 -0.08423843 0.0018017577
v -0.051914062 -0.081333466 -0.03513672
v -0.07463867 -0.04996048 -0.05559326
v -0.067209475 -0.08423843 0.0018017577
v -0.09939941 -0.054605253 0.0040014647
v -0.051850583 -0.08713852 0.038674317
v -0.07463867 -0.05925003 0.06359863
v -0.014863281 -0.08833969 0.053950194
v -0.014863281 -0.06117355 0.08828369
v 0.04491455 -0.05925003 0.06359863
v 0.022150878 -0.087140955 0.03870117
v -0.014863281 -0.06117355 0.08828369
v 0.06967529 -0.054605253 0.0040014647
v 0.04491455 -0.04996048 -0.05559326
v -0.014863281 -0.04803665 -0.08027832
v -0.07463867 -0.04996048 -0.05559326
v -0.09939941 -0.054605253 0.0040014647
v -0.07463867 -0.05925003 0.06359863
v -0.014863281 -0.06117355 0.08828369
v -0.014863281 -0.08423843 0.0018017577
v -0.018901367 4.253991 0.15493897
v -0.018676758 4.291169 -0.044316404
v 0.12901123 4.27716 0.019384766
v -0.16669677 4.2918653 0.019895019
v -0.22816406 4.2886376 0.16935302
v -0.16691162 4.2869654 0.3129956
v -0.019152831 4.3082013 0.362666
v 0.12877929 4.294237 0.312124
v 0.1901831 4.2821636 0.16892089
v 0.14857422 4.224502 0.00057128904
v -0.019001465 4.245569 -0.07855957
v -0.1865576 4.238173 0.0013500976
v -0.25596678 4.229508 0.1740332
v -0.18656005 4.2310834 0.3402197
v -0.018989258 4.26247 0.403999
v 0.14857422 4.239365 0.3395337
v 0.21798095 4.2241163 0.17408203
v -0.019001465 4.245569 -0.07855957
v -0.019299315 4.141392 -0.044875488
v 0.11805664 4.136751 0.027192382
v 0.14857422 4.224502 0.00057128904
v -0.1865576 4.238173 0.0013500976
v -0.15632813 4.1429377 0.026977539
v -0.25596678 4.229508 0.1740332
v -0.21293944 4.151135 0.16976318
v -0.18656005 4.2310834 0.3402197
v -0.15612304 4.160722 0.31006593
v -0.018989258 4.26247 0.403999
v -0.01883789 4.1711783 0.3733911
v 0.14857422 4.239365 0.3395337
v 0.118281245 4.1678443 0.30924073
v 0.21798095 4.2241163 0.17408203
v 0.17495605 4.1447053 0.17083496
v -0.019077148 4.123267 0.16374268
vt 0.51220703 0.2685547
vt 0.51220703 0.27783203
vt 0.51464844 0.27783203
vt 0.51464844 0.2685547
vt 0.51708984 0.27783203
vt 0.51708984 0.2685547
vt 0.51953125 0.27783203
vt 0.51953125 0.2685547
vt 0.52246094 0.27783203
vt 0.52246094 0.2685547
vt 0.52490234 0.27783203
vt 0.52490234 0.2685547
vt 0.5097656 0.2685547
vt 0.5097656 0.27783203
vt 0.5078125 0.2685547
vt 0.5078125 0.27783203
vt 0.5053711 0.2685547
vt 0.5053711 0.27783203
vt 0.51708984 0.28710938
vt 0.51953125 0.28710938
vt 0.52246094 0.28710938
vt 0.52490234 0.28710938
vt 0.5078125 0.28710938
vt 0.5053711 0.28710938
vt 0.5097656 0.28710938
vt 0.51220703 0.28710938
vt 0.51464844 0.28710938
vt 0.51464844 0.29663086
vt 0.51220703 0.29663086
vt 0.51708984 0.29663086
vt 0.51953125 0.29663086
vt 0.52246094 0.29663086
vt 0.52490234 0.29663086
vt 0.5078125 0.29663086
vt 0.5053711 0.29663086
vt 0.5097656 0.29663086
vt 0.51464844 0.3059082
vt 0.51220703 0.3059082
vt 0.51708984 0.3059082
vt 0.51953125 0.3059082
vt 0.52246094 0.3059082
vt 0.52490234 0.3059082
vt 0.5078125 0.3059082
vt 0.5053711 0.3059082
vt 0.5097656 0.3059082
vt 0.51464844 0.3154297
vt 0.51220703 0.3154297
vt 0.51708984 0.3154297
vt 0.51953125 0.3154297
vt 0.52246094 0.3154297
vt 0.52490234 0.3154297
vt 0.5078125 0.3154297
vt 0.5053711 0.3154297
vt 0.5097656 0.3154297
vt 0.51464844 0.32470703
vt 0.51220703 0.32470703
vt 0.51708984 0.32470703
vt 0.51953125 0.32470703
vt 0.52246094 0.32470703
vt 0.52490234 0.32470703
vt 0.5078125 0.32470703
vt 0.5053711 0.32470703
vt 0.5097656 0.32470703
vt 0.51464844 0.33422852
vt 0.51220703 0.33422852
vt 0.51708984 0.33422852
vt 0.51953125 0.33422852
vt 0.52246094 0.33422852
vt 0.52490234 0.33422852
vt 0.5078125 0.33422852
vt 0.5053711 0.33422852
vt 0.5097656 0.33422852
vt 0.51464844 0.34350586
vt 0.51220703 0.34350586
vt 0.51708984 0.34350586
vt 0.51953125 0.34350586
vt 0.52246094 0.34350586
vt 0.52490234 0.34350586
vt 0.5078125 0.34350586
vt 0.5053711 0.34350586
vt 0.5097656 0.34350586
vt 0.51464844 0.35302734
vt 0.51220703 0.35302734
vt 0.51708984 0.35302734
vt 0.51953125 0.35302734
vt 0.52246094 0.35302734
vt 0.52490234 0.35302734
vt 0.5078125 0.35302734
vt 0.5053711 0.35302734
vt 0.5097656 0.35302734
vt 0.51464844 0.3618164
vt 0.51220703 0.3618164
vt 0.51708984 0.3618164
vt 0.51953125 0.3618164
vt 0.52246094 0.3618164
vt 0.52490234 0.3618164
vt 0.5078125 0.3618164
vt 0.5053711 0.3618164
vt 0.5097656 0.3618164
vt 0.51464844 0.37036133
vt 0.51220703 0.37036133
vt 0.51708984 0.37036133
vt 0.51953125 0.37036133
vt 0.52246094 0.37036133
vt 0.52490234 0.37036133
vt 0.5078125 0.37036133
vt 0.5053711 0.37036133
vt 0.5097656 0.37036133
vt 0.5107422 0.25268555
vt 0.5083008 0.24951172
vt 0.5073242 0.25170898
vt 0.5083008 0.2536621
vt 0.5107422 0.25683594
vt 0.5083008 0.25585938
vt 0.5048828 0.25146484
vt 0.50439453 0.24902344
vt 0.50341797 0.2529297
vt 0.50146484 0.25146484
vt 0.50341797 0.2553711
vt 0.50097656 0.25561523
vt 0.50439453 0.25732422
vt 0.5029297 0.25927734
vt 0.5078125 0.26000977
vt 0.50683594 0.25732422
vt 0.5053711 0.25976562
vt 0.5097656 0.25976562
vt 0.51220703 0.25976562
vt 0.51464844 0.25976562
vt 0.51708984 0.25976562
vt 0.51953125 0.25976562
vt 0.52246094 0.25976562
vt 0.52490234 0.25976562
vt 0.5058594 0.25463867
vt 0.59277344 0.2578125
vt 0.5986328 0.25634766
vt 0.5957031 0.25195312
vt 0.59765625 0.26171875
vt 0.59375 0.26464844
vt 0.5888672 0.26367188
vt 0.5864258 0.25927734
vt 0.58740234 0.2541504
vt 0.5913086 0.2512207
vt 0.5966797 0.25024414
vt 0.60058594 0.25610352
vt 0.5991211 0.26293945
vt 0.59375 0.2668457
vt 0.5878906 0.26538086
vt 0.58496094 0.25952148
vt 0.5854492 0.2529297
vt 0.5908203 0.24902344
vt 0.62402344 0.33447266
vt 0.62109375 0.33447266
vt 0.6191406 0.33862305
vt 0.62109375 0.34106445
vt 0.62109375 0.32739258
vt 0.6191406 0.33007812
vt 0.6147461 0.32495117
vt 0.6147461 0.32788086
vt 0.6088867 0.32788086
vt 0.61083984 0.32958984
vt 0.60595703 0.33422852
vt 0.6088867 0.33422852
vt 0.60839844 0.34057617
vt 0.61035156 0.3388672
vt 0.6142578 0.34350586
vt 0.6147461 0.34057617
vt 0.6147461 0.33422852
vn 0.7086453 0.06667767 -0.70240724
vn 0.70955557 0.037863605 -0.70363146
vn -0 0.046879243 -0.99890053
vn -0 0.085082725 -0.99637383
vn -0.70955557 0.03786332 -0.70363146
vn -0.7086452 0.06667791 -0.7024072
vn -0.99985576 0.015940608 0.005865556
vn -0.9997385 0.022339303 0.004871008
vn -0.7042055 -0.006179991 0.70996934
vn -0.7051898 -0.021861752 0.70868146
vn -0 -0.015394842 0.9998815
vn -0 -0.040130053 0.99919444
vn 0.99973863 0.0223389 0.004870988
vn 0.99985576 0.015941473 0.0058655706
vn 0.7051898 -0.021862073 0.7086814
vn 0.7042054 -0.0061795865 0.70996934
vn -0 -0.040130053 0.99919444
vn -0 -0.015394842 0.9998815
vn -0.70931154 0.00094372605 -0.70489436
vn -0.99995756 0.0074840896 0.0053712665
vn -0.70390224 0.01333324 0.71017164
vn -0 0.015549735 0.9998791
vn 0.70390224 0.013333702 0.7101717
vn -0 0.015549735 0.9998791
vn 0.99995756 0.0074850414 0.0053712754
vn 0.70931154 0.0009440669 -0.70489436
vn -0 -0.0019620764 -0.9999981
vn -0 -0.040357832 -0.99918526
vn 0.7078991 -0.028355902 -0.70574415
vn -0.7078991 -0.028355744 -0.70574415
vn -0.9999949 0.0002815849 0.0031817963
vn -0.7047285 0.028283423 0.7089132
vn -0 0.03965371 0.99921346
vn 0.7047285 0.028283328 0.70891315
vn -0 0.03965371 0.99921346
vn 0.9999949 0.00028127397 0.0031818112
vn -0 -0.048032627 -0.9988458
vn 0.70618594 -0.03402899 -0.7072083
vn -0.70618594 -0.034028534 -0.7072083
vn -0.9999999 -9.074243E-05 -0.0004974426
vn -0.7066852 0.033872172 0.7067169
vn -0 0.04790135 0.99885213
vn 0.7066852 0.033872083 0.7067169
vn -0 0.04790135 0.99885213
vn 0.9999999 -9.158112E-05 -0.0004974426
vn -0 -0.027043609 -0.99963427
vn 0.7048378 -0.019268576 -0.70910674
vn -0.7048378 -0.019267978 -0.70910674
vn -0.9999914 -0.00023945337 -0.0041353973
vn -0.7089731 0.019125443 0.70497614
vn -0 0.027236652 0.999629
vn 0.7089731 0.019125411 0.7049762
vn -0 0.027236652 0.999629
vn 0.9999914 -0.00023991862 -0.0041353977
vn -0 -0.0047947355 -0.99998856
vn 0.70653033 -0.0033969197 -0.70767456
vn -0.70653033 -0.0033966885 -0.70767456
vn -0.9999994 -1.0940884E-05 -0.0011484867
vn -0.7076687 0.0033908102 0.7065363
vn -0 0.00480461 0.99998844
vn 0.7076687 0.0033908803 0.7065363
vn -0 0.00480461 0.99998844
vn 0.9999994 -1.0942153E-05 -0.0011484867
vn -0 0 -1
vn 0.7071144 0 -0.7070991
vn -0.7071144 0 -0.7070991
vn -1 0 0
vn -0.7070996 0 0.7071139
vn -0 0 1
vn 0.7070996 0 0.7071139
vn -0 0 1
vn 1 0 0
vn -0 0 -1
vn 0.7071144 0 -0.7070991
vn -0.7071144 0 -0.7070991
vn -1 0 0
vn -0.7070996 0 0.7071139
vn -0 0 1
vn 0.7070996 0 0.7071139
vn -0 0 1
vn 1 0 0
vn 0.009129041 0.025843922 -0.99962425
vn 0.7097108 0.017806489 -0.7042681
vn -0.6966849 0.019152354 -0.7171216
vn -0.9998584 0.0013708436 -0.01677347
vn -0.7173052 -0.017390372 0.6965421
vn -0.009366189 -0.025868047 0.9996215
vn 0.70418954 -0.018797994 0.7097631
vn -0.009366189 -0.025868047 0.9996215
vn 0.99999845 -0.00057507143 0.0016546384
vn 0.041900743 0.10099632 -0.9940041
vn 0.7292668 0.06860508 -0.6807814
vn -0.669278 0.07577372 -0.7391382
vn -0.99840444 0.006677778 -0.056071743
vn -0.743209 -0.067081064 0.66568804
vn -0.04252214 -0.10126665 0.9939501
vn 0.68381816 -0.07458364 0.72583055
vn -0.04252214 -0.10126665 0.9939501
vn 0.9996094 -0.0036913846 0.027703011
vn 0.06549584 0.14836854 -0.986761
vn 0.7451828 0.09986457 -0.6593403
vn -0.6517001 0.11208033 -0.75015
vn -0.99690646 0.01069403 -0.07786611
vn -0.75736094 -0.09786078 0.64562184
vn -0.06491243 -0.14851359 0.98677766
vn 0.66622084 -0.11029408 0.7375534
vn -0.06491243 -0.14851359 0.98677766
vn 0.99865156 -0.006749936 0.05147413
vn 0.7069175 0.015788134 -0.70711976
vn -7.3569367E-06 0.037701856 -0.99928904
vn -0.00010764876 -0.78903663 -0.6143462
vn 0.3901359 -0.80134636 -0.45347324
vn 0.9993081 -0.03712928 -0.0021735246
vn 0.5521638 -0.8312478 -0.064359516
vn -0.39012414 -0.80148226 -0.4532431
vn -0.70692426 0.015746519 -0.7071139
vn -0.5519172 -0.83141077 -0.064370535
vn -0.99930596 -0.037185874 -0.0021776988
vn -0.39055946 -0.8613325 0.32491505
vn -0.7063144 -0.09005831 0.70214635
vn -0.00011927632 -0.873694 0.48647586
vn -8.436548E-06 -0.11192898 0.9937162
vn 0.70630735 -0.090018444 0.70215845
vn 0.39056972 -0.86123365 0.3251643
vn -8.436548E-06 -0.11192898 0.9937162
vn 0.9993081 -0.03712928 -0.0021735246
vn 0.7069175 0.015788134 -0.70711976
vn -7.3569367E-06 0.037701856 -0.99928904
vn -0.70692426 0.015746519 -0.7071139
vn -0.99930596 -0.037185874 -0.0021776988
vn -0.7063144 -0.09005831 0.70214635
vn -8.436548E-06 -0.11192898 0.9937162
vn -9.833988E-07 -0.9969215 -0.07840617
vn 0.0155388955 0.9995851 -0.024254452
vn 0.03618395 0.9259693 -0.37586108
vn 0.35415724 0.8906184 -0.28525683
vn -0.30842143 0.91421795 -0.26283422
vn -0.4394277 0.8982662 0.004589135
vn -0.3491697 0.90279734 0.2510727
vn -0.020941267 0.96145344 0.27416945
vn 0.33531728 0.9176176 0.21340156
vn 0.4560517 0.888514 -0.050594077
vn 0.7219941 -0.088127315 -0.68626386
vn -0.01079593 -0.034840677 -0.9993345
vn -0.7258381 -0.06526945 -0.6847618
vn -0.9948835 -0.100884706 0.0053834305
vn -0.68843585 -0.06720734 0.72217673
vn 0.0023612592 0.045783658 0.99894863
vn 0.6881027 -0.04359397 0.72430265
vn 0.9938532 -0.10942637 0.016779326
vn -0.01079593 -0.034840677 -0.9993345
vn -0.020353602 -0.68190753 -0.7311552
vn 0.48084316 -0.73901707 -0.4718513
vn 0.7219941 -0.088127315 -0.68626386
vn -0.7258381 -0.06526945 -0.6847618
vn -0.50742793 -0.71395814 -0.4824735
vn -0.9948835 -0.100884706 0.0053834305
vn -0.656424 -0.75439036 0.0016826335
vn -0.68843585 -0.06720734 0.72217673
vn -0.42227387 -0.7579963 0.49711815
vn 0.0023612592 0.045783658 0.99894863
vn 0.017250577 -0.71172595 0.70224535
vn 0.6881027 -0.04359397 0.72430265
vn 0.43072638 -0.73651266 0.5215592
vn 0.9938532 -0.10942637 0.016779326
vn 0.634245 -0.7720109 0.041622594
vn -0.008082281 -0.99713445 0.07521756
g balloon_string_0
f 3/3/3 2/2/2 1/1/1
f 4/4/4 3/3/3 1/1/1
f 5/5/5 3/3/3 4/4/4
f 6/6/6 5/5/5 4/4/4
f 7/7/7 5/5/5 6/6/6
f 8/8/8 7/7/7 6/6/6
f 9/9/9 7/7/7 8/8/8
f 10/10/10 9/9/9 8/8/8
f 11/11/11 9/9/9 10/10/10
f 12/12/12 11/11/11 10/10/10
f 1/1/1 2/2/2 13/13/13
f 2/2/2 14/14/14 13/13/13
f 13/13/13 14/14/14 15/15/15
f 14/14/14 16/16/16 15/15/15
f 15/15/15 16/16/16 17/17/17
f 16/16/16 18/18/18 17/17/17
f 5/5/5 19/19/19 3/3/3
f 20/20/20 19/19/19 5/5/5
f 7/7/7 20/20/20 5/5/5
f 21/21/21 20/20/20 7/7/7
f 9/9/9 21/21/21 7/7/7
f 22/22/22 21/21/21 9/9/9
f 11/11/11 22/22/22 9/9/9
f 16/16/16 23/23/23 18/18/18
f 23/23/23 24/24/24 18/18/18
f 25/25/25 23/23/23 16/16/16
f 14/14/14 25/25/25 16/16/16
f 26/26/26 25/25/25 14/14/14
f 2/2/2 26/26/26 14/14/14
f 27/27/27 26/26/26 2/2/2
f 3/3/3 27/27/27 2/2/2
f 19/19/19 27/27/27 3/3/3
f 27/27/27 28/28/28 26/26/26
f 28/28/28 29/29/29 26/26/26
f 26/26/26 29/29/29 25/25/25
f 30/30/30 28/28/28 27/27/27
f 19/19/19 30/30/30 27/27/27
f 31/31/31 30/30/30 19/19/19
f 20/20/20 31/31/31 19/19/19
f 32/32/32 31/31/31 20/20/20
f 21/21/21 32/32/32 20/20/20
f 33/33/33 32/32/32 21/21/21
f 22/22/22 33/33/33 21/21/21
f 23/23/23 34/34/34 24/24/24
f 34/34/34 35/35/35 24/24/24
f 36/36/36 34/34/34 23/23/23
f 25/25/25 36/36/36 23/23/23
f 29/29/29 36/36/36 25/25/25
f 28/28/28 37/37/37 29/29/29
f 37/37/37 38/38/38 29/29/29
f 29/29/29 38/38/38 36/36/36
f 39/39/39 37/37/37 28/28/28
f 30/30/30 39/39/39 28/28/28
f 40/40/40 39/39/39 30/30/30
f 31/31/31 40/40/40 30/30/30
f 41/41/41 40/40/40 31/31/31
f 32/32/32 41/41/41 31/31/31
f 42/42/42 41/41/41 32/32/32
f 33/33/33 42/42/42 32/32/32
f 34/34/34 43/43/43 35/35/35
f 43/43/43 44/44/44 35/35/35
f 45/45/45 43/43/43 34/34/34
f 36/36/36 45/45/45 34/34/34
f 38/38/38 45/45/45 36/36/36
f 37/37/37 46/46/46 38/38/38
f 46/46/46 47/47/47 38/38/38
f 38/38/38 47/47/47 45/45/45
f 48/48/48 46/46/46 37/37/37
f 39/39/39 48/48/48 37/37/37
f 49/49/49 48/48/48 39/39/39
f 40/40/40 49/49/49 39/39/39
f 50/50/50 49/49/49 40/40/40
f 41/41/41 50/50/50 40/40/40
f 51/51/51 50/50/50 41/41/41
f 42/42/42 51/51/51 41/41/41
f 43/43/43 52/52/52 44/44/44
f 52/52/52 53/53/53 44/44/44
f 54/54/54 52/52/52 43/43/43
f 45/45/45 54/54/54 43/43/43
f 47/47/47 54/54/54 45/45/45
f 46/46/46 55/55/55 47/47/47
f 55/55/55 56/56/56 47/47/47
f 47/47/47 56/56/56 54/54/54
f 57/57/57 55/55/55 46/46/46
f 48/48/48 57/57/57 46/46/46
f 58/58/58 57/57/57 48/48/48
f 49/49/49 58/58/58 48/48/48
f 59/59/59 58/58/58 49/49/49
f 50/50/50 59/59/59 49/49/49
f 60/60/60 59/59/59 50/50/50
f 51/51/51 60/60/60 50/50/50
f 52/52/52 61/61/61 53/53/53
f 61/61/61 62/62/62 53/53/53
f 63/63/63 61/61/61 52/52/52
f 54/54/54 63/63/63 52/52/52
f 56/56/56 63/63/63 54/54/54
f 55/55/55 64/64/64 56/56/56
f 64/64/64 65/65/65 56/56/56
f 56/56/56 65/65/65 63/63/63
f 66/66/66 64/64/64 55/55/55
f 57/57/57 66/66/66 55/55/55
f 67/67/67 66/66/66 57/57/57
f 58/58/58 67/67/67 57/57/57
f 68/68/68 67/67/67 58/58/58
f 59/59/59 68/68/68 58/58/58
f 69/69/69 68/68/68 59/59/59
f 60/60/60 69/69/69 59/59/59
f 61/61/61 70/70/70 62/62/62
f 70/70/70 71/71/71 62/62/62
f 72/72/72 70/70/70 61/61/61
f 63/63/63 72/72/72 61/61/61
f 65/65/65 72/72/72 63/63/63
f 64/64/64 73/73/73 65/65/65
f 73/73/73 74/74/74 65/65/65
f 65/65/65 74/74/74 72/72/72
f 75/75/75 73/73/73 64/64/64
f 66/66/66 75/75/75 64/64/64
f 76/76/76 75/75/75 66/66/66
f 67/67/67 76/76/76 66/66/66
f 77/77/77 76/76/76 67/67/67
f 68/68/68 77/77/77 67/67/67
f 78/78/78 77/77/77 68/68/68
f 69/69/69 78/78/78 68/68/68
f 70/70/70 79/79/79 71/71/71
f 79/79/79 80/80/80 71/71/71
f 81/81/81 79/79/79 70/70/70
f 72/72/72 81/81/81 70/70/70
f 74/74/74 81/81/81 72/72/72
f 73/73/73 82/82/82 74/74/74
f 82/82/82 83/83/83 74/74/74
f 74/74/74 83/83/83 81/81/81
f 84/84/84 82/82/82 73/73/73
f 75/75/75 84/84/84 73/73/73
f 85/85/85 84/84/84 75/75/75
f 76/76/76 85/85/85 75/75/75
f 86/86/86 85/85/85 76/76/76
f 77/77/77 86/86/86 76/76/76
f 87/87/87 86/86/86 77/77/77
f 78/78/78 87/87/87 77/77/77
f 79/79/79 88/88/88 80/80/80
f 88/88/88 89/89/89 80/80/80
f 90/90/90 88/88/88 79/79/79
f 81/81/81 90/90/90 79/79/79
f 83/83/83 90/90/90 81/81/81
f 82/82/82 91/91/91 83/83/83
f 91/91/91 92/92/92 83/83/83
f 83/83/83 92/92/92 90/90/90
f 93/93/93 91/91/91 82/82/82
f 84/84/84 93/93/93 82/82/82
f 94/94/94 93/93/93 84/84/84
f 85/85/85 94/94/94 84/84/84
f 95/95/95 94/94/94 85/85/85
f 86/86/86 95/95/95 85/85/85
f 96/96/96 95/95/95 86/86/86
f 87/87/87 96/96/96 86/86/86
f 88/88/88 97/97/97 89/89/89
f 97/97/97 98/98/98 89/89/89
f 99/99/99 97/97/97 88/88/88
f 90/90/90 99/99/99 88/88/88
f 92/92/92 99/99/99 90/90/90
f 91/91/91 100/100/100 92/92/92
f 100/100/100 101/101/101 92/92/92
f 92/92/92 101/101/101 99/99/99
f 102/102/102 100/100/100 91/91/91
f 93/93/93 102/102/102 91/91/91
f 103/103/103 102/102/102 93/93/93
f 94/94/94 103/103/103 93/93/93
f 104/104/104 103/103/103 94/94/94
f 95/95/95 104/104/104 94/94/94
f 105/105/105 104/104/104 95/95/95
f 96/96/96 105/105/105 95/95/95
f 97/97/97 106/106/106 98/98/98
f 106/106/106 107/107/107 98/98/98
f 108/108/108 106/106/106 97/97/97
f 99/99/99 108/108/108 97/97/97
f 101/101/101 108/108/108 99/99/99
f 111/111/111 110/110/110 109/109/109
f 112/112/112 111/111/111 109/109/109
f 109/109/109 113/113/113 112/112/112
f 113/113/113 114/114/114 112/112/112
f 111/111/111 115/115/115 110/110/110
f 115/115/115 116/116/116 110/110/110
f 115/115/115 117/117/117 116/116/116
f 117/117/117 118/118/118 116/116/116
f 117/117/117 119/119/119 118/118/118
f 119/119/119 120/120/120 118/118/118
f 119/119/119 121/121/121 120/120/120
f 121/121/121 122/122/122 120/120/120
f 114/114/114 113/113/113 123/123/123
f 124/124/124 114/114/114 123/123/123
f 124/124/124 123/123/123 125/125/125
f 121/121/121 124/124/124 125/125/125
f 123/123/123 15/15/15 125/125/125
f 15/15/15 17/17/17 125/125/125
f 13/13/13 15/15/15 123/123/123
f 126/126/126 13/13/13 123/123/123
f 1/1/1 13/13/13 126/126/126
f 127/127/127 1/1/1 126/126/126
f 4/4/4 1/1/1 127/127/127
f 128/128/128 4/4/4 127/127/127
f 6/6/6 4/4/4 128/128/128
f 129/129/129 6/6/6 128/128/128
f 8/8/8 6/6/6 129/129/129
f 130/130/130 8/8/8 129/129/129
f 10/10/10 8/8/8 130/130/130
f 131/131/131 10/10/10 130/130/130
f 12/12/12 10/10/10 131/131/131
f 132/132/132 12/12/12 131/131/131
f 112/112/112 133/133/133 111/111/111
f 111/111/111 133/133/133 115/115/115
f 115/115/115 133/133/133 117/117/117
f 117/117/117 133/133/133 119/119/119
f 119/119/119 133/133/133 121/121/121
f 121/121/121 133/133/133 124/124/124
f 124/124/124 133/133/133 114/114/114
f 114/114/114 133/133/133 112/112/112
f 136/136/136 135/135/135 134/134/134
f 135/135/135 137/137/137 134/134/134
f 137/137/137 138/138/138 134/134/134
f 138/138/138 139/139/139 134/134/134
f 139/139/139 140/140/140 134/134/134
f 140/140/140 141/141/141 134/134/134
f 141/141/141 142/142/142 134/134/134
f 142/142/142 136/136/136 134/134/134
f 136/136/136 143/143/143 135/135/135
f 143/143/143 144/144/144 135/135/135
f 135/135/135 144/144/144 137/137/137
f 144/144/144 145/145/145 137/137/137
f 137/137/137 145/145/145 138/138/138
f 145/145/145 146/146/146 138/138/138
f 138/138/138 146/146/146 139/139/139
f 146/146/146 147/147/147 139/139/139
f 139/139/139 147/147/147 140/140/140
f 147/147/147 148/148/148 140/140/140
f 140/140/140 148/148/148 141/141/141
f 148/148/148 149/149/149 141/141/141
f 141/141/141 149/149/149 142/142/142
f 149/149/149 150/150/150 142/142/142
f 150/150/150 143/143/143 136/136/136
f 142/142/142 150/150/150 136/136/136
f 153/153/153 152/152/152 151/151/151
f 154/154/154 153/153/153 151/151/151
f 151/151/151 152/152/152 155/155/155
f 152/152/152 156/156/156 155/155/155
f 155/155/155 156/156/156 157/157/157
f 156/156/156 158/158/158 157/157/157
f 157/157/157 158/158/158 159/159/159
f 158/158/158 160/160/160 159/159/159
f 159/159/159 160/160/160 161/161/161
f 160/160/160 162/162/162 161/161/161
f 161/161/161 162/162/162 163/163/163
f 162/162/162 164/164/164 163/163/163
f 163/163/163 164/164/164 165/165/165
f 164/164/164 166/166/166 165/165/165
f 166/166/166 153/153/153 154/154/154
f 165/165/165 166/166/166 154/154/154
f 153/153/153 167/167/167 152/152/152
f 152/152/152 167/167/167 156/156/156
f 156/156/156 167/167/167 158/158/158
f 158/158/158 167/167/167 160/160/160
f 160/160/160 167/167/167 162/162/162
f 162/162/162 167/167/167 164/164/164
f 164/164/164 167/167/167 166/166/166
f 166/166/166 167/167/167 153/153/153
