g ripple
v 0.87149197 0.039121054 0.8714919
v 0.29999995 0.03935059 0.29999995
v 1.1999996 0.03898911 0.29999998
v 1.1999996 0.03898911 0.59999996
v 1.2000004 0.03898911 1.1999999
v 0.29999995 0.03935059 0.29999995
v 0.87149197 0.039121054 0.8714919
v 0.8133364 0.03935059 1.1999999
v 0.29999998 0.03935059 1.1999999
v 1.2000004 0.03898911 1.1999999
vt 0.7949219 0.17919922
vt 5.9604645E-08 0.016983032
vt 1 0.016983032
vt 1.0009766 0.016983032
vt 1 0.9863281
vt 5.9604645E-08 0.016983032
vt 0.7949219 0.17919922
vt 1 0.016983032
vt 1 0.016983032
vt 1 0.9863281
vn 0.00037337025 1 -0.00011016538
vn 0.0003493785 1 -9.092688E-05
vn 0.00040164537 1 0
vn 0.0004016451 1 0
vn 0.0006106102 0.9999999 -0.00020896707
vn 0.0003493785 1 -9.092688E-05
vn 0.00037337025 1 -0.00011016538
vn 0.00038431768 0.9999999 -0.00021920497
vn 0.000302475 1 -0.00017252378
vn 0.0006106102 0.9999999 -0.00020896707
g ripple_0
f 3/3/3 2/2/2 1/1/1
f 4/4/4 3/3/3 1/1/1
f 4/4/4 1/1/1 5/5/5
f 8/8/8 7/7/7 6/6/6
f 9/9/9 8/8/8 6/6/6
f 8/8/8 10/10/10 7/7/7
