g ripple
v 0.29999998 0.03935059 0.29999998
v 0.29999998 0.03935059 0.697763
v 7.6293944E-08 0.03935059 0.75
v 7.6293944E-08 0.03935059 0.29999998
v 0.5535932 0.03935059 0.55359346
v 0.69922173 0.03935059 0.29999998
v 1.1999999 0.03935059 0.29999998
v 0.69922173 0.03935059 0.29999998
v 0.8133372 0.03935059 3.0517577E-07
v 1.2000004 0.03935059 0
v 1.1999999 0.03935059 0.29999998
v 0.5535932 0.03935059 0.55359346
v 0.7379716 0.03935059 0.7379718
v 0.29999998 0.03935059 1.1999999
v 0.29999998 0.03935059 0.697763
v 7.6293944E-08 0.03935059 1.1999999
v 7.6293944E-08 0.03935059 0.75
v 1.0519592 0.03935059 1.023414
v 0.69922173 0.03935059 0.29999998
v 0.29999998 0.03935059 0.29999998
v 0.29999998 0.03935059 0
v 0.8133372 0.03935059 3.0517577E-07
vt -2.5 0.016983032
vt -2.4199219 0.008857727
vt -2 0.008857727
vt -2 0.016983032
vt -2.5 0.0062408447
vt -2.5800781 0.008857727
vt -2.8007812 0.9863281
vt -2.5800781 0.008857727
vt -3 0.008857727
vt -3 0.9863281
vt -2.8007812 0.9863281
vt -2.5 0.0062408447
vt -2.5 0.30395508
vt -2.1992188 0.9863281
vt -2.4199219 0.008857727
vt -2 0.9863281
vt -2 0.008857727
vt -2.5 0.9863281
vt -2.5800781 0.008857727
vt -2.5 0.016983032
vt -3 0.016983032
vt -3 0.008857727
vn -0 1 0
vn -0 1 0
vn -0 1 0
vn -0 1 0
vn -0 1 0
vn -0 1 0
vn -0 1 0
vn -0 1 0
vn -0 1 0
vn -0 1 0
vn -0 1 0
vn -0 1 0
vn -0 1 0
vn -0 1 0
vn -0 1 0
vn -0 1 0
vn -0 1 0
vn -0 1 0
vn -0 1 0
vn -0 1 0
vn -0 1 0
vn -0 1 0
g ripple_0
f 3/3/3 2/2/2 1/1/1
f 4/4/4 3/3/3 1/1/1
f 2/2/2 5/5/5 1/1/1
f 6/6/6 1/1/1 5/5/5
f 9/9/9 8/8/8 7/7/7
f 10/10/10 9/9/9 7/7/7
f 8/8/8 12/12/12 11/11/11
f 12/12/12 13/13/13 11/11/11
f 14/14/14 13/13/13 12/12/12
f 15/15/15 14/14/14 12/12/12
f 16/16/16 14/14/14 15/15/15
f 17/17/17 16/16/16 15/15/15
f 14/14/14 18/18/18 13/13/13
f 13/13/13 18/18/18 11/11/11
f 21/21/21 20/20/20 19/19/19
f 22/22/22 21/21/21 19/19/19
