g Sail
v -0.059729002 -0.4587328 0.89701825
v -0.0171167 -0.45871973 0.90894455
v -0.0116333 -0.51155376 0.8848686
v -0.05418701 -0.51152265 0.8729118
v -0.08542968 -0.46310848 0.8282646
v -0.04892578 -0.23058094 0.6427507
v -0.0109375 -0.15832192 0.6533745
v -0.059729002 -0.4587328 0.89701825
v -0.05418701 -0.51152265 0.8729118
v -0.04748535 -0.46563563 0.6400761
v -0.007783203 -0.5125527 0.6500468
v -0.013156738 0.069239885 0.46218553
v -0.043488767 -0.0037001036 0.45562062
v -0.034094237 -0.46681303 0.45418018
v 0.006293945 -0.51258975 0.46147022
v -0.051799316 0.34717917 0.23300464
v -0.08852783 0.2736203 0.22900195
v -0.06387939 -0.4681507 0.22035816
v -0.07734375 0.43653113 0.093439214
v -0.08128662 -0.46868187 0.0823064
v -0.042668454 -0.46873674 0.04097339
v -0.031767577 0.4935558 0.044177737
v -0.03908203 -0.51231235 0.084449954
v -0.0342334 0.512595 0.09655323
v -0.022705078 -0.512543 0.22396533
v -0.03908203 -0.51231235 0.084449954
v -0.0032495116 -0.51224965 0.08589893
v -0.0059960936 -0.46876737 0.042407718
v -0.042668454 -0.46873674 0.04097339
v -0.031767577 0.4935558 0.044177737
v 0.016220702 0.4934194 0.04432788
v 0.013876953 0.51245123 0.09676685
v -0.0342334 0.512595 0.09655323
v 0.035239257 -0.46302804 0.8619096
v 0.07373535 -0.46555927 0.6702617
v 0.03329834 -0.5124909 0.6600432
v -0.0116333 -0.51155376 0.8848686
v 0.046413574 -0.51249653 0.46820238
v 0.08852783 -0.46664974 0.47601
v 0.0722998 -0.23025455 0.6698588
v 0.07938232 -0.003057022 0.4681096
v 0.0331665 -0.15798317 0.66223186
v 0.032558594 0.06980728 0.4657866
v 0.015144043 -0.512595 0.22674854
v 0.05925537 -0.46812525 0.2310918
v 0.035649415 0.27411017 0.22936085
v 0.047355957 0.4362532 0.09380787
v 0.042299803 -0.4687267 0.08835498
v 0.016220702 0.4934194 0.04432788
v 0.013876953 0.51245123 0.09676685
v -0.004472656 0.347254 0.233344
v -0.0032495116 -0.51224965 0.08589893
v -0.0171167 -0.45871973 0.90894455
v 0.0331665 -0.15798317 0.66223186
v 0.0722998 -0.23025455 0.6698588
v 0.035239257 -0.46302804 0.8619096
v -0.0116333 -0.51155376 0.8848686
v 0.016220702 0.4934194 0.04432788
v -0.0059960936 -0.46876737 0.042407718
v 0.042299803 -0.4687267 0.08835498
v -0.0032495116 -0.51224965 0.08589893
v -0.0342334 0.512595 0.09655323
v 0.013876953 0.51245123 0.09676685
v -0.004472656 0.347254 0.233344
v -0.051799316 0.34717917 0.23300464
v -0.013156738 0.069239885 0.46218553
v 0.032558594 0.06980728 0.4657866
v -0.0109375 -0.15832192 0.6533745
v 0.0331665 -0.15798317 0.66223186
v -0.059729002 -0.4587328 0.89701825
v -0.0171167 -0.45871973 0.90894455
v -0.05418701 -0.51152265 0.8729118
v -0.0116333 -0.51155376 0.8848686
v 0.03329834 -0.5124909 0.6600432
v -0.007783203 -0.5125527 0.6500468
v 0.006293945 -0.51258975 0.46147022
v 0.046413574 -0.51249653 0.46820238
v -0.022705078 -0.512543 0.22396533
v 0.015144043 -0.512595 0.22674854
v -0.03908203 -0.51231235 0.084449954
v -0.0032495116 -0.51224965 0.08589893
v -0.042668454 -0.46873674 0.04097339
v -0.0059960936 -0.46876737 0.042407718
v 0.016220702 0.4934194 0.04432788
v -0.031767577 0.4935558 0.044177737
vt 0.78271484 0.7426758
vt 0.77246094 0.7421875
vt 0.76904297 0.7553711
vt 0.78027344 0.75683594
vt 0.39819336 0.97216797
vt 0.32543945 0.9736328
vt 0.31298828 0.9902344
vt 0.40942383 0.98583984
vt 0.41577148 0.97265625
vt 0.36987305 0.9345703
vt 0.38305664 0.92626953
vt 0.23999023 0.9873047
vt 0.25341797 0.97314453
vt 0.34228516 0.89746094
vt 0.35498047 0.8886719
vt 0.15002441 0.98583984
vt 0.16455078 0.9716797
vt 0.30395508 0.8540039
vt 0.11260986 0.9741211
vt 0.2788086 0.8310547
vt 0.2722168 0.81884766
vt 0.09100342 0.9741211
vt 0.28808594 0.8198242
vt 0.0960083 0.9868164
vt 0.3154297 0.84375
vt 0.64404297 0.92578125
vt 0.64404297 0.9169922
vt 0.62890625 0.91845703
vt 0.62939453 0.9272461
vt 0.051727295 0.9785156
vt 0.051239014 0.9902344
vt 0.06488037 0.9902344
vt 0.06530762 0.97802734
vt 0.026672363 0.984375
vt 0.03213501 0.9375
vt 0.017089844 0.9345703
vt 0.010002136 0.9902344
vt 0.020004272 0.8876953
vt 0.034851074 0.8911133
vt 0.09033203 0.94091797
vt 0.14733887 0.8911133
vt 0.11102295 0.94140625
vt 0.16845703 0.8925781
vt 0.019760132 0.828125
vt 0.034576416 0.83203125
vt 0.21704102 0.8330078
vt 0.25390625 0.79589844
vt 0.0357666 0.79785156
vt 0.2685547 0.78222656
vt 0.27392578 0.7949219
vt 0.23742676 0.83496094
vt 0.021499634 0.79296875
vt 0.77246094 0.7421875
vt 0.7553711 0.6508789
vt 0.7416992 0.66552734
vt 0.7558594 0.7416992
vt 0.76904297 0.7553711
vt 0.2685547 0.78222656
vt 0.03265381 0.78222656
vt 0.0357666 0.79785156
vt 0.021499634 0.79296875
vt 0.78027344 0.4387207
vt 0.7685547 0.43847656
vt 0.7709961 0.49047852
vt 0.78271484 0.4909668
vt 0.76953125 0.578125
vt 0.75878906 0.578125
vt 0.7661133 0.64990234
vt 0.7553711 0.6508789
vt 0.78271484 0.7426758
vt 0.77246094 0.7421875
vt 0.55078125 0.5732422
vt 0.55322266 0.5625
vt 0.49829102 0.5527344
vt 0.49609375 0.5629883
vt 0.44995117 0.5600586
vt 0.45141602 0.55029297
vt 0.39208984 0.5683594
vt 0.39257812 0.55908203
vt 0.3581543 0.5732422
vt 0.35839844 0.5644531
vt 0.62939453 0.9272461
vt 0.62890625 0.91845703
vt 0.3942871 0.9169922
vt 0.39453125 0.92871094
vn -0.563749 0.49821 0.658767
vn 0.2156639 0.5128078 0.8309737
vn 0.3786612 -0.89146245 0.24881811
vn -0.43689424 -0.89618146 0.07734504
vn -0.996573 -0.005844 0.082512006
vn -0.99419713 0.09846101 0.043329004
vn -0.5827613 0.54011124 0.6071813
vn -0.563749 0.49821 0.658767
vn -0.43689424 -0.89618146 0.07734504
vn -0.98179525 -0.16136904 -0.10019001
vn -0.46837878 -0.8811386 -0.06492998
vn -0.538738 0.503767 0.675263
vn -0.9851972 0.024555005 0.16965705
vn -0.9918962 -0.10153002 0.07637701
vn -0.46954492 -0.88279885 0.013922997
vn -0.5167511 0.5426311 0.6622082
vn -0.9924211 0.034205005 0.11802702
vn -0.993273 -0.075323 0.087949
vn -0.93573177 0.06364398 -0.34692293
vn -0.9732432 -0.040650006 -0.22615305
vn -0.46060196 -0.014949999 -0.8874809
vn -0.35277584 0.05751398 -0.9339386
vn -0.47467008 -0.8752271 -0.093090005
vn -0.4027771 0.7311192 0.5506681
vn -0.5036888 -0.86158466 0.06300397
vn -0.47467008 -0.8752271 -0.093090005
vn 0.42138815 -0.8860583 -0.19321707
vn 0.49196896 -0.029021 -0.87012887
vn -0.46060196 -0.014949999 -0.8874809
vn -0.35277584 0.05751398 -0.9339386
vn 0.38576904 0.045372006 -0.92147905
vn 0.4210689 0.6917628 0.58665586
vn -0.4027771 0.7311192 0.5506681
vn 0.8771144 0.0089390045 0.48019826
vn 0.9849747 -0.13736296 0.10467198
vn 0.4887079 -0.86960983 0.070307985
vn 0.3786612 -0.89146245 0.24881811
vn 0.5121582 -0.8586263 -0.021330008
vn 0.9962954 -0.053978022 -0.06694703
vn 0.9638503 0.13205004 0.23142006
vn 0.99593747 0.08321595 -0.034403976
vn 0.36656678 0.5911298 0.7184667
vn 0.48398134 0.59792644 0.6389414
vn 0.47392094 -0.8786399 -0.05823099
vn 0.9955727 -0.04278899 -0.08368997
vn 0.99662435 0.07870103 0.023369007
vn 0.94459724 0.05222702 -0.32405007
vn 0.97074604 -0.038819 -0.23695
vn 0.38576904 0.045372006 -0.92147905
vn 0.4210689 0.6917628 0.58665586
vn 0.4398609 0.5727698 0.6917059
vn 0.42138815 -0.8860583 -0.19321707
vn 0.2156639 0.5128078 0.8309737
vn 0.36656678 0.5911298 0.7184667
vn 0.9638503 0.13205004 0.23142006
vn 0.8771144 0.0089390045 0.48019826
vn 0.3786612 -0.89146245 0.24881811
vn 0.38576904 0.045372006 -0.92147905
vn 0.49196896 -0.029021 -0.87012887
vn 0.97074604 -0.038819 -0.23695
vn 0.42138815 -0.8860583 -0.19321707
vn -0.4027771 0.7311192 0.5506681
vn 0.4210689 0.6917628 0.58665586
vn 0.4398609 0.5727698 0.6917059
vn -0.5167511 0.5426311 0.6622082
vn -0.538738 0.503767 0.675263
vn 0.48398134 0.59792644 0.6389414
vn -0.5827613 0.54011124 0.6071813
vn 0.36656678 0.5911298 0.7184667
vn -0.563749 0.49821 0.658767
vn 0.2156639 0.5128078 0.8309737
vn -0.43689424 -0.89618146 0.07734504
vn 0.3786612 -0.89146245 0.24881811
vn 0.4887079 -0.86960983 0.070307985
vn -0.46837878 -0.8811386 -0.06492998
vn -0.46954492 -0.88279885 0.013922997
vn 0.5121582 -0.8586263 -0.021330008
vn -0.5036888 -0.86158466 0.06300397
vn 0.47392094 -0.8786399 -0.05823099
vn -0.47467008 -0.8752271 -0.093090005
vn 0.42138815 -0.8860583 -0.19321707
vn -0.46060196 -0.014949999 -0.8874809
vn 0.49196896 -0.029021 -0.87012887
vn 0.38576904 0.045372006 -0.92147905
vn -0.35277584 0.05751398 -0.9339386
g Sail_0
f 3/3/3 2/2/2 1/1/1
f 4/4/4 3/3/3 1/1/1
f 7/7/7 6/6/6 5/5/5
f 8/8/8 7/7/7 5/5/5
f 5/5/5 9/9/9 8/8/8
f 5/5/5 10/10/10 9/9/9
f 10/10/10 5/5/5 6/6/6
f 10/10/10 11/11/11 9/9/9
f 7/7/7 12/12/12 6/6/6
f 12/12/12 13/13/13 6/6/6
f 10/10/10 6/6/6 13/13/13
f 10/10/10 14/14/14 11/11/11
f 14/14/14 10/10/10 13/13/13
f 14/14/14 15/15/15 11/11/11
f 12/12/12 16/16/16 13/13/13
f 16/16/16 17/17/17 13/13/13
f 14/14/14 13/13/13 17/17/17
f 14/14/14 18/18/18 15/15/15
f 18/18/18 14/14/14 17/17/17
f 18/18/18 17/17/17 19/19/19
f 20/20/20 18/18/18 19/19/19
f 20/20/20 19/19/19 21/21/21
f 19/19/19 22/22/22 21/21/21
f 20/20/20 21/21/21 23/23/23
f 19/19/19 24/24/24 22/22/22
f 24/24/24 19/19/19 17/17/17
f 16/16/16 24/24/24 17/17/17
f 18/18/18 25/25/25 15/15/15
f 20/20/20 23/23/23 25/25/25
f 18/18/18 20/20/20 25/25/25
f 28/28/28 27/27/27 26/26/26
f 29/29/29 28/28/28 26/26/26
f 32/32/32 31/31/31 30/30/30
f 33/33/33 32/32/32 30/30/30
f 36/36/36 35/35/35 34/34/34
f 37/37/37 36/36/36 34/34/34
f 36/36/36 38/38/38 35/35/35
f 38/38/38 39/39/39 35/35/35
f 40/40/40 34/34/34 35/35/35
f 40/40/40 35/35/35 39/39/39
f 41/41/41 40/40/40 39/39/39
f 40/40/40 41/41/41 42/42/42
f 41/41/41 43/43/43 42/42/42
f 38/38/38 44/44/44 39/39/39
f 44/44/44 45/45/45 39/39/39
f 41/41/41 39/39/39 45/45/45
f 41/41/41 46/46/46 43/43/43
f 46/46/46 41/41/41 45/45/45
f 46/46/46 45/45/45 47/47/47
f 45/45/45 48/48/48 47/47/47
f 47/47/47 48/48/48 49/49/49
f 50/50/50 47/47/47 49/49/49
f 46/46/46 51/51/51 43/43/43
f 47/47/47 50/50/50 51/51/51
f 46/46/46 47/47/47 51/51/51
f 52/52/52 48/48/48 45/45/45
f 44/44/44 52/52/52 45/45/45
f 55/55/55 54/54/54 53/53/53
f 56/56/56 55/55/55 53/53/53
f 53/53/53 57/57/57 56/56/56
f 60/60/60 59/59/59 58/58/58
f 61/61/61 59/59/59 60/60/60
f 64/64/64 63/63/63 62/62/62
f 65/65/65 64/64/64 62/62/62
f 65/65/65 66/66/66 64/64/64
f 66/66/66 67/67/67 64/64/64
f 66/66/66 68/68/68 67/67/67
f 68/68/68 69/69/69 67/67/67
f 68/68/68 70/70/70 69/69/69
f 70/70/70 71/71/71 69/69/69
f 74/74/74 73/73/73 72/72/72
f 75/75/75 74/74/74 72/72/72
f 75/75/75 76/76/76 74/74/74
f 76/76/76 77/77/77 74/74/74
f 76/76/76 78/78/78 77/77/77
f 78/78/78 79/79/79 77/77/77
f 78/78/78 80/80/80 79/79/79
f 80/80/80 81/81/81 79/79/79
f 84/84/84 83/83/83 82/82/82
f 85/85/85 84/84/84 82/82/82
