g shadow_caster:Mesh
v 3.870775 9.22366 11.12039
v -0.4425194 9.22366 6.696673
v 3.870815 9.22366 6.696712
v -0.4425589 9.22366 11.12035
v 8.36592 9.22366 11.12043
v 8.36596 9.22366 6.696752
v 12.86106 9.22366 11.12047
v 12.8611 9.22366 6.696792
v 17.35621 9.22366 11.12051
v 17.35625 9.22366 6.696832
v -30.51036 9.22366 -14.47333
v -34.93403 9.22366 -10.16
v -34.93403 9.22366 -14.47333
v -30.51036 9.22366 -10.16
v -30.51036 9.22366 -18.96847
v -34.93403 9.22366 -18.96847
v -30.51036 9.22366 -23.46361
v -34.93403 9.22366 -23.46361
v -26.08668 9.22366 -10.16
v -26.08668 9.22366 -14.47333
v -26.08668 9.22366 -18.96847
v -26.08668 9.22366 -23.46361
v -21.663 9.22366 -10.16
v -21.663 9.22366 -14.47333
v -21.663 9.22366 -18.96847
v -21.663 9.22366 -23.46361
v -26.08665 9.22366 1.263273
v -21.66295 9.22366 -3.050031
v -21.66298 9.22366 1.2633
v -26.08662 9.22366 -3.050057
v -26.08668 9.22366 5.758414
v -21.663 9.22366 5.75844
v -26.0867 9.22366 10.25355
v -21.66303 9.22366 10.25358
v -30.5103 9.22366 -3.050083
v -30.51033 9.22366 1.263247
v -30.51035 9.22366 5.758388
v -30.51038 9.22366 10.25352
v -34.93398 9.22366 -3.050109
v -34.93401 9.22366 1.263221
v -34.93404 9.22366 5.758362
v -34.93406 9.22366 10.2535
v 12.26635 9.22366 1.263445
v 16.69005 9.22366 -3.04986
v 16.69002 9.22366 1.263471
v 12.26638 9.22366 -3.049886
v 12.26632 9.22366 5.758586
v 16.69 9.22366 5.758612
v 12.2663 9.22366 10.25372
v 16.68997 9.22366 10.25375
v 7.842696 9.22366 -3.049912
v 7.84267 9.22366 1.263419
v 7.842644 9.22366 5.75856
v 7.842617 9.22366 10.2537
v 3.419015 9.22366 -3.049938
v 3.41899 9.22366 1.263393
v 3.418963 9.22366 5.758534
v 3.418937 9.22366 10.25367
v -17.82006 9.22366 11.11999
v -22.1334 9.22366 11.11997
v -17.82005 9.22366 6.696301
v -22.13339 9.22366 6.696289
v -26.62854 9.22366 11.11996
v -26.62853 9.22366 6.696276
v -31.12368 9.22366 11.11995
v -31.12367 9.22366 6.696263
v -35.61883 9.22366 11.11993
v -35.61882 9.22366 6.696249
v -19.80612 9.327839 -11.45704
v -19.22717 9.327839 -11.68877
v -19.06632 9.327839 -10.35808
v -19.68962 9.327839 -10.43483
v -18.86886 9.327839 -7.223917
v -17.79908 9.327839 -9.957443
v -20.55762 9.327839 -8.980472
v -17.23221 9.327839 -8.433649
v -0.05583397 9.327839 -0.471527
v -0.6516348 9.327839 -0.6556485
v 0.06053447 9.327839 -1.791176
v 0.4967279 9.327839 -1.339375
v 1.87889 9.327839 -4.351555
v -0.6724236 9.327839 -2.899865
v 2.086416 9.327839 -1.923733
v -0.1543556 9.327839 -4.440932
v 3.870847 9.22366 -1.299712
v -0.4424478 9.22366 -5.723428
v 3.870887 9.22366 -5.72339
v -0.4424874 9.22366 -1.299751
v 8.365992 9.22366 -1.299672
v 8.366032 9.22366 -5.723349
v 12.86113 9.22366 -1.299632
v 12.86117 9.22366 -5.723309
v 17.35628 9.22366 -1.299592
v 17.35632 9.22366 -5.723269
v -0.4425269 9.22366 3.123934
v 3.870807 9.22366 3.123972
v 8.365952 9.22366 3.124012
v 12.86109 9.22366 3.124053
v 17.35624 9.22366 3.124093
v -0.4425665 9.22366 7.547618
v 3.870768 9.22366 7.547656
v 8.365912 9.22366 7.547697
v 12.86105 9.22366 7.547737
v 17.3562 9.22366 7.547777
v -22.13336 9.22366 -9.842646
v -17.82004 9.22366 -5.418955
v -22.13337 9.22366 -5.418968
v -17.82003 9.22366 -9.842633
v -26.62851 9.22366 -9.842659
v -26.62852 9.22366 -5.418981
v -31.12364 9.22366 -9.842671
v -31.12366 9.22366 -5.418994
v -35.61879 9.22366 -9.842685
v -35.6188 9.22366 -5.419007
v -17.82001 9.22366 -14.26632
v -22.13335 9.22366 -14.26633
v -26.62849 9.22366 -14.26634
v -31.12363 9.22366 -14.26636
v -35.61878 9.22366 -14.26637
v -17.82 9.22366 -18.69
v -22.13334 9.22366 -18.69001
v -26.62848 9.22366 -18.69003
v -31.12362 9.22366 -18.69004
v -35.61877 9.22366 -18.69005
v 7.842638 9.22366 -14.47333
v 3.418965 9.22366 -10.16
v 3.418965 9.22366 -14.47333
v 7.842638 9.22366 -10.16
v 7.842638 9.22366 -18.96847
v 3.418965 9.22366 -18.96847
v 7.842638 9.22366 -23.46361
v 3.418965 9.22366 -23.46361
v 12.26632 9.22366 -10.16
v 12.26632 9.22366 -14.47333
v 12.26632 9.22366 -18.96847
v 12.26632 9.22366 -23.46361
v 16.69 9.22366 -10.16
v 16.69 9.22366 -14.47333
v 16.69 9.22366 -18.96847
v 16.69 9.22366 -23.46361
v -13.12044 9.22366 1.263338
v -8.696743 9.22366 -3.049966
v -8.696769 9.22366 1.263364
v -13.12042 9.22366 -3.049992
v -13.12047 9.22366 5.758479
v -8.696795 9.22366 5.758505
v -13.1205 9.22366 10.25361
v -8.696822 9.22366 10.25364
v -17.5441 9.22366 -3.050019
v -17.54412 9.22366 1.263312
v -17.54415 9.22366 5.758453
v -17.54418 9.22366 10.25359
v -21.96778 9.22366 -3.050045
v -21.9678 9.22366 1.263286
v -21.96783 9.22366 5.758427
v -21.96786 9.22366 10.25356
v 3.870939 9.22366 -14.26642
v -0.4423553 9.22366 -18.69013
v 3.870979 9.22366 -18.69009
v -0.4423949 9.22366 -14.26645
v 8.366084 9.22366 -14.26638
v 8.366124 9.22366 -18.69005
v 12.86122 9.22366 -14.26634
v 12.86126 9.22366 -18.69001
v 17.35637 9.22366 -14.26629
v 17.35641 9.22366 -18.68997
v -0.4424344 9.22366 -9.84277
v 3.8709 9.22366 -9.842731
v 8.366045 9.22366 -9.842691
v 12.86118 9.22366 -9.842651
v 17.35633 9.22366 -9.84261
v -0.442474 9.22366 -5.419086
v 3.87086 9.22366 -5.419047
v 8.366005 9.22366 -5.419007
v 12.86114 9.22366 -5.418967
v 17.35629 9.22366 -5.418927
v -17.54366 9.22366 -14.47333
v -21.96733 9.22366 -10.16
v -21.96733 9.22366 -14.47333
v -17.54366 9.22366 -10.16
v -17.54366 9.22366 -18.96847
v -21.96733 9.22366 -18.96847
v -17.54366 9.22366 -23.46361
v -21.96733 9.22366 -23.46361
v -13.11998 9.22366 -10.16
v -13.11998 9.22366 -14.47333
v -13.11998 9.22366 -18.96847
v -13.11998 9.22366 -23.46361
v -8.696299 9.22366 -10.16
v -8.696299 9.22366 -14.47333
v -8.696299 9.22366 -18.96847
v -8.696299 9.22366 -23.46361
v 2.662098 9.327839 -12.39968
v 3.384694 9.327839 -12.12026
v 2.404418 9.327839 -10.77413
v 1.90265 9.327839 -11.37159
v -0.06934685 9.327839 -7.757172
v 3.217516 9.327839 -9.337026
v -0.1178226 9.327839 -10.78402
v 2.44294 9.327839 -7.471594
v -8.684537 9.327839 -13.0529
v -7.998392 9.327839 -13.41266
v -7.630961 9.327839 -11.78847
v -8.411009 9.327839 -11.80434
v -6.989727 9.327839 -7.940044
v -6.014022 9.327839 -11.45394
v -9.299443 9.327839 -9.89692
v -5.120332 9.327839 -9.642547
v -22.13339 9.22366 3.123564
v -17.82007 9.22366 7.547254
v -22.13341 9.22366 7.547241
v -17.82006 9.22366 3.123576
v -26.62854 9.22366 3.123551
v -26.62855 9.22366 7.547228
v -31.12368 9.22366 3.123538
v -31.12369 9.22366 7.547215
v -35.61882 9.22366 3.123524
v -35.61884 9.22366 7.547202
v -17.82005 9.22366 -1.300108
v -22.13338 9.22366 -1.30012
v -26.62852 9.22366 -1.300133
v -31.12366 9.22366 -1.300146
v -35.61881 9.22366 -1.30016
v -17.82003 9.22366 -5.723792
v -22.13337 9.22366 -5.723804
v -26.62851 9.22366 -5.723818
v -31.12365 9.22366 -5.723831
v -35.6188 9.22366 -5.723844
v -0.7003481 9.22366 1.263384
v 3.723351 9.22366 -3.049921
v 3.723326 9.22366 1.26341
v -0.7003226 9.22366 -3.049947
v -0.7003746 9.22366 5.758525
v 3.723299 9.22366 5.758551
v -0.7004011 9.22366 10.25366
v 3.723273 9.22366 10.25369
v -5.124003 9.22366 -3.049973
v -5.124029 9.22366 1.263358
v -5.124055 9.22366 5.758499
v -5.124082 9.22366 10.25363
v -9.547684 9.22366 -3.049999
v -9.547709 9.22366 1.263332
v -9.547735 9.22366 5.758473
v -9.547762 9.22366 10.25361
v -5.123559 9.22366 -14.47333
v -9.547234 9.22366 -10.16
v -9.547234 9.22366 -14.47333
v -5.123559 9.22366 -10.16
v -5.123559 9.22366 -18.96847
v -9.547234 9.22366 -18.96847
v -5.123559 9.22366 -23.46361
v -9.547234 9.22366 -23.46361
v -0.6998791 9.22366 -10.16
v -0.6998791 9.22366 -14.47333
v -0.6998791 9.22366 -18.96847
v -0.6998791 9.22366 -23.46361
v 3.723801 9.22366 -10.16
v 3.723801 9.22366 -14.47333
v 3.723801 9.22366 -18.96847
v 3.723801 9.22366 -23.46361
vt 0.333333 0.8355395
vt 0 0.510521
vt 0 0.8355395
vt 0.333333 0.510521
vt 0.333333 0.8416444
vt 0 0.8416444
vt 0.333333 0.8477492
vt 0 0.8477492
vt 0.333333 0.8538542
vt 0 0.8538542
vt 0.333333 0.8355395
vt 0 0.510521
vt 0 0.8355395
vt 0.333333 0.510521
vt 0.333333 0.8416444
vt 0 0.8416444
vt 0.333333 0.8477492
vt 0 0.8477492
vt 0.6666665 0.510521
vt 0.6666665 0.8355395
vt 0.6666665 0.8416444
vt 0.6666665 0.8477492
vt 1 0.510521
vt 1 0.8355395
vt 1 0.8416444
vt 1 0.8477492
vt 0.333333 0.8355395
vt 0 0.510521
vt 0 0.8355395
vt 0.333333 0.510521
vt 0.333333 0.8416444
vt 0 0.8416444
vt 0.333333 0.8477492
vt 0 0.8477492
vt 0.6666665 0.510521
vt 0.6666665 0.8355395
vt 0.6666665 0.8416444
vt 0.6666665 0.8477492
vt 1 0.510521
vt 1 0.8355395
vt 1 0.8416444
vt 1 0.8477492
vt 0.333333 0.8355395
vt 0 0.510521
vt 0 0.8355395
vt 0.333333 0.510521
vt 0.333333 0.8416444
vt 0 0.8416444
vt 0.333333 0.8477492
vt 0 0.8477492
vt 0.6666665 0.510521
vt 0.6666665 0.8355395
vt 0.6666665 0.8416444
vt 0.6666665 0.8477492
vt 1 0.510521
vt 1 0.8355395
vt 1 0.8416444
vt 1 0.8477492
vt 0.6666665 0.510521
vt 0.6666665 0.8355395
vt 1 0.510521
vt 1 0.8355395
vt 0.6666665 0.8416444
vt 1 0.8416444
vt 0.6666665 0.8477492
vt 1 0.8477492
vt 0.6666665 0.8538542
vt 1 0.8538542
vt 0.0676295 0
vt 0 0.04524595
vt 0.1314041 0.1606652
vt 0.1690921 0.0879026
vt 0.454271 0.412983
vt 0.08111152 0.3266329
vt 0.38966 0.1016728
vt 0.2033725 0.5
vt 0.0676295 0
vt 0 0.04524595
vt 0.1314041 0.1606652
vt 0.1690921 0.0879026
vt 0.454271 0.412983
vt 0.08111152 0.3266329
vt 0.38966 0.1016728
vt 0.2033725 0.5
vt 0.333333 0.8355395
vt 0 0.510521
vt 0 0.8355395
vt 0.333333 0.510521
vt 0.333333 0.8416444
vt 0 0.8416444
vt 0.333333 0.8477492
vt 0 0.8477492
vt 0.333333 0.8538542
vt 0 0.8538542
vt 0.6666665 0.510521
vt 0.6666665 0.8355395
vt 0.6666665 0.8416444
vt 0.6666665 0.8477492
vt 0.6666665 0.8538542
vt 1 0.510521
vt 1 0.8355395
vt 1 0.8416444
vt 1 0.8477492
vt 1 0.8538542
vt 0.333333 0.8355395
vt 0 0.510521
vt 0 0.8355395
vt 0.333333 0.510521
vt 0.333333 0.8416444
vt 0 0.8416444
vt 0.333333 0.8477492
vt 0 0.8477492
vt 0.333333 0.8538542
vt 0 0.8538542
vt 0.6666665 0.510521
vt 0.6666665 0.8355395
vt 0.6666665 0.8416444
vt 0.6666665 0.8477492
vt 0.6666665 0.8538542
vt 1 0.510521
vt 1 0.8355395
vt 1 0.8416444
vt 1 0.8477492
vt 1 0.8538542
vt 0.333333 0.8355395
vt 0 0.510521
vt 0 0.8355395
vt 0.333333 0.510521
vt 0.333333 0.8416444
vt 0 0.8416444
vt 0.333333 0.8477492
vt 0 0.8477492
vt 0.6666665 0.510521
vt 0.6666665 0.8355395
vt 0.6666665 0.8416444
vt 0.6666665 0.8477492
vt 1 0.510521
vt 1 0.8355395
vt 1 0.8416444
vt 1 0.8477492
vt 0.333333 0.8355395
vt 0 0.510521
vt 0 0.8355395
vt 0.333333 0.510521
vt 0.333333 0.8416444
vt 0 0.8416444
vt 0.333333 0.8477492
vt 0 0.8477492
vt 0.6666665 0.510521
vt 0.6666665 0.8355395
vt 0.6666665 0.8416444
vt 0.6666665 0.8477492
vt 1 0.510521
vt 1 0.8355395
vt 1 0.8416444
vt 1 0.8477492
vt 0.333333 0.8355395
vt 0 0.510521
vt 0 0.8355395
vt 0.333333 0.510521
vt 0.333333 0.8416444
vt 0 0.8416444
vt 0.333333 0.8477492
vt 0 0.8477492
vt 0.333333 0.8538542
vt 0 0.8538542
vt 0.6666665 0.510521
vt 0.6666665 0.8355395
vt 0.6666665 0.8416444
vt 0.6666665 0.8477492
vt 0.6666665 0.8538542
vt 1 0.510521
vt 1 0.8355395
vt 1 0.8416444
vt 1 0.8477492
vt 1 0.8538542
vt 0.333333 0.8355395
vt 0 0.510521
vt 0 0.8355395
vt 0.333333 0.510521
vt 0.333333 0.8416444
vt 0 0.8416444
vt 0.333333 0.8477492
vt 0 0.8477492
vt 0.6666665 0.510521
vt 0.6666665 0.8355395
vt 0.6666665 0.8416444
vt 0.6666665 0.8477492
vt 1 0.510521
vt 1 0.8355395
vt 1 0.8416444
vt 1 0.8477492
vt 0.0676295 0
vt 0 0.04524595
vt 0.1314041 0.1606652
vt 0.1690921 0.0879026
vt 0.454271 0.412983
vt 0.08111152 0.3266329
vt 0.38966 0.1016728
vt 0.2033725 0.5
vt 0.0676295 0
vt 0 0.04524595
vt 0.1314041 0.1606652
vt 0.1690921 0.0879026
vt 0.454271 0.412983
vt 0.08111152 0.3266329
vt 0.38966 0.1016728
vt 0.2033725 0.5
vt 0.333333 0.8355395
vt 0 0.510521
vt 0 0.8355395
vt 0.333333 0.510521
vt 0.333333 0.8416444
vt 0 0.8416444
vt 0.333333 0.8477492
vt 0 0.8477492
vt 0.333333 0.8538542
vt 0 0.8538542
vt 0.6666665 0.510521
vt 0.6666665 0.8355395
vt 0.6666665 0.8416444
vt 0.6666665 0.8477492
vt 0.6666665 0.8538542
vt 1 0.510521
vt 1 0.8355395
vt 1 0.8416444
vt 1 0.8477492
vt 1 0.8538542
vt 0.333333 0.8355395
vt 0 0.510521
vt 0 0.8355395
vt 0.333333 0.510521
vt 0.333333 0.8416444
vt 0 0.8416444
vt 0.333333 0.8477492
vt 0 0.8477492
vt 0.6666665 0.510521
vt 0.6666665 0.8355395
vt 0.6666665 0.8416444
vt 0.6666665 0.8477492
vt 1 0.510521
vt 1 0.8355395
vt 1 0.8416444
vt 1 0.8477492
vt 0.333333 0.8355395
vt 0 0.510521
vt 0 0.8355395
vt 0.333333 0.510521
vt 0.333333 0.8416444
vt 0 0.8416444
vt 0.333333 0.8477492
vt 0 0.8477492
vt 0.6666665 0.510521
vt 0.6666665 0.8355395
vt 0.6666665 0.8416444
vt 0.6666665 0.8477492
vt 1 0.510521
vt 1 0.8355395
vt 1 0.8416444
vt 1 0.8477492
vn -0 1 0
vn -0 1 0
vn -0 1 0
vn -0 1 0
vn -0 1 0
vn -0 1 0
vn -0 1 0
vn -0 1 0
vn -0 1 0
vn -0 1 0
vn -0 1 0
vn -0 1 0
vn -0 1 0
vn -0 1 0
vn -0 1 0
vn -0 1 0
vn -0 1 0
vn -0 1 0
vn -0 1 0
vn -0 1 0
vn -0 1 0
vn -0 1 0
vn -0 1 0
vn -0 1 0
vn -0 1 0
vn -0 1 0
vn -0 1 0
vn -0 1 0
vn -0 1 0
vn -0 1 0
vn -0 1 0
vn -0 1 0
vn -0 1 0
vn -0 1 0
vn -0 1 0
vn -0 1 0
vn -0 1 0
vn -0 1 0
vn -0 1 0
vn -0 1 0
vn -0 1 0
vn -0 1 0
vn -0 1 0
vn -0 1 0
vn -0 1 0
vn -0 1 0
vn -0 1 0
vn -0 1 0
vn -0 1 0
vn -0 1 0
vn -0 1 0
vn -0 1 0
vn -0 1 0
vn -0 1 0
vn -0 1 0
vn -0 1 0
vn -0 1 0
vn -0 1 0
vn -0 1 0
vn -0 1 0
vn -0 1 0
vn -0 1 0
vn -0 1 0
vn -0 1 0
vn -0 1 0
vn -0 1 0
vn -0 1 0
vn -0 1 0
vn -0 1 0
vn -0 1 0
vn -0 1 0
vn -0 1 0
vn -0 1 0
vn -0 1 0
vn -0 1 0
vn -0 1 0
vn -0 1 0
vn -0 1 0
vn -0 1 0
vn -0 1 0
vn -0 1 0
vn -0 1 0
vn -0 1 0
vn -0 1 0
vn -0 1 0
vn -0 1 0
vn -0 1 0
vn -0 1 0
vn -0 1 0
vn -0 1 0
vn -0 1 0
vn -0 1 0
vn -0 1 0
vn -0 1 0
vn -0 1 0
vn -0 1 0
vn -0 1 0
vn -0 1 0
vn -0 1 0
vn -0 1 0
vn -0 1 0
vn -0 1 0
vn -0 1 0
vn -0 1 0
vn -0 1 0
vn -0 1 0
vn -0 1 0
vn -0 1 0
vn -0 1 0
vn -0 1 0
vn -0 1 0
vn -0 1 0
vn -0 1 0
vn -0 1 0
vn -0 1 0
vn -0 1 0
vn -0 1 0
vn -0 1 0
vn -0 1 0
vn -0 1 0
vn -0 1 0
vn -0 1 0
vn -0 1 0
vn -0 1 0
vn -0 1 0
vn -0 1 0
vn -0 1 0
vn -0 1 0
vn -0 1 0
vn -0 1 0
vn -0 1 0
vn -0 1 0
vn -0 1 0
vn -0 1 0
vn -0 1 0
vn -0 1 0
vn -0 1 0
vn -0 1 0
vn -0 1 0
vn -0 1 0
vn -0 1 0
vn -0 1 0
vn -0 1 0
vn -0 1 0
vn -0 1 0
vn -0 1 0
vn -0 1 0
vn -0 1 0
vn -0 1 0
vn -0 1 0
vn -0 1 0
vn -0 1 0
vn -0 1 0
vn -0 1 0
vn -0 1 0
vn -0 1 0
vn -0 1 0
vn -0 1 0
vn -0 1 0
vn -0 1 0
vn -0 1 0
vn -0 1 0
vn -0 1 0
vn -0 1 0
vn -0 1 0
vn -0 1 0
vn -0 1 0
vn -0 1 0
vn -0 1 0
vn -0 1 0
vn -0 1 0
vn -0 1 0
vn -0 1 0
vn -0 1 0
vn -0 1 0
vn -0 1 0
vn -0 1 0
vn -0 1 0
vn -0 1 0
vn -0 1 0
vn -0 1 0
vn -0 1 0
vn -0 1 0
vn -0 1 0
vn -0 1 0
vn -0 1 0
vn -0 1 0
vn -0 1 0
vn -0 1 0
vn -0 1 0
vn -0 1 0
vn -0 1 0
vn -0 1 0
vn -0 1 0
vn -0 1 0
vn -0 1 0
vn -0 1 0
vn -0 1 0
vn -0 1 0
vn -0 1 0
vn -0 1 0
vn -0 1 0
vn -0 1 0
vn -0 1 0
vn -0 1 0
vn -0 1 0
vn -0 1 0
vn -0 1 0
vn -0 1 0
vn -0 1 0
vn -0 1 0
vn -0 1 0
vn -0 1 0
vn -0 1 0
vn -0 1 0
vn -0 1 0
vn -0 1 0
vn -0 1 0
vn -0 1 0
vn -0 1 0
vn -0 1 0
vn -0 1 0
vn -0 1 0
vn -0 1 0
vn -0 1 0
vn -0 1 0
vn -0 1 0
vn -0 1 0
vn -0 1 0
vn -0 1 0
vn -0 1 0
vn -0 1 0
vn -0 1 0
vn -0 1 0
vn -0 1 0
vn -0 1 0
vn -0 1 0
vn -0 1 0
vn -0 1 0
vn -0 1 0
vn -0 1 0
vn -0 1 0
vn -0 1 0
vn -0 1 0
vn -0 1 0
vn -0 1 0
vn -0 1 0
vn -0 1 0
vn -0 1 0
vn -0 1 0
vn -0 1 0
vn -0 1 0
vn -0 1 0
vn -0 1 0
vn -0 1 0
vn -0 1 0
vn -0 1 0
vn -0 1 0
vn -0 1 0
vn -0 1 0
g shadow_caster:Mesh_0
f 3/3/3 2/2/2 1/1/1
f 1/1/1 2/2/2 4/4/4
f 5/5/5 3/3/3 1/1/1
f 6/6/6 3/3/3 5/5/5
f 7/7/7 6/6/6 5/5/5
f 8/8/8 6/6/6 7/7/7
f 9/9/9 8/8/8 7/7/7
f 10/10/10 8/8/8 9/9/9
f 13/13/13 12/12/12 11/11/11
f 11/11/11 12/12/12 14/14/14
f 15/15/15 13/13/13 11/11/11
f 16/16/16 13/13/13 15/15/15
f 17/17/17 16/16/16 15/15/15
f 18/18/18 16/16/16 17/17/17
f 19/19/19 11/11/11 14/14/14
f 20/20/20 11/11/11 19/19/19
f 20/20/20 15/15/15 11/11/11
f 21/21/21 15/15/15 20/20/20
f 21/21/21 17/17/17 15/15/15
f 22/22/22 17/17/17 21/21/21
f 23/23/23 20/20/20 19/19/19
f 24/24/24 20/20/20 23/23/23
f 24/24/24 21/21/21 20/20/20
f 25/25/25 21/21/21 24/24/24
f 25/25/25 22/22/22 21/21/21
f 26/26/26 22/22/22 25/25/25
f 29/29/29 28/28/28 27/27/27
f 27/27/27 28/28/28 30/30/30
f 31/31/31 29/29/29 27/27/27
f 32/32/32 29/29/29 31/31/31
f 33/33/33 32/32/32 31/31/31
f 34/34/34 32/32/32 33/33/33
f 35/35/35 27/27/27 30/30/30
f 36/36/36 27/27/27 35/35/35
f 36/36/36 31/31/31 27/27/27
f 37/37/37 31/31/31 36/36/36
f 37/37/37 33/33/33 31/31/31
f 38/38/38 33/33/33 37/37/37
f 39/39/39 36/36/36 35/35/35
f 40/40/40 36/36/36 39/39/39
f 40/40/40 37/37/37 36/36/36
f 41/41/41 37/37/37 40/40/40
f 41/41/41 38/38/38 37/37/37
f 42/42/42 38/38/38 41/41/41
f 45/45/45 44/44/44 43/43/43
f 43/43/43 44/44/44 46/46/46
f 47/47/47 45/45/45 43/43/43
f 48/48/48 45/45/45 47/47/47
f 49/49/49 48/48/48 47/47/47
f 50/50/50 48/48/48 49/49/49
f 51/51/51 43/43/43 46/46/46
f 52/52/52 43/43/43 51/51/51
f 52/52/52 47/47/47 43/43/43
f 53/53/53 47/47/47 52/52/52
f 53/53/53 49/49/49 47/47/47
f 54/54/54 49/49/49 53/53/53
f 55/55/55 52/52/52 51/51/51
f 56/56/56 52/52/52 55/55/55
f 56/56/56 53/53/53 52/52/52
f 57/57/57 53/53/53 56/56/56
f 57/57/57 54/54/54 53/53/53
f 58/58/58 54/54/54 57/57/57
f 61/61/61 60/60/60 59/59/59
f 62/62/62 60/60/60 61/61/61
f 62/62/62 63/63/63 60/60/60
f 64/64/64 63/63/63 62/62/62
f 64/64/64 65/65/65 63/63/63
f 66/66/66 65/65/65 64/64/64
f 66/66/66 67/67/67 65/65/65
f 68/68/68 67/67/67 66/66/66
f 71/71/71 70/70/70 69/69/69
f 72/72/72 71/71/71 69/69/69
f 73/73/73 71/71/71 72/72/72
f 74/74/74 71/71/71 73/73/73
f 75/75/75 73/73/73 72/72/72
f 76/76/76 74/74/74 73/73/73
f 79/79/79 78/78/78 77/77/77
f 80/80/80 79/79/79 77/77/77
f 81/81/81 79/79/79 80/80/80
f 82/82/82 79/79/79 81/81/81
f 83/83/83 81/81/81 80/80/80
f 84/84/84 82/82/82 81/81/81
f 87/87/87 86/86/86 85/85/85
f 85/85/85 86/86/86 88/88/88
f 89/89/89 87/87/87 85/85/85
f 90/90/90 87/87/87 89/89/89
f 91/91/91 90/90/90 89/89/89
f 92/92/92 90/90/90 91/91/91
f 93/93/93 92/92/92 91/91/91
f 94/94/94 92/92/92 93/93/93
f 95/95/95 85/85/85 88/88/88
f 96/96/96 85/85/85 95/95/95
f 96/96/96 89/89/89 85/85/85
f 97/97/97 89/89/89 96/96/96
f 97/97/97 91/91/91 89/89/89
f 98/98/98 91/91/91 97/97/97
f 98/98/98 93/93/93 91/91/91
f 99/99/99 93/93/93 98/98/98
f 100/100/100 96/96/96 95/95/95
f 101/101/101 96/96/96 100/100/100
f 101/101/101 97/97/97 96/96/96
f 102/102/102 97/97/97 101/101/101
f 102/102/102 98/98/98 97/97/97
f 103/103/103 98/98/98 102/102/102
f 103/103/103 99/99/99 98/98/98
f 104/104/104 99/99/99 103/103/103
f 107/107/107 106/106/106 105/105/105
f 105/105/105 106/106/106 108/108/108
f 109/109/109 107/107/107 105/105/105
f 110/110/110 107/107/107 109/109/109
f 111/111/111 110/110/110 109/109/109
f 112/112/112 110/110/110 111/111/111
f 113/113/113 112/112/112 111/111/111
f 114/114/114 112/112/112 113/113/113
f 115/115/115 105/105/105 108/108/108
f 116/116/116 105/105/105 115/115/115
f 116/116/116 109/109/109 105/105/105
f 117/117/117 109/109/109 116/116/116
f 117/117/117 111/111/111 109/109/109
f 118/118/118 111/111/111 117/117/117
f 118/118/118 113/113/113 111/111/111
f 119/119/119 113/113/113 118/118/118
f 120/120/120 116/116/116 115/115/115
f 121/121/121 116/116/116 120/120/120
f 121/121/121 117/117/117 116/116/116
f 122/122/122 117/117/117 121/121/121
f 122/122/122 118/118/118 117/117/117
f 123/123/123 118/118/118 122/122/122
f 123/123/123 119/119/119 118/118/118
f 124/124/124 119/119/119 123/123/123
f 127/127/127 126/126/126 125/125/125
f 125/125/125 126/126/126 128/128/128
f 129/129/129 127/127/127 125/125/125
f 130/130/130 127/127/127 129/129/129
f 131/131/131 130/130/130 129/129/129
f 132/132/132 130/130/130 131/131/131
f 133/133/133 125/125/125 128/128/128
f 134/134/134 125/125/125 133/133/133
f 134/134/134 129/129/129 125/125/125
f 135/135/135 129/129/129 134/134/134
f 135/135/135 131/131/131 129/129/129
f 136/136/136 131/131/131 135/135/135
f 137/137/137 134/134/134 133/133/133
f 138/138/138 134/134/134 137/137/137
f 138/138/138 135/135/135 134/134/134
f 139/139/139 135/135/135 138/138/138
f 139/139/139 136/136/136 135/135/135
f 140/140/140 136/136/136 139/139/139
f 143/143/143 142/142/142 141/141/141
f 141/141/141 142/142/142 144/144/144
f 145/145/145 143/143/143 141/141/141
f 146/146/146 143/143/143 145/145/145
f 147/147/147 146/146/146 145/145/145
f 148/148/148 146/146/146 147/147/147
f 149/149/149 141/141/141 144/144/144
f 150/150/150 141/141/141 149/149/149
f 150/150/150 145/145/145 141/141/141
f 151/151/151 145/145/145 150/150/150
f 151/151/151 147/147/147 145/145/145
f 152/152/152 147/147/147 151/151/151
f 153/153/153 150/150/150 149/149/149
f 154/154/154 150/150/150 153/153/153
f 154/154/154 151/151/151 150/150/150
f 155/155/155 151/151/151 154/154/154
f 155/155/155 152/152/152 151/151/151
f 156/156/156 152/152/152 155/155/155
f 159/159/159 158/158/158 157/157/157
f 157/157/157 158/158/158 160/160/160
f 161/161/161 159/159/159 157/157/157
f 162/162/162 159/159/159 161/161/161
f 163/163/163 162/162/162 161/161/161
f 164/164/164 162/162/162 163/163/163
f 165/165/165 164/164/164 163/163/163
f 166/166/166 164/164/164 165/165/165
f 167/167/167 157/157/157 160/160/160
f 168/168/168 157/157/157 167/167/167
f 168/168/168 161/161/161 157/157/157
f 169/169/169 161/161/161 168/168/168
f 169/169/169 163/163/163 161/161/161
f 170/170/170 163/163/163 169/169/169
f 170/170/170 165/165/165 163/163/163
f 171/171/171 165/165/165 170/170/170
f 172/172/172 168/168/168 167/167/167
f 173/173/173 168/168/168 172/172/172
f 173/173/173 169/169/169 168/168/168
f 174/174/174 169/169/169 173/173/173
f 174/174/174 170/170/170 169/169/169
f 175/175/175 170/170/170 174/174/174
f 175/175/175 171/171/171 170/170/170
f 176/176/176 171/171/171 175/175/175
f 179/179/179 178/178/178 177/177/177
f 177/177/177 178/178/178 180/180/180
f 181/181/181 179/179/179 177/177/177
f 182/182/182 179/179/179 181/181/181
f 183/183/183 182/182/182 181/181/181
f 184/184/184 182/182/182 183/183/183
f 185/185/185 177/177/177 180/180/180
f 186/186/186 177/177/177 185/185/185
f 186/186/186 181/181/181 177/177/177
f 187/187/187 181/181/181 186/186/186
f 187/187/187 183/183/183 181/181/181
f 188/188/188 183/183/183 187/187/187
f 189/189/189 186/186/186 185/185/185
f 190/190/190 186/186/186 189/189/189
f 190/190/190 187/187/187 186/186/186
f 191/191/191 187/187/187 190/190/190
f 191/191/191 188/188/188 187/187/187
f 192/192/192 188/188/188 191/191/191
f 195/195/195 194/194/194 193/193/193
f 196/196/196 195/195/195 193/193/193
f 197/197/197 195/195/195 196/196/196
f 198/198/198 195/195/195 197/197/197
f 199/199/199 197/197/197 196/196/196
f 200/200/200 198/198/198 197/197/197
f 203/203/203 202/202/202 201/201/201
f 204/204/204 203/203/203 201/201/201
f 205/205/205 203/203/203 204/204/204
f 206/206/206 203/203/203 205/205/205
f 207/207/207 205/205/205 204/204/204
f 208/208/208 206/206/206 205/205/205
f 211/211/211 210/210/210 209/209/209
f 209/209/209 210/210/210 212/212/212
f 213/213/213 211/211/211 209/209/209
f 214/214/214 211/211/211 213/213/213
f 215/215/215 214/214/214 213/213/213
f 216/216/216 214/214/214 215/215/215
f 217/217/217 216/216/216 215/215/215
f 218/218/218 216/216/216 217/217/217
f 219/219/219 209/209/209 212/212/212
f 220/220/220 209/209/209 219/219/219
f 220/220/220 213/213/213 209/209/209
f 221/221/221 213/213/213 220/220/220
f 221/221/221 215/215/215 213/213/213
f 222/222/222 215/215/215 221/221/221
f 222/222/222 217/217/217 215/215/215
f 223/223/223 217/217/217 222/222/222
f 224/224/224 220/220/220 219/219/219
f 225/225/225 220/220/220 224/224/224
f 225/225/225 221/221/221 220/220/220
f 226/226/226 221/221/221 225/225/225
f 226/226/226 222/222/222 221/221/221
f 227/227/227 222/222/222 226/226/226
f 227/227/227 223/223/223 222/222/222
f 228/228/228 223/223/223 227/227/227
f 231/231/231 230/230/230 229/229/229
f 229/229/229 230/230/230 232/232/232
f 233/233/233 231/231/231 229/229/229
f 234/234/234 231/231/231 233/233/233
f 235/235/235 234/234/234 233/233/233
f 236/236/236 234/234/234 235/235/235
f 237/237/237 229/229/229 232/232/232
f 238/238/238 229/229/229 237/237/237
f 238/238/238 233/233/233 229/229/229
f 239/239/239 233/233/233 238/238/238
f 239/239/239 235/235/235 233/233/233
f 240/240/240 235/235/235 239/239/239
f 241/241/241 238/238/238 237/237/237
f 242/242/242 238/238/238 241/241/241
f 242/242/242 239/239/239 238/238/238
f 243/243/243 239/239/239 242/242/242
f 243/243/243 240/240/240 239/239/239
f 244/244/244 240/240/240 243/243/243
f 247/247/247 246/246/246 245/245/245
f 245/245/245 246/246/246 248/248/248
f 249/249/249 247/247/247 245/245/245
f 250/250/250 247/247/247 249/249/249
f 251/251/251 250/250/250 249/249/249
f 252/252/252 250/250/250 251/251/251
f 253/253/253 245/245/245 248/248/248
f 254/254/254 245/245/245 253/253/253
f 254/254/254 249/249/249 245/245/245
f 255/255/255 249/249/249 254/254/254
f 255/255/255 251/251/251 249/249/249
f 256/256/256 251/251/251 255/255/255
f 257/257/257 254/254/254 253/253/253
f 258/258/258 254/254/254 257/257/257
f 258/258/258 255/255/255 254/254/254
f 259/259/259 255/255/255 258/258/258
f 259/259/259 256/256/256 255/255/255
f 260/260/260 256/256/256 259/259/259
