g Sludge4
v -23.65186 -2.682209E-05 18.246387
v -19.569304 1.0910183 19.784885
v -17.352776 -2.3007393E-05 24.007713
v -15.4055395 1.715012 21.218128
v -13.674537 4.172325E-06 25.428934
v -11.358487 3.3789124 22.793129
v -10.099127 -4.184246E-05 26.870903
v -7.4739227 5.6956506 24.326187
v -6.6603966 2.9206276E-05 28.077887
v -3.7167647 7.1935434 25.385965
v -3.3407586 -1.0728836E-06 28.87257
v -0.038231473 7.7338195 25.776224
v -0.06290899 -5.6028366E-06 29.167963
v 3.623798 7.161386 25.424444
v 3.214542 1.3232231E-05 28.92517
v 7.323997 5.668385 24.398369
v 6.5280833 3.182888E-05 28.162262
v 11.12771 3.9124494 22.920765
v 9.935942 2.6345253E-05 26.956804
v 15.074221 2.9830184 21.38
v 13.444604 -7.748604E-06 25.535515
v 19.140657 2.9890528 19.953142
v 17.049603 -7.748604E-06 24.12244
v 23.093777 2.3245811E-05 18.361115
v -0.023917777 11.428245 22.027998
v -4.0767975 10.321023 21.578604
v 3.9817576 10.295899 21.603605
v 7.9549375 7.456836 20.408323
v 12.020008 4.3967533 18.816654
v 16.275396 3.4685512 17.330227
v 20.500908 3.9916663 15.716076
v 24.706684 1.7046928E-05 14.260588
v -0.04989819 13.343578 17.438696
v -4.451809 11.666607 17.028008
v -8.160212 7.41581 20.341562
v -12.369616 4.3174043 18.71615
v -16.760498 3.161261 17.220787
v -21.112106 3.394003 15.569693
v -25.437084 2.9444695E-05 14.156343
v -22.369839 6.1698637 11.722084
v -26.77058 -1.7285347E-05 10.361046
v -17.81929 5.890818 13.13163
v -13.291817 5.852537 14.607941
v -8.814855 8.152745 15.913563
v -23.35894 7.344722 7.8885136
v -27.785053 2.1576881E-05 6.754686
v -18.737492 7.702494 8.946586
v -14.058906 6.717735 9.947422
v -9.42392 7.155127 10.930813
v -4.788373 9.45897 11.651213
v -0.11055593 10.9892 11.957735
v 4.5179176 9.503749 11.671717
v 4.2991543 11.694195 17.049042
v 8.507207 7.9037547 15.948994
v 12.814974 5.4845595 14.659328
v 17.18473 5.818802 13.215918
v 21.607063 6.280111 11.822155
v 25.900257 1.9669533E-05 10.441034
v 9.027386 7.5438724 10.992685
v 13.489246 7.4305415 10.054855
v 18.028727 8.809413 9.109932
v 22.519228 8.359683 8.038142
v 26.808468 3.7312508E-05 6.809028
v 13.98615 9.040901 5.1565585
v 9.383663 7.436542 5.5668073
v 4.688964 7.413326 5.898656
v -0.17067783 8.236135 6.003711
v -5.066834 7.0693607 5.8862224
v -9.855393 5.4224734 5.4819894
v -14.596704 6.097332 4.9750805
v -19.300476 7.040414 4.461468
v -23.89579 6.4192653 3.9063683
v -28.307817 -2.3722649E-05 3.3387702
v -24.091871 4.5728784 -0.010786537
v -28.590906 -8.940697E-06 -0.057268504
v -19.52651 6.3035355 0.025470372
v -14.862998 6.9338136 0.01306295
v -10.112808 7.156187 -0.047688846
v -5.2058964 7.197828 -0.13331175
v -0.19485025 7.20834 -0.16935194
v 4.780735 6.607548 -0.13331175
v 9.5683365 7.183785 -0.04056323
v 14.168199 8.439308 0.043268915
v 18.71455 8.90281 0.080994844
v 18.575836 10.168195 4.679305
v 23.039251 8.958243 4.0732546
v 27.216995 3.7312508E-05 3.3880503
v 23.142103 7.569633 0.05912208
v 27.380028 4.6610832E-05 0.008550521
v 9.199577 7.8984637 -5.5440726
v 13.663666 8.612217 -4.983385
v 18.067688 8.059699 -4.373474
v 22.372225 5.824694 -3.8128076
v 26.700245 -2.4914742E-05 -3.368763
v 13.25195 11.020266 -9.864351
v 8.817396 10.253776 -10.668409
v 4.597329 7.071018 -5.960195
v -0.17147811 6.5076084 -6.12743
v -5.0288653 8.333273 -5.9827385
v -9.837225 9.868609 -5.614329
v -14.542888 10.130618 -5.0734267
v -19.111225 8.265517 -4.4357843
v -23.559221 5.0182853 -3.8778014
v -28.0283 -4.172325E-06 -3.4701953
v -22.863422 6.4318595 -7.8171935
v -27.25053 3.516674E-05 -6.968286
v -18.537113 10.218467 -8.9266205
v -14.055979 11.864302 -9.955067
v -9.345585 10.282468 -10.701685
v -4.6051254 7.127421 -11.18976
v -0.18423669 5.2384615 -11.35564
v 4.215227 7.5211215 -11.171207
v -21.835318 6.966594 -11.740389
v -26.054232 1.513958E-05 -10.643948
v -17.615122 9.8958845 -13.043957
v -13.195572 10.411979 -14.210724
v -8.539644 8.197456 -15.023806
v -4.1585197 4.9714594 -15.576128
v -0.2399676 4.010562 -15.7628
v 3.7685795 7.152843 -15.62302
v 8.236488 10.957406 -15.1202965
v 12.742498 12.556099 -14.296085
v 16.795282 10.93411 -13.032059
v 17.397343 9.005519 -8.771084
v 21.503536 5.647182 -7.655214
v 25.825424 5.9604645E-07 -6.821298
v 20.579079 7.063478 -11.60034
v 24.576267 -1.2755394E-05 -10.454195
v -0.29159662 3.3992915 -19.814709
v 3.2991958 5.654486 -19.640192
v 7.3585796 8.945198 -19.10447
v 11.702844 11.138749 -18.266968
v 15.885958 10.742823 -17.132042
v 19.54436 7.8916755 -15.634949
v 23.159056 2.2649765E-06 -14.221882
v 2.883493 3.837254 -23.493225
v -0.32210937 3.0009384 -23.72363
v -3.8198407 3.4354844 -19.598131
v -7.6619883 5.1434455 -18.98732
v -11.971298 7.0475755 -18.067877
v -16.392128 7.542437 -16.999378
v -20.528694 6.1192756 -15.670725
v -24.607428 1.6570091E-05 -14.441071
v -18.913383 4.4672694 -19.699112
v -22.787466 3.373623E-05 -18.430712
v -14.761069 4.653301 -20.81631
v -10.715592 4.003617 -21.92281
v -6.9388795 3.2228045 -22.88696
v -3.5270228 2.9830184 -23.518377
v -16.509756 -4.5895576E-05 -23.686676
v -12.869369 -2.3722649E-05 -24.766973
v -9.398257 -7.748604E-06 -25.829956
v -6.189652 -7.748604E-06 -26.689777
v -3.2023432 -7.748604E-06 -27.236355
v -0.3383396 -7.748604E-06 -27.410164
v 2.5135064 -1.0848045E-05 -27.184595
v 5.452096 -6.556511E-06 -26.573318
v 6.3729615 5.742518 -22.883835
v 10.249365 7.700704 -21.982998
v 14.220259 8.355853 -20.904549
v 18.109985 7.1407437 -19.687016
v 21.465515 2.2530556E-05 -18.20075
v 8.572382 3.6120415E-05 -25.637457
v 11.8974285 1.8715858E-05 -24.54494
v 15.434042 -2.849102E-05 -23.456718
vt 0 0.083333336
vt 0.083333336 0.083333336
vt 0.083333336 0
vt 0.16666667 0.083333336
vt 0.16666667 0
vt 0.25 0.083333336
vt 0.25 0
vt 0.33333334 0.083333336
vt 0.33333334 0
vt 0.4166667 0.083333336
vt 0.4166667 0
vt 0.5 0.083333336
vt 0.5 0
vt 0.5833334 0.083333336
vt 0.5833334 0
vt 0.6666667 0.083333336
vt 0.6666667 0
vt 0.75 0.083333336
vt 0.75 0
vt 0.8333334 0.083333336
vt 0.8333334 0
vt 0.9166667 0.083333336
vt 0.9166667 0
vt 1 0.083333336
vt 0.5 0.16666667
vt 0.4166667 0.16666667
vt 0.5833334 0.16666667
vt 0.6666667 0.16666667
vt 0.75 0.16666667
vt 0.8333334 0.16666667
vt 0.9166667 0.16666667
vt 1 0.16666667
vt 0.5 0.25
vt 0.4166667 0.25
vt 0.33333334 0.16666667
vt 0.25 0.16666667
vt 0.16666667 0.16666667
vt 0.083333336 0.16666667
vt 0 0.16666667
vt 0.083333336 0.25
vt 0 0.25
vt 0.16666667 0.25
vt 0.25 0.25
vt 0.33333334 0.25
vt 0.083333336 0.33333334
vt 0 0.33333334
vt 0.16666667 0.33333334
vt 0.25 0.33333334
vt 0.33333334 0.33333334
vt 0.4166667 0.33333334
vt 0.5 0.33333334
vt 0.5833334 0.33333334
vt 0.5833334 0.25
vt 0.6666667 0.25
vt 0.75 0.25
vt 0.8333334 0.25
vt 0.9166667 0.25
vt 1 0.25
vt 0.6666667 0.33333334
vt 0.75 0.33333334
vt 0.8333334 0.33333334
vt 0.9166667 0.33333334
vt 1 0.33333334
vt 0.75 0.4166667
vt 0.6666667 0.4166667
vt 0.5833334 0.4166667
vt 0.5 0.4166667
vt 0.4166667 0.4166667
vt 0.33333334 0.4166667
vt 0.25 0.4166667
vt 0.16666667 0.4166667
vt 0.083333336 0.4166667
vt 0 0.4166667
vt 0.083333336 0.5
vt 0 0.5
vt 0.16666667 0.5
vt 0.25 0.5
vt 0.33333334 0.5
vt 0.4166667 0.5
vt 0.5 0.5
vt 0.5833334 0.5
vt 0.6666667 0.5
vt 0.75 0.5
vt 0.8333334 0.5
vt 0.8333334 0.4166667
vt 0.9166667 0.4166667
vt 1 0.4166667
vt 0.9166667 0.5
vt 1 0.5
vt 0.6666667 0.5833334
vt 0.75 0.5833334
vt 0.8333334 0.5833334
vt 0.9166667 0.5833334
vt 1 0.5833334
vt 0.75 0.6666667
vt 0.6666667 0.6666667
vt 0.5833334 0.5833334
vt 0.5 0.5833334
vt 0.4166667 0.5833334
vt 0.33333334 0.5833334
vt 0.25 0.5833334
vt 0.16666667 0.5833334
vt 0.083333336 0.5833334
vt 0 0.5833334
vt 0.083333336 0.6666667
vt 0 0.6666667
vt 0.16666667 0.6666667
vt 0.25 0.6666667
vt 0.33333334 0.6666667
vt 0.4166667 0.6666667
vt 0.5 0.6666667
vt 0.5833334 0.6666667
vt 0.083333336 0.75
vt 0 0.75
vt 0.16666667 0.75
vt 0.25 0.75
vt 0.33333334 0.75
vt 0.4166667 0.75
vt 0.5 0.75
vt 0.5833334 0.75
vt 0.6666667 0.75
vt 0.75 0.75
vt 0.8333334 0.75
vt 0.8333334 0.6666667
vt 0.9166667 0.6666667
vt 1 0.6666667
vt 0.9166667 0.75
vt 1 0.75
vt 0.5 0.8333334
vt 0.5833334 0.8333334
vt 0.6666667 0.8333334
vt 0.75 0.8333334
vt 0.8333334 0.8333334
vt 0.9166667 0.8333334
vt 1 0.8333334
vt 0.5833334 0.9166667
vt 0.5 0.9166667
vt 0.4166667 0.8333334
vt 0.33333334 0.8333334
vt 0.25 0.8333334
vt 0.16666667 0.8333334
vt 0.083333336 0.8333334
vt 0 0.8333334
vt 0.083333336 0.9166667
vt 0 0.9166667
vt 0.16666667 0.9166667
vt 0.25 0.9166667
vt 0.33333334 0.9166667
vt 0.4166667 0.9166667
vt 0.083333336 1
vt 0.16666667 1
vt 0.25 1
vt 0.33333334 1
vt 0.4166667 1
vt 0.5 1
vt 0.5833334 1
vt 0.6666667 1
vt 0.6666667 0.9166667
vt 0.75 0.9166667
vt 0.8333334 0.9166667
vt 0.9166667 0.9166667
vt 1 0.9166667
vt 0.75 1
vt 0.8333334 1
vt 0.9166667 1
vn -0.52635324 0.74017155 0.41844743
vn -0.32950133 0.83613706 0.4385243
vn -0.22970879 0.8875349 0.39939407
vn -0.3164386 0.84214777 0.4366391
vn -0.3486714 0.76506126 0.54139596
vn -0.4869721 0.6951752 0.52876234
vn -0.42667556 0.5847015 0.6899798
vn -0.4725009 0.5950209 0.6501485
vn -0.36329034 0.47714725 0.8002191
vn -0.29223964 0.56577426 0.7710354
vn -0.20928763 0.428714 0.8788646
vn -0.0027527034 0.5647965 0.82522565
vn -0.0050113862 0.41668436 0.9090374
vn 0.28790626 0.56653875 0.77210355
vn 0.20165421 0.43131182 0.87937796
vn 0.45480195 0.6013644 0.65689886
vn 0.347457 0.47791296 0.806767
vn 0.44569892 0.7136752 0.540389
vn 0.3891814 0.5668013 0.72613645
vn 0.25182095 0.8525227 0.45802993
vn 0.31628385 0.67974615 0.66174746
vn 0.4003013 0.80293053 0.44165742
vn 0.30889812 0.69856083 0.64544153
vn 0.6767154 0.6305609 0.38006485
vn 0.00058241567 0.8584814 0.51284444
vn -0.4418063 0.7838003 0.43642208
vn 0.45032328 0.7826484 0.42973304
vn 0.59886456 0.7387668 0.30916804
vn 0.4404017 0.85540783 0.2726238
vn 0.1288757 0.93735987 0.32364735
vn 0.501459 0.7604814 0.41256133
vn 0.73981655 0.5647776 0.36564708
vn -0.0011955936 0.99900085 -0.044676363
vn -0.45255053 0.89129734 -0.028055577
vn -0.5954309 0.7258587 0.34437084
vn -0.48417804 0.790718 0.37461534
vn -0.2542137 0.8371347 0.48433554
vn -0.45485285 0.7331061 0.50563276
vn -0.6796409 0.5894367 0.43663812
vn -0.5521756 0.71399516 0.43047982
vn -0.7903858 0.5027264 0.3500808
vn -0.10944916 0.88853854 0.44555596
vn -0.30736005 0.9070504 0.2877313
vn -0.53402567 0.84250075 0.07077537
vn -0.59852403 0.7883584 0.14233802
vn -0.8411262 0.51612055 0.16163608
vn 0.03743166 0.9964449 0.075475015
vn 0.018389963 0.999585 -0.022172244
vn -0.29088873 0.93770504 -0.18998139
vn -0.344248 0.8833316 -0.31814888
vn -0.010001102 0.9233052 -0.38393682
vn 0.31125057 0.9079338 -0.28067645
vn 0.46006614 0.8874487 -0.027820677
vn 0.54536474 0.83342004 0.08937741
vn 0.2851247 0.89947814 0.33112383
vn 0.072944805 0.8634296 0.49916777
vn 0.5936658 0.65949106 0.46112093
vn 0.81349087 0.46631384 0.34753996
vn 0.24016523 0.9705912 -0.016533434
vn -0.03515425 0.9573698 0.2867181
vn 0.007822608 0.9160281 0.4010377
vn 0.6767221 0.6665346 0.31269577
vn 0.8756224 0.42836595 0.22313209
vn -0.21949513 0.9749714 0.035393078
vn -0.08234469 0.99494946 -0.057400685
vn 0.12150458 0.972023 -0.20101747
vn -0.004693818 0.96591204 -0.25882778
vn -0.22537683 0.96055156 -0.16292942
vn -0.11135365 0.9931265 -0.03605643
vn 0.09252788 0.9954899 -0.020942112
vn -0.005628386 0.989677 -0.14320526
vn -0.5940633 0.797086 -0.108363464
vn -0.80972177 0.58609855 -0.028968532
vn -0.62019974 0.7813385 -0.06973181
vn -0.75118625 0.6539924 -0.089516096
vn -0.23681873 0.9653669 0.1094695
vn -0.029978402 0.94725627 0.31907168
vn 0.01368332 0.9503887 0.31076372
vn 0.013135976 0.9930999 0.116532676
vn 0.05325161 0.99725753 -0.05139704
vn -0.014762906 0.9990965 -0.039852414
vn -0.1830806 0.9830823 0.0055457866
vn -0.17701223 0.982091 -0.064529166
vn 0.11754102 0.965934 -0.23055501
vn 0.012034027 0.99986625 0.011075069
vn 0.70644933 0.7075888 0.015729383
vn 0.8964316 0.44110024 0.042907503
vn 0.70195657 0.67816645 -0.21759392
vn 0.8599768 0.48424038 -0.16109337
vn -0.23877685 0.9423961 0.23425451
vn -0.06087164 0.97528267 0.212411
vn 0.30659938 0.9508696 -0.042939235
vn 0.69285333 0.6808236 -0.23755719
vn 0.8047365 0.5373805 -0.25223258
vn -0.0051381434 0.9342655 0.35654134
vn -0.371382 0.8879868 0.27121004
vn -0.20313579 0.97584677 0.0803677
vn 0.07247625 0.9953129 -0.06402723
vn 0.29012907 0.95601094 0.04322149
vn 0.21301822 0.9406787 0.26409596
vn -0.06487699 0.9196706 0.3872945
vn -0.3908078 0.8632399 0.31950912
vn -0.67158544 0.73818624 0.063672334
vn -0.75994456 0.64758563 -0.05583103
vn -0.7444542 0.66668063 -0.036398817
vn -0.81635445 0.5654491 -0.11761232
vn -0.46648955 0.8815343 0.072696865
vn -0.010120898 0.99989116 0.010737344
vn 0.37928137 0.9188182 -0.10917349
vn 0.42027682 0.8798617 -0.2218348
vn -0.053981114 0.979565 -0.19374834
vn -0.45525908 0.888643 0.055250786
vn -0.74234194 0.60948676 -0.27830628
vn -0.83153194 0.48821706 -0.2649504
vn -0.4136734 0.83114815 -0.37157375
vn 0.050030738 0.88684785 -0.459345
vn 0.38929585 0.82196337 -0.41572222
vn 0.3600447 0.8690752 -0.339229
vn -0.20954448 0.9486978 -0.23677753
vn -0.58022153 0.8066952 -0.112187155
vn -0.46821776 0.8824736 -0.04486101
vn -0.011071104 0.99976236 0.018779688
vn 0.5062051 0.8596127 0.06944372
vn 0.44128308 0.8705229 0.21785094
vn 0.746837 0.65938306 -0.08630359
vn 0.81252 0.5551477 -0.17782643
vn 0.8062192 0.5856083 -0.084103145
vn 0.86013126 0.47610435 -0.18302688
vn -0.24162722 0.94909775 -0.20206396
vn -0.52161914 0.8069752 -0.27695566
vn -0.43902433 0.8048706 -0.39930052
vn -0.058217123 0.87835187 -0.47445646
vn 0.44438332 0.8100311 -0.38258734
vn 0.8068722 0.51224124 -0.2942215
vn 0.8788853 0.37730238 -0.29189655
vn -0.22313981 0.7780595 -0.587224
vn -0.12417898 0.88003886 -0.45837888
vn 0.19989926 0.9425765 -0.26756263
vn 0.28572991 0.8462217 -0.4497414
vn 0.070689954 0.79954016 -0.5964383
vn -0.26727647 0.7701646 -0.5791457
vn -0.6723935 0.59299785 -0.44299042
vn -0.802164 0.4658084 -0.3735712
vn -0.52648443 0.5744727 -0.6267337
vn -0.7412303 0.4467775 -0.5009664
vn -0.18031414 0.6870357 -0.70389545
vn -0.033994593 0.75075305 -0.6597078
vn 0.03757266 0.8374615 -0.54520327
vn 0.0061464226 0.8966703 -0.4426564
vn -0.33284083 0.5211189 -0.7859084
vn -0.19116451 0.6085717 -0.7701276
vn -0.12757969 0.67960376 -0.7224002
vn -0.0948747 0.74096465 -0.66480845
vn -0.063786566 0.7698653 -0.63501084
vn -0.04604981 0.7550474 -0.6540512
vn -0.041162785 0.67586565 -0.7358746
vn 0.03393152 0.5422088 -0.83955836
vn -0.14737536 0.65910864 -0.7374661
vn 0.06336362 0.56792754 -0.820636
vn 0.3034376 0.51211137 -0.80353445
vn 0.6390167 0.40479976 -0.65406024
vn 0.8176662 0.2796509 -0.50320715
vn 0.16438183 0.41344127 -0.8955696
vn 0.27456936 0.33920553 -0.8997506
vn 0.43126196 0.2730468 -0.8599177
g Sludge4_0
f 3/3/3 2/2/2 1/1/1
f 4/4/4 2/2/2 3/3/3
f 5/5/5 4/4/4 3/3/3
f 6/6/6 4/4/4 5/5/5
f 7/7/7 6/6/6 5/5/5
f 8/8/8 6/6/6 7/7/7
f 9/9/9 8/8/8 7/7/7
f 10/10/10 8/8/8 9/9/9
f 11/11/11 10/10/10 9/9/9
f 12/12/12 10/10/10 11/11/11
f 13/13/13 12/12/12 11/11/11
f 14/14/14 12/12/12 13/13/13
f 15/15/15 14/14/14 13/13/13
f 16/16/16 14/14/14 15/15/15
f 17/17/17 16/16/16 15/15/15
f 18/18/18 16/16/16 17/17/17
f 19/19/19 18/18/18 17/17/17
f 20/20/20 18/18/18 19/19/19
f 21/21/21 20/20/20 19/19/19
f 22/22/22 20/20/20 21/21/21
f 23/23/23 22/22/22 21/21/21
f 24/24/24 22/22/22 23/23/23
f 12/12/12 25/25/25 10/10/10
f 25/25/25 26/26/26 10/10/10
f 27/27/27 25/25/25 12/12/12
f 14/14/14 27/27/27 12/12/12
f 28/28/28 27/27/27 14/14/14
f 16/16/16 28/28/28 14/14/14
f 29/29/29 28/28/28 16/16/16
f 18/18/18 29/29/29 16/16/16
f 30/30/30 29/29/29 18/18/18
f 20/20/20 30/30/30 18/18/18
f 31/31/31 30/30/30 20/20/20
f 22/22/22 31/31/31 20/20/20
f 32/32/32 31/31/31 22/22/22
f 24/24/24 32/32/32 22/22/22
f 25/25/25 33/33/33 26/26/26
f 33/33/33 34/34/34 26/26/26
f 26/26/26 34/34/34 35/35/35
f 26/26/26 35/35/35 8/8/8
f 8/8/8 35/35/35 6/6/6
f 35/35/35 36/36/36 6/6/6
f 6/6/6 36/36/36 4/4/4
f 36/36/36 37/37/37 4/4/4
f 4/4/4 37/37/37 2/2/2
f 37/37/37 38/38/38 2/2/2
f 2/2/2 38/38/38 1/1/1
f 38/38/38 39/39/39 1/1/1
f 38/38/38 40/40/40 39/39/39
f 40/40/40 41/41/41 39/39/39
f 42/42/42 40/40/40 38/38/38
f 37/37/37 42/42/42 38/38/38
f 43/43/43 42/42/42 37/37/37
f 36/36/36 43/43/43 37/37/37
f 44/44/44 43/43/43 36/36/36
f 35/35/35 44/44/44 36/36/36
f 34/34/34 44/44/44 35/35/35
f 40/40/40 45/45/45 41/41/41
f 45/45/45 46/46/46 41/41/41
f 47/47/47 45/45/45 40/40/40
f 42/42/42 47/47/47 40/40/40
f 48/48/48 47/47/47 42/42/42
f 43/43/43 48/48/48 42/42/42
f 49/49/49 48/48/48 43/43/43
f 44/44/44 49/49/49 43/43/43
f 50/50/50 49/49/49 44/44/44
f 34/34/34 50/50/50 44/44/44
f 51/51/51 50/50/50 34/34/34
f 33/33/33 51/51/51 34/34/34
f 52/52/52 51/51/51 33/33/33
f 53/53/53 52/52/52 33/33/33
f 53/53/53 33/33/33 25/25/25
f 27/27/27 53/53/53 25/25/25
f 54/54/54 53/53/53 27/27/27
f 28/28/28 54/54/54 27/27/27
f 55/55/55 54/54/54 28/28/28
f 29/29/29 55/55/55 28/28/28
f 56/56/56 55/55/55 29/29/29
f 30/30/30 56/56/56 29/29/29
f 57/57/57 56/56/56 30/30/30
f 31/31/31 57/57/57 30/30/30
f 58/58/58 57/57/57 31/31/31
f 32/32/32 58/58/58 31/31/31
f 59/59/59 52/52/52 53/53/53
f 54/54/54 59/59/59 53/53/53
f 60/60/60 59/59/59 54/54/54
f 55/55/55 60/60/60 54/54/54
f 61/61/61 60/60/60 55/55/55
f 56/56/56 61/61/61 55/55/55
f 62/62/62 61/61/61 56/56/56
f 57/57/57 62/62/62 56/56/56
f 63/63/63 62/62/62 57/57/57
f 58/58/58 63/63/63 57/57/57
f 60/60/60 64/64/64 59/59/59
f 64/64/64 65/65/65 59/59/59
f 59/59/59 65/65/65 52/52/52
f 65/65/65 66/66/66 52/52/52
f 52/52/52 66/66/66 51/51/51
f 66/66/66 67/67/67 51/51/51
f 51/51/51 67/67/67 50/50/50
f 67/67/67 68/68/68 50/50/50
f 50/50/50 68/68/68 49/49/49
f 68/68/68 69/69/69 49/49/49
f 49/49/49 69/69/69 48/48/48
f 69/69/69 70/70/70 48/48/48
f 48/48/48 70/70/70 47/47/47
f 70/70/70 71/71/71 47/47/47
f 47/47/47 71/71/71 45/45/45
f 71/71/71 72/72/72 45/45/45
f 45/45/45 72/72/72 46/46/46
f 72/72/72 73/73/73 46/46/46
f 72/72/72 74/74/74 73/73/73
f 74/74/74 75/75/75 73/73/73
f 76/76/76 74/74/74 72/72/72
f 71/71/71 76/76/76 72/72/72
f 77/77/77 76/76/76 71/71/71
f 70/70/70 77/77/77 71/71/71
f 78/78/78 77/77/77 70/70/70
f 69/69/69 78/78/78 70/70/70
f 79/79/79 78/78/78 69/69/69
f 68/68/68 79/79/79 69/69/69
f 80/80/80 79/79/79 68/68/68
f 67/67/67 80/80/80 68/68/68
f 81/81/81 80/80/80 67/67/67
f 66/66/66 81/81/81 67/67/67
f 82/82/82 81/81/81 66/66/66
f 65/65/65 82/82/82 66/66/66
f 83/83/83 82/82/82 65/65/65
f 64/64/64 83/83/83 65/65/65
f 84/84/84 83/83/83 64/64/64
f 85/85/85 84/84/84 64/64/64
f 85/85/85 64/64/64 60/60/60
f 61/61/61 85/85/85 60/60/60
f 86/86/86 85/85/85 61/61/61
f 62/62/62 86/86/86 61/61/61
f 87/87/87 86/86/86 62/62/62
f 63/63/63 87/87/87 62/62/62
f 88/88/88 84/84/84 85/85/85
f 86/86/86 88/88/88 85/85/85
f 89/89/89 88/88/88 86/86/86
f 87/87/87 89/89/89 86/86/86
f 82/82/82 90/90/90 81/81/81
f 91/91/91 90/90/90 82/82/82
f 83/83/83 91/91/91 82/82/82
f 92/92/92 91/91/91 83/83/83
f 84/84/84 92/92/92 83/83/83
f 93/93/93 92/92/92 84/84/84
f 88/88/88 93/93/93 84/84/84
f 94/94/94 93/93/93 88/88/88
f 89/89/89 94/94/94 88/88/88
f 91/91/91 95/95/95 90/90/90
f 95/95/95 96/96/96 90/90/90
f 90/90/90 96/96/96 97/97/97
f 90/90/90 97/97/97 81/81/81
f 81/81/81 97/97/97 80/80/80
f 97/97/97 98/98/98 80/80/80
f 80/80/80 98/98/98 79/79/79
f 98/98/98 99/99/99 79/79/79
f 79/79/79 99/99/99 78/78/78
f 99/99/99 100/100/100 78/78/78
f 78/78/78 100/100/100 77/77/77
f 100/100/100 101/101/101 77/77/77
f 77/77/77 101/101/101 76/76/76
f 101/101/101 102/102/102 76/76/76
f 76/76/76 102/102/102 74/74/74
f 102/102/102 103/103/103 74/74/74
f 74/74/74 103/103/103 75/75/75
f 103/103/103 104/104/104 75/75/75
f 103/103/103 105/105/105 104/104/104
f 105/105/105 106/106/106 104/104/104
f 107/107/107 105/105/105 103/103/103
f 102/102/102 107/107/107 103/103/103
f 108/108/108 107/107/107 102/102/102
f 101/101/101 108/108/108 102/102/102
f 109/109/109 108/108/108 101/101/101
f 100/100/100 109/109/109 101/101/101
f 110/110/110 109/109/109 100/100/100
f 99/99/99 110/110/110 100/100/100
f 111/111/111 110/110/110 99/99/99
f 98/98/98 111/111/111 99/99/99
f 112/112/112 111/111/111 98/98/98
f 97/97/97 112/112/112 98/98/98
f 96/96/96 112/112/112 97/97/97
f 105/105/105 113/113/113 106/106/106
f 113/113/113 114/114/114 106/106/106
f 115/115/115 113/113/113 105/105/105
f 107/107/107 115/115/115 105/105/105
f 116/116/116 115/115/115 107/107/107
f 108/108/108 116/116/116 107/107/107
f 117/117/117 116/116/116 108/108/108
f 109/109/109 117/117/117 108/108/108
f 118/118/118 117/117/117 109/109/109
f 110/110/110 118/118/118 109/109/109
f 119/119/119 118/118/118 110/110/110
f 111/111/111 119/119/119 110/110/110
f 120/120/120 119/119/119 111/111/111
f 112/112/112 120/120/120 111/111/111
f 121/121/121 120/120/120 112/112/112
f 96/96/96 121/121/121 112/112/112
f 122/122/122 121/121/121 96/96/96
f 95/95/95 122/122/122 96/96/96
f 123/123/123 122/122/122 95/95/95
f 124/124/124 123/123/123 95/95/95
f 124/124/124 95/95/95 91/91/91
f 92/92/92 124/124/124 91/91/91
f 125/125/125 124/124/124 92/92/92
f 93/93/93 125/125/125 92/92/92
f 126/126/126 125/125/125 93/93/93
f 94/94/94 126/126/126 93/93/93
f 127/127/127 123/123/123 124/124/124
f 125/125/125 127/127/127 124/124/124
f 128/128/128 127/127/127 125/125/125
f 126/126/126 128/128/128 125/125/125
f 119/119/119 129/129/129 118/118/118
f 130/130/130 129/129/129 119/119/119
f 120/120/120 130/130/130 119/119/119
f 131/131/131 130/130/130 120/120/120
f 121/121/121 131/131/131 120/120/120
f 132/132/132 131/131/131 121/121/121
f 122/122/122 132/132/132 121/121/121
f 133/133/133 132/132/132 122/122/122
f 123/123/123 133/133/133 122/122/122
f 134/134/134 133/133/133 123/123/123
f 127/127/127 134/134/134 123/123/123
f 135/135/135 134/134/134 127/127/127
f 128/128/128 135/135/135 127/127/127
f 130/130/130 136/136/136 129/129/129
f 136/136/136 137/137/137 129/129/129
f 129/129/129 137/137/137 138/138/138
f 129/129/129 138/138/138 118/118/118
f 118/118/118 138/138/138 117/117/117
f 138/138/138 139/139/139 117/117/117
f 117/117/117 139/139/139 116/116/116
f 139/139/139 140/140/140 116/116/116
f 116/116/116 140/140/140 115/115/115
f 140/140/140 141/141/141 115/115/115
f 115/115/115 141/141/141 113/113/113
f 141/141/141 142/142/142 113/113/113
f 113/113/113 142/142/142 114/114/114
f 142/142/142 143/143/143 114/114/114
f 142/142/142 144/144/144 143/143/143
f 144/144/144 145/145/145 143/143/143
f 146/146/146 144/144/144 142/142/142
f 141/141/141 146/146/146 142/142/142
f 147/147/147 146/146/146 141/141/141
f 140/140/140 147/147/147 141/141/141
f 148/148/148 147/147/147 140/140/140
f 139/139/139 148/148/148 140/140/140
f 149/149/149 148/148/148 139/139/139
f 138/138/138 149/149/149 139/139/139
f 137/137/137 149/149/149 138/138/138
f 144/144/144 150/150/150 145/145/145
f 151/151/151 150/150/150 144/144/144
f 146/146/146 151/151/151 144/144/144
f 152/152/152 151/151/151 146/146/146
f 147/147/147 152/152/152 146/146/146
f 153/153/153 152/152/152 147/147/147
f 148/148/148 153/153/153 147/147/147
f 154/154/154 153/153/153 148/148/148
f 149/149/149 154/154/154 148/148/148
f 155/155/155 154/154/154 149/149/149
f 137/137/137 155/155/155 149/149/149
f 156/156/156 155/155/155 137/137/137
f 136/136/136 156/156/156 137/137/137
f 157/157/157 156/156/156 136/136/136
f 158/158/158 157/157/157 136/136/136
f 158/158/158 136/136/136 130/130/130
f 131/131/131 158/158/158 130/130/130
f 159/159/159 158/158/158 131/131/131
f 132/132/132 159/159/159 131/131/131
f 160/160/160 159/159/159 132/132/132
f 133/133/133 160/160/160 132/132/132
f 161/161/161 160/160/160 133/133/133
f 134/134/134 161/161/161 133/133/133
f 162/162/162 161/161/161 134/134/134
f 135/135/135 162/162/162 134/134/134
f 163/163/163 157/157/157 158/158/158
f 159/159/159 163/163/163 158/158/158
f 164/164/164 163/163/163 159/159/159
f 160/160/160 164/164/164 159/159/159
f 165/165/165 164/164/164 160/160/160
f 161/161/161 165/165/165 160/160/160
f 162/162/162 165/165/165 161/161/161
f 10/10/10 26/26/26 8/8/8
