g SM_MAP_lilypad_01
v 0.6380114 0.09473235 -0.20105532
v 0.66792184 0.09579874 -0.004869146
v 0.5716341 0.13647705 0.0014742377
v 0.54307425 0.13675028 -0.16577806
v 0.55004025 0.09413695 -0.3946638
v 0.47208217 0.13703914 -0.3290613
v 0.39306006 0.094025575 -0.54425526
v 0.34344733 0.13732782 -0.45912683
v 0.20409621 0.09366867 -0.6365271
v 0.18249331 0.13758267 -0.54161173
v 0.005013698 0.09313383 -0.6686198
v 0.010955698 0.13779606 -0.5717081
v -0.1898447 0.09261199 -0.6417213
v -0.15963703 0.13796574 -0.5514811
v -0.3984904 0.09090146 -0.5683628
v -0.3444463 0.13797098 -0.49086887
v -0.5680159 0.09008597 -0.43369296
v -0.49025485 0.13802397 -0.37530667
v -0.6669288 0.09059286 -0.2394523
v -0.5746345 0.13806172 -0.20987016
v -0.6835569 0.0918161 -0.010372915
v -0.58882624 0.13806584 -0.012005948
v -0.6272595 0.092941016 0.22028032
v -0.5362141 0.13803189 0.19126356
v -0.5255264 0.09346737 0.39885896
v -0.44504902 0.13789631 0.3458478
v -0.37398297 0.09386362 0.539261
v -0.31233937 0.13769874 0.46571139
v -0.17757747 0.094073825 0.6326713
v -0.13853885 0.13746724 0.54246086
v 0.054330792 0.094024085 0.6627296
v 0.063554004 0.13719018 0.5636871
v 0.2904605 0.093198694 0.6217884
v 0.2647842 0.13685158 0.5257665
v 0.49086967 0.093793616 0.50864244
v 0.43265402 0.13639672 0.42880905
v 0.5691257 0.0896587 0.43826666
v 0.49773797 0.13410467 0.37221256
v 0.20524463 0.09007679 0.30762568
v 0.38362965 0.11180936 0.24987467
v 0.45743862 0.06169224 0.2101798
v 0.56958616 0.08118698 0.3317032
v 0.32747173 0.050064955 0.101107836
v 0.28209698 0.099967256 0.17177969
v 0.13723645 0.07815121 0.0502818
v -0.058316607 0.086085595 -0.030245543
v 0.10040001 0.090017706 0.3256686
v -0.009246212 0.09006006 0.31583127
v -0.1076099 0.09009298 0.27816126
v -0.18336345 0.09013661 0.21297361
v -0.23101382 0.09017424 0.1301307
v -0.2513834 0.09021218 0.030437784
v -0.23935634 0.09024519 -0.070399046
v -0.19464473 0.0902522 -0.1593584
v -0.121418186 0.09022254 -0.2283272
v -0.030961834 0.09018276 -0.27066118
v 0.062171634 0.09013845 -0.2866337
v 0.1577648 0.090084724 -0.2731398
v 0.24318852 0.09003878 -0.2286191
v 0.31081638 0.08997645 -0.16027215
v 0.35564372 0.089981705 -0.07941455
v 0.31898472 0.10013143 0.059866913
v 0.4265257 0.111562535 0.08465055
v 0.4515364 0.06287385 0.16605696
v 0.60486096 0.0837773 0.15959774
v 0.5796246 0.13436048 0.080978744
v 0.6744693 0.09169852 0.087985426
v 0.56958616 0.08118698 0.3317032
v 0.57769954 -0.07055017 0.34035435
v 0.57097965 -0.068973705 0.45084506
v 0.5691257 0.0896587 0.43826666
v 0.6744693 0.09169852 0.087985426
v 0.6910784 -0.063999295 0.091605425
v 0.6219441 -0.06518421 0.1681246
v 0.60486096 0.0837773 0.15959774
v 0.4515364 0.06287385 0.16605696
v 0.30385542 0.052439477 0.14345196
v 0.31898472 0.10013143 0.059866913
v -0.058316607 0.086085595 -0.030245543
v 0.30385542 0.052439477 0.14345196
v 0.13723645 0.07815121 0.0502818
v -0.058316607 0.086085595 -0.030245543
v 0.6584484 -0.06377891 -0.20488892
v 0.6380114 0.09473235 -0.20105532
v 0.55004025 0.09413695 -0.3946638
v 0.5679615 -0.06424144 -0.40315968
v 0.39306006 0.094025575 -0.54425526
v 0.40619883 -0.06529329 -0.55551183
v 0.20409621 0.09366867 -0.6365271
v 0.2138457 -0.06622874 -0.6496716
v 0.6887061 -0.06408662 -0.005407132
v 0.66792184 0.09579874 -0.004869146
v 0.6744693 0.09169852 0.087985426
v 0.6910784 -0.063999295 0.091605425
v 0.2138457 -0.06622874 -0.6496716
v 0.20409621 0.09366867 -0.6365271
v 0.005013698 0.09313383 -0.6686198
v 0.009250453 -0.06751704 -0.6817578
v -0.1898447 0.09261199 -0.6417213
v -0.19024807 -0.069707334 -0.65084743
v -0.3984904 0.09090146 -0.5683628
v -0.3974637 -0.072484955 -0.570828
v -0.5680159 0.09008597 -0.43369296
v -0.56764954 -0.07418586 -0.4307278
v -0.6669288 0.09059286 -0.2394523
v -0.668883 -0.07326019 -0.23239267
v -0.668883 -0.07326019 -0.23239267
v -0.6669288 0.09059286 -0.2394523
v -0.6835569 0.0918161 -0.010372915
v -0.6886767 -0.07065131 -0.0021012397
v -0.6272595 0.092941016 0.22028032
v -0.636774 -0.06813606 0.22762963
v -0.5255264 0.09346737 0.39885896
v -0.53581554 -0.0663821 0.4100476
v -0.37398297 0.09386362 0.539261
v -0.38180926 -0.06518962 0.55461764
v -0.38180926 -0.06518962 0.55461764
v -0.37398297 0.09386362 0.539261
v -0.17757747 0.094073825 0.6326713
v -0.18376163 -0.06445317 0.6503331
v 0.054330792 0.094024085 0.6627296
v 0.049578328 -0.06469481 0.68168783
v 0.2904605 0.093198694 0.6217884
v 0.2881906 -0.066046074 0.6387355
v 0.49086967 0.093793616 0.50864244
v 0.4914636 -0.06732191 0.52495396
v 0.5691257 0.0896587 0.43826666
v 0.57097965 -0.068973705 0.45084506
v 0.56958616 0.08118698 0.3317032
v 0.45743862 0.06169224 0.2101798
v 0.46537226 -0.070262335 0.2095915
v 0.57769954 -0.07055017 0.34035435
v 0.32747173 0.050064955 0.101107836
v 0.33387396 -0.070007995 0.09698895
v 0.13723645 0.07815121 0.0502818
v 0.19176674 -0.06918057 0.07408711
v 0.19176674 -0.06918057 0.07408711
v 0.13723645 0.07815121 0.0502818
v 0.30385542 0.052439477 0.14345196
v 0.3050712 -0.06613347 0.15700912
v 0.4515364 0.06287385 0.16605696
v 0.45985135 -0.06650946 0.17741254
v 0.60486096 0.0837773 0.15959774
v 0.6219441 -0.06518421 0.1681246
vt 0.34838867 0.20935059
vt 0.33862305 0.22705078
vt 0.34375 0.22888184
vt 0.3527832 0.2133789
vt 0.3642578 0.19421387
vt 0.3671875 0.19970703
vt 0.3852539 0.1854248
vt 0.38623047 0.19116211
vt 0.40820312 0.18334961
vt 0.40722656 0.18896484
vt 0.4296875 0.18786621
vt 0.4272461 0.1928711
vt 0.44921875 0.19812012
vt 0.44555664 0.20227051
vt 0.46801758 0.21459961
vt 0.46313477 0.21716309
vt 0.4794922 0.23474121
vt 0.4741211 0.23608398
vt 0.48291016 0.25732422
vt 0.47729492 0.25756836
vt 0.47729492 0.28173828
vt 0.47192383 0.28027344
vt 0.4633789 0.3046875
vt 0.45874023 0.30151367
vt 0.44677734 0.31982422
vt 0.44311523 0.31567383
vt 0.42651367 0.32958984
vt 0.42407227 0.32470703
vt 0.4033203 0.3334961
vt 0.40234375 0.32763672
vt 0.37841797 0.32958984
vt 0.37939453 0.32373047
vt 0.35595703 0.31860352
vt 0.35888672 0.31347656
vt 0.34033203 0.30151367
vt 0.3449707 0.29858398
vt 0.33740234 0.29516602
vt 0.34106445 0.29296875
vt 0.3713379 0.28955078
vt 0.35253906 0.28149414
vt 0.34765625 0.27978516
vt 0.33813477 0.29052734
vt 0.3642578 0.2692871
vt 0.36547852 0.27319336
vt 0.38745117 0.25952148
vt 0.41137695 0.2578125
vt 0.38305664 0.29541016
vt 0.39575195 0.29785156
vt 0.40795898 0.29663086
vt 0.4189453 0.29174805
vt 0.4272461 0.2836914
vt 0.43310547 0.27270508
vt 0.43530273 0.2602539
vt 0.43359375 0.24804688
vt 0.42822266 0.2368164
vt 0.41992188 0.22802734
vt 0.4104004 0.2220459
vt 0.39916992 0.21936035
vt 0.3876953 0.22045898
vt 0.3774414 0.22509766
vt 0.36865234 0.23242188
vt 0.36499023 0.24841309
vt 0.35302734 0.24304199
vt 0.34838867 0.24560547
vt 0.33813477 0.23718262
vt 0.3408203 0.234375
vt 0.33691406 0.23303223
vt 0.33813477 0.29052734
vt 0.32592773 0.28710938
vt 0.32495117 0.29614258
vt 0.33740234 0.29516602
vt 0.33691406 0.23303223
vt 0.32495117 0.23620605
vt 0.32763672 0.24316406
vt 0.33813477 0.23718262
vt 0.34838867 0.24560547
vt 0.36401367 0.25219727
vt 0.36499023 0.24841309
vt 0.41137695 0.2578125
vt 0.36401367 0.25219727
vt 0.38745117 0.25952148
vt 0.41137695 0.2578125
vt 0.33569336 0.2019043
vt 0.34838867 0.20935059
vt 0.3642578 0.19421387
vt 0.3552246 0.18310547
vt 0.3852539 0.1854248
vt 0.38061523 0.171875
vt 0.40820312 0.18334961
vt 0.4074707 0.16894531
vt 0.32495117 0.22595215
vt 0.33862305 0.22705078
vt 0.33691406 0.23303223
vt 0.32495117 0.23620605
vt 0.4074707 0.16894531
vt 0.40820312 0.18334961
vt 0.4296875 0.18786621
vt 0.43359375 0.1739502
vt 0.44921875 0.19812012
vt 0.45703125 0.18591309
vt 0.46801758 0.21459961
vt 0.47875977 0.20532227
vt 0.4794922 0.23474121
vt 0.49365234 0.22998047
vt 0.48291016 0.25732422
vt 0.4970703 0.2590332
vt 0.4970703 0.2590332
vt 0.48291016 0.25732422
vt 0.47729492 0.28173828
vt 0.48999023 0.28833008
vt 0.4633789 0.3046875
vt 0.4741211 0.31445312
vt 0.44677734 0.31982422
vt 0.45410156 0.3322754
vt 0.42651367 0.32958984
vt 0.42993164 0.34350586
vt 0.42993164 0.34350586
vt 0.42651367 0.32958984
vt 0.4033203 0.3334961
vt 0.40283203 0.34716797
vt 0.37841797 0.32958984
vt 0.37402344 0.34326172
vt 0.35595703 0.31860352
vt 0.34716797 0.32983398
vt 0.34033203 0.30151367
vt 0.32763672 0.30737305
vt 0.33740234 0.29516602
vt 0.32495117 0.29614258
vt 0.33813477 0.29052734
vt 0.34765625 0.27978516
vt 0.3400879 0.27197266
vt 0.32592773 0.28710938
vt 0.3642578 0.2692871
vt 0.36035156 0.26245117
vt 0.38745117 0.25952148
vt 0.3762207 0.26000977
vt 0.3762207 0.26000977
vt 0.38745117 0.25952148
vt 0.36401367 0.25219727
vt 0.36083984 0.25952148
vt 0.34838867 0.24560547
vt 0.34179688 0.2541504
vt 0.33813477 0.23718262
vt 0.32763672 0.24316406
vn 0.93553495 0.2564825 -0.2428807
vn 0.96183604 0.26905537 -0.049805
vn -0.10995697 0.9933028 -0.03548265
vn -0.089409165 0.9951822 0.040228866
vn 0.7790608 0.25071183 -0.5746371
vn -0.08695842 0.99381316 0.06909206
vn 0.55247074 0.2417747 -0.7976973
vn -0.06350085 0.9933108 0.09644292
vn 0.31988823 0.2302495 -0.91905206
vn -0.029324446 0.9937152 0.10802832
vn 0.041816913 0.21304566 -0.976147
vn 0.0029573392 0.99447906 0.10489311
vn -0.22277439 0.18765514 -0.9566384
vn 0.029209465 0.9946367 0.09921977
vn -0.47730967 0.15395635 -0.86514324
vn 0.049560737 0.996354 0.06944479
vn -0.76800245 0.1405058 -0.62484425
vn 0.063229434 0.9969168 0.046466038
vn -0.9521913 0.14950977 -0.26641837
vn 0.075758055 0.99678874 0.025943464
vn -0.9822483 0.17228928 0.07419278
vn 0.08805446 0.99611557 0.0003293391
vn -0.9182434 0.19652487 0.34381256
vn 0.09447266 0.99507374 -0.030053541
vn -0.7701903 0.21080346 0.6019706
vn 0.08575257 0.9946201 -0.058114175
vn -0.5599258 0.21948017 0.79894394
vn 0.06923945 0.99385023 -0.08641462
vn -0.32017553 0.22347337 0.9206233
vn 0.042705398 0.9931787 -0.108500324
vn -0.0470822 0.22077312 0.9741882
vn 0.010038591 0.99291396 -0.11841015
vn 0.27466163 0.20919251 0.93850917
vn -0.011394209 0.99597067 -0.0889525
vn 0.48419496 0.21282531 0.84868175
vn -0.081139036 0.99519604 -0.054784156
vn 0.8198961 0.17814401 0.5440911
vn -0.0120022455 0.9853711 -0.16999935
vn -0.084092975 0.9861953 -0.14264303
vn -0.038230352 0.9725556 -0.22950804
vn 0.7450356 0.21167849 -0.6325458
vn 0.88208944 0.20361236 -0.4248061
vn 0.64247555 0.31769016 -0.69735086
vn 0.01093714 0.9931805 -0.116072915
vn 0.51227874 0.538941 -0.66866505
vn -0.0038709326 0.9999851 -0.0038552051
vn 0.007121705 0.97963893 -0.20064124
vn 0.062328476 0.9792718 -0.19272222
vn 0.11279186 0.97928655 -0.16815394
vn 0.15357473 0.9802698 -0.12444228
vn 0.17950375 0.98119044 -0.07101952
vn 0.18423593 0.98274535 -0.016394908
vn 0.16810195 0.98471606 0.0455631
vn 0.13349538 0.9852668 0.10690329
vn 0.08657082 0.9836886 0.15767768
vn 0.040528893 0.9817104 0.18601686
vn -0.012627918 0.9803987 0.19661899
vn -0.07183163 0.9789315 0.19113687
vn -0.12554522 0.9783759 0.16437398
vn -0.17220087 0.97843456 0.11407297
vn -0.17624272 0.9843413 0.0032416254
vn -0.104118556 0.99171174 0.075279765
vn -0.2392696 0.9650906 0.106536806
vn -0.109923884 0.18283531 0.97697896
vn 0.2143087 0.1967868 0.9567376
vn -0.15866263 0.9836114 0.08564359
vn 0.9214721 0.21594226 0.32289025
vn 0.88208944 0.20361236 -0.4248061
vn 0.9141905 0.01920598 -0.40482956
vn 0.8468646 0.0059900125 0.53177476
vn 0.8198961 0.17814401 0.5440911
vn 0.9214721 0.21594226 0.32289025
vn 0.941391 0.046932593 0.33403656
vn 0.27736607 -0.0031323475 0.9607592
vn 0.2143087 0.1967868 0.9567376
vn -0.109923884 0.18283531 0.97697896
vn -0.25890067 0.27991638 0.92445517
vn -0.104118556 0.99171174 0.075279765
vn -0.0038709326 0.9999851 -0.0038552051
vn -0.25890067 0.27991638 0.92445517
vn -0.26914352 0.50606865 0.8194244
vn -0.0038709326 0.9999851 -0.0038552051
vn 0.9666112 0.05219353 -0.25087535
vn 0.93553495 0.2564825 -0.2428807
vn 0.7790608 0.25071183 -0.5746371
vn 0.80519456 0.0463019 -0.59120035
vn 0.55247074 0.2417747 -0.7976973
vn 0.57126355 0.037365507 -0.8199158
vn 0.31988823 0.2302495 -0.91905206
vn 0.33311954 0.027914036 -0.9424714
vn 0.9971852 0.05329007 -0.052743476
vn 0.96183604 0.26905537 -0.049805
vn 0.9214721 0.21594226 0.32289025
vn 0.941391 0.046932593 0.33403656
vn 0.33311954 0.027914036 -0.9424714
vn 0.31988823 0.2302495 -0.91905206
vn 0.041816913 0.21304566 -0.976147
vn 0.046997894 0.011513051 -0.9988286
vn -0.22277439 0.18765514 -0.9566384
vn -0.22622707 -0.016253753 -0.97393906
vn -0.47730967 0.15395635 -0.86514324
vn -0.4800274 -0.046391424 -0.87602603
vn -0.76800245 0.1405058 -0.62484425
vn -0.77537984 -0.06490078 -0.62815124
vn -0.9521913 0.14950977 -0.26641837
vn -0.9639645 -0.05558378 -0.26015934
vn -0.9639645 -0.05558378 -0.26015934
vn -0.9521913 0.14950977 -0.26641837
vn -0.9822483 0.17228928 0.07419278
vn -0.99611133 -0.029840786 0.082895786
vn -0.9182434 0.19652487 0.34381256
vn -0.93551534 -0.0059686475 0.3532357
vn -0.7701903 0.21080346 0.6019706
vn -0.7861197 0.012182443 0.6179542
vn -0.5599258 0.21948017 0.79894394
vn -0.57167697 0.022105284 0.82018095
vn -0.57167697 0.022105284 0.82018095
vn -0.5599258 0.21948017 0.79894394
vn -0.32017553 0.22347337 0.9206233
vn -0.3272045 0.02492524 0.9446248
vn -0.0470822 0.22077312 0.9741882
vn -0.04802168 0.019533545 0.9986553
vn 0.27466163 0.20919251 0.93850917
vn 0.2813146 0.008523145 0.9595777
vn 0.48419496 0.21282531 0.84868175
vn 0.494883 0.0021648696 0.8689569
vn 0.8198961 0.17814401 0.5440911
vn 0.8468646 0.0059900125 0.53177476
vn 0.88208944 0.20361236 -0.4248061
vn 0.7450356 0.21167849 -0.6325458
vn 0.7814173 0.022200916 -0.6236137
vn 0.9141905 0.01920598 -0.40482956
vn 0.64247555 0.31769016 -0.69735086
vn 0.69763964 0.01619982 -0.7162656
vn 0.51227874 0.538941 -0.66866505
vn 0.63640696 0.009111158 -0.7712997
vn -0.28260747 -0.009822265 0.9591853
vn -0.26914352 0.50606865 0.8194244
vn -0.25890067 0.27991638 0.92445517
vn -0.24298465 -0.017420594 0.96987367
vn -0.109923884 0.18283531 0.97697896
vn -0.076470315 -0.022623094 0.99681515
vn 0.2143087 0.1967868 0.9567376
vn 0.27736607 -0.0031323475 0.9607592
g SM_MAP_lilypad_01_0
f 3/3/3 2/2/2 1/1/1
f 4/4/4 3/3/3 1/1/1
f 1/1/1 5/5/5 4/4/4
f 5/5/5 6/6/6 4/4/4
f 5/5/5 7/7/7 6/6/6
f 7/7/7 8/8/8 6/6/6
f 7/7/7 9/9/9 8/8/8
f 9/9/9 10/10/10 8/8/8
f 9/9/9 11/11/11 10/10/10
f 11/11/11 12/12/12 10/10/10
f 11/11/11 13/13/13 12/12/12
f 13/13/13 14/14/14 12/12/12
f 13/13/13 15/15/15 14/14/14
f 15/15/15 16/16/16 14/14/14
f 15/15/15 17/17/17 16/16/16
f 17/17/17 18/18/18 16/16/16
f 17/17/17 19/19/19 18/18/18
f 19/19/19 20/20/20 18/18/18
f 19/19/19 21/21/21 20/20/20
f 21/21/21 22/22/22 20/20/20
f 21/21/21 23/23/23 22/22/22
f 23/23/23 24/24/24 22/22/22
f 23/23/23 25/25/25 24/24/24
f 25/25/25 26/26/26 24/24/24
f 25/25/25 27/27/27 26/26/26
f 27/27/27 28/28/28 26/26/26
f 27/27/27 29/29/29 28/28/28
f 29/29/29 30/30/30 28/28/28
f 29/29/29 31/31/31 30/30/30
f 31/31/31 32/32/32 30/30/30
f 31/31/31 33/33/33 32/32/32
f 33/33/33 34/34/34 32/32/32
f 33/33/33 35/35/35 34/34/34
f 35/35/35 36/36/36 34/34/34
f 35/35/35 37/37/37 36/36/36
f 37/37/37 38/38/38 36/36/36
f 34/34/34 36/36/36 39/39/39
f 36/36/36 38/38/38 40/40/40
f 39/39/39 36/36/36 40/40/40
f 41/41/41 40/40/40 38/38/38
f 42/42/42 41/41/41 38/38/38
f 37/37/37 42/42/42 38/38/38
f 41/41/41 43/43/43 40/40/40
f 43/43/43 44/44/44 40/40/40
f 40/40/40 44/44/44 39/39/39
f 43/43/43 45/45/45 44/44/44
f 45/45/45 46/46/46 44/44/44
f 44/44/44 46/46/46 39/39/39
f 39/39/39 46/46/46 47/47/47
f 47/47/47 32/32/32 34/34/34
f 39/39/39 47/47/47 34/34/34
f 47/47/47 46/46/46 48/48/48
f 48/48/48 46/46/46 49/49/49
f 49/49/49 46/46/46 50/50/50
f 50/50/50 46/46/46 51/51/51
f 51/51/51 46/46/46 52/52/52
f 52/52/52 46/46/46 53/53/53
f 53/53/53 46/46/46 54/54/54
f 54/54/54 46/46/46 55/55/55
f 55/55/55 46/46/46 56/56/56
f 56/56/56 46/46/46 57/57/57
f 57/57/57 46/46/46 58/58/58
f 58/58/58 46/46/46 59/59/59
f 59/59/59 46/46/46 60/60/60
f 60/60/60 46/46/46 61/61/61
f 61/61/61 46/46/46 62/62/62
f 61/61/61 62/62/62 63/63/63
f 63/63/63 62/62/62 64/64/64
f 63/63/63 64/64/64 65/65/65
f 66/66/66 63/63/63 65/65/65
f 63/63/63 66/66/66 3/3/3
f 61/61/61 63/63/63 3/3/3
f 2/2/2 3/3/3 66/66/66
f 67/67/67 2/2/2 66/66/66
f 67/67/67 66/66/66 65/65/65
f 61/61/61 3/3/3 4/4/4
f 61/61/61 4/4/4 6/6/6
f 60/60/60 61/61/61 6/6/6
f 60/60/60 6/6/6 8/8/8
f 59/59/59 60/60/60 8/8/8
f 59/59/59 8/8/8 10/10/10
f 58/58/58 59/59/59 10/10/10
f 58/58/58 10/10/10 12/12/12
f 57/57/57 58/58/58 12/12/12
f 57/57/57 12/12/12 14/14/14
f 56/56/56 57/57/57 14/14/14
f 56/56/56 14/14/14 16/16/16
f 55/55/55 56/56/56 16/16/16
f 55/55/55 16/16/16 18/18/18
f 54/54/54 55/55/55 18/18/18
f 54/54/54 18/18/18 20/20/20
f 53/53/53 54/54/54 20/20/20
f 53/53/53 20/20/20 22/22/22
f 52/52/52 53/53/53 22/22/22
f 52/52/52 22/22/22 24/24/24
f 51/51/51 52/52/52 24/24/24
f 51/51/51 24/24/24 26/26/26
f 50/50/50 51/51/51 26/26/26
f 50/50/50 26/26/26 28/28/28
f 49/49/49 50/50/50 28/28/28
f 49/49/49 28/28/28 30/30/30
f 48/48/48 49/49/49 30/30/30
f 48/48/48 30/30/30 32/32/32
f 47/47/47 48/48/48 32/32/32
f 70/70/70 69/69/69 68/68/68
f 71/71/71 70/70/70 68/68/68
f 74/74/74 73/73/73 72/72/72
f 75/75/75 74/74/74 72/72/72
f 78/78/78 77/77/77 76/76/76
f 78/78/78 79/79/79 77/77/77
f 82/82/82 81/81/81 80/80/80
f 85/85/85 84/84/84 83/83/83
f 86/86/86 85/85/85 83/83/83
f 87/87/87 85/85/85 86/86/86
f 88/88/88 87/87/87 86/86/86
f 89/89/89 87/87/87 88/88/88
f 90/90/90 89/89/89 88/88/88
f 83/83/83 84/84/84 91/91/91
f 84/84/84 92/92/92 91/91/91
f 91/91/91 92/92/92 93/93/93
f 94/94/94 91/91/91 93/93/93
f 97/97/97 96/96/96 95/95/95
f 98/98/98 97/97/97 95/95/95
f 99/99/99 97/97/97 98/98/98
f 100/100/100 99/99/99 98/98/98
f 101/101/101 99/99/99 100/100/100
f 102/102/102 101/101/101 100/100/100
f 103/103/103 101/101/101 102/102/102
f 104/104/104 103/103/103 102/102/102
f 105/105/105 103/103/103 104/104/104
f 106/106/106 105/105/105 104/104/104
f 109/109/109 108/108/108 107/107/107
f 110/110/110 109/109/109 107/107/107
f 111/111/111 109/109/109 110/110/110
f 112/112/112 111/111/111 110/110/110
f 113/113/113 111/111/111 112/112/112
f 114/114/114 113/113/113 112/112/112
f 115/115/115 113/113/113 114/114/114
f 116/116/116 115/115/115 114/114/114
f 119/119/119 118/118/118 117/117/117
f 120/120/120 119/119/119 117/117/117
f 121/121/121 119/119/119 120/120/120
f 122/122/122 121/121/121 120/120/120
f 123/123/123 121/121/121 122/122/122
f 124/124/124 123/123/123 122/122/122
f 125/125/125 123/123/123 124/124/124
f 126/126/126 125/125/125 124/124/124
f 127/127/127 125/125/125 126/126/126
f 128/128/128 127/127/127 126/126/126
f 131/131/131 130/130/130 129/129/129
f 132/132/132 131/131/131 129/129/129
f 133/133/133 130/130/130 131/131/131
f 134/134/134 133/133/133 131/131/131
f 135/135/135 133/133/133 134/134/134
f 136/136/136 135/135/135 134/134/134
f 139/139/139 138/138/138 137/137/137
f 140/140/140 139/139/139 137/137/137
f 141/141/141 139/139/139 140/140/140
f 142/142/142 141/141/141 140/140/140
f 143/143/143 141/141/141 142/142/142
f 144/144/144 143/143/143 142/142/142
