g Snow_Corner_Inner
v 15.648931 5.2723446 49.999996
v 15.371446 5.268533 42.906296
v 34.968685 9.216696 42.10939
v 31.597292 9.216696 4.2771416
v 10.702823 5.2704406 13.973927
v 13.835206 9.216696 -21.474983
v -2.3830898 5.2723475 -5.242972
v 49.999996 9.216696 -49.999992
v 50 9.216696 -2.6151009
v -5.542071 9.216696 -49.999992
v -11.694037 9.216696 -35.242393
v -42.312374 9.216696 -50.000004
v -42.311813 9.216696 -34.968567
v -49.999996 9.216696 -50.000004
v -50.000004 9.216696 -34.98219
v -42.312748 5.190954 -16.213406
v -50.000004 5.2723446 -16.213406
v 50 9.216696 42.512817
v 50.000004 9.216696 49.999996
v 34.981995 9.216696 49.999996
v 15.648931 5.2723446 49.999996
v -2.3830898 5.2723475 -5.242972
v -20.997011 5.231651 -15.084422
v -11.694037 9.216696 -35.242393
v 13.835206 9.216696 -21.474983
v -16.269678 1.8486094E-07 8.132385
v -4.128247 1.8486094E-07 22.557089
v 10.702823 5.2704406 13.973927
v -29.769999 1.8486094E-07 0.5377426
v -42.311813 9.216696 -34.968567
v -42.312748 5.190954 -16.213406
v -42.312298 1.8486094E-07 -3.8146968E-06
v -50.000004 5.2723446 -16.213406
v -49.999996 1.8486094E-07 3.8146977E-06
v -2.5679365E-06 1.8486094E-07 42.512817
v 15.371446 5.268533 42.906296
v -2.5679365E-06 1.8486094E-07 49.999996
v 15.648931 5.2723446 49.999996
vt 0.375 0.14301066
vt 0.375 0.28086865
vt 0.44918174 0.28175429
vt 0.44918174 0.29582405
vt 0.37500012 0.296875
vt 0.44918174 0.3098938
vt 0.37500024 0.31249997
vt 0.625 0.3125
vt 0.625 0.296875
vt 0.625 0.328125
vt 0.45222437 0.3243885
vt 0.625 0.34375
vt 0.455267 0.3388832
vt 0.625 0.375
vt 0.46598768 0.3726806
vt 0.375 0.34732234
vt 0.375 0.36740935
vt 0.625 0.28125
vt 0.625 0.25
vt 0.45059443 0.25
vt 0.375 0.14301066
vt 0.3125 0.14301056
vt 0.29450396 0.14190677
vt 0.29848728 0.25
vt 0.3125 0.25
vt 0.3125 0
vt 0.328125 0
vt 0.32837093 0.14295897
vt 0.296875 1.4524199E-08
vt 0.28447455 0.25
vt 0.2765079 0.14080298
vt 0.28125 2.9048397E-08
vt 0.25 0.14301068
vt 0.25 8.779351E-08
vt 0.34375 0
vt 0.34424186 0.1429074
vt 0.37500006 -1.3970194E-08
vt 0.375 0.14301066
vn -0.25249094 0.96758837 0.004598453
vn -0.23328993 0.9720067 0.027906619
vn -0.09271766 0.9956477 0.009430486
vn -0.056016363 0.99821895 0.020520793
vn -0.19766028 0.97734755 0.07564622
vn -0.033533283 0.9987941 0.035860106
vn -0.13623376 0.9792731 0.14988168
vn -0 1 0
vn -0 1 0
vn -0 1 0
vn -0.017876986 0.9979971 0.060680766
vn -0 1 0
vn -0.0010843254 0.9943697 0.10596081
vn -0 1 0
vn 0.0028127676 0.99312556 0.11701937
vn -0.0048640473 0.970294 0.24187975
vn 0.00502125 0.9669991 0.25473028
vn -0 1 0
vn -0 1 0
vn -0.11228139 0.9936744 0.0020380514
vn -0.25249094 0.96758837 0.004598453
vn -0.13623376 0.9792731 0.14988168
vn -0.057248753 0.9765977 0.20731506
vn -0.017876986 0.9979971 0.060680766
vn -0.033533283 0.9987941 0.035860106
vn -0.17933692 0.9619894 0.20594807
vn -0.27276084 0.9558137 0.109643534
vn -0.19766028 0.97734755 0.07564622
vn -0.07310147 0.95807976 0.27701876
vn -0.0010843254 0.9943697 0.10596081
vn -0.0048640473 0.970294 0.24187975
vn -0.009703592 0.9516366 0.30707267
vn 0.00502125 0.9669991 0.25473028
vn 0.0050380155 0.95167047 0.30707952
vn -0.31658095 0.9474253 0.04649545
vn -0.23328993 0.9720067 0.027906619
vn -0.32179853 0.9467899 0.005876574
vn -0.25249094 0.96758837 0.004598453
g Snow_Corner_Inner_0
f 3/3/3 2/2/2 1/1/1
f 3/3/3 4/4/4 2/2/2
f 4/4/4 5/5/5 2/2/2
f 4/4/4 6/6/6 5/5/5
f 6/6/6 7/7/7 5/5/5
f 8/8/8 6/6/6 4/4/4
f 9/9/9 8/8/8 4/4/4
f 9/9/9 4/4/4 3/3/3
f 8/8/8 10/10/10 6/6/6
f 10/10/10 11/11/11 6/6/6
f 10/10/10 12/12/12 11/11/11
f 12/12/12 13/13/13 11/11/11
f 12/12/12 14/14/14 13/13/13
f 14/14/14 15/15/15 13/13/13
f 16/16/16 13/13/13 15/15/15
f 17/17/17 16/16/16 15/15/15
f 18/18/18 9/9/9 3/3/3
f 19/19/19 18/18/18 3/3/3
f 20/20/20 19/19/19 3/3/3
f 20/20/20 3/3/3 21/21/21
f 24/24/24 23/23/23 22/22/22
f 25/25/25 24/24/24 22/22/22
f 26/26/26 22/22/22 23/23/23
f 26/26/26 27/27/27 22/22/22
f 27/27/27 28/28/28 22/22/22
f 29/29/29 26/26/26 23/23/23
f 24/24/24 30/30/30 23/23/23
f 30/30/30 31/31/31 23/23/23
f 29/29/29 23/23/23 31/31/31
f 32/32/32 29/29/29 31/31/31
f 32/32/32 31/31/31 33/33/33
f 34/34/34 32/32/32 33/33/33
f 27/27/27 35/35/35 28/28/28
f 35/35/35 36/36/36 28/28/28
f 35/35/35 37/37/37 36/36/36
f 37/37/37 38/38/38 36/36/36
