g Snow_StraightA
v -50 5.2723446 15.648926
v -42.90631 5.268533 15.688782
v -42.109375 9.216696 34.529236
v -21.573547 9.216696 35.891205
v -21.976807 5.27044 18.99466
v -1.0375977 9.216696 39.342224
v -1.0473633 5.2723475 24.404633
v -1.0473022 9.216696 50
v -21.78009 9.216696 50
v 20.068665 9.216696 50
v 20.073242 9.216696 37.90692
v 41.18463 9.216696 50
v 41.184143 9.216696 34.529144
v 50 9.216696 50
v 50 9.216696 34.982178
v 41.18506 5.190954 15.688782
v 50 5.2723446 15.648926
v -42.512817 9.216696 50
v -50 9.216696 50
v -50 9.216696 34.981995
v -50 5.2723446 15.648926
v -1.0473633 5.2723475 24.404633
v 20.068848 5.231651 22.642883
v 20.073242 9.216696 37.90692
v -1.0375977 9.216696 39.342224
v -1.0473022 0 7.588379
v -21.78009 0 2.7421265
v -21.976807 5.27044 18.99466
v 20.068665 0 6.3903503
v 41.184143 9.216696 34.529144
v 41.18506 5.190954 15.688782
v 41.18463 0 0
v 50 5.2723446 15.648926
v 50 0 0
v -42.512817 0 0
v -42.90631 5.268533 15.688782
v -50 0 0
v -50 5.2723446 15.648926
vt 0.375 0.14301066
vt 0.375 0.28086865
vt 0.44918174 0.28175429
vt 0.44918174 0.29582405
vt 0.37500012 0.296875
vt 0.44918174 0.3098938
vt 0.37500024 0.31249997
vt 0.625 0.3125
vt 0.625 0.296875
vt 0.625 0.328125
vt 0.45222437 0.3243885
vt 0.625 0.34375
vt 0.455267 0.3388832
vt 0.625 0.375
vt 0.46598768 0.3726806
vt 0.375 0.34732234
vt 0.375 0.36740935
vt 0.625 0.28125
vt 0.625 0.25
vt 0.45059443 0.25
vt 0.375 0.14301066
vt 0.3125 0.14301056
vt 0.29450396 0.14190677
vt 0.29848728 0.25
vt 0.3125 0.25
vt 0.3125 0
vt 0.328125 0
vt 0.32837093 0.14295897
vt 0.296875 1.4524199E-08
vt 0.28447455 0.25
vt 0.2765079 0.14080298
vt 0.28125 2.9048397E-08
vt 0.25 0.14301068
vt 0.25 8.779351E-08
vt 0.34375 0
vt 0.34424186 0.1429074
vt 0.37500006 -1.3970194E-08
vt 0.375 0.14301066
vn -0.0024067936 0.96676654 -0.2556496
vn 0.025036182 0.9640941 -0.26437792
vn 0.009464659 0.9923821 -0.12283388
vn 0.022135142 0.9909497 -0.13239606
vn 0.048839055 0.9622456 -0.26776513
vn 0.008637997 0.99091446 -0.13421579
vn 0.021303851 0.96164566 -0.27346653
vn -0 1 0
vn -0 1 0
vn -0 1 0
vn -0.020223392 0.9907487 -0.13419423
vn -0 1 0
vn -0.023002671 0.9908214 -0.13320601
vn -0 1 0
vn 0.00014869339 0.99370605 -0.11201957
vn -0.05597431 0.9611964 -0.27012673
vn -0.002196822 0.96657 -0.25639325
vn -0 1 0
vn -0 1 0
vn -0.0028758221 0.99401075 -0.10924374
vn -0.0024067936 0.96676654 -0.2556496
vn 0.021303851 0.96164566 -0.27346653
vn -0.046022646 0.9616323 -0.27045387
vn -0.020223392 0.9907487 -0.13419423
vn 0.008637997 0.99091446 -0.13421579
vn 0.029164037 0.95256764 -0.30292615
vn 0.058563713 0.9496299 -0.3078528
vn 0.048839055 0.9622456 -0.26776513
vn -0.06177143 0.9499618 -0.30619758
vn -0.023002671 0.9908214 -0.13320601
vn -0.05597431 0.9611964 -0.27012673
vn -0.06632879 0.94786876 -0.3116815
vn -0.002196822 0.96657 -0.25639325
vn -0.005094752 0.9485135 -0.31669563
vn 0.033581603 0.94881153 -0.31405243
vn 0.025036182 0.9640941 -0.26437792
vn 0.0011193183 0.9478216 -0.31879908
vn -0.0024067936 0.96676654 -0.2556496
g Snow_StraightA_0
f 3/3/3 2/2/2 1/1/1
f 3/3/3 4/4/4 2/2/2
f 4/4/4 5/5/5 2/2/2
f 4/4/4 6/6/6 5/5/5
f 6/6/6 7/7/7 5/5/5
f 8/8/8 6/6/6 4/4/4
f 9/9/9 8/8/8 4/4/4
f 9/9/9 4/4/4 3/3/3
f 8/8/8 10/10/10 6/6/6
f 10/10/10 11/11/11 6/6/6
f 10/10/10 12/12/12 11/11/11
f 12/12/12 13/13/13 11/11/11
f 12/12/12 14/14/14 13/13/13
f 14/14/14 15/15/15 13/13/13
f 16/16/16 13/13/13 15/15/15
f 17/17/17 16/16/16 15/15/15
f 18/18/18 9/9/9 3/3/3
f 19/19/19 18/18/18 3/3/3
f 20/20/20 19/19/19 3/3/3
f 20/20/20 3/3/3 21/21/21
f 24/24/24 23/23/23 22/22/22
f 25/25/25 24/24/24 22/22/22
f 26/26/26 22/22/22 23/23/23
f 26/26/26 27/27/27 22/22/22
f 27/27/27 28/28/28 22/22/22
f 29/29/29 26/26/26 23/23/23
f 24/24/24 30/30/30 23/23/23
f 30/30/30 31/31/31 23/23/23
f 29/29/29 23/23/23 31/31/31
f 32/32/32 29/29/29 31/31/31
f 32/32/32 31/31/31 33/33/33
f 34/34/34 32/32/32 33/33/33
f 27/27/27 35/35/35 28/28/28
f 35/35/35 36/36/36 28/28/28
f 35/35/35 37/37/37 36/36/36
f 37/37/37 38/38/38 36/36/36
