g Snow_StraightB
v 15.648915 5.2723446 50
v 15.648915 5.268533 42.906296
v 34.982204 9.216696 42.10939
v 29.728365 9.216696 21.57351
v 7.7681537 5.2704406 21.97681
v 26.225801 9.216696 1.0376272
v 4.26559 5.2723475 1.0473261
v 50.000004 9.216696 1.0473261
v 50.000004 9.216696 21.780071
v 50.000004 9.216696 -20.068651
v 29.728312 9.216696 -20.073257
v 50.000004 9.216696 -41.184628
v 34.982098 9.216696 -41.184143
v 50.000004 9.216696 -50.000004
v 34.981995 9.216696 -50.000004
v 15.648931 5.190954 -41.185078
v 15.648931 5.2723446 -50.000004
v 50.000004 9.216696 42.512817
v 50.000004 9.216696 50
v 34.98219 9.216696 50
v 15.648915 5.2723446 50
v 4.26559 5.2723475 1.0473261
v 7.7681613 5.231651 -20.068876
v 29.728312 9.216696 -20.073257
v 26.225801 9.216696 1.0376272
v -12.510768 1.8486094E-07 1.0473261
v -8.444486 1.8486094E-07 21.780071
v 7.7681537 5.2704406 21.97681
v -8.444486 1.8486094E-07 -20.068651
v 34.982098 9.216696 -41.184143
v 15.648931 5.190954 -41.185078
v -6.605877E-07 1.8486094E-07 -41.184628
v 15.648931 5.2723446 -50.000004
v -2.5679365E-06 1.8486094E-07 -50.000004
v -2.5679365E-06 1.8486094E-07 42.512817
v 15.648915 5.268533 42.906296
v -6.605877E-07 1.8486094E-07 50
v 15.648915 5.2723446 50
vt 0.375 0.14301066
vt 0.375 0.28086865
vt 0.44918174 0.28175429
vt 0.44918174 0.29582405
vt 0.37500012 0.296875
vt 0.44918174 0.3098938
vt 0.37500024 0.31249997
vt 0.625 0.3125
vt 0.625 0.296875
vt 0.625 0.328125
vt 0.45222437 0.3243885
vt 0.625 0.34375
vt 0.455267 0.3388832
vt 0.625 0.375
vt 0.46598768 0.3726806
vt 0.375 0.34732234
vt 0.375 0.36740935
vt 0.625 0.28125
vt 0.625 0.25
vt 0.45059443 0.25
vt 0.375 0.14301066
vt 0.3125 0.14301056
vt 0.29450396 0.14190677
vt 0.29848728 0.25
vt 0.3125 0.25
vt 0.3125 0
vt 0.328125 0
vt 0.32837093 0.14295897
vt 0.296875 1.4524199E-08
vt 0.28447455 0.25
vt 0.2765079 0.14080298
vt 0.28125 2.9048397E-08
vt 0.25 0.14301068
vt 0.25 8.779351E-08
vt 0.34375 0
vt 0.34424186 0.1429074
vt 0.37500006 -1.3970194E-08
vt 0.375 0.14301066
vn -0.25396138 0.9672143 -0.0002491046
vn -0.23585513 0.96993196 0.06003559
vn -0.09407202 0.99533975 0.021193637
vn -0.09725248 0.9949586 0.02448378
vn -0.24155357 0.9681178 0.06633067
vn -0.098992705 0.99508816 -0.0002779488
vn -0.23957267 0.9708783 -0.00042696163
vn -0 1 0
vn -0 1 0
vn -0 1 0
vn -0.0982893 0.9948472 -0.024869587
vn -0 1 0
vn -0.096409045 0.995146 -0.01974006
vn -0 1 0
vn -0.115235716 0.9933348 0.00258148
vn -0.23777816 0.9696501 -0.056923628
vn -0.25468424 0.96701396 0.004464821
vn -0 1 0
vn -0 1 0
vn -0.11285367 0.99361163 -0.00014074054
vn -0.25396138 0.9672143 -0.0002491046
vn -0.23957267 0.9708783 -0.00042696163
vn -0.24116115 0.9682515 -0.065804474
vn -0.0982893 0.9948472 -0.024869587
vn -0.098992705 0.99508816 -0.0002779488
vn -0.3040533 0.95265484 -0.00040476036
vn -0.3081673 0.9477807 0.08212576
vn -0.24155357 0.9681178 0.06633067
vn -0.30539584 0.9487405 -0.081392534
vn -0.096409045 0.995146 -0.01974006
vn -0.23777816 0.9696501 -0.056923628
vn -0.31120577 0.94613713 -0.08930597
vn -0.25468424 0.96701396 0.004464821
vn -0.3170612 0.9483949 0.004378314
vn -0.31528017 0.9440509 0.096779816
vn -0.23585513 0.96993196 0.06003559
vn -0.3191738 0.9476961 -0.00024767118
vn -0.25396138 0.9672143 -0.0002491046
g Snow_StraightB_0
f 3/3/3 2/2/2 1/1/1
f 3/3/3 4/4/4 2/2/2
f 4/4/4 5/5/5 2/2/2
f 4/4/4 6/6/6 5/5/5
f 6/6/6 7/7/7 5/5/5
f 8/8/8 6/6/6 4/4/4
f 9/9/9 8/8/8 4/4/4
f 9/9/9 4/4/4 3/3/3
f 8/8/8 10/10/10 6/6/6
f 10/10/10 11/11/11 6/6/6
f 10/10/10 12/12/12 11/11/11
f 12/12/12 13/13/13 11/11/11
f 12/12/12 14/14/14 13/13/13
f 14/14/14 15/15/15 13/13/13
f 16/16/16 13/13/13 15/15/15
f 17/17/17 16/16/16 15/15/15
f 18/18/18 9/9/9 3/3/3
f 19/19/19 18/18/18 3/3/3
f 20/20/20 19/19/19 3/3/3
f 20/20/20 3/3/3 21/21/21
f 24/24/24 23/23/23 22/22/22
f 25/25/25 24/24/24 22/22/22
f 26/26/26 22/22/22 23/23/23
f 26/26/26 27/27/27 22/22/22
f 27/27/27 28/28/28 22/22/22
f 29/29/29 26/26/26 23/23/23
f 24/24/24 30/30/30 23/23/23
f 30/30/30 31/31/31 23/23/23
f 29/29/29 23/23/23 31/31/31
f 32/32/32 29/29/29 31/31/31
f 32/32/32 31/31/31 33/33/33
f 34/34/34 32/32/32 33/33/33
f 27/27/27 35/35/35 28/28/28
f 35/35/35 36/36/36 28/28/28
f 35/35/35 37/37/37 36/36/36
f 37/37/37 38/38/38 36/36/36
