g Space_Wall_272
v 0.3 1.8000001 0.3
v 0.3 1.8000001 1.2
v -1.09139365E-14 1.8000001 1.2
v -1.09139365E-14 1.8000001 -1.3642421E-15
v 0.35833886 1.8000001 1.2
v 0.35796532 1.8001266 0.35110402
v 0.3 -0.59999996 1.2
v 0.3 -0.59999996 0.3
v -1.09139365E-14 -0.59999996 -1.3642421E-15
v -1.09139365E-14 -0.59999996 1.2
v 0.4521079 -0.59999996 0.4489043
v 0.44950342 -0.5997139 1.2
v -1.09139365E-14 0.6 -1.3642421E-15
v -1.09139365E-14 1.2 -1.3642421E-15
v -1.09139365E-14 1.2 1.2
v -1.09139365E-14 0.6 1.2
v -1.09139365E-14 0 -1.3642421E-15
v -1.09139365E-14 0 1.2
v -1.09139365E-14 1.5 1.2
v -1.09139365E-14 1.5 -1.3642421E-15
v -1.09139365E-14 -0.59999996 -1.3642421E-15
v -1.09139365E-14 -0.59999996 1.2
v -1.09139365E-14 1.8000001 1.2
v -1.09139365E-14 1.8000001 -1.3642421E-15
v 0.7283789 0.6 1.1596582
v 0.6458584 1.2 1.1596582
v 0.6458584 1.2 0.6453677
v 0.7292871 0.6 0.72532034
v 0.6458584 1.4305115E-08 1.1596582
v 0.6458584 1.4305115E-08 0.6453677
v 0.5172861 1.5 0.5167954
v 0.5172861 1.5 1.1596582
v 0.5168599 -0.5997139 1.1596582
v 0.7440366 -0.057270207 1.1596582
v 0.7476167 -0.069439486 0.744342
v 0.51909226 -0.59999996 0.51585644
v 1.2 1.8000001 0.3
v 0.3 1.8000001 0.3
v -1.09139365E-14 1.8000001 -1.3642421E-15
v 1.2 1.8000001 -1.3642421E-15
v 0.35796532 1.8001266 0.35110402
v 1.2 1.8000001 0.35833886
v 0.3 -0.59999996 0.3
v 1.2 -0.59999996 0.3
v 1.2 -0.59999996 -1.3642421E-15
v -1.09139365E-14 -0.59999996 -1.3642421E-15
v 1.2 -0.5997139 0.44950342
v 0.4521079 -0.59999996 0.4489043
v 0.44950342 -0.5997139 1.2
v 0.51909226 -0.59999996 0.51585644
v 0.5168599 -0.5997139 1.1596582
v 1.2 0.6 -1.3642421E-15
v 1.2 1.2 -1.3642421E-15
v -1.09139365E-14 1.2 -1.3642421E-15
v -1.09139365E-14 0.6 -1.3642421E-15
v 1.2 0 -1.3642421E-15
v -1.09139365E-14 0 -1.3642421E-15
v -1.09139365E-14 1.5 -1.3642421E-15
v 1.2 1.5 -1.3642421E-15
v 1.2 -0.59999996 -1.3642421E-15
v -1.09139365E-14 -0.59999996 -1.3642421E-15
v -1.09139365E-14 1.8000001 -1.3642421E-15
v 1.2 1.8000001 -1.3642421E-15
v 0.7292871 0.6 0.72532034
v 0.6458584 1.2 0.6453677
v 1.160149 1.2 0.6453677
v 1.160149 0.6 0.72849536
v 0.6458584 1.4305115E-08 0.6453677
v 1.160149 1.4305115E-08 0.6453677
v 1.160149 1.5 0.5167954
v 0.5172861 1.5 0.5167954
v 0.51909226 -0.59999996 0.51585644
v 0.7476167 -0.069439486 0.744342
v 1.160149 -0.057270315 0.74354666
v 1.160149 -0.5997139 0.5163699
v 0.5508779 1.5369937 0.5485239
v 0.43839845 1.8001266 0.43202636
v 1.160149 1.8000001 0.43822777
v 1.160149 1.5361685 0.5500261
v 0.5505161 1.5361685 1.1596582
v 0.43871778 1.8000001 1.1596582
v 0.43839845 1.8001266 0.43202636
v 0.5508779 1.5369937 0.5485239
v 0.5172861 1.5 0.5167954
v 0.5508779 1.5369937 0.5485239
v 1.160149 1.5361685 0.5500261
v 1.160149 1.5 0.5167954
v 0.5172861 1.5 1.1596582
v 0.5505161 1.5361685 1.1596582
v 0.5508779 1.5369937 0.5485239
v 0.5172861 1.5 0.5167954
v 0.6458584 1.4305115E-08 0.6453677
v 0.7476167 -0.069439486 0.744342
v 0.7440366 -0.057270207 1.1596582
v 0.6458584 1.4305115E-08 1.1596582
v 1.160149 1.4305115E-08 0.6453677
v 1.160149 -0.057270315 0.74354666
v 0.7476167 -0.069439486 0.744342
v 0.6458584 1.4305115E-08 0.6453677
v 0.6 1.2 1.2
v 0.6458584 1.2 1.1596582
v 0.7283789 0.6 1.1596582
v 0.6962739 0.6 1.2
v 0.6458584 1.4305115E-08 1.1596582
v 0.6 0 1.2
v 0.45000002 1.5 1.2
v 0.5172861 1.5 1.1596582
v 0.71454054 -0.057270218 1.2
v 0.7440366 -0.057270207 1.1596582
v 0.5168599 -0.5997139 1.1596582
v 0.44950342 -0.5997139 1.2
v 1.2 0.6 0.69698143
v 1.160149 0.6 0.72849536
v 1.160149 1.2 0.6453677
v 1.2 1.2 0.6
v 1.2 0 0.6
v 1.160149 1.4305115E-08 0.6453677
v 1.160149 1.5 0.5167954
v 1.2 1.5 0.45000002
v 0.4521079 -0.59999996 0.4489043
v 0.51909226 -0.59999996 0.51585644
v 1.160149 -0.5997139 0.5163699
v 1.2 -0.5997139 0.44950342
v 1.2 -0.5997139 0.44950342
v 1.160149 -0.5997139 0.5163699
v 1.160149 -0.057270315 0.74354666
v 1.2 -0.05727031 0.71454054
v 1.2 1.5361685 0.48876855
v 1.160149 1.5361685 0.5500261
v 1.160149 1.8000001 0.43822777
v 1.2 1.8000001 0.35833886
v 1.2 1.8000001 0.35833886
v 1.160149 1.8000001 0.43822777
v 0.43839845 1.8001266 0.43202636
v 0.35796532 1.8001266 0.35110402
v 0.35796532 1.8001266 0.35110402
v 0.43839845 1.8001266 0.43202636
v 0.43871778 1.8000001 1.1596582
v 0.35833886 1.8000001 1.2
v 0.35833886 1.8000001 1.2
v 0.43871778 1.8000001 1.1596582
v 0.5505161 1.5361685 1.1596582
v 0.48876855 1.5361685 1.2
v 1.2 1.5 0.45000002
v 1.160149 1.5 0.5167954
v 1.160149 1.5361685 0.5500261
v 1.2 1.5361685 0.48876855
v 0.48876855 1.5361685 1.2
v 0.5505161 1.5361685 1.1596582
v 0.5172861 1.5 1.1596582
v 0.45000002 1.5 1.2
v 0.6 0 1.2
v 0.6458584 1.4305115E-08 1.1596582
v 0.7440366 -0.057270207 1.1596582
v 0.71454054 -0.057270218 1.2
v 1.2 -0.05727031 0.71454054
v 1.160149 -0.057270315 0.74354666
v 1.160149 1.4305115E-08 0.6453677
v 1.2 0 0.6
vt 0.20184548 0.7962998
vt 0.013350248 0.79629993
vt 0.013370439 0.86430234
vt 0.26467043 0.8643016
vt 0.013364047 0.76126975
vt 0.18189146 0.76126933
vt 0.013350815 0.10354015
vt 0.19457944 0.103540346
vt 0.25562808 0.035602
vt 0.013350822 0.035601974
vt 0.16499443 0.13927755
vt 0.0133508295 0.1392778
vt 0.30746007 0.30986685
vt 0.30746025 0.44957632
vt 0.58691573 0.44957632
vt 0.58691585 0.30986685
vt 0.30746007 0.17018802
vt 0.58691585 0.17018789
vt 0.58691585 0.5194441
vt 0.30746007 0.5194441
vt 0.30746007 0.03018877
vt 0.58691573 0.03018877
vt 0.58691585 0.5901867
vt 0.30745995 0.5901867
vt 0.013378471 0.44737592
vt 0.013368586 0.58399796
vt 0.13601613 0.5840064
vt 0.11568046 0.44777787
vt 0.013381265 0.31011283
vt 0.13460745 0.31011587
vt 0.16724408 0.66015637
vt 0.013373563 0.66022694
vt 0.0133508295 0.1392778
vt 0.013381854 0.27459285
vt 0.111769445 0.27463022
vt 0.16499443 0.13927755
vt 0.013350248 0.79629993
vt 0.20184548 0.7962998
vt 0.26467043 0.8643016
vt 0.013370439 0.86430234
vt 0.18189146 0.76126933
vt 0.013364062 0.76126975
vt 0.19457944 0.10354035
vt 0.0133508295 0.10354015
vt 0.013350824 0.035601974
vt 0.25562808 0.035602
vt 0.013350815 0.1392778
vt 0.16499443 0.13927755
vt 0.0133508295 0.1392778
vt 0.16499443 0.13927755
vt 0.0133508295 0.1392778
vt 0.30745995 0.30986685
vt 0.30745995 0.44957632
vt 0.58691573 0.44957632
vt 0.58691573 0.30986685
vt 0.30745995 0.17018795
vt 0.58691573 0.17018805
vt 0.58691555 0.5194441
vt 0.30745995 0.5194441
vt 0.30746007 0.030188799
vt 0.58691573 0.030188799
vt 0.58691573 0.5901867
vt 0.30745995 0.5901854
vt 0.11568046 0.44777787
vt 0.13601613 0.5840064
vt 0.013368586 0.58399796
vt 0.013378473 0.44737592
vt 0.13460745 0.31011587
vt 0.013381265 0.31011283
vt 0.013373563 0.66022694
vt 0.16724408 0.66015637
vt 0.16499443 0.13927755
vt 0.111769445 0.27463022
vt 0.013381856 0.27459285
vt 0.013350815 0.1392778
vt 0.15504248 0.69500387
vt 0.18189146 0.76126933
vt 0.013364062 0.76126975
vt 0.013383508 0.6950037
vt 0.013383508 0.6950037
vt 0.013364047 0.76126975
vt 0.18189146 0.76126933
vt 0.15504248 0.69500387
vt 0.16724408 0.66015637
vt 0.15504248 0.69500387
vt 0.013383508 0.6950037
vt 0.013373563 0.66022694
vt 0.013373563 0.66022694
vt 0.013383508 0.6950037
vt 0.15504248 0.69500387
vt 0.16724408 0.66015637
vt 0.13460745 0.31011587
vt 0.111769445 0.27463022
vt 0.013381854 0.27459285
vt 0.013381265 0.31011283
vt 0.013381265 0.31011283
vt 0.013381856 0.27459285
vt 0.111769445 0.27463022
vt 0.13460745 0.31011587
vt 0.013368586 0.58399796
vt 0.013368586 0.58399796
vt 0.013378471 0.44737592
vt 0.013378471 0.44737592
vt 0.013381265 0.31011283
vt 0.013381265 0.31011283
vt 0.013373563 0.66022694
vt 0.013373563 0.66022694
vt 0.013381854 0.27459285
vt 0.013381854 0.27459285
vt 0.0133508295 0.1392778
vt 0.0133508295 0.1392778
vt 0.013378473 0.44737592
vt 0.013378473 0.44737592
vt 0.013368586 0.58399796
vt 0.013368586 0.58399796
vt 0.013381265 0.31011283
vt 0.013381265 0.31011283
vt 0.013373563 0.66022694
vt 0.013373563 0.66022694
vt 0.16499443 0.13927755
vt 0.16499443 0.13927755
vt 0.013350815 0.1392778
vt 0.013350815 0.1392778
vt 0.013350815 0.1392778
vt 0.013350815 0.1392778
vt 0.013381856 0.27459285
vt 0.013381856 0.27459285
vt 0.013383508 0.6950037
vt 0.013383508 0.6950037
vt 0.013364062 0.76126975
vt 0.013364062 0.76126975
vt 0.013364062 0.76126975
vt 0.013364062 0.76126975
vt 0.18189146 0.76126933
vt 0.18189146 0.76126933
vt 0.18189146 0.76126933
vt 0.18189146 0.76126933
vt 0.013364047 0.76126975
vt 0.013364047 0.76126975
vt 0.013364047 0.76126975
vt 0.013364047 0.76126975
vt 0.013383508 0.6950037
vt 0.013383508 0.6950037
vt 0.013373563 0.66022694
vt 0.013373563 0.66022694
vt 0.013383508 0.6950037
vt 0.013383508 0.6950037
vt 0.013383508 0.6950037
vt 0.013383508 0.6950037
vt 0.013373563 0.66022694
vt 0.013373563 0.66022694
vt 0.013381265 0.31011283
vt 0.013381265 0.31011283
vt 0.013381854 0.27459285
vt 0.013381854 0.27459285
vt 0.013381856 0.27459285
vt 0.013381856 0.27459285
vt 0.013381265 0.31011283
vt 0.013381265 0.31011283
vn -0 1 0
vn -0 1 0
vn -0 1 0
vn -0 1 0
vn -0.001119792 0.9999994 7.277296E-05
vn -0.001119792 0.9999994 7.277297E-05
vn -0 -1 0
vn -0 -1 0
vn -0 -1 0
vn -0 -1 0
vn 0.0008620873 -0.99999964 0.00017452026
vn 0.0008620873 -0.99999964 0.00017452026
vn -1 0 0
vn -1 0 0
vn -1 0 0
vn -1 0 0
vn -1 0 0
vn -1 0 0
vn -1 0 0
vn -1 0 0
vn -1 0 0
vn -1 0 0
vn -1 0 0
vn -1 0 0
vn 0.9999995 0 0.0009573844
vn 0.9705287 0.24098495 0.00057715684
vn 0.9655493 0.26021987 0.00050666305
vn 0.9999995 0 0.0009573844
vn 0.99056363 -0.13705002 0.00094835064
vn 0.99056363 -0.13704999 0.00094835064
vn 0.91914517 0.39391902 0
vn 0.91914517 0.39391902 0
vn 0.9196459 -0.3926295 0.00966441
vn 0.919646 -0.39262944 0.009664409
vn 0.919646 -0.39262947 0.009664411
vn 0.919646 -0.39262947 0.00966441
vn -0 1 0
vn -0 1 0
vn -0 1 0
vn -0 1 0
vn 7.7602446E-05 0.9999993 -0.0011975402
vn 7.760246E-05 0.9999993 -0.0011975403
vn -0 -1 0
vn -0 -1 0
vn -0 -1 0
vn -0 -1 0
vn 0.00017324534 -0.99999964 0.00087016064
vn 0.00017324535 -0.99999964 0.0008701609
vn -8.117278E-05 -1 0.0004097365
vn -8.117278E-05 -1 0.0004097365
vn -8.117278E-05 -1 0.0004097365
vn -0 0 -1
vn -0 0 -1
vn -0 0 -1
vn -0 0 -1
vn -0 0 -1
vn -0 0 -1
vn -0 0 -1
vn -0 0 -1
vn -0 0 -1
vn -0 0 -1
vn -0 0 -1
vn -0 0 -1
vn -0.0033585671 0 0.9999944
vn -0.00177166 0.25939453 0.9657698
vn -0.0020225605 0.23968928 0.97084755
vn -0.0033585667 0 0.9999944
vn -0.003328079 -0.13443436 0.9909169
vn -0.003328079 -0.13443434 0.9909169
vn -0 0.39392102 0.9191443
vn -0 0.39392105 0.9191443
vn 0.004877664 -0.39175054 0.92005855
vn 0.004877664 -0.39175054 0.92005855
vn 0.0048776637 -0.39175057 0.92005855
vn 0.004877663 -0.39175054 0.92005855
vn -0.0050296243 0.39661732 0.9179703
vn -0.005029625 0.39661726 0.9179703
vn -0.0050296243 0.39661726 0.9179703
vn -0.0050296243 0.39661726 0.9179703
vn 0.9201076 0.3916657 0.00030762143
vn 0.9201075 0.39166576 0.00030762143
vn 0.9201076 0.39166567 0.0003076214
vn 0.9201075 0.3916657 0.00030762138
vn -0.0013357087 -0.66359764 0.7480885
vn -0.0013357088 -0.66359764 0.7480885
vn -0.0013357088 -0.66359764 0.74808854
vn -0.0013357088 -0.66359764 0.7480885
vn 0.7384362 -0.6743233 -0.000230692
vn 0.7384362 -0.6743233 -0.00023069202
vn 0.7384362 -0.6743233 -0.00023069202
vn 0.7384362 -0.6743233 -0.000230692
vn 0.5384368 0.8426183 -0.008956788
vn 0.5384368 0.8426183 -0.008956787
vn 0.5384367 0.84261835 -0.008956788
vn 0.5384368 0.8426183 -0.008956788
vn -0.01054676 0.8387084 0.5444787
vn -0.01054676 0.8387084 0.54447865
vn -0.01054676 0.83870834 0.5444787
vn -0.01054676 0.8387084 0.5444787
vn 0.6490668 0.17800201 0.73961306
vn 0.66881174 0.15767913 0.7265178
vn 0.71912336 0 0.6948824
vn 0.71912336 0 0.6948824
vn 0.71503067 -0.10653758 0.69092757
vn 0.7150306 -0.106537595 0.6909277
vn 0.560587 0.2602751 0.7861291
vn 0.560587 0.26027513 0.7861291
vn 0.6146685 -0.2788737 0.7378428
vn 0.61466855 -0.2788737 0.7378428
vn 0.6146685 -0.2788737 0.7378428
vn 0.6146685 -0.2788737 0.7378428
vn 0.6942532 1.1535288E-06 0.7197308
vn 0.69425327 1.1519917E-06 0.71973073
vn 0.7264852 0.15816347 0.6687329
vn 0.73985374 0.17836432 0.648693
vn 0.6902386 -0.10739743 0.7155673
vn 0.6902386 -0.10739743 0.7155673
vn 0.7871857 0.25970858 0.5593658
vn 0.7871857 0.25970858 0.5593658
vn 0.00041193413 -1 -8.314353E-05
vn 0.00041193404 -1 -8.314352E-05
vn 0.00041193407 -1 -8.3143525E-05
vn 0.00041193407 -1 -8.3143525E-05
vn 0.738539 -0.27856332 0.6139727
vn 0.738539 -0.27856326 0.6139727
vn 0.73853904 -0.2785633 0.6139727
vn 0.738539 -0.27856332 0.6139727
vn 0.8493959 0.22017705 0.47963402
vn 0.8493959 0.22017705 0.47963402
vn 0.8493959 0.22017704 0.47963396
vn 0.8493959 0.22017704 0.47963396
vn 0.00016217283 1 -3.97896E-05
vn 0.00016217283 1 -3.9789596E-05
vn 0.00016217282 1 -3.97896E-05
vn 0.00016217283 1 -3.9789596E-05
vn -4.0508712E-05 1 0.00016045733
vn -4.0508712E-05 1 0.00016045732
vn -4.050871E-05 1 0.00016045732
vn -4.0508712E-05 1 0.00016045732
vn 0.4814719 0.22102499 0.8481349
vn 0.48147184 0.221025 0.8481349
vn 0.4814719 0.22102499 0.8481348
vn 0.48147187 0.22102502 0.8481348
vn 0.7513838 -0.465519 0.46766922
vn 0.7513837 -0.465519 0.46766925
vn 0.7513837 -0.46551907 0.46766925
vn 0.7513837 -0.465519 0.46766928
vn 0.46889833 -0.4667009 0.7498831
vn 0.4688983 -0.46670088 0.7498831
vn 0.4688983 -0.4667009 0.7498831
vn 0.46889824 -0.4667009 0.7498831
vn 0.43349957 0.8050828 0.40486994
vn 0.4334996 0.8050828 0.40486994
vn 0.4334996 0.8050828 0.40486994
vn 0.4334996 0.8050828 0.40487
vn 0.40458772 0.80519086 0.43356267
vn 0.40458772 0.80519086 0.43356267
vn 0.40458775 0.8051908 0.43356267
vn 0.40458772 0.80519086 0.43356267
g Space_Wall_272_0
f 3/3/3 2/2/2 1/1/1
f 4/4/4 3/3/3 1/1/1
f 2/2/2 5/5/5 1/1/1
f 5/5/5 6/6/6 1/1/1
f 9/9/9 8/8/8 7/7/7
f 10/10/10 9/9/9 7/7/7
f 8/8/8 11/11/11 7/7/7
f 11/11/11 12/12/12 7/7/7
f 15/15/15 14/14/14 13/13/13
f 16/16/16 15/15/15 13/13/13
f 16/16/16 13/13/13 17/17/17
f 18/18/18 16/16/16 17/17/17
f 15/15/15 19/19/19 14/14/14
f 19/19/19 20/20/20 14/14/14
f 18/18/18 17/17/17 21/21/21
f 22/22/22 18/18/18 21/21/21
f 19/19/19 23/23/23 20/20/20
f 23/23/23 24/24/24 20/20/20
f 27/27/27 26/26/26 25/25/25
f 28/28/28 27/27/27 25/25/25
f 28/28/28 25/25/25 29/29/29
f 30/30/30 28/28/28 29/29/29
f 27/27/27 31/31/31 26/26/26
f 31/31/31 32/32/32 26/26/26
f 35/35/35 34/34/34 33/33/33
f 36/36/36 35/35/35 33/33/33
f 39/39/39 38/38/38 37/37/37
f 40/40/40 39/39/39 37/37/37
f 38/38/38 41/41/41 37/37/37
f 41/41/41 42/42/42 37/37/37
f 45/45/45 44/44/44 43/43/43
f 46/46/46 45/45/45 43/43/43
f 44/44/44 47/47/47 43/43/43
f 47/47/47 48/48/48 43/43/43
f 48/48/48 50/50/50 49/49/49
f 50/50/50 51/51/51 49/49/49
f 54/54/54 53/53/53 52/52/52
f 55/55/55 54/54/54 52/52/52
f 55/55/55 52/52/52 56/56/56
f 57/57/57 55/55/55 56/56/56
f 54/54/54 58/58/58 53/53/53
f 58/58/58 59/59/59 53/53/53
f 57/57/57 56/56/56 60/60/60
f 61/61/61 57/57/57 60/60/60
f 58/58/58 62/62/62 59/59/59
f 62/62/62 63/63/63 59/59/59
f 66/66/66 65/65/65 64/64/64
f 67/67/67 66/66/66 64/64/64
f 67/67/67 64/64/64 68/68/68
f 69/69/69 67/67/67 68/68/68
f 66/66/66 70/70/70 65/65/65
f 70/70/70 71/71/71 65/65/65
f 74/74/74 73/73/73 72/72/72
f 75/75/75 74/74/74 72/72/72
f 78/78/78 77/77/77 76/76/76
f 79/79/79 78/78/78 76/76/76
f 82/82/82 81/81/81 80/80/80
f 83/83/83 82/82/82 80/80/80
f 86/86/86 85/85/85 84/84/84
f 87/87/87 86/86/86 84/84/84
f 90/90/90 89/89/89 88/88/88
f 91/91/91 90/90/90 88/88/88
f 94/94/94 93/93/93 92/92/92
f 95/95/95 94/94/94 92/92/92
f 98/98/98 97/97/97 96/96/96
f 99/99/99 98/98/98 96/96/96
f 102/102/102 101/101/101 100/100/100
f 103/103/103 102/102/102 100/100/100
f 104/104/104 102/102/102 103/103/103
f 105/105/105 104/104/104 103/103/103
f 100/100/100 101/101/101 106/106/106
f 101/101/101 107/107/107 106/106/106
f 110/110/110 109/109/109 108/108/108
f 111/111/111 110/110/110 108/108/108
f 114/114/114 113/113/113 112/112/112
f 115/115/115 114/114/114 112/112/112
f 112/112/112 113/113/113 116/116/116
f 113/113/113 117/117/117 116/116/116
f 118/118/118 114/114/114 115/115/115
f 119/119/119 118/118/118 115/115/115
f 122/122/122 121/121/121 120/120/120
f 123/123/123 122/122/122 120/120/120
f 126/126/126 125/125/125 124/124/124
f 127/127/127 126/126/126 124/124/124
f 130/130/130 129/129/129 128/128/128
f 131/131/131 130/130/130 128/128/128
f 134/134/134 133/133/133 132/132/132
f 135/135/135 134/134/134 132/132/132
f 138/138/138 137/137/137 136/136/136
f 139/139/139 138/138/138 136/136/136
f 142/142/142 141/141/141 140/140/140
f 143/143/143 142/142/142 140/140/140
f 146/146/146 145/145/145 144/144/144
f 147/147/147 146/146/146 144/144/144
f 150/150/150 149/149/149 148/148/148
f 151/151/151 150/150/150 148/148/148
f 154/154/154 153/153/153 152/152/152
f 155/155/155 154/154/154 152/152/152
f 158/158/158 157/157/157 156/156/156
f 159/159/159 158/158/158 156/156/156
