g Space_Door:RoadKillOut
v -0.9116748 1.6856375 -0.6540456
v -0.91167337 2.1353228 -0.65404266
v -1.4296099 2.1349354 -0.65404266
v -1.8189178 1.6856375 -0.6540434
v -2.0790455 1.1875426 -0.6540434
v -0.9116748 1.1875426 -0.6540456
v -2.1703901 0.6 -0.6540434
v -0.9116748 0.6 -0.65403354
v -2.0790455 0.01245726 -0.6540434
v -0.9116748 0.01245726 -0.6540456
v -1.8189178 -0.4856373 -0.6540434
v -0.9116748 -0.4856373 -0.6540456
v -1.4296099 -0.8184536 -0.65404266
v -0.91167337 -0.9353229 -0.65404266
v -1.8189178 1.6856375 0.65403867
v -1.8189178 1.6856375 -0.6540434
v -1.4296099 2.1349354 -0.65404266
v -1.4296099 2.1349354 0.6540394
v -2.0790455 1.1875426 0.65403867
v -2.0790455 1.1875426 -0.6540434
v -2.1703901 0.6 0.65403867
v -2.1703901 0.6 -0.6540434
v -2.0790455 0.01245726 0.65403867
v -2.0790455 0.01245726 -0.6540434
v -1.8189178 -0.4856373 0.65403867
v -1.8189178 -0.4856373 -0.6540434
v -1.4296099 -0.8184536 0.6540394
v -1.4296099 -0.8184536 -0.65404266
v -0.91167337 -0.9353229 -0.65404266
v -0.91167337 -0.9353229 0.6540394
v -0.9116748 1.6856375 0.65403646
v -0.9116748 1.6856375 -0.6540456
v -0.9116748 1.1875426 -0.6540456
v -0.9116748 1.1875426 0.65403646
v -0.9116748 0.6 -0.65403354
v -0.9116748 0.6 0.6540485
v -0.9116748 0.01245726 -0.6540456
v -0.9116748 0.01245726 0.65403646
v -0.9116748 -0.4856373 -0.6540456
v -0.9116748 -0.4856373 0.65403646
v -0.91167337 -0.9353229 0.6540394
v -0.91167337 -0.9353229 -0.65404266
v -0.91167337 2.1353228 0.6540394
v -0.91167337 2.1353228 -0.65404266
v -1.4296099 2.1349354 0.6540394
v -1.4296099 2.1349354 -0.65404266
v -0.91167337 2.1353228 -0.65404266
v -0.91167337 2.1353228 0.6540394
v -2.1703901 0.6 0.65403867
v -0.9116748 0.6 0.6540485
v -0.9116748 0.01245726 0.65403646
v -2.0790455 0.01245726 0.65403867
v -2.0790455 1.1875426 0.65403867
v -0.9116748 1.1875426 0.65403646
v -1.8189178 1.6856375 0.65403867
v -0.9116748 1.6856375 0.65403646
v -0.9116748 -0.4856373 0.65403646
v -1.8189178 -0.4856373 0.65403867
v -1.4296099 2.1349354 0.6540394
v -0.91167337 2.1353228 0.6540394
v -0.91167337 -0.9353229 0.6540394
v -1.4296099 -0.8184536 0.6540394
v 0.9116748 1.6856375 0.65404266
v 0.91167337 2.1353228 0.6540394
v 1.4296099 2.1349354 0.6540394
v 1.8189185 1.6856375 0.6540401
v 2.0790455 1.1875426 0.6540401
v 0.9116748 1.1875426 0.65404266
v 2.1703901 0.6 0.6540401
v 0.9116748 0.6 0.6540302
v 2.0790455 0.01245726 0.6540401
v 0.9116748 0.01245726 0.65404266
v 1.8189185 -0.4856373 0.6540401
v 0.9116748 -0.4856373 0.65404266
v 1.4296099 -0.8184536 0.6540394
v 0.91167337 -0.9353229 0.6540394
v 1.8189185 1.6856375 -0.65403867
v 1.8189185 1.6856375 0.6540401
v 1.4296099 2.1349354 0.6540394
v 1.4296099 2.1349354 -0.6540394
v 2.0790455 1.1875426 -0.65403867
v 2.0790455 1.1875426 0.6540401
v 2.1703901 0.6 -0.65403867
v 2.1703901 0.6 0.6540401
v 2.0790455 0.01245726 -0.65403867
v 2.0790455 0.01245726 0.6540401
v 1.8189185 -0.4856373 -0.65403867
v 1.8189185 -0.4856373 0.6540401
v 1.4296099 -0.8184536 -0.6540394
v 1.4296099 -0.8184536 0.6540394
v 0.91167337 -0.9353229 0.6540394
v 0.91167337 -0.9353229 -0.6540394
v 0.9116748 1.6856375 -0.65403646
v 0.9116748 1.6856375 0.65404266
v 0.9116748 1.1875426 0.65404266
v 0.9116748 1.1875426 -0.65403646
v 0.9116748 0.6 0.6540302
v 0.9116748 0.6 -0.6540485
v 0.9116748 0.01245726 0.65404266
v 0.9116748 0.01245726 -0.65403646
v 0.9116748 -0.4856373 0.65404266
v 0.9116748 -0.4856373 -0.65403646
v 0.91167337 -0.9353229 -0.6540394
v 0.91167337 -0.9353229 0.6540394
v 0.91167337 2.1353228 -0.6540394
v 0.91167337 2.1353228 0.6540394
v 1.4296099 2.1349354 -0.6540394
v 1.4296099 2.1349354 0.6540394
v 0.91167337 2.1353228 0.6540394
v 0.91167337 2.1353228 -0.6540394
v 2.1703901 0.6 -0.65403867
v 0.9116748 0.6 -0.6540485
v 0.9116748 0.01245726 -0.65403646
v 2.0790455 0.01245726 -0.65403867
v 2.0790455 1.1875426 -0.65403867
v 0.9116748 1.1875426 -0.65403646
v 1.8189185 1.6856375 -0.65403867
v 0.9116748 1.6856375 -0.65403646
v 0.9116748 -0.4856373 -0.65403646
v 1.8189185 -0.4856373 -0.65403867
v 1.4296099 2.1349354 -0.6540394
v 0.91167337 2.1353228 -0.6540394
v 0.91167337 -0.9353229 -0.6540394
v 1.4296099 -0.8184536 -0.6540394
vt 0.7749464 0.51708865
vt 0.77494514 0.59178615
vt 0.8609799 0.5917216
vt 0.92564666 0.51708865
vt 0.96885693 0.43435034
vt 0.7749464 0.43435034
vt 0.98402953 0.33675435
vt 0.7749464 0.33675435
vt 0.96885693 0.23915839
vt 0.7749464 0.23915839
vt 0.92564666 0.15642002
vt 0.77494514 0.15642002
vt 0.8609799 0.10113617
vt 0.77494514 0.08172374
vt 0.22512186 0.586354
vt 0.015970528 0.58635527
vt 0.01597181 0.68510735
vt 0.22512186 0.68510604
vt 0.22512186 0.49301323
vt 0.015970528 0.49301323
vt 0.22512186 0.39424473
vt 0.015970528 0.39424473
vt 0.22512186 0.29547617
vt 0.015970528 0.29547617
vt 0.22512186 0.2021341
vt 0.015970528 0.2021341
vt 0.22512186 0.1170569
vt 0.01597181 0.1170569
vt 0.01597181 0.02885916
vt 0.22512314 0.028860442
vt 0.26895314 0.51708996
vt 0.47810322 0.51708996
vt 0.47810322 0.43435153
vt 0.26895314 0.43435153
vt 0.47810203 0.33675563
vt 0.26895064 0.33675563
vt 0.47810322 0.23915839
vt 0.26895314 0.23915839
vt 0.47810322 0.15642124
vt 0.26895314 0.15642124
vt 0.26895314 0.0817238
vt 0.47810322 0.0817238
vt 0.26895314 0.59178615
vt 0.47810322 0.59178615
vt 0.22512186 0.68510604
vt 0.01597181 0.68510735
vt 0.01597181 0.7711408
vt 0.22512314 0.7711395
vt 0.5219649 0.33675435
vt 0.7310493 0.33675435
vt 0.7310493 0.23915839
vt 0.5371387 0.23915839
vt 0.5371387 0.43435034
vt 0.7310493 0.43435034
vt 0.5803477 0.51708865
vt 0.7310493 0.51708865
vt 0.7310493 0.15642002
vt 0.5803477 0.15642002
vt 0.6450157 0.5917216
vt 0.7310493 0.59178615
vt 0.7310493 0.08172374
vt 0.6450157 0.10113617
vt 0.77494514 0.5170899
vt 0.77494514 0.5917861
vt 0.8609799 0.5917216
vt 0.92564666 0.5170899
vt 0.96885693 0.43435153
vt 0.77494514 0.43435153
vt 0.98402935 0.33675554
vt 0.77494514 0.33675554
vt 0.96885693 0.2391583
vt 0.77494514 0.2391583
vt 0.92564666 0.15642121
vt 0.77494514 0.15642121
vt 0.8609799 0.10113745
vt 0.77494514 0.08172374
vt 0.22512126 0.58635527
vt 0.015971184 0.58635527
vt 0.015971184 0.68510604
vt 0.22512126 0.68510604
vt 0.22512126 0.49301323
vt 0.015971184 0.49301323
vt 0.22512126 0.39424473
vt 0.015971184 0.39424473
vt 0.22512254 0.29547617
vt 0.015971184 0.29547617
vt 0.22512254 0.2021341
vt 0.015971184 0.2021341
vt 0.22512254 0.1170569
vt 0.015971184 0.1170569
vt 0.015971184 0.02885916
vt 0.22512254 0.02885916
vt 0.26895314 0.51708996
vt 0.47810322 0.51708996
vt 0.47810322 0.43435153
vt 0.26895314 0.43435153
vt 0.47810066 0.33675563
vt 0.26895064 0.33675563
vt 0.47810322 0.23915839
vt 0.26895314 0.23915839
vt 0.47810322 0.15642124
vt 0.26895314 0.15642124
vt 0.26895186 0.0817238
vt 0.47810194 0.0817238
vt 0.26895186 0.59178615
vt 0.47810194 0.59178615
vt 0.22512126 0.68510604
vt 0.015971184 0.68510604
vt 0.015971184 0.7711408
vt 0.22512126 0.7711408
vt 0.5219649 0.33675435
vt 0.7310493 0.33675435
vt 0.7310493 0.23915839
vt 0.5371386 0.23915839
vt 0.5371386 0.43435034
vt 0.7310493 0.43435034
vt 0.58034766 0.51708865
vt 0.7310493 0.51708865
vt 0.7310493 0.15642002
vt 0.58034766 0.15642002
vt 0.6450157 0.5917216
vt 0.7310493 0.59178615
vt 0.7310493 0.08172374
vt 0.6450157 0.10113617
vn -2E-06 2E-06 -1
vn -1E-06 5E-06 -1
vn -1E-06 5E-06 -1
vn -2E-06 1E-06 -1
vn 1E-06 -7E-06 -1
vn 1E-06 -6E-06 -1
vn 3E-06 0 -1
vn 3E-06 0 -1
vn 1E-06 7E-06 -1
vn 1E-06 6E-06 -1
vn -2E-06 -1E-06 -1
vn -2E-06 -2E-06 -1
vn -2E-06 -6E-06 -1
vn -2E-06 -6E-06 -1
vn -0.824812 0.565407 0
vn -0.824812 0.565407 0
vn -0.7557589 0.6548499 0
vn -0.7557589 0.6548499 0
vn -0.9513838 0.30800796 0
vn -0.9513838 0.30800796 0
vn -1 0 0
vn -1 0 0
vn -0.9513838 -0.30800796 0
vn -0.9513838 -0.30800796 0
vn -0.7878922 -0.61581326 0
vn -0.7878926 -0.6158127 0
vn -0.44410092 -0.89597684 0
vn -0.44410092 -0.89597684 0
vn -0.22011003 -0.97547513 0
vn -0.22011003 -0.97547513 0
vn 1 -1E-06 0
vn 1 -1E-06 0
vn 1 0 0
vn 1 0 0
vn 1 0 0
vn 1 0 0
vn 1 0 0
vn 1 0 0
vn 1 1E-06 0
vn 1 1E-06 0
vn 1 2E-06 0
vn 1 2E-06 0
vn 1 -2E-06 0
vn 1 -2E-06 0
vn -0.0007479998 0.99999976 0
vn -0.0007479998 0.99999976 0
vn -0.0007479998 0.99999976 0
vn -0.0007479998 0.99999976 0
vn -3E-06 -1E-05 1
vn -3E-06 -1E-05 1
vn -3E-06 -1E-05 1
vn -3E-06 -1E-05 1
vn -3E-06 1E-05 1
vn -3E-06 1E-05 1
vn 2E-06 -1E-06 1
vn 2E-06 -1E-06 1
vn 2E-06 1E-06 1
vn 2E-06 1E-06 1
vn 2E-06 -5E-06 1
vn 2E-06 -5E-06 1
vn 2E-06 6E-06 1
vn 2E-06 6E-06 1
vn 2E-06 2E-06 1
vn 1E-06 5E-06 1
vn 1E-06 5E-06 1
vn 2E-06 1E-06 1
vn -1E-06 -7E-06 1
vn -1E-06 -6E-06 1
vn -3E-06 0 1
vn -3E-06 0 1
vn -1E-06 7E-06 1
vn -1E-06 6E-06 1
vn 2E-06 -1E-06 1
vn 2E-06 -2E-06 1
vn 3E-06 -6E-06 1
vn 3E-06 -6E-06 1
vn 0.824812 0.565407 0
vn 0.824812 0.565407 0
vn 0.75575805 0.654851 0
vn 0.75575805 0.654851 0
vn 0.951384 0.308007 0
vn 0.951384 0.308007 0
vn 1 0 0
vn 1 0 0
vn 0.951384 -0.308007 0
vn 0.951384 -0.308007 0
vn 0.7878922 -0.61581326 0
vn 0.7878926 -0.6158127 0
vn 0.44410092 -0.89597684 0
vn 0.44410092 -0.89597684 0
vn 0.22011097 -0.9754749 0
vn 0.22011097 -0.9754749 0
vn -1 -1E-06 0
vn -1 -1E-06 0
vn -1 0 0
vn -1 0 0
vn -1 0 0
vn -1 0 0
vn -1 0 0
vn -1 0 0
vn -1 1E-06 0
vn -1 1E-06 0
vn -1 3E-06 0
vn -1 3E-06 0
vn -1 -2E-06 0
vn -1 -2E-06 0
vn 0.0007479998 0.99999976 0
vn 0.0007479998 0.99999976 0
vn 0.0007479998 0.99999976 0
vn 0.0007479998 0.99999976 0
vn 3E-06 -1E-05 -1
vn 3E-06 -1E-05 -1
vn 3E-06 -1E-05 -1
vn 3E-06 -1E-05 -1
vn 3E-06 1E-05 -1
vn 3E-06 1E-05 -1
vn -2E-06 -1E-06 -1
vn -2E-06 -1E-06 -1
vn -2E-06 1E-06 -1
vn -2E-06 1E-06 -1
vn -2E-06 -5E-06 -1
vn -2E-06 -5E-06 -1
vn -2E-06 6E-06 -1
vn -2E-06 6E-06 -1
g Space_Door:RoadKillOut_0
f 3/3/3 2/2/2 1/1/1
f 4/4/4 3/3/3 1/1/1
f 4/4/4 1/1/1 5/5/5
f 1/1/1 6/6/6 5/5/5
f 5/5/5 6/6/6 7/7/7
f 6/6/6 8/8/8 7/7/7
f 7/7/7 8/8/8 9/9/9
f 8/8/8 10/10/10 9/9/9
f 9/9/9 10/10/10 11/11/11
f 10/10/10 12/12/12 11/11/11
f 13/13/13 11/11/11 12/12/12
f 14/14/14 13/13/13 12/12/12
f 17/17/17 16/16/16 15/15/15
f 18/18/18 17/17/17 15/15/15
f 15/15/15 16/16/16 19/19/19
f 16/16/16 20/20/20 19/19/19
f 19/19/19 20/20/20 21/21/21
f 20/20/20 22/22/22 21/21/21
f 21/21/21 22/22/22 23/23/23
f 22/22/22 24/24/24 23/23/23
f 23/23/23 24/24/24 25/25/25
f 24/24/24 26/26/26 25/25/25
f 25/25/25 26/26/26 27/27/27
f 26/26/26 28/28/28 27/27/27
f 28/28/28 29/29/29 27/27/27
f 29/29/29 30/30/30 27/27/27
f 33/33/33 32/32/32 31/31/31
f 34/34/34 33/33/33 31/31/31
f 35/35/35 33/33/33 34/34/34
f 36/36/36 35/35/35 34/34/34
f 37/37/37 35/35/35 36/36/36
f 38/38/38 37/37/37 36/36/36
f 39/39/39 37/37/37 38/38/38
f 40/40/40 39/39/39 38/38/38
f 40/40/40 41/41/41 39/39/39
f 41/41/41 42/42/42 39/39/39
f 43/43/43 31/31/31 32/32/32
f 44/44/44 43/43/43 32/32/32
f 47/47/47 46/46/46 45/45/45
f 48/48/48 47/47/47 45/45/45
f 51/51/51 50/50/50 49/49/49
f 52/52/52 51/51/51 49/49/49
f 49/49/49 50/50/50 53/53/53
f 50/50/50 54/54/54 53/53/53
f 53/53/53 54/54/54 55/55/55
f 54/54/54 56/56/56 55/55/55
f 57/57/57 51/51/51 52/52/52
f 58/58/58 57/57/57 52/52/52
f 55/55/55 56/56/56 59/59/59
f 56/56/56 60/60/60 59/59/59
f 61/61/61 57/57/57 58/58/58
f 62/62/62 61/61/61 58/58/58
f 65/65/65 64/64/64 63/63/63
f 66/66/66 65/65/65 63/63/63
f 66/66/66 63/63/63 67/67/67
f 63/63/63 68/68/68 67/67/67
f 67/67/67 68/68/68 69/69/69
f 68/68/68 70/70/70 69/69/69
f 69/69/69 70/70/70 71/71/71
f 70/70/70 72/72/72 71/71/71
f 71/71/71 72/72/72 73/73/73
f 72/72/72 74/74/74 73/73/73
f 75/75/75 73/73/73 74/74/74
f 76/76/76 75/75/75 74/74/74
f 79/79/79 78/78/78 77/77/77
f 80/80/80 79/79/79 77/77/77
f 77/77/77 78/78/78 81/81/81
f 78/78/78 82/82/82 81/81/81
f 81/81/81 82/82/82 83/83/83
f 82/82/82 84/84/84 83/83/83
f 83/83/83 84/84/84 85/85/85
f 84/84/84 86/86/86 85/85/85
f 85/85/85 86/86/86 87/87/87
f 86/86/86 88/88/88 87/87/87
f 87/87/87 88/88/88 89/89/89
f 88/88/88 90/90/90 89/89/89
f 90/90/90 91/91/91 89/89/89
f 91/91/91 92/92/92 89/89/89
f 95/95/95 94/94/94 93/93/93
f 96/96/96 95/95/95 93/93/93
f 97/97/97 95/95/95 96/96/96
f 98/98/98 97/97/97 96/96/96
f 99/99/99 97/97/97 98/98/98
f 100/100/100 99/99/99 98/98/98
f 101/101/101 99/99/99 100/100/100
f 102/102/102 101/101/101 100/100/100
f 102/102/102 103/103/103 101/101/101
f 103/103/103 104/104/104 101/101/101
f 105/105/105 93/93/93 94/94/94
f 106/106/106 105/105/105 94/94/94
f 109/109/109 108/108/108 107/107/107
f 110/110/110 109/109/109 107/107/107
f 113/113/113 112/112/112 111/111/111
f 114/114/114 113/113/113 111/111/111
f 111/111/111 112/112/112 115/115/115
f 112/112/112 116/116/116 115/115/115
f 115/115/115 116/116/116 117/117/117
f 116/116/116 118/118/118 117/117/117
f 119/119/119 113/113/113 114/114/114
f 120/120/120 119/119/119 114/114/114
f 117/117/117 118/118/118 121/121/121
f 118/118/118 122/122/122 121/121/121
f 123/123/123 119/119/119 120/120/120
f 124/124/124 123/123/123 120/120/120
