g Surface_Single1m
v -0 0.29999998 -1
v -0 0.5 -1
v -0 0.5 0
v -0 0.29999998 0
v -0 0.5 -1
v 1 0.5 -1
v 1 0.5 0
v -0 0.5 0
v 1 0.5 -1
v 1 0.29999998 -1
v 1 0.29999998 0
v 1 0.5 0
v -0 0.29999998 0
v -0 0.5 0
v 1 0.5 0
v 1 0.29999998 0
v 1 0.29999998 -1
v 1 0.5 -1
v -0 0.5 -1
v -0 0.29999998 -1
v 0.074999996 0 -0.92499995
v 0.074999996 0.29999998 -0.92499995
v 0.074999996 0.29999998 -0.074999996
v 0.074999996 0 -0.074999996
v 0.074999996 0 -0.074999996
v 0.074999996 0.29999998 -0.074999996
v 0.92499995 0.29999998 -0.074999996
v 0.92499995 0 -0.074999996
v 0.92499995 0.29999998 -0.92499995
v 0.92499995 0 -0.92499995
v 0.92499995 0 -0.074999996
v 0.92499995 0.29999998 -0.074999996
v 0.92499995 0 -0.92499995
v 0.92499995 0.29999998 -0.92499995
v 0.074999996 0.29999998 -0.92499995
v 0.074999996 0 -0.92499995
v -0 0.29999998 0
v 0.074999996 0.29999998 -0.074999996
v 0.074999996 0.29999998 -0.92499995
v -0 0.29999998 -1
v 1 0.29999998 0
v 0.92499995 0.29999998 -0.074999996
v 0.074999996 0.29999998 -0.074999996
v -0 0.29999998 0
v 1 0.29999998 -1
v 0.92499995 0.29999998 -0.92499995
v 0.92499995 0.29999998 -0.074999996
v 1 0.29999998 0
v -0 0.29999998 -1
v 0.074999996 0.29999998 -0.92499995
v 0.92499995 0.29999998 -0.92499995
v 1 0.29999998 -1
vt 0.8851863 0.6881434
vt 0.9753438 0.6881491
vt 0.9753363 0.23738796
vt 0.885188 0.23738837
vt 0.68443197 0.6853294
vt 0.68443114 0.039547533
vt 0.038630962 0.03955543
vt 0.038631976 0.68534034
vt 0.9755615 0.23770761
vt 0.8854095 0.23771232
vt 0.8854083 0.6884668
vt 0.9755671 0.6884692
vt 0.8854091 0.6884674
vt 0.9755595 0.6884688
vt 0.9755584 0.23771805
vt 0.88540876 0.2377106
vt 0.8851863 0.6881451
vt 0.9753337 0.6881439
vt 0.9753336 0.23739511
vt 0.8851874 0.23738891
vt 0.7161536 0.65433854
vt 0.85137904 0.6543349
vt 0.85138166 0.27119595
vt 0.71615326 0.27119547
vt 0.7163751 0.65466106
vt 0.8516034 0.65465844
vt 0.8516029 0.2715147
vt 0.71637547 0.27151835
vt 0.85160244 0.27152073
vt 0.71637523 0.27151746
vt 0.71637595 0.6546612
vt 0.8515996 0.65465987
vt 0.7161529 0.6543389
vt 0.85138154 0.6543338
vt 0.85138166 0.27119178
vt 0.71615326 0.27119678
vt 0.885188 0.23738837
vt 0.85138166 0.27119595
vt 0.85137904 0.6543349
vt 0.8851863 0.6881434
vt 0.88540876 0.2377106
vt 0.8516029 0.2715147
vt 0.8516034 0.65465844
vt 0.8854091 0.6884674
vt 0.8854095 0.23771232
vt 0.85160244 0.27152073
vt 0.8515996 0.65465987
vt 0.8854083 0.6884668
vt 0.8851874 0.23738891
vt 0.85138166 0.27119178
vt 0.85138154 0.6543338
vt 0.8851863 0.6881451
vn -1 0 0
vn -1 0 0
vn -1 0 0
vn -1 0 0
vn -0 1 0
vn -0 1 0
vn -0 1 0
vn -0 1 0
vn 1 0 0
vn 1 0 0
vn 1 0 0
vn 1 0 0
vn -0 0 1
vn -0 0 1
vn -0 0 1
vn -0 0 1
vn -0 0 -1
vn -0 0 -1
vn -0 0 -1
vn -0 0 -1
vn -1 0 0
vn -1 0 0
vn -1 0 0
vn -1 0 0
vn -0 0 1
vn -0 0 1
vn -0 0 1
vn -0 0 1
vn 1 0 0
vn 1 0 0
vn 1 0 0
vn 1 0 0
vn -0 0 -1
vn -0 0 -1
vn -0 0 -1
vn -0 0 -1
vn -0 -1 0
vn -0 -1 0
vn -0 -1 0
vn -0 -1 0
vn -0 -1 0
vn -0 -1 0
vn -0 -1 0
vn -0 -1 0
vn -0 -1 0
vn -0 -1 0
vn -0 -1 0
vn -0 -1 0
vn -0 -1 0
vn -0 -1 0
vn -0 -1 0
vn -0 -1 0
g Surface_Single1m_0
f 3/3/3 2/2/2 1/1/1
f 4/4/4 3/3/3 1/1/1
f 7/7/7 6/6/6 5/5/5
f 8/8/8 7/7/7 5/5/5
f 11/11/11 10/10/10 9/9/9
f 12/12/12 11/11/11 9/9/9
f 15/15/15 14/14/14 13/13/13
f 16/16/16 15/15/15 13/13/13
f 19/19/19 18/18/18 17/17/17
f 20/20/20 19/19/19 17/17/17
f 23/23/23 22/22/22 21/21/21
f 24/24/24 23/23/23 21/21/21
f 27/27/27 26/26/26 25/25/25
f 28/28/28 27/27/27 25/25/25
f 31/31/31 30/30/30 29/29/29
f 32/32/32 31/31/31 29/29/29
f 35/35/35 34/34/34 33/33/33
f 36/36/36 35/35/35 33/33/33
f 39/39/39 38/38/38 37/37/37
f 40/40/40 39/39/39 37/37/37
f 43/43/43 42/42/42 41/41/41
f 44/44/44 43/43/43 41/41/41
f 47/47/47 46/46/46 45/45/45
f 48/48/48 47/47/47 45/45/45
f 51/51/51 50/50/50 49/49/49
f 52/52/52 51/51/51 49/49/49
