g Surface_CornerDS
v -0 0.5 0
v -0 0.5 -1
v 1 0.5 -1
v 1 0.5 0
v -0 0.5 -1
v -0 0.29999998 -1
v 1 0.29999998 -1
v 1 0.5 -1
v 1 0.29999998 0
v 1 0.5 0
v 1 0.5 -1
v 1 0.29999998 -1
v 0.92499995 0 0
v 0.92499995 0.29999998 0
v 0.92499995 0.29999998 -0.92499995
v 0.92499995 0 -0.92499995
v -0 0.29999998 -0.92499995
v -0 0 -0.92499995
v 0.92499995 0 -0.92499995
v 0.92499995 0.29999998 -0.92499995
v 1 0.29999998 -1
v 0.92499995 0.29999998 -0.92499995
v 0.92499995 0.29999998 0
v 1 0.29999998 0
v -0 0.29999998 -1
v -0 0.29999998 -0.92499995
v 0.92499995 0.29999998 -0.92499995
v 1 0.29999998 -1
v 0.074999996 0 0
v 0.074999996 0 -0.074999996
v 0.074999996 0.29999998 -0.074999996
v 0.074999996 0.29999998 0
v -0 0.29999998 -0.074999996
v 0.074999996 0.29999998 -0.074999996
v 0.074999996 0 -0.074999996
v -0 0 -0.074999996
v -0 0.29999998 -0.074999996
v -0 0.29999998 0
v 0.074999996 0.29999998 0
v 0.074999996 0.29999998 -0.074999996
vt 0.6540518 0.078287914
vt 0.038859993 0.07828693
vt 0.03885442 0.68617254
vt 0.6540518 0.6861742
vt 0.48773563 0.9763236
vt 0.48773366 0.88601196
vt 0.036214337 0.88601404
vt 0.03621505 0.9763199
vt 0.52289355 0.8868606
vt 0.5228931 0.9771657
vt 0.9744127 0.97716665
vt 0.9744134 0.8868611
vt 0.5228934 0.71754086
vt 0.5228934 0.8529967
vt 0.9405495 0.8529967
vt 0.94054973 0.71754205
vt 0.48773307 0.8521472
vt 0.48773628 0.7166953
vt 0.070078075 0.716695
vt 0.07007846 0.8521498
vt 0.9744134 0.8868611
vt 0.9405495 0.8529967
vt 0.5228934 0.8529967
vt 0.52289355 0.8868606
vt 0.48773366 0.88601196
vt 0.48773307 0.8521472
vt 0.07007846 0.8521498
vt 0.036214337 0.88601404
vt 0.7173945 0.13946733
vt 0.7173928 0.17332138
vt 0.85281324 0.17332041
vt 0.8528122 0.13946724
vt 0.8528116 0.20717722
vt 0.85281324 0.17332041
vt 0.7173928 0.17332138
vt 0.7173953 0.20717615
vt 0.8528116 0.20717722
vt 0.88666654 0.20717597
vt 0.8866664 0.17332172
vt 0.85281324 0.17332041
vn -0 1 0
vn -0 1 0
vn -0 1 0
vn -0 1 0
vn -0 0 -1
vn -0 0 -1
vn -0 0 -1
vn -0 0 -1
vn 1 0 0
vn 1 0 0
vn 1 0 0
vn 1 0 0
vn 1 0 0
vn 1 0 0
vn 1 0 0
vn 1 0 0
vn -0 0 -1
vn -0 0 -1
vn -0 0 -1
vn -0 0 -1
vn -0 -1 0
vn -0 -1 0
vn -0 -1 0
vn -0 -1 0
vn -0 -1 0
vn -0 -1 0
vn -0 -1 0
vn -0 -1 0
vn -1 0 0
vn -1 0 0
vn -1 0 0
vn -1 0 0
vn -0 0 1
vn -0 0 1
vn -0 0 1
vn -0 0 1
vn -0 -1 0
vn -0 -1 0
vn -0 -1 0
vn -0 -1 0
g Surface_CornerDS_0
f 3/3/3 2/2/2 1/1/1
f 4/4/4 3/3/3 1/1/1
f 7/7/7 6/6/6 5/5/5
f 8/8/8 7/7/7 5/5/5
f 11/11/11 10/10/10 9/9/9
f 12/12/12 11/11/11 9/9/9
f 15/15/15 14/14/14 13/13/13
f 16/16/16 15/15/15 13/13/13
f 19/19/19 18/18/18 17/17/17
f 20/20/20 19/19/19 17/17/17
f 23/23/23 22/22/22 21/21/21
f 24/24/24 23/23/23 21/21/21
f 27/27/27 26/26/26 25/25/25
f 28/28/28 27/27/27 25/25/25
f 31/31/31 30/30/30 29/29/29
f 32/32/32 31/31/31 29/29/29
f 35/35/35 34/34/34 33/33/33
f 36/36/36 35/35/35 33/33/33
f 39/39/39 38/38/38 37/37/37
f 40/40/40 39/39/39 37/37/37
