g Surface_EndDS
v -0 0.5 -1
v 1 0.5 -1
v 1 0.5 0
v -0 0.5 0
v 1 0.5 -1
v 1 0.29999998 -1
v 1 0.29999998 0
v 1 0.5 0
v -0 0.29999998 0
v -0 0.5 0
v 1 0.5 0
v 1 0.29999998 0
v 1 0.29999998 -1
v 1 0.5 -1
v -0 0.5 -1
v -0 0.29999998 -1
v -0 0 -0.074999996
v -0 0.29999998 -0.074999996
v 0.92499995 0.29999998 -0.074999996
v 0.92499995 0 -0.074999996
v 0.92499995 0.29999998 -0.92499995
v 0.92499995 0 -0.92499995
v 0.92499995 0 -0.074999996
v 0.92499995 0.29999998 -0.074999996
v 0.92499995 0 -0.92499995
v 0.92499995 0.29999998 -0.92499995
v -0 0.29999998 -0.92499995
v -0 0 -0.92499995
v 1 0.29999998 0
v 0.92499995 0.29999998 -0.074999996
v -0 0.29999998 -0.074999996
v -0 0.29999998 0
v 1 0.29999998 -1
v 0.92499995 0.29999998 -0.92499995
v 0.92499995 0.29999998 -0.074999996
v 1 0.29999998 0
v -0 0.29999998 -1
v -0 0.29999998 -0.92499995
v 0.92499995 0.29999998 -0.92499995
v 1 0.29999998 -1
vt 0.039586604 0.08342278
vt 0.039586604 0.64633566
vt 0.68537825 0.6463373
vt 0.68538284 0.083432406
vt 0.97679675 0.23805422
vt 0.88664496 0.2380541
vt 0.8866458 0.6888095
vt 0.9767951 0.6888094
vt 0.5248256 0.8858774
vt 0.52483577 0.97602415
vt 0.9755863 0.97602725
vt 0.9755842 0.8858772
vt 0.03678207 0.8858537
vt 0.03678213 0.9760048
vt 0.4875376 0.9760047
vt 0.48753765 0.8858539
vt 0.52483237 0.7168437
vt 0.5248239 0.8520707
vt 0.9417772 0.85207075
vt 0.941778 0.7168419
vt 0.8528384 0.27186024
vt 0.7176124 0.27186108
vt 0.7176119 0.6550028
vt 0.85283935 0.65500295
vt 0.07058869 0.7168201
vt 0.07058809 0.85204726
vt 0.4875376 0.8520471
vt 0.4875376 0.7168203
vt 0.9755842 0.8858772
vt 0.9417772 0.85207075
vt 0.5248239 0.8520707
vt 0.5248256 0.8858774
vt 0.88664496 0.2380541
vt 0.8528384 0.27186024
vt 0.85283935 0.65500295
vt 0.8866458 0.6888095
vt 0.48753765 0.8858539
vt 0.4875376 0.8520471
vt 0.07058809 0.85204726
vt 0.03678207 0.8858537
vn -0 1 0
vn -0 1 0
vn -0 1 0
vn -0 1 0
vn 1 0 0
vn 1 0 0
vn 1 0 0
vn 1 0 0
vn -0 0 1
vn -0 0 1
vn -0 0 1
vn -0 0 1
vn -0 0 -1
vn -0 0 -1
vn -0 0 -1
vn -0 0 -1
vn -0 0 1
vn -0 0 1
vn -0 0 1
vn -0 0 1
vn 1 0 0
vn 1 0 0
vn 1 0 0
vn 1 0 0
vn -0 0 -1
vn -0 0 -1
vn -0 0 -1
vn -0 0 -1
vn -0 -1 0
vn -0 -1 0
vn -0 -1 0
vn -0 -1 0
vn -0 -1 0
vn -0 -1 0
vn -0 -1 0
vn -0 -1 0
vn -0 -1 0
vn -0 -1 0
vn -0 -1 0
vn -0 -1 0
g Surface_EndDS_0
f 3/3/3 2/2/2 1/1/1
f 4/4/4 3/3/3 1/1/1
f 7/7/7 6/6/6 5/5/5
f 8/8/8 7/7/7 5/5/5
f 11/11/11 10/10/10 9/9/9
f 12/12/12 11/11/11 9/9/9
f 15/15/15 14/14/14 13/13/13
f 16/16/16 15/15/15 13/13/13
f 19/19/19 18/18/18 17/17/17
f 20/20/20 19/19/19 17/17/17
f 23/23/23 22/22/22 21/21/21
f 24/24/24 23/23/23 21/21/21
f 27/27/27 26/26/26 25/25/25
f 28/28/28 27/27/27 25/25/25
f 31/31/31 30/30/30 29/29/29
f 32/32/32 31/31/31 29/29/29
f 35/35/35 34/34/34 33/33/33
f 36/36/36 35/35/35 33/33/33
f 39/39/39 38/38/38 37/37/37
f 40/40/40 39/39/39 37/37/37
