g Surface_StraightDS
v -0 0.5 -1
v 1 0.5 -1
v 1 0.5 0
v -0 0.5 0
v -0 0.29999998 0
v -0 0.5 0
v 1 0.5 0
v 1 0.29999998 0
v 1 0.29999998 -1
v 1 0.5 -1
v -0 0.5 -1
v -0 0.29999998 -1
v -0 0 -0.074999996
v -0 0.29999998 -0.074999996
v 1 0.29999998 -0.074999996
v 1 0 -0.074999996
v 1 0 -0.92499995
v 1 0.29999998 -0.92499995
v -0 0.29999998 -0.92499995
v -0 0 -0.92499995
v 1 0.29999998 0
v 1 0.29999998 -0.074999996
v -0 0.29999998 -0.074999996
v -0 0.29999998 0
v -0 0.29999998 -1
v -0 0.29999998 -0.92499995
v 1 0.29999998 -0.92499995
v 1 0.29999998 -1
vt 0.6853792 0.6853375
vt 0.6853792 0.08098516
vt 0.0395872 0.08098516
vt 0.0395872 0.6853375
vt 0.10635479 0.88643736
vt 0.10635473 0.97659147
vt 0.5302967 0.9765915
vt 0.5302967 0.88643736
vt 0.10635471 0.88693804
vt 0.10635477 0.9770854
vt 0.53029656 0.9770855
vt 0.5302967 0.88693815
vt 0.10635482 0.7174061
vt 0.10635473 0.8526355
vt 0.5302967 0.85263556
vt 0.5302967 0.7174062
vt 0.10635483 0.71790177
vt 0.10635471 0.85312504
vt 0.5302968 0.8531252
vt 0.5302967 0.71790177
vt 0.5302967 0.88643736
vt 0.5302967 0.85263556
vt 0.10635473 0.8526355
vt 0.10635479 0.88643736
vt 0.5302967 0.88693815
vt 0.5302968 0.8531252
vt 0.10635471 0.85312504
vt 0.10635471 0.88693804
vn -0 1 0
vn -0 1 0
vn -0 1 0
vn -0 1 0
vn -0 0 1
vn -0 0 1
vn -0 0 1
vn -0 0 1
vn -0 0 -1
vn -0 0 -1
vn -0 0 -1
vn -0 0 -1
vn -0 0 1
vn -0 0 1
vn -0 0 1
vn -0 0 1
vn -0 0 -1
vn -0 0 -1
vn -0 0 -1
vn -0 0 -1
vn -0 -1 0
vn -0 -1 0
vn -0 -1 0
vn -0 -1 0
vn -0 -1 0
vn -0 -1 0
vn -0 -1 0
vn -0 -1 0
g Surface_StraightDS_0
f 3/3/3 2/2/2 1/1/1
f 4/4/4 3/3/3 1/1/1
f 7/7/7 6/6/6 5/5/5
f 8/8/8 7/7/7 5/5/5
f 11/11/11 10/10/10 9/9/9
f 12/12/12 11/11/11 9/9/9
f 15/15/15 14/14/14 13/13/13
f 16/16/16 15/15/15 13/13/13
f 19/19/19 18/18/18 17/17/17
f 20/20/20 19/19/19 17/17/17
f 23/23/23 22/22/22 21/21/21
f 24/24/24 23/23/23 21/21/21
f 27/27/27 26/26/26 25/25/25
f 28/28/28 27/27/27 25/25/25
