g Surface_Corner
v -0 0.5 -1
v 1 0.5 -1
v 1 0.5 0
v -0 0.5 0
v 1 0.5 -1
v 1 0.29999998 -1
v 1 0.29999998 0
v 1 0.5 0
v -0 0.29999998 0
v -0 0.5 0
v 1 0.5 0
v 1 0.29999998 0
v -0 0 -0.074999996
v -0 0.29999998 -0.074999996
v 0.92499995 0.29999998 -0.074999996
v 0.92499995 0 -0.074999996
v 0.92499995 0.29999998 -1
v 0.92499995 0 -1
v 0.92499995 0 -0.074999996
v 0.92499995 0.29999998 -0.074999996
v 1 0.29999998 0
v 0.92499995 0.29999998 -0.074999996
v -0 0.29999998 -0.074999996
v -0 0.29999998 0
v 1 0.29999998 -1
v 0.92499995 0.29999998 -1
v 0.92499995 0.29999998 -0.074999996
v 1 0.29999998 0
vt 0.039586604 0.076109946
vt 0.03958854 0.6438914
vt 0.6853785 0.64389664
vt 0.6853783 0.076109946
vt 0.4865826 0.9771351
vt 0.48658422 0.88697755
vt 0.035829067 0.8869796
vt 0.035828173 0.97713155
vt 0.52373004 0.88651466
vt 0.52373034 0.97666717
vt 0.9744852 0.9766669
vt 0.97448665 0.88651544
vt 0.52373064 0.71748185
vt 0.5237303 0.8527099
vt 0.94068 0.8527096
vt 0.9406789 0.7174826
vt 0.48658428 0.85316837
vt 0.48658463 0.7179482
vt 0.0696342 0.71794677
vt 0.06963408 0.8531722
vt 0.97448665 0.88651544
vt 0.94068 0.8527096
vt 0.5237303 0.8527099
vt 0.52373004 0.88651466
vt 0.48658422 0.88697755
vt 0.48658428 0.85316837
vt 0.06963408 0.8531722
vt 0.035829067 0.8869796
vn -0 1 0
vn -0 1 0
vn -0 1 0
vn -0 1 0
vn 1 0 0
vn 1 0 0
vn 1 0 0
vn 1 0 0
vn -0 0 1
vn -0 0 1
vn -0 0 1
vn -0 0 1
vn -0 0 1
vn -0 0 1
vn -0 0 1
vn -0 0 1
vn 1 0 0
vn 1 0 0
vn 1 0 0
vn 1 0 0
vn -0 -1 0
vn -0 -1 0
vn -0 -1 0
vn -0 -1 0
vn -0 -1 0
vn -0 -1 0
vn -0 -1 0
vn -0 -1 0
g Surface_Corner_0
f 3/3/3 2/2/2 1/1/1
f 4/4/4 3/3/3 1/1/1
f 7/7/7 6/6/6 5/5/5
f 8/8/8 7/7/7 5/5/5
f 11/11/11 10/10/10 9/9/9
f 12/12/12 11/11/11 9/9/9
f 15/15/15 14/14/14 13/13/13
f 16/16/16 15/15/15 13/13/13
f 19/19/19 18/18/18 17/17/17
f 20/20/20 19/19/19 17/17/17
f 23/23/23 22/22/22 21/21/21
f 24/24/24 23/23/23 21/21/21
f 27/27/27 26/26/26 25/25/25
f 28/28/28 27/27/27 25/25/25
