g Sushi_Rice2
v -9.097778 -7.5266323 18.44492
v -9.292969 -0.5178194 19.521564
v 2.842171E-13 -0.5178194 22.31036
v 2.842171E-13 -7.5559816 20.750534
v 9.292969 -0.5178194 19.521564
v 9.097778 -7.5266323 18.44492
v 6.8836975 5.4553547 17.3525
v 2.842171E-13 6.3908863 19.631596
v -6.883667 5.4553547 18.49607
v 2.842171E-13 7.5937157 11.890333
v -9.292969 6.3908863 11.890333
v 9.292969 6.3908863 11.890333
v 9.292969 6.3908863 -4.7683716E-07
v 2.842171E-13 7.5937157 -4.7683716E-07
v 9.292969 6.3908863 -11.890333
v 2.842171E-13 7.5937157 -11.890333
v -9.292969 6.3908863 -4.7683716E-07
v -9.292969 6.3908863 -11.890333
v 6.8836975 5.4553547 -17.3525
v 2.842171E-13 6.3908863 -19.631596
v -6.883667 5.4553547 -18.49607
v 2.842171E-13 -0.5178194 -22.31036
v -9.292969 -0.5178194 -19.521564
v 9.292969 -0.5178194 -19.521564
v 9.097778 -7.5266323 -18.444921
v 2.842171E-13 -7.5559816 -20.750536
v -9.097778 -7.5266323 -18.444921
v 12.390625 -0.5178194 -11.15518
v 12.390625 -0.5178194 -4.7683716E-07
v 12.282013 -7.5559816 -10.531971
v 12.282013 -7.5559816 -4.7683716E-07
v 2.842171E-13 -7.5937147 -10.531971
v 2.842171E-13 -7.5559816 -20.750536
v -9.097778 -7.5266323 -18.444921
v -12.282013 -7.5559816 -10.531971
v 9.097778 -7.5266323 -18.444921
v 2.842171E-13 -7.5937147 -4.7683716E-07
v -12.282013 -7.5559816 -4.7683716E-07
v 9.292969 -0.5178194 -19.521564
v 12.282013 -7.5559816 10.531969
v 12.390625 -0.5178194 11.15518
v 9.097778 -7.5266323 18.44492
v 9.292969 -0.5178194 19.521564
v 2.842171E-13 -7.5937147 10.531969
v -12.282013 -7.5559816 10.531969
v 2.842171E-13 -7.5559816 20.750534
v -9.097778 -7.5266323 18.44492
v -9.097778 -7.5266323 -18.444921
v -9.292969 -0.5178194 -19.521564
v -12.390625 -0.5178194 -11.15518
v -12.282013 -7.5559816 -10.531971
v -12.390625 -0.5178194 -4.7683716E-07
v -12.282013 -7.5559816 -4.7683716E-07
v -12.390625 -0.5178194 11.15518
v -12.282013 -7.5559816 10.531969
v -9.097778 -7.5266323 18.44492
v -9.292969 -0.5178194 19.521564
vt 0 0.773449
vt 0.113525 0.78424
vt 0.120558 0.641605
vt 0.019716 0.625232
vt 0.149598 0.513905
vt 0.048566 0.491339
vt 0.236295 0.565063
vt 0.210183 0.655869
vt 0.206428 0.75129
vt 0.30724 0.661935
vt 0.303466 0.778182
vt 0.309951 0.544671
vt 0.455013 0.544368
vt 0.456484 0.662716
vt 0.600871 0.543958
vt 0.606164 0.657686
vt 0.457562 0.784729
vt 0.611569 0.777456
vt 0.681627 0.558948
vt 0.702543 0.655641
vt 0.701431 0.74845
vt 0.793829 0.652074
vt 0.791983 0.784218
vt 0.77337 0.512474
vt 0.885394 0.500616
vt 0.895624 0.64787
vt 0.895624 0.784997
vt 0.592755 0.450767
vt 0.453478 0.450305
vt 0.583735 0.363866
vt 0.451888 0.359905
vt 0.602354 0.194479
vt 0.766449 0.215005
vt 0.740129 0.059258
vt 0.610873 0
vt 0.70358 0.349577
vt 0.447439 0.191126
vt 0.440176 0.002465
vt 0.71884 0.461228
vt 0.320383 0.366811
vt 0.315065 0.454377
vt 0.198825 0.36157
vt 0.192272 0.473045
vt 0.292816 0.20327
vt 0.27393 0.016344
vt 0.138527 0.22621
vt 0.157143 0.080681
vt 0.750391 0.951994
vt 0.738665 0.840942
vt 0.612882 0.876559
vt 0.619694 0.979551
vt 0.458821 0.887872
vt 0.460474 0.990096
vt 0.303633 0.880295
vt 0.300043 0.985125
vt 0.165538 0.962482
vt 0.172653 0.848589
vn -0.41894212 -0.7810972 0.4630061
vn -0.65974915 0.09505204 0.74545026
vn 0.016709995 0.06157198 0.9979627
vn -0 -0.81087226 0.5852232
vn 0.6449989 0.112118974 0.7559138
vn 0.41894212 -0.7810972 0.4630061
vn 0.4670481 0.69593805 0.54546905
vn 0.02038399 0.7502195 0.6608746
vn -0.45784092 0.68170696 0.5706639
vn -0 0.99822587 0.059539992
vn -0.5667239 0.8166998 0.10874499
vn 0.56596774 0.81697756 0.11058095
vn 0.54047275 0.8413616 0
vn -0 1 0
vn 0.56596774 0.81697756 -0.11058095
vn -0 0.99822587 -0.059539992
vn -0.54047275 0.8413616 0
vn -0.5667239 0.8166998 -0.10874499
vn 0.4670481 0.69593805 -0.54546905
vn 0.02038399 0.7502195 -0.6608746
vn -0.45784092 0.68170696 -0.5706639
vn 0.016709995 0.06157198 -0.9979627
vn -0.65974915 0.09505204 -0.74545026
vn 0.6449989 0.112118974 -0.7559138
vn 0.41894212 -0.7810972 -0.4630061
vn -0 -0.81087226 -0.5852232
vn -0.41894212 -0.7810972 -0.4630061
vn 0.9696632 0.19293302 -0.15010002
vn 0.97636503 0.21612802 0
vn 0.54716825 -0.8326114 -0.08582004
vn 0.50669086 -0.86212784 0
vn -0 -0.99999833 -0.0018360007
vn -0 -0.81087226 -0.5852232
vn -0.41894212 -0.7810972 -0.4630061
vn -0.54716825 -0.8326114 -0.08582004
vn 0.41894212 -0.7810972 -0.4630061
vn -0 -1 0
vn -0.50669086 -0.86212784 0
vn 0.6449989 0.112118974 -0.7559138
vn 0.54716825 -0.8326114 0.08582004
vn 0.9696632 0.19293302 0.15010002
vn 0.41894212 -0.7810972 0.4630061
vn 0.6449989 0.112118974 0.7559138
vn -0 -0.99999833 0.0018360007
vn -0.54716825 -0.8326114 0.08582004
vn -0 -0.81087226 0.5852232
vn -0.41894212 -0.7810972 0.4630061
vn -0.41894212 -0.7810972 -0.4630061
vn -0.65974915 0.09505204 -0.74545026
vn -0.9704157 0.19056192 -0.14825495
vn -0.54716825 -0.8326114 -0.08582004
vn -0.97636503 0.21612802 0
vn -0.50669086 -0.86212784 0
vn -0.9704157 0.19056192 0.14825495
vn -0.54716825 -0.8326114 0.08582004
vn -0.41894212 -0.7810972 0.4630061
vn -0.65974915 0.09505204 0.74545026
g Sushi_Rice2_0
f 3/3/3 2/2/2 1/1/1
f 4/4/4 3/3/3 1/1/1
f 5/5/5 3/3/3 4/4/4
f 6/6/6 5/5/5 4/4/4
f 5/5/5 7/7/7 3/3/3
f 7/7/7 8/8/8 3/3/3
f 3/3/3 8/8/8 2/2/2
f 8/8/8 9/9/9 2/2/2
f 8/8/8 10/10/10 9/9/9
f 10/10/10 11/11/11 9/9/9
f 12/12/12 10/10/10 8/8/8
f 7/7/7 12/12/12 8/8/8
f 12/12/12 13/13/13 10/10/10
f 13/13/13 14/14/14 10/10/10
f 10/10/10 14/14/14 11/11/11
f 13/13/13 15/15/15 14/14/14
f 15/15/15 16/16/16 14/14/14
f 14/14/14 16/16/16 17/17/17
f 14/14/14 17/17/17 11/11/11
f 16/16/16 18/18/18 17/17/17
f 15/15/15 19/19/19 16/16/16
f 19/19/19 20/20/20 16/16/16
f 16/16/16 20/20/20 18/18/18
f 20/20/20 21/21/21 18/18/18
f 20/20/20 22/22/22 21/21/21
f 22/22/22 23/23/23 21/21/21
f 24/24/24 22/22/22 20/20/20
f 19/19/19 24/24/24 20/20/20
f 24/24/24 25/25/25 22/22/22
f 25/25/25 26/26/26 22/22/22
f 22/22/22 26/26/26 23/23/23
f 26/26/26 27/27/27 23/23/23
f 28/28/28 15/15/15 13/13/13
f 29/29/29 28/28/28 13/13/13
f 30/30/30 28/28/28 29/29/29
f 31/31/31 30/30/30 29/29/29
f 30/30/30 31/31/31 32/32/32
f 30/30/30 32/32/32 33/33/33
f 33/33/33 32/32/32 34/34/34
f 32/32/32 35/35/35 34/34/34
f 36/36/36 30/30/30 33/33/33
f 30/30/30 36/36/36 28/28/28
f 31/31/31 37/37/37 32/32/32
f 32/32/32 37/37/37 35/35/35
f 37/37/37 38/38/38 35/35/35
f 36/36/36 39/39/39 28/28/28
f 28/28/28 39/39/39 15/15/15
f 39/39/39 19/19/19 15/15/15
f 31/31/31 29/29/29 40/40/40
f 31/31/31 40/40/40 37/37/37
f 29/29/29 41/41/41 40/40/40
f 40/40/40 41/41/41 42/42/42
f 41/41/41 43/43/43 42/42/42
f 41/41/41 12/12/12 43/43/43
f 13/13/13 12/12/12 41/41/41
f 29/29/29 13/13/13 41/41/41
f 12/12/12 7/7/7 43/43/43
f 37/37/37 44/44/44 38/38/38
f 40/40/40 44/44/44 37/37/37
f 40/40/40 42/42/42 44/44/44
f 44/44/44 45/45/45 38/38/38
f 42/42/42 46/46/46 44/44/44
f 44/44/44 46/46/46 45/45/45
f 46/46/46 47/47/47 45/45/45
f 50/50/50 49/49/49 48/48/48
f 51/51/51 50/50/50 48/48/48
f 52/52/52 50/50/50 51/51/51
f 53/53/53 52/52/52 51/51/51
f 52/52/52 17/17/17 50/50/50
f 17/17/17 18/18/18 50/50/50
f 50/50/50 18/18/18 49/49/49
f 18/18/18 21/21/21 49/49/49
f 52/52/52 54/54/54 17/17/17
f 54/54/54 11/11/11 17/17/17
f 55/55/55 54/54/54 52/52/52
f 53/53/53 55/55/55 52/52/52
f 55/55/55 56/56/56 54/54/54
f 56/56/56 57/57/57 54/54/54
f 54/54/54 57/57/57 11/11/11
f 57/57/57 9/9/9 11/11/11
