g Sushi_salmon2
v -9.997314 -7.9724307 22.33609
v -10.212158 -1.611732 23.532267
v 0.016296387 -1.611732 26.630684
v 0.016296387 -7.999065 24.897686
v 10.24472 -1.611732 23.532267
v 10.029907 -7.9724307 22.33609
v 7.5928955 3.8090901 21.122383
v 0.016296387 4.658114 23.654514
v -7.5603333 3.8090901 22.392921
v 0.016296387 7.4615693 13.95243
v -10.146423 6.1712327 14.085781
v 10.147491 5.82017 14.301555
v 9.126617 6.951754 0.12509143
v 0.016296387 7.999064 0.12509143
v 8.090149 4.72251 -14.222105
v 0.016296387 6.3980813 -13.791823
v -9.198059 6.993571 0.12509143
v -8.12619 5.1495214 -13.9676
v 5.8534546 2.622727 -21.122387
v 0.016296387 3.3456693 -23.654514
v -5.820862 2.622727 -22.392921
v 0.016296387 -1.9931102 -26.630684
v -7.863861 -1.9931102 -23.532267
v 7.8964233 -1.9931102 -23.532267
v 7.904999 -7.40925 -22.33609
v 0.016296387 -7.431928 -24.897686
v -7.8724365 -7.40925 -22.33609
v 11.067352 0.36835337 -12.731146
v 12.446838 1.0972142 0.12509143
v 11.230194 -5.3360457 -12.112608
v 12.622162 -4.921455 0.12509143
v 0.016296387 -4.954408 -11.813393
v 0.016296387 -7.431928 -24.897686
v 7.904999 -7.40925 -22.33609
v 0.016296387 -4.9731765 0.12509143
v 7.8964233 -1.9931102 -23.532267
v 13.49588 -5.9809756 12.284787
v 13.558929 0.47708368 12.913595
v 10.029907 -7.9724307 22.33609
v 10.24472 -1.611732 23.532267
v 0.016296387 -5.6204486 12.033724
v 0.016296387 -7.999065 24.897686
v -7.8724365 -7.40925 -22.33609
v -11.197601 -5.3360457 -12.112608
v 0.016296387 -4.954408 -11.813393
v 0.016296387 -7.431928 -24.897686
v 0.016296387 -4.9731765 0.12509143
v -12.589569 -4.921455 0.12509143
v -11.03479 0.36835337 -12.731146
v -7.863861 -1.9931102 -23.532267
v -12.484894 1.0974088 0.12509143
v 0.016296387 -5.6204486 12.033724
v -13.471619 -5.980022 12.2841835
v 0.016296387 -7.999065 24.897686
v -9.997314 -7.9724307 22.33609
v -13.558929 0.48042154 12.911525
v -10.212158 -1.611732 23.532267
vt 0 0.631824
vt 0.111433 0.636635
vt 0.112742 0.470931
vt 0.014804 0.457905
vt 0.143761 0.322527
vt 0.046174 0.301787
vt 0.23167 0.375912
vt 0.202242 0.482554
vt 0.201286 0.595612
vt 0.331782 0.486553
vt 0.330651 0.60931
vt 0.328705 0.358349
vt 0.50133 0.371886
vt 0.503157 0.485859
vt 0.68887 0.378076
vt 0.68185 0.484714
vt 0.503408 0.601776
vt 0.684391 0.594581
vt 0.800666 0.395944
vt 0.818908 0.488348
vt 0.810911 0.574205
vt 0.897366 0.491005
vt 0.886455 0.609836
vt 0.885889 0.363817
vt 0.981032 0.354348
vt 0.981032 0.493973
vt 0.97138 0.621871
vt 0.679069 0.302874
vt 0.503972 0.285968
vt 0.687371 0.21994
vt 0.507796 0.203383
vt 0.729006 0.044114
vt 0.948063 0.118109
vt 0.86343 0.229466
vt 0.53283 0.008085
vt 0.856209 0.322825
vt 0.342266 0.196676
vt 0.340893 0.280425
vt 0.180852 0.181933
vt 0.180858 0.287732
vt 0.336311 0
vt 0.12244 0.022387
vt 0.858658 0.73695
vt 0.689208 0.751674
vt 0.735153 0.918761
vt 0.941242 0.845337
vt 0.544513 0.966018
vt 0.51185 0.771609
vt 0.679647 0.670793
vt 0.848905 0.64733
vt 0.50643 0.688449
vt 0.346561 0.990095
vt 0.343049 0.780477
vt 0.11094 0.968352
vt 0.176137 0.802858
vt 0.340199 0.694237
vt 0.171048 0.693021
vn -0.34769282 -0.9105536 0.2236109
vn -0.69153637 0.09981304 0.7154123
vn 0.016821988 0.07476195 0.9970594
vn -1.3000002E-05 -0.9407831 0.33900902
vn 0.6771508 0.11810895 0.7263037
vn 0.34799898 -0.910455 0.22353598
vn 0.43080816 0.7300172 0.5305462
vn 0.021431005 0.78548217 0.61851305
vn -0.4264652 0.7139493 0.55534124
vn 0.0108 0.9903499 0.13816799
vn -0.48460194 0.8619418 0.14905497
vn 0.48835585 0.8591438 0.15290695
vn 0.45075214 0.8908503 -0.05664102
vn 0.011605999 0.99923694 -0.037294995
vn 0.48814377 0.84295166 -0.2261599
vn 0.014652997 0.9815029 -0.19088596
vn -0.45222592 0.89004487 -0.05754799
vn -0.48491782 0.8462507 -0.22071391
vn 0.47547805 0.734089 -0.484803
vn 0.026690995 0.80893785 -0.5872879
vn -0.47282404 0.71730596 -0.511771
vn 0.021502996 0.085863985 -0.9960748
vn -0.75222594 0.11132299 -0.64943296
vn 0.73781586 0.13115796 -0.66213685
vn 0.3688301 -0.91627234 -0.15623505
vn -0 -0.962498 -0.271289
vn -0.3688301 -0.91627234 -0.15623505
vn 0.9410292 0.26853007 -0.20580505
vn 0.9499121 0.29949299 -0.089279994
vn 0.4867771 -0.87315416 -0.025492003
vn 0.46442083 -0.88265365 -0.07235897
vn -0 -0.99554586 0.09427799
vn -0 -0.962498 -0.271289
vn 0.3688301 -0.91627234 -0.15623505
vn -0 -0.99959296 -0.028530998
vn 0.73781586 0.13115796 -0.66213685
vn 0.48664972 -0.8722626 -0.04826897
vn 0.9580181 0.263776 0.11235401
vn 0.34799898 -0.910455 0.22353598
vn 0.6771508 0.11810895 0.7263037
vn -1.6000005E-05 -0.9920473 -0.12586604
vn -1.3000002E-05 -0.9407831 0.33900902
vn -0.3688301 -0.91627234 -0.15623505
vn -0.48605973 -0.87353444 -0.026142986
vn -0 -0.99554586 0.09427799
vn -0 -0.962498 -0.271289
vn -0 -0.99959296 -0.028530998
vn -0.46298093 -0.88339484 -0.07254099
vn -0.9449407 0.25420094 -0.20607994
vn -0.75222594 0.11132299 -0.64943296
vn -0.95351267 0.2876409 -0.08986797
vn -1.6000005E-05 -0.9920473 -0.12586604
vn -0.48589322 -0.87272525 -0.047523014
vn -1.3000002E-05 -0.9407831 0.33900902
vn -0.34769282 -0.9105536 0.2236109
vn -0.96062666 0.25301892 0.114794955
vn -0.69153637 0.09981304 0.7154123
g Sushi_salmon2_0
f 3/3/3 2/2/2 1/1/1
f 4/4/4 3/3/3 1/1/1
f 5/5/5 3/3/3 4/4/4
f 6/6/6 5/5/5 4/4/4
f 5/5/5 7/7/7 3/3/3
f 7/7/7 8/8/8 3/3/3
f 3/3/3 8/8/8 2/2/2
f 8/8/8 9/9/9 2/2/2
f 8/8/8 10/10/10 9/9/9
f 10/10/10 11/11/11 9/9/9
f 12/12/12 10/10/10 8/8/8
f 7/7/7 12/12/12 8/8/8
f 12/12/12 13/13/13 10/10/10
f 13/13/13 14/14/14 10/10/10
f 10/10/10 14/14/14 11/11/11
f 13/13/13 15/15/15 14/14/14
f 15/15/15 16/16/16 14/14/14
f 14/14/14 16/16/16 17/17/17
f 14/14/14 17/17/17 11/11/11
f 16/16/16 18/18/18 17/17/17
f 15/15/15 19/19/19 16/16/16
f 19/19/19 20/20/20 16/16/16
f 16/16/16 20/20/20 18/18/18
f 20/20/20 21/21/21 18/18/18
f 20/20/20 22/22/22 21/21/21
f 22/22/22 23/23/23 21/21/21
f 24/24/24 22/22/22 20/20/20
f 19/19/19 24/24/24 20/20/20
f 24/24/24 25/25/25 22/22/22
f 25/25/25 26/26/26 22/22/22
f 22/22/22 26/26/26 23/23/23
f 26/26/26 27/27/27 23/23/23
f 28/28/28 15/15/15 13/13/13
f 29/29/29 28/28/28 13/13/13
f 30/30/30 28/28/28 29/29/29
f 31/31/31 30/30/30 29/29/29
f 30/30/30 31/31/31 32/32/32
f 30/30/30 32/32/32 33/33/33
f 34/34/34 30/30/30 33/33/33
f 30/30/30 34/34/34 28/28/28
f 31/31/31 35/35/35 32/32/32
f 34/34/34 36/36/36 28/28/28
f 28/28/28 36/36/36 15/15/15
f 36/36/36 19/19/19 15/15/15
f 31/31/31 29/29/29 37/37/37
f 31/31/31 37/37/37 35/35/35
f 29/29/29 38/38/38 37/37/37
f 37/37/37 38/38/38 39/39/39
f 38/38/38 40/40/40 39/39/39
f 29/29/29 13/13/13 38/38/38
f 13/13/13 12/12/12 38/38/38
f 38/38/38 12/12/12 40/40/40
f 12/12/12 7/7/7 40/40/40
f 37/37/37 41/41/41 35/35/35
f 37/37/37 39/39/39 41/41/41
f 39/39/39 42/42/42 41/41/41
f 45/45/45 44/44/44 43/43/43
f 46/46/46 45/45/45 43/43/43
f 45/45/45 47/47/47 44/44/44
f 47/47/47 48/48/48 44/44/44
f 44/44/44 49/49/49 43/43/43
f 49/49/49 50/50/50 43/43/43
f 51/51/51 49/49/49 44/44/44
f 48/48/48 51/51/51 44/44/44
f 51/51/51 17/17/17 49/49/49
f 17/17/17 18/18/18 49/49/49
f 49/49/49 18/18/18 50/50/50
f 18/18/18 21/21/21 50/50/50
f 47/47/47 52/52/52 48/48/48
f 52/52/52 53/53/53 48/48/48
f 48/48/48 53/53/53 51/51/51
f 52/52/52 54/54/54 53/53/53
f 54/54/54 55/55/55 53/53/53
f 51/51/51 56/56/56 17/17/17
f 53/53/53 56/56/56 51/51/51
f 53/53/53 55/55/55 56/56/56
f 56/56/56 11/11/11 17/17/17
f 55/55/55 57/57/57 56/56/56
f 56/56/56 57/57/57 11/11/11
f 57/57/57 9/9/9 11/11/11
