g Swish
v -0.8030175 -0.8030178 0
v -0.9442488 -0.630927 0
v -0.54458976 -0.36388332 0
v -0.46313548 -0.46313563 0
v -0.6051158 -0.2506472 0
v -1.0491931 -0.43459 0
v -0.6423875 -0.12777877 0
v -1.1138176 -0.221552 0
v -0.6549726 8.685957E-08 0
v -1.1356385 1.5943809E-07 0
v -0.64238745 0.12777896 0
v -1.1138175 0.22155231 0
v -0.6051157 0.25064734 0
v -1.049193 0.43459037 0
v -0.5445897 0.36388347 0
v -0.9442486 0.6309273 0
v -0.46313536 0.46313578 0
v -0.8030173 0.8030181 0
v -0.36388296 0.54459 0
v -0.63092643 0.94424915 0
v -0.25064686 0.6051159 0
v -0.4345895 1.0491934 0
v -0.12777852 0.6423875 0
v -0.22155155 1.1138176 0
v 2.836855E-07 0.6549726 0
v 4.918743E-07 1.1356385 0
v 0.12777907 0.64238745 0
v 0.22155252 1.1138175 0
v 0.25064737 0.6051157 0
v 0.4345904 1.049193 0
v 0.36388347 0.5445897 0
v 0.6309273 0.9442486 0
v 0.46313575 0.4631354 0
v 0.80301803 0.8030174 0
v 0.54458994 0.36388305 0
v 0.94424915 0.63092655 0
v 0.6051159 0.2506469 0
v 1.0491933 0.43458956 0
v 0.6423875 0.12777853 0
v 1.1138176 0.22155157 0
v 0.6549726 -3.0483412E-07 0
v 1.1356385 -5.197085E-07 0
v 0.64238745 -0.12777911 0
v 1.1138175 -0.2215526 0
v 0.6051157 -0.25064746 0
v 1.049193 -0.4345905 0
v 0.54458964 -0.3638835 0
v 0.94424856 -0.6309273 0
v 0.46313533 -0.46313578 0
v 0.80301726 -0.8030181 0
vt 0.41666666 0
vt 0.41666666 0.04
vt 0.5 0.04
vt 0.5 0
vt 0.5 0.08
vt 0.41666666 0.08
vt 0.5 0.12
vt 0.41666666 0.12
vt 0.5 0.16
vt 0.41666666 0.16
vt 0.5 0.2
vt 0.41666666 0.2
vt 0.5 0.24
vt 0.41666666 0.24
vt 0.5 0.28
vt 0.41666666 0.28
vt 0.5 0.32
vt 0.41666666 0.32
vt 0.5 0.36
vt 0.41666666 0.36
vt 0.5 0.4
vt 0.41666666 0.4
vt 0.5 0.44
vt 0.41666666 0.44
vt 0.5 0.48
vt 0.41666666 0.48
vt 0.5 0.52
vt 0.41666666 0.52
vt 0.5 0.56
vt 0.41666666 0.56
vt 0.5 0.6
vt 0.41666666 0.6
vt 0.5 0.64
vt 0.41666666 0.64
vt 0.5 0.68
vt 0.41666666 0.68
vt 0.5 0.72
vt 0.41666666 0.72
vt 0.5 0.76
vt 0.41666666 0.76
vt 0.5 0.8
vt 0.41666666 0.8
vt 0.5 0.84
vt 0.41666666 0.84
vt 0.5 0.88
vt 0.41666666 0.88
vt 0.5 0.92
vt 0.41666666 0.92
vt 0.5 0.96
vt 0.41666666 0.96
vn -0 0 1
vn -0 0 1
vn -0 0 1
vn -0 0 1
vn -0 0 1
vn -0 0 1
vn -0 0 1
vn -0 0 1
vn -0 0 1
vn -0 0 1
vn -0 0 1
vn -0 0 1
vn -0 0 1
vn -0 0 1
vn -0 0 1
vn -0 0 1
vn -0 0 1
vn -0 0 1
vn -0 0 1
vn -0 0 1
vn -0 0 1
vn -0 0 1
vn -0 0 1
vn -0 0 1
vn -0 0 1
vn -0 0 1
vn -0 0 1
vn -0 0 1
vn -0 0 1
vn -0 0 1
vn -0 0 1
vn -0 0 1
vn -0 0 1
vn -0 0 1
vn -0 0 1
vn -0 0 1
vn -0 0 1
vn -0 0 1
vn -0 0 1
vn -0 0 1
vn -0 0 1
vn -0 0 1
vn -0 0 1
vn -0 0 1
vn -0 0 1
vn -0 0 1
vn -0 0 1
vn -0 0 1
vn -0 0 1
vn -0 0 1
g Swish_0
f 3/3/3 2/2/2 1/1/1
f 4/4/4 3/3/3 1/1/1
f 3/3/3 5/5/5 2/2/2
f 5/5/5 6/6/6 2/2/2
f 5/5/5 7/7/7 6/6/6
f 7/7/7 8/8/8 6/6/6
f 7/7/7 9/9/9 8/8/8
f 9/9/9 10/10/10 8/8/8
f 9/9/9 11/11/11 10/10/10
f 11/11/11 12/12/12 10/10/10
f 11/11/11 13/13/13 12/12/12
f 13/13/13 14/14/14 12/12/12
f 13/13/13 15/15/15 14/14/14
f 15/15/15 16/16/16 14/14/14
f 15/15/15 17/17/17 16/16/16
f 17/17/17 18/18/18 16/16/16
f 17/17/17 19/19/19 18/18/18
f 19/19/19 20/20/20 18/18/18
f 19/19/19 21/21/21 20/20/20
f 21/21/21 22/22/22 20/20/20
f 21/21/21 23/23/23 22/22/22
f 23/23/23 24/24/24 22/22/22
f 23/23/23 25/25/25 24/24/24
f 25/25/25 26/26/26 24/24/24
f 25/25/25 27/27/27 26/26/26
f 27/27/27 28/28/28 26/26/26
f 27/27/27 29/29/29 28/28/28
f 29/29/29 30/30/30 28/28/28
f 29/29/29 31/31/31 30/30/30
f 31/31/31 32/32/32 30/30/30
f 31/31/31 33/33/33 32/32/32
f 33/33/33 34/34/34 32/32/32
f 33/33/33 35/35/35 34/34/34
f 35/35/35 36/36/36 34/34/34
f 35/35/35 37/37/37 36/36/36
f 37/37/37 38/38/38 36/36/36
f 37/37/37 39/39/39 38/38/38
f 39/39/39 40/40/40 38/38/38
f 39/39/39 41/41/41 40/40/40
f 41/41/41 42/42/42 40/40/40
f 41/41/41 43/43/43 42/42/42
f 43/43/43 44/44/44 42/42/42
f 43/43/43 45/45/45 44/44/44
f 45/45/45 46/46/46 44/44/44
f 45/45/45 47/47/47 46/46/46
f 47/47/47 48/48/48 46/46/46
f 47/47/47 49/49/49 48/48/48
f 49/49/49 50/50/50 48/48/48
