g Tabletop
v -2.9693081 -0.057248116 1.0117422
v -2.9693081 0.057248116 1.0117422
v 2.9693081 0.057248116 1.0117422
v 2.9693081 -0.057248116 1.0117422
v -2.9693081 0.057248116 1.0117422
v -2.9693081 0.057248116 -1.0117422
v 2.9693081 0.057248116 -1.0117422
v 2.9693081 0.057248116 1.0117422
v -2.9693081 0.057248116 -1.0117422
v -2.9693081 -0.057248116 -1.0117422
v 2.9693081 -0.057248116 -1.0117422
v 2.9693081 0.057248116 -1.0117422
v 2.9693081 -0.057248116 1.0117422
v 2.9693081 0.057248116 1.0117422
v 2.9693081 0.057248116 -1.0117422
v 2.9693081 -0.057248116 -1.0117422
v -2.9693081 -0.057248116 -1.0117422
v -2.9693081 0.057248116 -1.0117422
v -2.9693081 0.057248116 1.0117422
v -2.9693081 -0.057248116 1.0117422
vt 0.0015750705 0.99800795
vt 0.020778215 0.99800795
vt 0.020778215 0.0019920513
vt 0.0015750705 0.0019920513
vt 0.026999926 0.9980081
vt 0.3663757 0.9980081
vt 0.3663757 0.0019920657
vt 0.026999926 0.0019920657
vt 0.37321067 0.99800795
vt 0.39241382 0.99800795
vt 0.39241382 0.0019920063
vt 0.37321067 0.0019920063
vt 0.42777616 0.34136787
vt 0.44697928 0.34136787
vt 0.44697928 0.0019920657
vt 0.42777616 0.0019920657
vt 0.4530207 0.34136787
vt 0.47222382 0.34136787
vt 0.47222382 0.0019920657
vt 0.4530207 0.0019920657
vn -0 0 1
vn -0 0 1
vn -0 0 1
vn -0 0 1
vn -0 1 0
vn -0 1 0
vn -0 1 0
vn -0 1 0
vn -0 0 -1
vn -0 0 -1
vn -0 0 -1
vn -0 0 -1
vn 1 0 0
vn 1 0 0
vn 1 0 0
vn 1 0 0
vn -1 0 0
vn -1 0 0
vn -1 0 0
vn -1 0 0
g Tabletop_0
f 3/3/3 2/2/2 1/1/1
f 4/4/4 3/3/3 1/1/1
f 7/7/7 6/6/6 5/5/5
f 8/8/8 7/7/7 5/5/5
f 11/11/11 10/10/10 9/9/9
f 12/12/12 11/11/11 9/9/9
f 15/15/15 14/14/14 13/13/13
f 16/16/16 15/15/15 13/13/13
f 19/19/19 18/18/18 17/17/17
f 20/20/20 19/19/19 17/17/17
