g Teleporter_Effect1
v -0.31543416 2.1018143 -0.1430677
v -0 2.1737397 -0.1430677
v -0 2.2010329 -0.015205673
v -0.34399801 2.1335704 -0.015205673
v -0.53184044 1.9863044 -0.1430677
v -0.5841129 2.0052872 -0.015205673
v -0.7343044 1.7475921 -0.1430677
v -0.8327968 1.7433299 -0.015205673
v -0.8522952 1.3024278 -0.1430677
v -0.94885343 1.3050976 -0.031668212
v -0.86446095 0.91577846 -0.1430677
v -0.95936966 0.9016972 -0.0645933
v -0.8062281 0.62639195 -0.1983771
v -0.9139967 0.5552135 -0.13868278
v -0.7293145 0.32364455 -0.24676193
v -0.83748525 0.2331543 -0.22562177
v -0.6329055 0.37862074 -0.2525193
v -0.661731 0.6687223 -0.25211006
v -0.6972952 0.933184 -0.25211006
v -0.6744933 1.2719588 -0.25211006
v -0.56838566 1.6364851 -0.25211006
v -0.41442645 1.8540363 -0.25211006
v -0.241351 1.9667774 -0.25211006
v -0 2.015686 -0.25211006
v -0.2085254 1.7920883 -0.3015916
v -0 1.8359 -0.302147
v -0.17760737 1.6435096 -0.24288458
v -0.3130923 1.5615633 -0.24310927
v -0.16642128 1.5609012 -0.16779274
v -0.29426146 1.4812001 -0.16862714
v -0.43516916 1.4157802 -0.24347125
v -0.40627718 1.3412296 -0.17033236
v -0.51347756 1.1679063 -0.24338831
v -0.45982015 1.1248807 -0.17170233
v -0.53203243 0.92537105 -0.2432262
v -0.4637264 0.9002962 -0.17244293
v -0.51170194 0.6812483 -0.24352084
v -0.44532025 0.67334133 -0.17331901
v -0.47173956 0.43032 -0.24408649
v -0.40868855 0.43472242 -0.17360564
v -0 1.5960172 -0.16723192
v -0 1.677639 -0.24270688
v -0.5820371 0.6812428 -0.27492958
v -0.558019 0.41298172 -0.26156628
v -0.60303825 0.93749815 -0.2879148
v -0.5835606 1.2167884 -0.29360104
v -0.48521852 1.5234696 -0.29781905
v -0.38374144 0.42349067 -0.014211155
v -0.419888 0.66184324 -0.014211127
v -0.44010174 0.88619834 -0.014211127
v -0.44186652 1.1031802 -0.014211127
v -0.39473084 1.3131241 -0.014211127
v -0.28676665 1.4498814 -0.014211127
v -0.162317 1.5273852 -0.014211127
v -0 1.5613115 -0.014211127
v -0.34830958 1.6944207 -0.30039078
v -0.55111146 0.15623161 -0.30169353
v -0.4827954 0.20129295 -0.25964606
v -0.4081668 0.12530342 -0.24819936
v -0.3650794 0.14996688 -0.17853284
v -0.18895935 0.13958548 -0.15255968
v -0.3197086 0.1597338 -0.083722405
v -0.16768791 0.13750808 -0.07657777
v -0 0.13980614 -0.15276387
v -0 0.139364 -0.07857809
v -0.37614617 0.24264465 -0.113720566
v -0.43075398 0.23283088 -0.21409528
v -0.2095533 0.1228698 -0.23199964
v -0 0.12135162 -0.23201871
v -0 0.13105354 -0.014211155
v -0.16231693 0.13105354 -0.0142111825
v -0.30796447 0.14964813 -0.014211127
v -0.3613509 0.23496056 -0.014211127
v -0.4834046 0.092568584 -0.3128788
v -0.6596754 0.098262936 -0.35669252
v -0.5946975 0.04722466 -0.44352946
v -0.7640415 0.00044838 -0.37328175
v -0.643972 0.00841103 -0.518856
v -0.29314414 0.04035446 -0.4842976
v -0.3091821 0.00780952 -0.59431046
v -0 0.03734833 -0.48846686
v -0 0.0067105102 -0.5916418
v -0 0.08595978 -0.31685948
v -0.2388043 0.08605461 -0.3032666
v 0.3091821 0.00780952 -0.59431046
v 0.29314414 0.04035446 -0.4842976
v 0.643972 0.00841103 -0.518856
v 0.5946975 0.04722466 -0.44352946
v 0.7640415 0.00044838 -0.37328175
v 0.6596754 0.098262936 -0.35669252
v 0.2388043 0.08605461 -0.3032666
v 0.4834046 0.092568584 -0.3128788
v 0.55111146 0.15623161 -0.30169353
v 0.4081668 0.12530342 -0.24819936
v 0.4827954 0.20129295 -0.25964606
v 0.3650794 0.14996688 -0.17853284
v 0.18895935 0.13958548 -0.15255968
v 0.3197086 0.1597338 -0.083722405
v 0.16768791 0.13750808 -0.07657777
v 0.37614617 0.24264465 -0.113720566
v 0.43075398 0.23283088 -0.21409528
v 0.2095533 0.1228698 -0.23199964
v 0.16231693 0.13105354 -0.0142111825
v 0.30796447 0.14964813 -0.014211127
v 0.3613509 0.23496056 -0.014211127
v 0.38374144 0.42349067 -0.014211155
v 0.40868855 0.43472242 -0.17360564
v 0.44532025 0.67334133 -0.17331901
v 0.47173956 0.43032 -0.24408649
v 0.51170194 0.6812483 -0.24352084
v 0.4637264 0.9002962 -0.17244293
v 0.53203243 0.92537105 -0.2432262
v 0.45982015 1.1248807 -0.17170233
v 0.51347756 1.1679063 -0.24338831
v 0.40627718 1.3412296 -0.17033236
v 0.43516916 1.4157802 -0.24347125
v 0.29426146 1.4812001 -0.16862714
v 0.3130923 1.5615633 -0.24310927
v 0.16642128 1.5609012 -0.16779274
v 0.17760737 1.6435096 -0.24288458
v -0 1.5960172 -0.16723192
v -0 1.677639 -0.24270688
v 0.5820371 0.6812428 -0.27492958
v 0.558019 0.41298172 -0.26156628
v 0.60303825 0.93749815 -0.2879148
v 0.5835606 1.2167884 -0.29360104
v 0.48521852 1.5234696 -0.29781905
v 0.34830958 1.6944207 -0.30039078
v 0.2085254 1.7920883 -0.3015916
v -0 1.8359 -0.302147
v 0.39473084 1.3131241 -0.014211127
v 0.44186652 1.1031802 -0.014211127
v 0.44010174 0.88619834 -0.014211127
v 0.419888 0.66184324 -0.014211127
v -0 2.015686 -0.25211006
v 0.241351 1.9667774 -0.25211006
v -0 2.1737397 -0.1430677
v 0.31543416 2.1018143 -0.1430677
v -0 2.2010329 -0.015205673
v 0.34399801 2.1335704 -0.015205673
v 0.53184044 1.9863044 -0.1430677
v 0.5841129 2.0052872 -0.015205673
v 0.7343044 1.7475921 -0.1430677
v 0.8327968 1.7433299 -0.015205673
v 0.8522952 1.3024278 -0.1430677
v 0.94885343 1.3050976 -0.031668212
v 0.86446095 0.91577846 -0.1430677
v 0.95936966 0.9016972 -0.0645933
v 0.8062281 0.62639195 -0.1983771
v 0.9139967 0.5552135 -0.13868278
v 0.7293145 0.32364455 -0.24676193
v 0.83748525 0.2331543 -0.22562177
v 0.6329055 0.37862074 -0.2525193
v 0.661731 0.6687223 -0.25211006
v 0.6972952 0.933184 -0.25211006
v 0.6744933 1.2719588 -0.25211006
v 0.56838566 1.6364851 -0.25211006
v 0.41442645 1.8540363 -0.25211006
v 0.28676665 1.4498814 -0.014211127
v 0.162317 1.5273852 -0.014211127
v -0 1.5613115 -0.014211127
vt 0.027277626 0.893844
vt -0.0001783371 0.9337149
vt -0.00020599365 1
vt 0.021786727 1
vt 0.05808703 0.889389
vt 0.058471 1
vt 0.106260456 0.87043965
vt 0.117636 1
vt 0.17827377 0.8457134
vt 0.18507764 1
vt 0.25293624 0.8500614
vt 0.26085162 1
vt 0.31139565 0.8153955
vt 0.32537282 1
vt 0.37226743 0.8043733
vt 0.38472188 1
vt 0.36466587 0.65761876
vt 0.30150813 0.6168964
vt 0.24172515 0.63252085
vt 0.17205939 0.63930035
vt 0.10307601 0.6803989
vt 0.059481777 0.72974986
vt 0.028392114 0.7592949
vt -0.00012505054 0.8049479
vt 0.033332862 0.56715536
vt -4.4465065E-05 0.6108083
vt 0.03429059 0.3573549
vt 0.068767406 0.34616712
vt 0.03407482 0.20567927
vt 0.06954483 0.20385292
vt 0.112805285 0.3444069
vt 0.11545518 0.2101756
vt 0.17278758 0.34676385
vt 0.17373535 0.20965406
vt 0.23392361 0.36320537
vt 0.23543018 0.21411249
vt 0.29639 0.37422568
vt 0.2978956 0.22362113
vt 0.35913652 0.3884491
vt 0.3621961 0.23318899
vt 0.00012052059 0.21287319
vt 5.209446E-05 0.37768516
vt 0.29717904 0.49929437
vt 0.35960728 0.53855956
vt 0.23582447 0.49573222
vt 0.17267224 0.4925431
vt 0.1076365 0.5051
vt 0.36959726 0
vt 0.2991687 0
vt 0.23248923 0
vt 0.16802707 0
vt 0.1055539 0
vt 0.0599188 0
vt 0.026929952 0
vt 0.00020599365 0
vt 0.064596035 0.5322893
vt 0.41409546 0.6734852
vt 0.41054326 0.52386767
vt 0.4340167 0.49974388
vt 0.43618053 0.3452272
vt 0.46867967 0.24207962
vt 0.44210774 0.14527395
vt 0.4717713 0.11205673
vt 0.5 0.2355324
vt 0.5 0.11062431
vt 0.41580546 0.18832484
vt 0.4094965 0.39016587
vt 0.4666714 0.3841157
vt 0.5 0.37812108
vt 0.5 0
vt 0.4727754 0
vt 0.44500774 0
vt 0.42256862 0
vt 0.43123555 0.6553185
vt 0.42109692 0.8431513
vt 0.44071078 0.87646496
vt 0.43060035 1
vt 0.44863898 1
vt 0.46960485 0.8235843
vt 0.47416604 1
vt 0.5 0.83759654
vt 0.5 1
vt 0.5 0.54366577
vt 0.465487 0.5307703
vt 0.52583396 1
vt 0.53039515 0.8235843
vt 0.5513611 1
vt 0.5592892 0.87646496
vt 0.5693997 1
vt 0.5789031 0.8431513
vt 0.534513 0.5307703
vt 0.56876445 0.6553185
vt 0.5859046 0.6734852
vt 0.5659833 0.49974388
vt 0.5894568 0.52386767
vt 0.5638195 0.3452272
vt 0.53132033 0.24207962
vt 0.5578923 0.14527395
vt 0.52822876 0.11205673
vt 0.58419454 0.18832484
vt 0.5905036 0.39016587
vt 0.53332865 0.3841157
vt 0.52722466 0
vt 0.5549923 0
vt 0.5774313 0
vt 0.6304028 0
vt 0.6378039 0.23318899
vt 0.70210445 0.22362113
vt 0.6408634 0.3884491
vt 0.70361006 0.37422568
vt 0.7645699 0.21411249
vt 0.76607645 0.36320537
vt 0.8262646 0.20965406
vt 0.82721245 0.34676385
vt 0.88454485 0.2101756
vt 0.88719475 0.3444069
vt 0.9304552 0.20385292
vt 0.9312327 0.34616712
vt 0.9659252 0.20567927
vt 0.96570957 0.3573549
vt 0.9998795 0.21287319
vt 0.9999479 0.37768516
vt 0.7028209 0.49929437
vt 0.6403928 0.53855956
vt 0.76417565 0.49573222
vt 0.82732785 0.4925431
vt 0.89236367 0.5051
vt 0.93540406 0.5322893
vt 0.9666673 0.56715536
vt 1.0000446 0.6108083
vt 0.89444613 0
vt 0.83197296 0
vt 0.7675108 0
vt 0.7008313 0
vt 1.000125 0.8049479
vt 0.9716079 0.7592949
vt 1.0001785 0.9337149
vt 0.9727224 0.893844
vt 1.000206 1
vt 0.9782134 1
vt 0.9419131 0.889389
vt 0.94152904 1
vt 0.8937397 0.87043965
vt 0.88236403 1
vt 0.8217262 0.8457134
vt 0.81492233 1
vt 0.74706376 0.8500614
vt 0.7391484 1
vt 0.68860435 0.8153955
vt 0.6746272 1
vt 0.62773263 0.8043733
vt 0.6152781 1
vt 0.63533413 0.65761876
vt 0.69849193 0.6168964
vt 0.7582748 0.63252085
vt 0.8279407 0.63930035
vt 0.896924 0.6803989
vt 0.9405184 0.72974986
vt 0.94008124 0
vt 0.97307014 0
vt 0.999794 0
vn -0.35600153 0.8657984 -0.35164753
vn -0.21928331 0.9168068 -0.33373678
vn -0.23679551 0.9701807 -0.0517428
vn -0.39233398 0.9177133 -0.06225987
vn -0.6049754 0.70629555 -0.3676294
vn -0.67831385 0.7291651 -0.09060137
vn -0.78849196 0.44742575 -0.422008
vn -0.88545656 0.3824211 -0.26404727
vn -0.82523865 0.14766055 -0.5451399
vn -0.88869387 0.16616194 -0.42733303
vn -0.757573 0.03831877 -0.6516248
vn -0.7919274 0.06252745 -0.6074055
vn -0.59146494 0.02301 -0.8060023
vn -0.6071169 0.05798934 -0.79249376
vn -0.32896662 0.19886696 -0.92316467
vn -0.48740754 0.25450233 -0.8352619
vn -0.118443854 0.10987321 -0.98686314
vn -0.43993413 -0.03844905 -0.8972066
vn -0.59094733 -0.008014954 -0.8066703
vn -0.6085188 0.09700549 -0.78758794
vn -0.5186149 0.25736454 -0.815354
vn -0.37934723 0.42252806 -0.8231438
vn -0.21164404 0.52921796 -0.8216661
vn -0.12629394 0.56048316 -0.81847936
vn -0.013060062 0.0005307952 -0.99991465
vn -0.0034307803 0.009119567 -0.99995255
vn 0.19330157 -0.48901457 -0.8505876
vn 0.37385884 -0.42817634 -0.822736
vn 0.32893792 -0.8102294 -0.48510632
vn 0.59967154 -0.6603946 -0.4519655
vn 0.5525771 -0.29958564 -0.77775776
vn 0.8253675 -0.38998592 -0.4082638
vn 0.65672046 -0.12273977 -0.74407864
vn 0.9125333 -0.121115394 -0.39065853
vn 0.6429462 -0.0001952169 -0.7659113
vn 0.91473395 0.032403275 -0.4027554
vn 0.5974307 0.059226092 -0.7997304
vn 0.9083266 0.10990909 -0.40356264
vn 0.6219785 0.06386774 -0.78042537
vn 0.9187849 0.10916643 -0.37936392
vn 0.17698757 -0.85212046 -0.4925099
vn 0.10259135 -0.50785613 -0.8553111
vn 0.055886377 -0.021136668 -0.9982134
vn 0.14988804 0.03832372 -0.98796
vn 0.03735346 -0.023958772 -0.99901485
vn 0.014070269 -0.034560993 -0.9993036
vn -0.02582074 -0.03729014 -0.99897087
vn 0.98070806 0.13324593 -0.14302868
vn 0.98220336 0.1195817 -0.14483336
vn 0.98932064 0.043710127 -0.13904744
vn 0.98593324 -0.10499089 -0.13004784
vn 0.9006109 -0.40893233 -0.14722161
vn 0.66588235 -0.7237615 -0.18102485
vn 0.37317398 -0.90423965 -0.20758541
vn 0.2010686 -0.9556183 -0.21532531
vn -0.0104462225 -0.026000937 -0.9996074
vn 0.23661676 0.4736832 -0.84831405
vn 0.44921014 0.26161462 -0.85426456
vn 0.32430747 0.72329724 -0.609644
vn 0.47322375 0.7709886 -0.42618755
vn 0.04714182 0.9885893 -0.14306939
vn 0.5183873 0.8471827 -0.11643093
vn 0.05375954 0.99750096 0.04584591
vn -0.0013822714 0.99507964 -0.099068925
vn -0.005307857 0.9977798 0.06638849
vn 0.91008544 0.2753116 -0.3097547
vn 0.7160251 0.20226246 -0.6681302
vn 0.02708937 0.9365842 -0.349394
vn -0.003079568 0.9484609 -0.31687918
vn -0.0048832605 0.993246 0.11592421
vn 0.05845921 0.99200916 0.11180493
vn 0.47032878 0.88183165 0.034114547
vn 0.9274017 0.35809365 -0.108144276
vn 0.19314514 0.81684446 -0.5435624
vn -0.22622631 0.60475165 -0.763608
vn -0.1335183 0.88301843 -0.44994596
vn -0.49569112 0.5784925 -0.64779377
vn -0.29299524 0.850058 -0.43767017
vn -0.011987634 0.95566463 -0.2942134
vn -0.026309397 0.94845766 -0.31581
vn 0.001737656 0.96247953 -0.27134866
vn 0.0066001723 0.95870274 -0.28433326
vn -0.006218756 0.9419124 -0.33580095
vn 0.013777353 0.9316967 -0.3629758
vn 0.026309397 0.94845766 -0.31581
vn 0.011987634 0.95566463 -0.2942134
vn 0.29299524 0.850058 -0.43767017
vn 0.1335183 0.88301843 -0.44994596
vn 0.49569112 0.5784925 -0.64779377
vn 0.22622631 0.60475165 -0.763608
vn -0.013777353 0.9316967 -0.3629758
vn -0.19314514 0.81684446 -0.5435624
vn -0.23661676 0.4736832 -0.84831405
vn -0.32430747 0.72329724 -0.609644
vn -0.44921014 0.26161462 -0.85426456
vn -0.47322375 0.7709886 -0.42618755
vn -0.04714182 0.9885893 -0.14306939
vn -0.5183873 0.8471827 -0.11643093
vn -0.05375954 0.99750096 0.04584591
vn -0.91008544 0.2753116 -0.3097547
vn -0.7160251 0.20226246 -0.6681302
vn -0.02708937 0.9365842 -0.349394
vn -0.05845921 0.99200916 0.11180493
vn -0.47032878 0.88183165 0.034114547
vn -0.9274017 0.35809365 -0.108144276
vn -0.98070806 0.13324593 -0.14302868
vn -0.9187849 0.10916643 -0.37936392
vn -0.9083266 0.10990909 -0.40356264
vn -0.6219785 0.06386774 -0.78042537
vn -0.5974307 0.059226092 -0.7997304
vn -0.91473395 0.032403275 -0.4027554
vn -0.6429462 -0.0001952169 -0.7659113
vn -0.9125333 -0.121115394 -0.39065853
vn -0.65672046 -0.12273977 -0.74407864
vn -0.8253675 -0.38998592 -0.4082638
vn -0.5525771 -0.29958564 -0.77775776
vn -0.59967154 -0.6603946 -0.4519655
vn -0.37385884 -0.42817634 -0.822736
vn -0.32893792 -0.8102294 -0.48510632
vn -0.19330157 -0.48901457 -0.8505876
vn -0.17698757 -0.85212046 -0.4925099
vn -0.10259135 -0.50785613 -0.8553111
vn -0.055886377 -0.021136668 -0.9982134
vn -0.14988804 0.03832372 -0.98796
vn -0.03735346 -0.023958772 -0.99901485
vn -0.014070269 -0.034560993 -0.9993036
vn 0.02582074 -0.03729014 -0.99897087
vn 0.0104462225 -0.026000937 -0.9996074
vn 0.013060062 0.0005307952 -0.99991465
vn 0.0034307803 0.009119567 -0.99995255
vn -0.9006109 -0.40893233 -0.14722161
vn -0.98593324 -0.10499089 -0.13004784
vn -0.98932064 0.043710127 -0.13904744
vn -0.98220336 0.1195817 -0.14483336
vn 0.12629394 0.56048316 -0.81847936
vn 0.21164404 0.52921796 -0.8216661
vn 0.21928331 0.9168068 -0.33373678
vn 0.35600153 0.8657984 -0.35164753
vn 0.23679551 0.9701807 -0.0517428
vn 0.39233398 0.9177133 -0.06225987
vn 0.6049754 0.70629555 -0.3676294
vn 0.67831385 0.7291651 -0.09060137
vn 0.78849196 0.44742575 -0.422008
vn 0.88545656 0.3824211 -0.26404727
vn 0.82523865 0.14766055 -0.5451399
vn 0.88869387 0.16616194 -0.42733303
vn 0.757573 0.03831877 -0.6516248
vn 0.7919274 0.06252745 -0.6074055
vn 0.59146494 0.02301 -0.8060023
vn 0.6071169 0.05798934 -0.79249376
vn 0.32896662 0.19886696 -0.92316467
vn 0.48740754 0.25450233 -0.8352619
vn 0.118443854 0.10987321 -0.98686314
vn 0.43993413 -0.03844905 -0.8972066
vn 0.59094733 -0.008014954 -0.8066703
vn 0.6085188 0.09700549 -0.78758794
vn 0.5186149 0.25736454 -0.815354
vn 0.37934723 0.42252806 -0.8231438
vn -0.66588235 -0.7237615 -0.18102485
vn -0.37317398 -0.90423965 -0.20758541
vn -0.2010686 -0.9556183 -0.21532531
g Teleporter_Effect1_0
f 3/3/3 2/2/2 1/1/1
f 4/4/4 3/3/3 1/1/1
f 4/4/4 1/1/1 5/5/5
f 6/6/6 4/4/4 5/5/5
f 6/6/6 5/5/5 7/7/7
f 8/8/8 6/6/6 7/7/7
f 8/8/8 7/7/7 9/9/9
f 10/10/10 8/8/8 9/9/9
f 10/10/10 9/9/9 11/11/11
f 12/12/12 10/10/10 11/11/11
f 12/12/12 11/11/11 13/13/13
f 14/14/14 12/12/12 13/13/13
f 14/14/14 13/13/13 15/15/15
f 16/16/16 14/14/14 15/15/15
f 15/15/15 13/13/13 17/17/17
f 13/13/13 18/18/18 17/17/17
f 13/13/13 11/11/11 18/18/18
f 11/11/11 19/19/19 18/18/18
f 11/11/11 9/9/9 19/19/19
f 9/9/9 20/20/20 19/19/19
f 9/9/9 7/7/7 20/20/20
f 7/7/7 21/21/21 20/20/20
f 7/7/7 5/5/5 21/21/21
f 5/5/5 22/22/22 21/21/21
f 5/5/5 1/1/1 22/22/22
f 1/1/1 23/23/23 22/22/22
f 1/1/1 2/2/2 23/23/23
f 2/2/2 24/24/24 23/23/23
f 23/23/23 24/24/24 25/25/25
f 24/24/24 26/26/26 25/25/25
f 25/25/25 26/26/26 27/27/27
f 25/25/25 27/27/27 28/28/28
f 27/27/27 29/29/29 28/28/28
f 29/29/29 30/30/30 28/28/28
f 28/28/28 30/30/30 31/31/31
f 30/30/30 32/32/32 31/31/31
f 31/31/31 32/32/32 33/33/33
f 32/32/32 34/34/34 33/33/33
f 33/33/33 34/34/34 35/35/35
f 34/34/34 36/36/36 35/35/35
f 35/35/35 36/36/36 37/37/37
f 36/36/36 38/38/38 37/37/37
f 37/37/37 38/38/38 39/39/39
f 38/38/38 40/40/40 39/39/39
f 41/41/41 29/29/29 27/27/27
f 42/42/42 41/41/41 27/27/27
f 43/43/43 37/37/37 39/39/39
f 44/44/44 43/43/43 39/39/39
f 45/45/45 35/35/35 37/37/37
f 43/43/43 45/45/45 37/37/37
f 46/46/46 33/33/33 35/35/35
f 45/45/45 46/46/46 35/35/35
f 47/47/47 31/31/31 33/33/33
f 46/46/46 47/47/47 33/33/33
f 40/40/40 38/38/38 48/48/48
f 38/38/38 49/49/49 48/48/48
f 38/38/38 36/36/36 49/49/49
f 36/36/36 50/50/50 49/49/49
f 36/36/36 34/34/34 50/50/50
f 34/34/34 51/51/51 50/50/50
f 34/34/34 32/32/32 51/51/51
f 32/32/32 52/52/52 51/51/51
f 32/32/32 30/30/30 52/52/52
f 30/30/30 53/53/53 52/52/52
f 30/30/30 29/29/29 53/53/53
f 29/29/29 54/54/54 53/53/53
f 29/29/29 41/41/41 54/54/54
f 41/41/41 55/55/55 54/54/54
f 21/21/21 47/47/47 46/46/46
f 21/21/21 22/22/22 47/47/47
f 22/22/22 56/56/56 47/47/47
f 22/22/22 23/23/23 56/56/56
f 23/23/23 25/25/25 56/56/56
f 56/56/56 25/25/25 28/28/28
f 56/56/56 28/28/28 31/31/31
f 47/47/47 56/56/56 31/31/31
f 20/20/20 21/21/21 46/46/46
f 20/20/20 46/46/46 45/45/45
f 19/19/19 20/20/20 45/45/45
f 19/19/19 45/45/45 43/43/43
f 18/18/18 19/19/19 43/43/43
f 18/18/18 43/43/43 44/44/44
f 17/17/17 18/18/18 44/44/44
f 17/17/17 44/44/44 57/57/57
f 44/44/44 58/58/58 57/57/57
f 57/57/57 58/58/58 59/59/59
f 59/59/59 58/58/58 60/60/60
f 59/59/59 60/60/60 61/61/61
f 60/60/60 62/62/62 61/61/61
f 62/62/62 63/63/63 61/61/61
f 61/61/61 63/63/63 64/64/64
f 63/63/63 65/65/65 64/64/64
f 66/66/66 62/62/62 60/60/60
f 67/67/67 66/66/66 60/60/60
f 58/58/58 67/67/67 60/60/60
f 68/68/68 61/61/61 64/64/64
f 68/68/68 59/59/59 61/61/61
f 69/69/69 68/68/68 64/64/64
f 65/65/65 63/63/63 70/70/70
f 63/63/63 71/71/71 70/70/70
f 63/63/63 62/62/62 71/71/71
f 62/62/62 72/72/72 71/71/71
f 62/62/62 66/66/66 72/72/72
f 66/66/66 73/73/73 72/72/72
f 74/74/74 59/59/59 68/68/68
f 74/74/74 57/57/57 59/59/59
f 75/75/75 57/57/57 74/74/74
f 76/76/76 75/75/75 74/74/74
f 77/77/77 75/75/75 76/76/76
f 78/78/78 77/77/77 76/76/76
f 78/78/78 76/76/76 79/79/79
f 80/80/80 78/78/78 79/79/79
f 80/80/80 79/79/79 81/81/81
f 82/82/82 80/80/80 81/81/81
f 81/81/81 79/79/79 83/83/83
f 79/79/79 84/84/84 83/83/83
f 76/76/76 74/74/74 84/84/84
f 79/79/79 76/76/76 84/84/84
f 84/84/84 74/74/74 68/68/68
f 84/84/84 68/68/68 69/69/69
f 83/83/83 84/84/84 69/69/69
f 17/17/17 57/57/57 75/75/75
f 15/15/15 17/17/17 75/75/75
f 15/15/15 75/75/75 77/77/77
f 16/16/16 15/15/15 77/77/77
f 85/85/85 82/82/82 81/81/81
f 86/86/86 85/85/85 81/81/81
f 86/86/86 81/81/81 83/83/83
f 87/87/87 85/85/85 86/86/86
f 88/88/88 87/87/87 86/86/86
f 89/89/89 87/87/87 88/88/88
f 90/90/90 89/89/89 88/88/88
f 91/91/91 86/86/86 83/83/83
f 88/88/88 86/86/86 91/91/91
f 91/91/91 83/83/83 69/69/69
f 92/92/92 88/88/88 91/91/91
f 90/90/90 88/88/88 92/92/92
f 93/93/93 90/90/90 92/92/92
f 93/93/93 92/92/92 94/94/94
f 95/95/95 93/93/93 94/94/94
f 95/95/95 94/94/94 96/96/96
f 96/96/96 94/94/94 97/97/97
f 98/98/98 96/96/96 97/97/97
f 99/99/99 98/98/98 97/97/97
f 99/99/99 97/97/97 64/64/64
f 65/65/65 99/99/99 64/64/64
f 98/98/98 100/100/100 96/96/96
f 100/100/100 101/101/101 96/96/96
f 101/101/101 95/95/95 96/96/96
f 97/97/97 102/102/102 64/64/64
f 94/94/94 102/102/102 97/97/97
f 92/92/92 91/91/91 102/102/102
f 94/94/94 92/92/92 102/102/102
f 102/102/102 69/69/69 64/64/64
f 102/102/102 91/91/91 69/69/69
f 99/99/99 65/65/65 70/70/70
f 103/103/103 99/99/99 70/70/70
f 98/98/98 99/99/99 103/103/103
f 104/104/104 98/98/98 103/103/103
f 100/100/100 98/98/98 104/104/104
f 105/105/105 100/100/100 104/104/104
f 105/105/105 106/106/106 100/100/100
f 106/106/106 107/107/107 100/100/100
f 100/100/100 107/107/107 101/101/101
f 108/108/108 107/107/107 106/106/106
f 107/107/107 108/108/108 109/109/109
f 107/107/107 109/109/109 101/101/101
f 108/108/108 110/110/110 109/109/109
f 108/108/108 111/111/111 110/110/110
f 111/111/111 112/112/112 110/110/110
f 111/111/111 113/113/113 112/112/112
f 113/113/113 114/114/114 112/112/112
f 113/113/113 115/115/115 114/114/114
f 115/115/115 116/116/116 114/114/114
f 115/115/115 117/117/117 116/116/116
f 117/117/117 118/118/118 116/116/116
f 117/117/117 119/119/119 118/118/118
f 119/119/119 120/120/120 118/118/118
f 119/119/119 121/121/121 120/120/120
f 121/121/121 122/122/122 120/120/120
f 110/110/110 123/123/123 109/109/109
f 123/123/123 124/124/124 109/109/109
f 125/125/125 123/123/123 110/110/110
f 112/112/112 125/125/125 110/110/110
f 126/126/126 125/125/125 112/112/112
f 114/114/114 126/126/126 112/112/112
f 127/127/127 126/126/126 114/114/114
f 116/116/116 127/127/127 114/114/114
f 128/128/128 127/127/127 116/116/116
f 118/118/118 128/128/128 116/116/116
f 129/129/129 128/128/128 118/118/118
f 120/120/120 129/129/129 118/118/118
f 130/130/130 129/129/129 120/120/120
f 122/122/122 130/130/130 120/120/120
f 117/117/117 115/115/115 131/131/131
f 131/131/131 115/115/115 132/132/132
f 115/115/115 113/113/113 132/132/132
f 132/132/132 113/113/113 133/133/133
f 113/113/113 111/111/111 133/133/133
f 133/133/133 111/111/111 134/134/134
f 111/111/111 108/108/108 134/134/134
f 134/134/134 108/108/108 106/106/106
f 130/130/130 135/135/135 129/129/129
f 135/135/135 136/136/136 129/129/129
f 129/129/129 136/136/136 128/128/128
f 135/135/135 137/137/137 136/136/136
f 137/137/137 138/138/138 136/136/136
f 137/137/137 139/139/139 138/138/138
f 139/139/139 140/140/140 138/138/138
f 138/138/138 140/140/140 141/141/141
f 140/140/140 142/142/142 141/141/141
f 141/141/141 142/142/142 143/143/143
f 142/142/142 144/144/144 143/143/143
f 143/143/143 144/144/144 145/145/145
f 144/144/144 146/146/146 145/145/145
f 145/145/145 146/146/146 147/147/147
f 146/146/146 148/148/148 147/147/147
f 147/147/147 148/148/148 149/149/149
f 148/148/148 150/150/150 149/149/149
f 149/149/149 150/150/150 151/151/151
f 150/150/150 152/152/152 151/151/151
f 149/149/149 151/151/151 153/153/153
f 154/154/154 149/149/149 153/153/153
f 147/147/147 149/149/149 154/154/154
f 155/155/155 147/147/147 154/154/154
f 145/145/145 147/147/147 155/155/155
f 156/156/156 145/145/145 155/155/155
f 143/143/143 145/145/145 156/156/156
f 157/157/157 143/143/143 156/156/156
f 141/141/141 143/143/143 157/157/157
f 158/158/158 141/141/141 157/157/157
f 138/138/138 141/141/141 158/158/158
f 136/136/136 138/138/138 158/158/158
f 136/136/136 158/158/158 128/128/128
f 158/158/158 157/157/157 127/127/127
f 128/128/128 158/158/158 127/127/127
f 157/157/157 156/156/156 126/126/126
f 127/127/127 157/157/157 126/126/126
f 156/156/156 155/155/155 125/125/125
f 126/126/126 156/156/156 125/125/125
f 155/155/155 154/154/154 123/123/123
f 125/125/125 155/155/155 123/123/123
f 154/154/154 153/153/153 124/124/124
f 123/123/123 154/154/154 124/124/124
f 124/124/124 153/153/153 93/93/93
f 95/95/95 124/124/124 93/93/93
f 109/109/109 124/124/124 95/95/95
f 101/101/101 109/109/109 95/95/95
f 93/93/93 153/153/153 90/90/90
f 153/153/153 151/151/151 90/90/90
f 90/90/90 151/151/151 89/89/89
f 151/151/151 152/152/152 89/89/89
f 26/26/26 42/42/42 27/27/27
f 48/48/48 73/73/73 66/66/66
f 40/40/40 48/48/48 66/66/66
f 40/40/40 66/66/66 67/67/67
f 39/39/39 40/40/40 67/67/67
f 39/39/39 67/67/67 58/58/58
f 44/44/44 39/39/39 58/58/58
f 159/159/159 117/117/117 131/131/131
f 119/119/119 117/117/117 159/159/159
f 160/160/160 119/119/119 159/159/159
f 121/121/121 119/119/119 160/160/160
f 161/161/161 121/121/121 160/160/160
