g Transparent
v 0.8299961 0.0699929 -10.359998
v -7.1700034 0.070007205 -2.3599958
v -7.170005 0.0699929 -10.359996
v 0.82999706 0.070007205 -2.3599968
v -12.620008 0.0699929 -13.889998
v -20.620007 0.070007205 -5.889996
v -20.620008 0.0699929 -13.8899975
v -12.6200075 0.070007205 -5.8899975
v -12.889995 0.06999297 0.17999248
v -20.890018 0.07000714 -7.819984
v -12.890018 0.06999331 -7.8200083
v -20.889996 0.070006795 0.18001671
v 0.42623043 0.0699929 -7.3599973
v -7.5737696 0.070007205 0.6400041
v -7.5737705 0.0699929 -7.359997
v 0.42623138 0.070007205 0.6400032
v 0.41999626 -1.4630072 -0.7299928
v -7.5800033 -1.4629928 7.270009
v -7.5800047 -1.4630072 -0.7299919
v 0.41999722 -1.4629928 7.2700076
v 3.7199984 -1.8000071 6.520009
v -4.2800016 -1.7999928 14.520011
v -4.280002 -1.8000071 6.5200095
v 3.7199993 -1.7999928 14.520009
v -3.9500046 -1.5000072 6.520009
v -11.950005 -1.4999928 14.520011
v -11.950006 -1.5000072 6.5200095
v -3.9500036 -1.4999928 14.520009
v -6.930004 -1.6800071 -0.61999416
v -14.930003 -1.6799928 7.3800077
v -14.930004 -1.6800071 -0.6199932
v -6.9300027 -1.6799928 7.3800063
v -6.930004 -1.6800071 -7.119998
v -14.930003 -1.6799928 0.8800039
v -14.930004 -1.6800071 -7.119997
v -6.9300027 -1.6799928 0.880003
v -6.930004 -1.6800071 -14.069996
v -14.930003 -1.6799928 -6.069994
v -14.930004 -1.6800071 -14.069995
v -6.9300027 -1.6799928 -6.069995
v 4.3099985 -0.5800072 -15.709997
v -3.6900015 -0.5799929 -7.709995
v -3.6900024 -0.5800072 -15.709996
v 4.3099995 -0.5799929 -7.709996
v -20.199053 -1.5441271 11.091543
v -19.784498 -1.5441271 11.899091
v -20.620966 -1.6078727 12.328488
v -21.035517 -1.6078727 11.520941
v -24.933472 -1.5903387 3.001499
v -25.780243 -1.6487013 2.6797054
v -25.446547 -1.6316613 1.7985308
v -24.59978 -1.5732988 2.1203246
v -26.64652 -1.7855579 5.8208117
v -26.592646 -1.7806093 5.5518517
v -26.427336 -1.6592189 5.4863925
v -26.796787 -1.7993608 5.3689413
v -26.527582 -1.7746329 5.337816
v -26.41747 -1.7645185 5.0880184
v -26.309044 -1.754559 5.33514
v -26.034235 -1.7293164 5.362013
v -26.23958 -1.7481784 5.543906
v -26.170021 -1.7417891 5.818412
v -26.411222 -1.7639445 5.6785216
v -27.150087 -1.8270929 12.944386
v -26.881845 -1.8030932 12.892081
v -26.764309 -1.6867256 13.029892
v -26.791098 -1.7944821 12.632904
v -26.659931 -1.783284 12.871064
v -26.387924 -1.7590705 12.878277
v -26.574257 -1.7760644 13.072998
v -26.494371 -1.7694901 13.338432
v -26.740095 -1.7911296 13.216942
v -26.96645 -1.811636 13.385986
v -26.929438 -1.8077742 13.108762
vt 0 0
vt 1 1
vt 1 0
vt 0 1
vt 0 0
vt 1 1
vt 1 0
vt 0 1
vt 0 0
vt 1 1
vt 1 0
vt 0 1
vt 0 0
vt 1 1
vt 1 0
vt 0 1
vt 0 0
vt 1 1
vt 1 0
vt 0 1
vt 0 0
vt 1 1
vt 1 0
vt 0 1
vt 0 0
vt 1 1
vt 1 0
vt 0 1
vt 0 0
vt 1 1
vt 1 0
vt 0 1
vt 0 0
vt 1 1
vt 1 0
vt 0 1
vt 0 0
vt 1 1
vt 1 0
vt 0 1
vt 0 0
vt 1 1
vt 1 0
vt 0 1
vt 0.47024336 1
vt 1 1
vt 1 0.495406
vt 0.47024336 0.49540603
vt 0.47024336 1
vt 1 1
vt 1 0.495406
vt 0.47024336 0.49540603
vt 0.66378355 0.06601998
vt 0.65006334 0.19356921
vt 0.7210906 0.24728885
vt 0.5301142 0.24658194
vt 0.6493386 0.29818127
vt 0.6641964 0.42505896
vt 0.7493566 0.32998902
vt 0.8794526 0.3564955
vt 0.81113076 0.24657393
vt 0.8823516 0.13384092
vt 0.7515309 0.16246814
vt 0.66378355 0.06601998
vt 0.65006334 0.19356921
vt 0.7210906 0.24728885
vt 0.5301142 0.24658194
vt 0.6493386 0.29818127
vt 0.6641964 0.42505896
vt 0.7493566 0.32998902
vt 0.8794526 0.3564955
vt 0.81113076 0.24657393
vt 0.8823516 0.13384092
vt 0.7515309 0.16246814
vn -0 1 -1.8477443E-06
vn -0 1 -1.8477443E-06
vn -0 1 -1.8477443E-06
vn -0 1 -1.8477443E-06
vn -0 1 -1.8477443E-06
vn -0 1 -1.8477443E-06
vn -0 1 -1.8477443E-06
vn -0 1 -1.8477443E-06
vn 1.7881397E-06 1 0
vn 1.7881397E-06 1 0
vn 1.7881397E-06 1 0
vn 1.7881397E-06 1 0
vn -0 1 -1.8477443E-06
vn -0 1 -1.8477443E-06
vn -0 1 -1.8477443E-06
vn -0 1 -1.8477443E-06
vn -0 1 -1.8477443E-06
vn -0 1 -1.8477443E-06
vn -0 1 -1.8477443E-06
vn -0 1 -1.8477443E-06
vn -0 1 -1.8477443E-06
vn -0 1 -1.8477443E-06
vn -0 1 -1.8477443E-06
vn -0 1 -1.8477443E-06
vn -0 1 -1.8477443E-06
vn -0 1 -1.8477443E-06
vn -0 1 -1.8477443E-06
vn -0 1 -1.8477443E-06
vn -0 1 -1.8477443E-06
vn -0 1 -1.8477443E-06
vn -0 1 -1.8477443E-06
vn -0 1 -1.8477443E-06
vn -0 1 -1.8477443E-06
vn -0 1 -1.8477443E-06
vn -0 1 -1.8477443E-06
vn -0 1 -1.8477443E-06
vn -0 1 -1.8477443E-06
vn -0 1 -1.8477443E-06
vn -0 1 -1.8477443E-06
vn -0 1 -1.8477443E-06
vn -0 1 -1.8477443E-06
vn -0 1 -1.8477443E-06
vn -0 1 -1.8477443E-06
vn -0 1 -1.8477443E-06
vn -0.06017575 0.99770963 0.030891173
vn -0.06017575 0.99770963 0.030891173
vn -0.06017575 0.99770963 0.030891173
vn -0.06017575 0.99770963 0.030891173
vn -0.06652812 0.9977672 -0.0058991164
vn -0.06652812 0.9977672 -0.0058991164
vn -0.06652812 0.9977672 -0.0058991164
vn -0.06652812 0.9977672 -0.0058991164
vn -0.24179903 0.949447 0.2002089
vn -0.54527205 0.824403 0.15178263
vn -0.09231456 0.99571675 -0.005127573
vn -0.3299149 0.94025433 -0.08413045
vn -0.37179 0.8377597 -0.3999137
vn -0.08783774 0.9625202 -0.25659192
vn 0.2085953 0.892666 -0.39954412
vn 0.15097453 0.98543835 -0.07821735
vn 0.38757682 0.91063535 0.14327386
vn 0.063948534 0.9789362 0.19389278
vn -0.07865202 0.8725269 0.48219365
vn -0.32861814 0.942277 -0.0642185
vn -0.39434773 0.8399072 -0.3728883
vn -0.08431858 0.9964386 -0.0007061172
vn -0.10021327 0.9619106 -0.25433308
vn 0.17999507 0.888587 -0.42191795
vn 0.15080576 0.98397475 -0.09513911
vn 0.40055263 0.9087279 0.11735073
vn 0.077386215 0.97782624 0.19459493
vn -0.03135468 0.8710257 0.4902359
vn -0.2064616 0.9539881 0.2174404
vn -0.5212946 0.8327204 0.18662447
g Transparent_0
f 3/3/3 2/2/2 1/1/1
f 4/4/4 1/1/1 2/2/2
f 7/7/7 6/6/6 5/5/5
f 8/8/8 5/5/5 6/6/6
f 11/11/11 10/10/10 9/9/9
f 12/12/12 9/9/9 10/10/10
f 15/15/15 14/14/14 13/13/13
f 16/16/16 13/13/13 14/14/14
g Transparent_1
f 19/19/19 18/18/18 17/17/17
f 20/20/20 17/17/17 18/18/18
f 23/23/23 22/22/22 21/21/21
f 24/24/24 21/21/21 22/22/22
f 27/27/27 26/26/26 25/25/25
f 28/28/28 25/25/25 26/26/26
f 31/31/31 30/30/30 29/29/29
f 32/32/32 29/29/29 30/30/30
f 35/35/35 34/34/34 33/33/33
f 36/36/36 33/33/33 34/34/34
f 39/39/39 38/38/38 37/37/37
f 40/40/40 37/37/37 38/38/38
f 43/43/43 42/42/42 41/41/41
f 44/44/44 41/41/41 42/42/42
g Transparent_2
f 47/47/47 46/46/46 45/45/45
f 48/48/48 47/47/47 45/45/45
f 51/51/51 50/50/50 49/49/49
f 52/52/52 51/51/51 49/49/49
g Transparent_3
f 55/55/55 54/54/54 53/53/53
f 55/55/55 56/56/56 54/54/54
f 55/55/55 57/57/57 56/56/56
f 55/55/55 58/58/58 57/57/57
f 55/55/55 59/59/59 58/58/58
f 59/59/59 55/55/55 60/60/60
f 55/55/55 61/61/61 60/60/60
f 55/55/55 62/62/62 61/61/61
f 55/55/55 63/63/63 62/62/62
f 55/55/55 53/53/53 63/63/63
f 66/66/66 65/65/65 64/64/64
f 66/66/66 67/67/67 65/65/65
f 66/66/66 68/68/68 67/67/67
f 66/66/66 69/69/69 68/68/68
f 66/66/66 70/70/70 69/69/69
f 70/70/70 66/66/66 71/71/71
f 66/66/66 72/72/72 71/71/71
f 66/66/66 73/73/73 72/72/72
f 66/66/66 74/74/74 73/73/73
f 66/66/66 64/64/64 74/74/74
