g VelvetRope
v 41.48084 46.425507 1.1148071
v 42.078426 44.19526 5.1139526
v 41.04337 48.058155 2.8050232
v 42.078426 44.19526 0.49612427
v 42.676014 41.965027 1.1148071
v 43.113483 40.332382 2.8050232
v 43.27361 39.734787 5.1139526
v 43.113483 40.332382 7.4228516
v 42.676014 41.965027 9.113098
v 42.078426 44.19526 9.731781
v 41.48084 46.425507 9.113098
v 41.04337 48.058155 7.4228516
v 40.883247 48.655746 5.1139526
v -40.32727 48.346703 2.8050232
v -41.362335 44.483807 5.113968
v -40.76474 46.714054 1.1148071
v -41.362335 44.483807 0.49613953
v -41.959915 42.253574 1.1148071
v -42.397385 40.620934 2.8050232
v -42.55751 40.023335 5.113968
v -42.397385 40.620934 7.4228516
v -41.959915 42.253574 9.113129
v -41.362335 44.483807 9.731796
v -40.76474 46.714054 9.113129
v -40.32727 48.346703 7.4228516
v -40.167145 48.944294 5.113968
v -8.0012665 41.53448 2.8050232
v -7.8411255 42.132065 5.113968
v -22.883354 44.0496 5.113968
v -23.04358 43.45163 2.8035126
v -23.04358 43.45163 7.4243927
v -8.0012665 41.53448 7.4228516
v -23.744682 41.957615 9.112747
v -8.360687 40.02718 9.113129
v -24.560196 39.86478 9.728867
v -9.41642 37.92785 9.731796
v -24.91594 37.566402 9.12735
v -9.8405 35.566708 9.113129
v -25.090927 35.811615 7.4512024
v -10.071381 33.80871 7.4228516
v -25.252983 35.206814 5.113968
v -10.231506 33.211113 5.113968
v -25.090927 35.811615 2.776703
v -10.071381 33.80871 2.8050232
v -24.91594 37.566402 1.1005859
v -9.8405 35.566708 1.1148071
v -24.560196 39.86478 0.49905396
v -9.41642 37.92785 0.49613953
v -23.744682 41.957615 1.1151886
v -8.36068 40.02718 1.1148071
v -23.04358 43.45163 2.8035126
v -8.0012665 41.53448 2.8050232
v 9.221046 40.027172 1.1148071
v 8.861633 41.534473 2.8050232
v 24.605072 41.957607 1.1151733
v 23.903946 43.451622 2.8035126
v 25.420563 39.864773 0.49905396
v 10.276802 37.92784 0.49613953
v 25.776314 37.566402 1.1005859
v 10.70089 35.566704 1.1148071
v 25.951286 35.811607 2.776703
v 10.931747 33.8087 2.8050232
v 26.11335 35.206802 5.113968
v 11.091873 33.211105 5.113968
v 25.951286 35.811607 7.4512024
v 10.931747 33.8087 7.4228516
v 25.776314 37.5664 9.12735
v 10.70089 35.566704 9.113129
v 25.420563 39.864773 9.728867
v 10.276802 37.92784 9.731796
v 24.605072 41.957607 9.112747
v 9.221054 40.027172 9.113129
v 23.903946 43.451622 7.4243774
v 8.861633 41.534473 7.4228516
v 23.743721 44.04959 5.113968
v 8.701508 42.132057 5.113968
v 23.903946 43.451622 2.8035126
v 8.861633 41.534473 2.8050232
v -23.04358 43.45163 2.8035126
v -40.32727 48.346703 2.8050232
v -40.76474 46.714054 1.1148071
v -41.362335 44.483807 0.49613953
v -41.959915 42.253574 1.1148071
v -42.397385 40.620934 2.8050232
v -42.55751 40.023335 5.113968
v -42.397385 40.620934 7.4228516
v -41.959915 42.253574 9.113129
v -41.362335 44.483807 9.731796
v -40.76474 46.714054 9.113129
v -40.32727 48.346703 7.4228516
v -40.167145 48.944294 5.113968
v -40.32727 48.346703 2.8050232
v 41.04337 48.058155 2.8050232
v 23.903946 43.451622 2.8035126
v 41.48084 46.425507 1.1148071
v 42.078426 44.19526 0.49612427
v 42.676014 41.965027 1.1148071
v 43.113483 40.332382 2.8050232
v 43.27361 39.734787 5.1139526
v 43.113483 40.332382 7.4228516
v 42.676014 41.965027 9.113098
v 42.078426 44.19526 9.731781
v 41.48084 46.425507 9.113098
v 41.04337 48.058155 7.4228516
v 40.883247 48.655746 5.1139526
v 23.903946 43.451622 2.8035126
v 41.04337 48.058155 2.8050232
vt 0.36312658 0.53567564
vt 0.34964135 0.5579537
vt 0.3729984 0.5455474
vt 0.34964135 0.5320623
vt 0.33615616 0.53567564
vt 0.32628432 0.5455474
vt 0.32267097 0.5590326
vt 0.32628432 0.57251775
vt 0.33615616 0.5823896
vt 0.34964135 0.586003
vt 0.36312658 0.5823896
vt 0.3729984 0.57251775
vt 0.3766117 0.5590326
vt 0.3729984 0.69118744
vt 0.34964135 0.6766234
vt 0.36312658 0.7010593
vt 0.34964135 0.7046726
vt 0.33615616 0.7010593
vt 0.32628432 0.69118744
vt 0.32267097 0.67770225
vt 0.32628432 0.66421705
vt 0.33615616 0.6543452
vt 0.34964135 0.6507319
vt 0.36312658 0.6543452
vt 0.3729984 0.66421705
vt 0.3766117 0.67770225
vt 0.3706375 0.62820154
vt 0.3676216 0.6250961
vt 0.3676216 0.636539
vt 0.37121767 0.6365599
vt 0.3640256 0.63656
vt 0.3640256 0.6251573
vt 0.3604321 0.63686156
vt 0.36042953 0.6252648
vt 0.35684937 0.63716453
vt 0.35683346 0.62583107
vt 0.35323745 0.63728774
vt 0.35323745 0.62588155
vt 0.34964135 0.6371583
vt 0.34964135 0.62585163
vt 0.34604537 0.6370198
vt 0.34604537 0.62589866
vt 0.34244928 0.6371584
vt 0.34244928 0.6258517
vt 0.3388532 0.6372878
vt 0.33885324 0.62588155
vt 0.3352413 0.63716453
vt 0.33525717 0.6258312
vt 0.33165854 0.63686156
vt 0.3316611 0.6252649
vt 0.32806507 0.631246
vt 0.32806507 0.62515736
vt 0.3316611 0.6116325
vt 0.32806507 0.61173975
vt 0.33165854 0.6000358
vt 0.32806507 0.6056512
vt 0.3352413 0.5997327
vt 0.33525717 0.61106616
vt 0.33885324 0.59960926
vt 0.33885324 0.6110155
vt 0.34244928 0.5997389
vt 0.34244928 0.61104566
vt 0.34604537 0.5998772
vt 0.34604537 0.6109983
vt 0.34964135 0.5997388
vt 0.34964135 0.6110455
vt 0.35323745 0.59960926
vt 0.35323745 0.61101556
vt 0.35684937 0.5997325
vt 0.35683346 0.611066
vt 0.3604321 0.60003555
vt 0.36042953 0.6116323
vt 0.3640256 0.6003371
vt 0.3640256 0.61173975
vt 0.3676216 0.6003582
vt 0.3676216 0.61180097
vt 0.36859006 0.6163608
vt 0.36935902 0.62149286
vt 0.32807 0.63656545
vt 0.32806507 0.65089405
vt 0.3316611 0.6508941
vt 0.33525717 0.6508941
vt 0.3388532 0.6508941
vt 0.34244928 0.6508941
vt 0.34604537 0.6508941
vt 0.34964135 0.6508941
vt 0.35323745 0.6508941
vt 0.35683346 0.6508941
vt 0.36042953 0.6508941
vt 0.3640256 0.6508941
vt 0.3676216 0.6508941
vt 0.37121767 0.6508941
vt 0.32806507 0.586003
vt 0.32807 0.6003317
vt 0.3316611 0.586003
vt 0.33525717 0.586003
vt 0.3388532 0.586003
vt 0.34244928 0.586003
vt 0.34604537 0.586003
vt 0.34964135 0.586003
vt 0.35323745 0.586003
vt 0.35683346 0.586003
vt 0.36042953 0.586003
vt 0.3640256 0.586003
vt 0.3676216 0.586003
vt 0.37121767 0.60033715
vt 0.37121767 0.586003
vn 0.9659268 0.25881547 0
vn 0.9659268 0.25881544 0
vn 0.9659268 0.25881544 0
vn 0.9659257 0.25881934 0
vn 0.9659254 0.25882083 0
vn 0.9659254 0.25882098 0
vn 0.9659262 0.25881794 0
vn 0.96592605 0.2588181 0
vn 0.9659257 0.25881934 0
vn 0.9659254 0.2588208 0
vn 0.9659265 0.2588167 0
vn 0.96592605 0.2588181 0
vn 0.96592605 0.2588181 0
vn -0.9659262 0.25881794 0
vn -0.9659262 0.25881794 0
vn -0.9659262 0.25881794 0
vn -0.96592396 0.25882614 0
vn -0.9659236 0.25882754 0
vn -0.9659268 0.25881544 0
vn -0.9659262 0.25881794 0
vn -0.96592605 0.2588183 0
vn -0.9659284 0.25880972 0
vn -0.9659236 0.25882754 0
vn -0.96592396 0.2588261 0
vn -0.9659284 0.25880972 0
vn -0.9659246 0.25882363 0
vn 0.05184921 0.87665564 -0.4783165
vn 0.05827867 0.9983004 0
vn 0.20549352 0.97865856 0
vn 0.17645805 0.8531867 -0.4908513
vn 0.17645872 0.8531865 0.49085155
vn 0.051849563 0.8766558 0.4783161
vn 0.104867674 0.49540105 0.86231107
vn 0.02968423 0.5150724 0.8566325
vn -0.0011034765 -0.008655803 0.999962
vn 0.0018390818 -0.019972054 0.99979883
vn -0.10298484 -0.4888669 0.8662582
vn -0.027266627 -0.49761513 0.8669692
vn -0.17631944 -0.8463027 0.502676
vn -0.04736069 -0.86334866 0.5023805
vn -0.20688206 -0.9783659 0
vn -0.057354413 -0.99835384 0
vn -0.1763196 -0.84630305 -0.5026754
vn -0.047360662 -0.86334884 -0.50238013
vn -0.10298399 -0.48886055 -0.8662619
vn -0.027266033 -0.49760672 -0.86697406
vn -0.0011043386 -0.008655896 -0.999962
vn 0.0018390965 -0.019971957 -0.99979883
vn 0.10486554 0.4953953 -0.8623147
vn 0.029683305 0.5150646 -0.85663724
vn 0.17645805 0.8531867 -0.4908513
vn 0.05184921 0.87665564 -0.4783165
vn -0.029683588 0.5150645 -0.8566373
vn -0.051848903 0.8766558 -0.47831622
vn -0.10114558 0.4973568 -0.8616297
vn -0.17016305 0.8549279 -0.49004373
vn 0.0008096913 -0.0075454004 -0.9999713
vn -0.0018396124 -0.019972943 -0.99979883
vn 0.09887399 -0.4886891 -0.8668374
vn 0.027266398 -0.49760684 -0.86697406
vn 0.1699057 -0.84726596 -0.50326186
vn 0.047360446 -0.8633487 -0.5023803
vn 0.19935283 -0.9799278 0
vn 0.057354044 -0.99835396 0
vn 0.16990665 -0.84726566 0.5032619
vn 0.047360234 -0.86334854 0.50238055
vn 0.09887527 -0.48869374 0.8668345
vn 0.027266419 -0.49761528 0.8669692
vn 0.00080984895 -0.007543522 0.9999713
vn -0.0018393045 -0.019972196 0.99979883
vn -0.10114627 0.49736297 0.8616261
vn -0.029683763 0.51507294 0.85663223
vn -0.17016354 0.8549275 0.49004433
vn -0.051848628 0.8766558 0.47831616
vn -0.1979506 0.980212 0
vn -0.05827844 0.9983004 0
vn -0.17016305 0.8549279 -0.49004373
vn -0.051848903 0.8766558 -0.47831622
vn 0.17645805 0.8531867 -0.4908513
vn 0.23645456 0.83727485 -0.4930112
vn 0.13745151 0.49031326 -0.8606393
vn 0.00085820124 0.0024933382 -0.99999654
vn -0.13262421 -0.47814453 -0.86821
vn -0.23152535 -0.83251834 -0.50329834
vn -0.2681494 -0.9633773 0
vn -0.23152548 -0.8325184 0.5032982
vn -0.13262442 -0.47815064 0.8682066
vn 0.00085969653 0.0024932176 0.99999654
vn 0.13745396 0.49031922 0.86063546
vn 0.23645525 0.83727473 0.49301103
vn 0.27247882 0.96216184 0
vn 0.23645456 0.83727485 -0.4930112
vn -0.22504662 0.84003323 -0.493658
vn -0.17016305 0.8549279 -0.49004373
vn -0.13040563 0.49083662 -0.861437
vn -0.00024234178 0.00027765002 -1
vn 0.12642625 -0.48122042 -0.86743486
vn 0.22033794 -0.8359496 -0.50263256
vn 0.25513545 -0.96690536 0
vn 0.22034025 -0.83594954 0.5026316
vn 0.12642826 -0.48122382 0.8674327
vn -0.00024234537 0.00027960664 1
vn -0.13040672 0.49084166 0.861434
vn -0.22504762 0.84003276 0.4936583
vn -0.25953615 0.96573347 0
vn -0.17016305 0.8549279 -0.49004373
vn -0.22504662 0.84003323 -0.493658
g VelvetRope_0
f 3/3/3 2/2/2 1/1/1
f 1/1/1 2/2/2 4/4/4
f 4/4/4 2/2/2 5/5/5
f 5/5/5 2/2/2 6/6/6
f 6/6/6 2/2/2 7/7/7
f 7/7/7 2/2/2 8/8/8
f 8/8/8 2/2/2 9/9/9
f 9/9/9 2/2/2 10/10/10
f 10/10/10 2/2/2 11/11/11
f 11/11/11 2/2/2 12/12/12
f 12/12/12 2/2/2 13/13/13
f 13/13/13 2/2/2 3/3/3
f 16/16/16 15/15/15 14/14/14
f 17/17/17 15/15/15 16/16/16
f 18/18/18 15/15/15 17/17/17
f 19/19/19 15/15/15 18/18/18
f 20/20/20 15/15/15 19/19/19
f 21/21/21 15/15/15 20/20/20
f 22/22/22 15/15/15 21/21/21
f 23/23/23 15/15/15 22/22/22
f 24/24/24 15/15/15 23/23/23
f 25/25/25 15/15/15 24/24/24
f 26/26/26 15/15/15 25/25/25
f 14/14/14 15/15/15 26/26/26
f 29/29/29 28/28/28 27/27/27
f 30/30/30 29/29/29 27/27/27
f 29/29/29 31/31/31 28/28/28
f 31/31/31 32/32/32 28/28/28
f 32/32/32 31/31/31 33/33/33
f 34/34/34 32/32/32 33/33/33
f 34/34/34 33/33/33 35/35/35
f 36/36/36 34/34/34 35/35/35
f 36/36/36 35/35/35 37/37/37
f 38/38/38 36/36/36 37/37/37
f 38/38/38 37/37/37 39/39/39
f 40/40/40 38/38/38 39/39/39
f 40/40/40 39/39/39 41/41/41
f 42/42/42 40/40/40 41/41/41
f 42/42/42 41/41/41 43/43/43
f 44/44/44 42/42/42 43/43/43
f 44/44/44 43/43/43 45/45/45
f 46/46/46 44/44/44 45/45/45
f 46/46/46 45/45/45 47/47/47
f 48/48/48 46/46/46 47/47/47
f 48/48/48 47/47/47 49/49/49
f 50/50/50 48/48/48 49/49/49
f 50/50/50 49/49/49 51/51/51
f 52/52/52 50/50/50 51/51/51
f 53/53/53 50/50/50 52/52/52
f 54/54/54 53/53/53 52/52/52
f 55/55/55 53/53/53 54/54/54
f 56/56/56 55/55/55 54/54/54
f 55/55/55 57/57/57 53/53/53
f 57/57/57 58/58/58 53/53/53
f 58/58/58 48/48/48 50/50/50
f 53/53/53 58/58/58 50/50/50
f 57/57/57 59/59/59 58/58/58
f 59/59/59 60/60/60 58/58/58
f 60/60/60 46/46/46 48/48/48
f 58/58/58 60/60/60 48/48/48
f 59/59/59 61/61/61 60/60/60
f 61/61/61 62/62/62 60/60/60
f 61/61/61 63/63/63 62/62/62
f 63/63/63 64/64/64 62/62/62
f 63/63/63 65/65/65 64/64/64
f 65/65/65 66/66/66 64/64/64
f 65/65/65 67/67/67 66/66/66
f 67/67/67 68/68/68 66/66/66
f 67/67/67 69/69/69 68/68/68
f 69/69/69 70/70/70 68/68/68
f 69/69/69 71/71/71 70/70/70
f 71/71/71 72/72/72 70/70/70
f 71/71/71 73/73/73 72/72/72
f 73/73/73 74/74/74 72/72/72
f 74/74/74 73/73/73 75/75/75
f 76/76/76 74/74/74 75/75/75
f 76/76/76 75/75/75 77/77/77
f 78/78/78 76/76/76 77/77/77
f 28/28/28 76/76/76 78/78/78
f 27/27/27 28/28/28 78/78/78
f 66/66/66 68/68/68 40/40/40
f 66/66/66 40/40/40 42/42/42
f 64/64/64 66/66/66 42/42/42
f 64/64/64 42/42/42 44/44/44
f 62/62/62 64/64/64 44/44/44
f 62/62/62 44/44/44 46/46/46
f 60/60/60 62/62/62 46/46/46
f 76/76/76 28/28/28 32/32/32
f 74/74/74 76/76/76 32/32/32
f 74/74/74 32/32/32 34/34/34
f 72/72/72 74/74/74 34/34/34
f 72/72/72 34/34/34 36/36/36
f 70/70/70 72/72/72 36/36/36
f 70/70/70 36/36/36 38/38/38
f 68/68/68 38/38/38 40/40/40
f 68/68/68 70/70/70 38/38/38
f 81/81/81 80/80/80 79/79/79
f 49/49/49 81/81/81 79/79/79
f 82/82/82 81/81/81 49/49/49
f 47/47/47 82/82/82 49/49/49
f 83/83/83 82/82/82 47/47/47
f 45/45/45 83/83/83 47/47/47
f 84/84/84 83/83/83 45/45/45
f 43/43/43 84/84/84 45/45/45
f 85/85/85 84/84/84 43/43/43
f 41/41/41 85/85/85 43/43/43
f 86/86/86 85/85/85 41/41/41
f 39/39/39 86/86/86 41/41/41
f 87/87/87 86/86/86 39/39/39
f 37/37/37 87/87/87 39/39/39
f 88/88/88 87/87/87 37/37/37
f 35/35/35 88/88/88 37/37/37
f 89/89/89 88/88/88 35/35/35
f 33/33/33 89/89/89 35/35/35
f 90/90/90 89/89/89 33/33/33
f 31/31/31 90/90/90 33/33/33
f 91/91/91 90/90/90 31/31/31
f 29/29/29 91/91/91 31/31/31
f 92/92/92 91/91/91 29/29/29
f 30/30/30 92/92/92 29/29/29
f 55/55/55 94/94/94 93/93/93
f 95/95/95 55/55/55 93/93/93
f 57/57/57 55/55/55 95/95/95
f 96/96/96 57/57/57 95/95/95
f 59/59/59 57/57/57 96/96/96
f 97/97/97 59/59/59 96/96/96
f 61/61/61 59/59/59 97/97/97
f 98/98/98 61/61/61 97/97/97
f 63/63/63 61/61/61 98/98/98
f 99/99/99 63/63/63 98/98/98
f 65/65/65 63/63/63 99/99/99
f 100/100/100 65/65/65 99/99/99
f 67/67/67 65/65/65 100/100/100
f 101/101/101 67/67/67 100/100/100
f 69/69/69 67/67/67 101/101/101
f 102/102/102 69/69/69 101/101/101
f 71/71/71 69/69/69 102/102/102
f 103/103/103 71/71/71 102/102/102
f 73/73/73 71/71/71 103/103/103
f 104/104/104 73/73/73 103/103/103
f 75/75/75 73/73/73 104/104/104
f 105/105/105 75/75/75 104/104/104
f 106/106/106 75/75/75 105/105/105
f 107/107/107 106/106/106 105/105/105
