g wake_01
v -0.005 1.8626451E-11 0.0025
v -0.00375 1.8626451E-11 0.0025
v -0.00375 1.8626451E-11 0.00375
v -0.005 1.8626451E-11 0.00375
v -0.00375 1.862645E-11 0.005
v -0.005 1.862645E-11 0.005
v -0.0021875 1.862645E-11 0.0052484325
v -0.0021875 1.8626451E-11 0.0039363247
v -0.0021875 1.8626451E-11 0.0026242163
v -0 1.8626451E-11 0.004495298
v -0 1.8626451E-11 0.0029968654
v -0 1.862645E-11 0.005993731
v 0.0021875 1.862645E-11 0.006933951
v 0.0021875 1.8626451E-11 0.005200463
v 0.0021875 1.8626451E-11 0.003466975
v -0 1.8626451E-11 0.0014984327
v -0.0021875 1.8626451E-11 0.0013121081
v -0 1.8626451E-11 0
v 0.0021875 1.8626451E-11 0
v 0.0021875 1.8626451E-11 0.0017334877
v -0.0021875 1.8626451E-11 0
v -0.00375 1.8626451E-11 0.00125
v -0.00375 1.8626451E-11 0
v -0.00375 1.8626451E-11 -0.00125
v -0.005 1.8626451E-11 -0.00125
v -0.005 1.8626451E-11 -0.0025
v -0.00375 1.8626451E-11 -0.0025
v -0.005 1.8626451E-11 0
v -0.0021875 1.8626451E-11 -0.0013121081
v -0.0021875 1.8626451E-11 -0.0026242163
v -0.005 1.8626451E-11 0.00125
v 0.00375 1.8626451E-11 0.0019417868
v 0.00375 1.8626451E-11 0
v 0.005 1.8626451E-11 0.0021367082
v 0.005 1.8626451E-11 0.0042734165
v 0.00375 1.8626451E-11 0.0038835737
v 0.00375 1.8626451E-11 0.0058253603
v 0.005 1.8626451E-11 0.0064101242
v 0.00375 1.862645E-11 0.0077671474
v 0.005 1.862645E-11 0.008546833
v 0.005 1.8626451E-11 0
v 0.00375 1.8626451E-11 -0.0019417868
v 0.0021875 1.8626451E-11 -0.0017334877
v -0 1.8626451E-11 -0.0014984327
v -0 1.8626451E-11 -0.0029968654
v 0.0021875 1.8626451E-11 -0.003466975
v -0 1.8626451E-11 -0.004495298
v -0.0021875 1.8626451E-11 -0.0039363247
v -0 1.8626451E-11 -0.005993731
v 0.0021875 1.8626451E-11 -0.006933951
v 0.0021875 1.8626451E-11 -0.005200463
v -0.0021875 1.8626451E-11 -0.0052484325
v -0.00375 1.8626451E-11 -0.00375
v -0.00375 1.8626451E-11 -0.005
v -0.005 1.8626451E-11 -0.00375
v -0.005 1.8626451E-11 -0.005
v 0.00375 1.8626451E-11 -0.0058253603
v 0.00375 1.8626451E-11 -0.0077671474
v 0.005 1.8626451E-11 -0.0064101242
v 0.005 1.8626451E-11 -0.0042734165
v 0.00375 1.8626451E-11 -0.0038835737
v 0.005 1.8626451E-11 -0.0021367082
v 0.005 1.8626451E-11 -0.008546833
vt 0 0.25
vt 0.125 0.25
vt 0.125 0.125
vt 0 0.125
vt 0.125 0
vt 0 0
vt 0.25 0
vt 0.28125 0.125
vt 0.28125 0.25
vt 0.5 0.125
vt 0.5 0.25
vt 0.5 0
vt 0.75 0
vt 0.71875 0.125
vt 0.71875 0.25
vt 0.5 0.375
vt 0.28125 0.375
vt 0.5 0.5
vt 0.71875 0.5
vt 0.71875 0.375
vt 0.28125 0.5
vt 0.125 0.375
vt 0.125 0.5
vt 0.125 0.625
vt 0 0.625
vt 0 0.75
vt 0.125 0.75
vt 0 0.5
vt 0.28125 0.625
vt 0.28125 0.75
vt 0 0.375
vt 0.875 0.375
vt 0.875 0.5
vt 1 0.375
vt 1 0.25
vt 0.875 0.25
vt 0.875 0.125
vt 1 0.125
vt 0.875 0
vt 1 0
vt 1 0.5
vt 0.875 0.625
vt 0.71875 0.625
vt 0.5 0.625
vt 0.5 0.75
vt 0.71875 0.75
vt 0.5 0.875
vt 0.28125 0.875
vt 0.5 1
vt 0.75 1
vt 0.71875 0.875
vt 0.25 1
vt 0.125 0.875
vt 0.125 1
vt 0 0.875
vt 0 1
vt 0.875 0.875
vt 0.875 1
vt 1 0.875
vt 1 0.75
vt 0.875 0.75
vt 1 0.625
vt 1 1
vn -0 1 0
vn -0 1 0
vn -0 1 0
vn -0 1 0
vn -0 1 0
vn -0 1 0
vn -0 1 0
vn -0 1 0
vn -0 1 0
vn -0 1 0
vn -0 1 0
vn -0 1 0
vn -0 1 0
vn -0 1 0
vn -0 1 0
vn -0 1 0
vn -0 1 0
vn -0 1 0
vn -0 1 0
vn -0 1 0
vn -0 1 0
vn -0 1 0
vn -0 1 0
vn -0 1 0
vn -0 1 0
vn -0 1 0
vn -0 1 0
vn -0 1 0
vn -0 1 0
vn -0 1 0
vn -0 1 0
vn -0 1 0
vn -0 1 0
vn -0 1 0
vn -0 1 0
vn -0 1 0
vn -0 1 0
vn -0 1 0
vn -0 1 0
vn -0 1 0
vn -0 1 0
vn -0 1 0
vn -0 1 0
vn -0 1 0
vn -0 1 0
vn -0 1 0
vn -0 1 0
vn -0 1 0
vn -0 1 0
vn -0 1 0
vn -0 1 0
vn -0 1 0
vn -0 1 0
vn -0 1 0
vn -0 1 0
vn -0 1 0
vn -0 1 0
vn -0 1 0
vn -0 1 0
vn -0 1 0
vn -0 1 0
vn -0 1 0
vn -0 1 0
g wake_01_0
f 3/3/3 2/2/2 1/1/1
f 4/4/4 3/3/3 1/1/1
f 5/5/5 3/3/3 4/4/4
f 6/6/6 5/5/5 4/4/4
f 5/5/5 7/7/7 3/3/3
f 7/7/7 8/8/8 3/3/3
f 3/3/3 8/8/8 2/2/2
f 8/8/8 9/9/9 2/2/2
f 8/8/8 10/10/10 9/9/9
f 10/10/10 11/11/11 9/9/9
f 12/12/12 10/10/10 8/8/8
f 7/7/7 12/12/12 8/8/8
f 12/12/12 13/13/13 10/10/10
f 13/13/13 14/14/14 10/10/10
f 10/10/10 14/14/14 11/11/11
f 14/14/14 15/15/15 11/11/11
f 9/9/9 11/11/11 16/16/16
f 17/17/17 9/9/9 16/16/16
f 2/2/2 9/9/9 17/17/17
f 17/17/17 16/16/16 18/18/18
f 18/18/18 16/16/16 19/19/19
f 16/16/16 20/20/20 19/19/19
f 11/11/11 15/15/15 20/20/20
f 16/16/16 11/11/11 20/20/20
f 21/21/21 17/17/17 18/18/18
f 22/22/22 17/17/17 21/21/21
f 23/23/23 22/22/22 21/21/21
f 23/23/23 21/21/21 24/24/24
f 23/23/23 24/24/24 25/25/25
f 25/25/25 24/24/24 26/26/26
f 24/24/24 27/27/27 26/26/26
f 28/28/28 23/23/23 25/25/25
f 21/21/21 29/29/29 24/24/24
f 24/24/24 29/29/29 27/27/27
f 21/21/21 18/18/18 29/29/29
f 29/29/29 30/30/30 27/27/27
f 31/31/31 22/22/22 23/23/23
f 28/28/28 31/31/31 23/23/23
f 31/31/31 1/1/1 22/22/22
f 1/1/1 2/2/2 22/22/22
f 22/22/22 2/2/2 17/17/17
f 19/19/19 20/20/20 32/32/32
f 33/33/33 19/19/19 32/32/32
f 33/33/33 32/32/32 34/34/34
f 34/34/34 32/32/32 35/35/35
f 32/32/32 36/36/36 35/35/35
f 35/35/35 36/36/36 37/37/37
f 38/38/38 35/35/35 37/37/37
f 38/38/38 37/37/37 39/39/39
f 39/39/39 37/37/37 13/13/13
f 37/37/37 14/14/14 13/13/13
f 37/37/37 36/36/36 14/14/14
f 40/40/40 38/38/38 39/39/39
f 36/36/36 15/15/15 14/14/14
f 41/41/41 33/33/33 34/34/34
f 20/20/20 15/15/15 36/36/36
f 32/32/32 20/20/20 36/36/36
f 33/33/33 42/42/42 19/19/19
f 42/42/42 43/43/43 19/19/19
f 19/19/19 43/43/43 44/44/44
f 18/18/18 19/19/19 44/44/44
f 18/18/18 44/44/44 29/29/29
f 29/29/29 44/44/44 30/30/30
f 44/44/44 45/45/45 30/30/30
f 44/44/44 43/43/43 45/45/45
f 43/43/43 46/46/46 45/45/45
f 30/30/30 45/45/45 47/47/47
f 48/48/48 30/30/30 47/47/47
f 48/48/48 47/47/47 49/49/49
f 49/49/49 47/47/47 50/50/50
f 47/47/47 51/51/51 50/50/50
f 45/45/45 46/46/46 51/51/51
f 47/47/47 45/45/45 51/51/51
f 52/52/52 48/48/48 49/49/49
f 53/53/53 48/48/48 52/52/52
f 54/54/54 53/53/53 52/52/52
f 55/55/55 53/53/53 54/54/54
f 56/56/56 55/55/55 54/54/54
f 55/55/55 26/26/26 53/53/53
f 26/26/26 27/27/27 53/53/53
f 27/27/27 30/30/30 48/48/48
f 53/53/53 27/27/27 48/48/48
f 50/50/50 51/51/51 57/57/57
f 58/58/58 50/50/50 57/57/57
f 58/58/58 57/57/57 59/59/59
f 59/59/59 57/57/57 60/60/60
f 57/57/57 61/61/61 60/60/60
f 57/57/57 51/51/51 61/61/61
f 60/60/60 61/61/61 42/42/42
f 62/62/62 60/60/60 42/42/42
f 62/62/62 42/42/42 33/33/33
f 41/41/41 62/62/62 33/33/33
f 42/42/42 61/61/61 43/43/43
f 61/61/61 46/46/46 43/43/43
f 63/63/63 58/58/58 59/59/59
f 51/51/51 46/46/46 61/61/61
