g Wall_Door
v 1.875 2 -1
v 2 2 -1
v 2 2 0
v 1.875 2 0
v -0 2 -1
v 0.125 2 -1
v 0.125 2 0
v -0 2 0
v 1.875 0 0
v 1.875 2 0
v 2 2 0
v 2 0 0
v 2 0 -1
v 2 2 -1
v 1.875 2 -1
v 1.875 0 -1
v -0 0 0
v -0 2 0
v 0.125 2 0
v 0.125 0 0
v 0.125 2 -1
v -0 2 -1
v -0 0 -1
v 0.125 0 -1
v 0.125 2 0
v 0.125 2 -1
v 0.125 0 -1
v 0.125 0 0
v 1.875 0 0
v 1.875 0 -1
v 1.875 2 -1
v 1.875 2 0
vt 0.06465721 -0.00010085106
vt -0.00010088086 -0.00010085106
vt -0.00010085106 0.50010085
vt 0.06465721 0.50010085
vt 0.06465721 -0.00010086596
vt -0.00010085106 -0.00010085106
vt -0.00010085106 0.50010085
vt 0.06465721 0.50010085
vt -0.00020170212 1
vt -0.00020170212 -1
vt 0.09952772 -1
vt 0.099527836 1
vt 1.0002017 1
vt 1.0002017 -1
vt 0.90047145 -1
vt 0.9004717 1
vt -0.00020134449 -1
vt -0.00020194054 1
vt 0.099528074 1
vt 0.09952843 -1
vt 0.90047157 1
vt 1.0002017 1
vt 1.000201 -1
vt 0.9004712 -1
vt 0.099528074 1
vt 0.90047157 1
vt 0.9004712 -1
vt 0.09952843 -1
vt -0.00020170212 1
vt 0.9004717 1
vt 0.90047145 -1
vt -0.00020170212 -1
vn -0 1 0
vn -0 1 0
vn -0 1 0
vn -0 1 0
vn -0 1 0
vn -0 1 0
vn -0 1 0
vn -0 1 0
vn -0 0 1
vn -0 0 1
vn -0 0 1
vn -0 0 1
vn -0 0 -1
vn -0 0 -1
vn -0 0 -1
vn -0 0 -1
vn -0 0 1
vn -0 0 1
vn -0 0 1
vn -0 0 1
vn -0 0 -1
vn -0 0 -1
vn -0 0 -1
vn -0 0 -1
vn 1 0 0
vn 1 0 0
vn 1 0 0
vn 1 0 0
vn -1 0 0
vn -1 0 0
vn -1 0 0
vn -1 0 0
g Wall_Door_0
f 3/3/3 2/2/2 1/1/1
f 4/4/4 3/3/3 1/1/1
f 7/7/7 6/6/6 5/5/5
f 8/8/8 7/7/7 5/5/5
g Wall_Door_1
f 11/11/11 10/10/10 9/9/9
f 12/12/12 11/11/11 9/9/9
f 15/15/15 14/14/14 13/13/13
f 16/16/16 15/15/15 13/13/13
f 19/19/19 18/18/18 17/17/17
f 20/20/20 19/19/19 17/17/17
f 23/23/23 22/22/22 21/21/21
f 24/24/24 23/23/23 21/21/21
f 27/27/27 26/26/26 25/25/25
f 28/28/28 27/27/27 25/25/25
f 31/31/31 30/30/30 29/29/29
f 32/32/32 31/31/31 29/29/29
