g Wall1m
v -0 0 -1
v -0 2 -1
v -0 2 0
v -0 0 0
v 1 2 -1
v 1 0 -1
v 1 0 0
v 1 2 0
v -0 0 0
v -0 2 0
v 1 2 0
v 1 0 0
v 1 0 -1
v 1 2 -1
v -0 2 -1
v -0 0 -1
v -0 2 -1
v 1 2 -1
v 1 2 0
v -0 2 0
vt 1 0.9999999
vt 0.99999994 -0.99999994
vt 5.9604645E-08 -0.99999994
vt 2.9802322E-08 0.9999999
vt 0 -0.99999994
vt 0 1
vt 1 1
vt 1 -0.99999994
vt 1 0.9999999
vt 0.99999994 -0.99999994
vt 5.9604645E-08 -0.99999994
vt 2.9802322E-08 0.9999999
vt 1 0.9999999
vt 0.99999994 -0.99999994
vt 5.9604645E-08 -0.99999994
vt 2.9802322E-08 0.9999999
vt 0.0039683213 0.5
vt 0.0039683213 0.9960316
vt 0.5 0.9960316
vt 0.5 0.5
vn -1 0 0
vn -1 0 0
vn -1 0 0
vn -1 0 0
vn 1 0 0
vn 1 0 0
vn 1 0 0
vn 1 0 0
vn -0 0 1
vn -0 0 1
vn -0 0 1
vn -0 0 1
vn -0 0 -1
vn -0 0 -1
vn -0 0 -1
vn -0 0 -1
vn -0 1 0
vn -0 1 0
vn -0 1 0
vn -0 1 0
g Wall1m_0
f 3/3/3 2/2/2 1/1/1
f 4/4/4 3/3/3 1/1/1
f 7/7/7 6/6/6 5/5/5
f 8/8/8 7/7/7 5/5/5
f 11/11/11 10/10/10 9/9/9
f 12/12/12 11/11/11 9/9/9
f 15/15/15 14/14/14 13/13/13
f 16/16/16 15/15/15 13/13/13
g Wall1m_1
f 19/19/19 18/18/18 17/17/17
f 20/20/20 19/19/19 17/17/17
