g water
v -17.687382 -6.4106153E-16 -5.8918176
v -17.452477 6.298446E-17 -9.062558
v -14.924522 5.3343964E-17 -9.020098
v -15.413195 -6.4676154E-16 -5.8661838
v -12.718769 -7.1104567E-16 -5.6690545
v -12.096439 4.529219E-18 -8.906783
v -9.895408 -7.9413225E-16 -5.5061064
v -9.376323 -3.8126614E-17 -8.923743
v -7.3879385 -7.8520346E-16 -5.603843
v -7.041354 -1.3827136E-17 -9.078107
v -5.4627295 -6.677215E-16 -5.8094597
v -5.12153 3.5181037E-17 -8.974798
v -3.5735767 -5.850662E-16 -5.7284684
v -3.1909072 -7.129321E-19 -8.353004
v -1.6883808 -6.0199224E-16 -5.349832
v -1.312802 -1.0742641E-16 -7.55901
v 0.23228878 -6.704726E-16 -5.0367727
v 0.49778384 -1.9977783E-16 -7.157432
v 2.3292098 -8.080622E-16 -4.8257265
v 2.179179 -2.6564004E-16 -7.2713037
v 4.4691095 -8.4453023E-16 -5.1747413
v 3.736458 -1.8202905E-16 -8.138335
v 6.3864026 -7.4220076E-16 -5.820775
v 5.4038205 1.0426839E-17 -9.181326
v 8.360996 -6.5470676E-16 -6.154881
v 7.5032206 1.5004046E-16 -9.7537365
v 10.756396 -6.530803E-16 -6.0227256
v 10.087528 1.3993864E-16 -9.578847
v 13.839867 -7.053818E-16 -5.6517997
v 13.592778 4.5447348E-17 -9.028544
v 16.768103 -7.155996E-16 -5.556432
v 16.755434 -9.307212E-19 -8.774739
v 19.102482 -7.0597544E-16 -5.599471
v 19.102482 -1.3703877E-24 -8.778902
vt -6.9566708 -0.70311034
vt -6.888604 0.5852473
vt -5.862673 0.5897331
vt -6.0338335 -0.6939771
vt -4.939038 -0.75080884
vt -4.7143726 0.5680524
vt -3.7922268 -0.79266584
vt -3.6109924 0.5982958
vt -2.7758095 -0.7314789
vt -2.6650438 0.6809739
vt -1.9965363 -0.63152707
vt -1.8853014 0.65555155
vt -1.2294292 -0.64815867
vt -1.0967249 0.41987762
vt -0.4613707 -0.7855766
vt -0.32797575 0.11389201
vt 0.320516 -0.8960854
vt 0.41001052 -0.03347347
vt 1.1730297 -0.96369493
vt 1.0911595 0.027164385
vt 2.0381694 -0.8037238
vt 1.7154858 0.39228627
vt 2.8104484 -0.5251665
vt 2.3829618 0.829738
vt 3.608653 -0.37266347
vt 3.2297525 1.0799915
vt 4.58158 -0.40570408
vt 4.2796836 1.031236
vt 5.8357005 -0.5297018
vt 5.7064576 0.83808947
vt 7.024478 -0.54324174
vt 6.991697 0.76228654
vt 7.9711447 -0.50573146
vt 7.943837 0.7841338
vn -0 1 0
vn -0 1 0
vn -0 1 0
vn -0 1 0
vn -0 1 0
vn -0 1 0
vn -0 1 0
vn -0 1 0
vn -0 1 0
vn -0 1 0
vn -0 1 0
vn -0 1 0
vn -0 1 0
vn -0 1 0
vn -0 1 0
vn -0 1 0
vn -0 1 0
vn -0 1 0
vn -0 1 0
vn -0 1 0
vn -0 1 0
vn -0 1 0
vn -0 1 0
vn -0 1 0
vn -0 1 0
vn -0 1 0
vn -0 1 0
vn -0 1 0
vn -0 1 0
vn -0 1 0
vn -0 1 0
vn -0 1 0
vn -0 1 0
vn -0 1 0
g water_0
f 3/3/3 2/2/2 1/1/1
f 4/4/4 3/3/3 1/1/1
f 4/4/4 5/5/5 3/3/3
f 5/5/5 6/6/6 3/3/3
f 5/5/5 7/7/7 6/6/6
f 7/7/7 8/8/8 6/6/6
f 7/7/7 9/9/9 8/8/8
f 9/9/9 10/10/10 8/8/8
f 9/9/9 11/11/11 10/10/10
f 11/11/11 12/12/12 10/10/10
f 11/11/11 13/13/13 12/12/12
f 13/13/13 14/14/14 12/12/12
f 13/13/13 15/15/15 14/14/14
f 15/15/15 16/16/16 14/14/14
f 15/15/15 17/17/17 16/16/16
f 17/17/17 18/18/18 16/16/16
f 17/17/17 19/19/19 18/18/18
f 19/19/19 20/20/20 18/18/18
f 19/19/19 21/21/21 20/20/20
f 21/21/21 22/22/22 20/20/20
f 21/21/21 23/23/23 22/22/22
f 23/23/23 24/24/24 22/22/22
f 23/23/23 25/25/25 24/24/24
f 25/25/25 26/26/26 24/24/24
f 25/25/25 27/27/27 26/26/26
f 27/27/27 28/28/28 26/26/26
f 27/27/27 29/29/29 28/28/28
f 29/29/29 30/30/30 28/28/28
f 29/29/29 31/31/31 30/30/30
f 31/31/31 32/32/32 30/30/30
f 31/31/31 33/33/33 32/32/32
f 33/33/33 34/34/34 32/32/32
