g window_01_godray_mesh
v 0.20475233 0.07039882 0.021730328
v 0.29182434 -0.05557161 0.4803323
v 0.24824065 -0.06080236 0.5401197
v 0.17417276 0.13041466 0.021730328
v 0.18035735 -0.064953506 0.5875673
v 0.1265439 0.1780435 0.021730328
v 0.09481947 -0.06761868 0.61803067
v 0.06652805 0.2086231 0.021730328
v 2.4842695E-09 -0.068537064 0.6285275
v -9.851144E-09 0.2191601 0.021730328
v -0.094819486 -0.06761863 0.6180306
v -0.06652808 0.20862308 0.021730328
v -0.18035732 -0.064953506 0.58756727
v -0.1265439 0.17804348 0.021730328
v -0.24824055 -0.060802344 0.54011965
v -0.17417271 0.13041462 0.021730328
v -0.29182428 -0.05557162 0.48033226
v -0.2047523 0.0703988 0.021730328
v -0.3068422 -0.049773324 0.4140574
v -0.21528931 0.0038707557 0.021730328
v 0.21528924 0.0038707557 0.021730328
v 0.30684212 -0.049773324 0.4140574
vt 0.8757908 1
vt 0.88417864 -0.00031524897
vt 0.81571215 -0.00031524897
vt 0.7799786 1
vt 0.7262952 -0.00031524897
vt 0.7025289 1
vt 0.6152931 -0.00031524897
vt 0.60279846 1
vt 0.49224627 -0.00031524897
vt 0.4922463 1
vt 0.36919957 -0.00031524897
vt 0.38169423 1
vt 0.25819755 -0.00031524897
vt 0.2819637 1
vt 0.16878058 -0.00031524897
vt 0.20451409 1
vt 0.10031381 -0.00031524897
vt 0.108701915 1
vt 0 -0.00031524897
vt 0 1
vt 1 1
vt 1 -0.00031524897
vn 0.7389973 0.6703853 0.06683292
vn 0.6869024 0.71843463 0.10962085
vn 0.49033704 0.8329677 0.25638714
vn 0.51058424 0.8248015 0.24291222
vn 0.31282508 0.8820027 0.35243675
vn 0.31776035 0.88114965 0.35014823
vn 0.15194711 0.901232 0.40582374
vn 0.15228713 0.90121096 0.40574288
vn 2.1719208E-08 0.90619814 0.42285338
vn -0 0.90619814 0.4228533
vn -0.1519472 0.901232 0.40582374
vn -0.15228724 0.90121096 0.40574288
vn -0.31282547 0.88200265 0.35243675
vn -0.3177607 0.88114953 0.3501481
vn -0.49033725 0.83296764 0.2563869
vn -0.51058453 0.8248013 0.24291205
vn -0.68690234 0.71843475 0.10962093
vn -0.73899674 0.6703858 0.06683321
vn -0.88089824 0.4652969 -0.086700805
vn -0.88089824 0.46529683 -0.086700805
vn 0.8808994 0.46529457 -0.08670161
vn 0.8808994 0.46529457 -0.08670161
g window_01_godray_mesh_0
f 3/3/3 2/2/2 1/1/1
f 4/4/4 3/3/3 1/1/1
f 5/5/5 3/3/3 4/4/4
f 6/6/6 5/5/5 4/4/4
f 7/7/7 5/5/5 6/6/6
f 8/8/8 7/7/7 6/6/6
f 9/9/9 7/7/7 8/8/8
f 10/10/10 9/9/9 8/8/8
f 11/11/11 9/9/9 10/10/10
f 12/12/12 11/11/11 10/10/10
f 13/13/13 11/11/11 12/12/12
f 14/14/14 13/13/13 12/12/12
f 15/15/15 13/13/13 14/14/14
f 16/16/16 15/15/15 14/14/14
f 17/17/17 15/15/15 16/16/16
f 18/18/18 17/17/17 16/16/16
f 19/19/19 17/17/17 18/18/18
f 20/20/20 19/19/19 18/18/18
f 2/2/2 22/22/22 21/21/21
f 1/1/1 2/2/2 21/21/21
