g WindSwirl_06a
v -34.75736 0.5176176 -3.0519238
v -15.826834 1.9772978 1.0430382
v -16.193323 2.3014483 11.462535
v -33.921955 0.2018469 17.18189
v -12.491866 1.5067992 -4.880312
v -25.473495 0.878289 -20.682663
v -5.4003453 0.69401467 -8.321203
v -5.532209 0.7198859 -27.158916
v 10.214619 -0.9171816 -23.19912
v 2.8231416 -0.84984714 -7.0328984
v 6.6408706 -2.716213 -1.6682138
v 21.356876 -3.1936107 -12.45599
v 27.028118 -4.8422155 1.0718722
v 9.007089 -4.35496 7.6183176
v 10.613605 -5.5510545 19.671635
v 29.916512 -5.818349 15.687503
v 12.921489 -6.275979 37.97831
v 32.743004 -6.274164 35.738586
v 33.418926 -5.8092856 56.556503
v 13.4126835 -6.19401 58.794895
v 34.023018 -4.0068345 76.533424
v 14.011819 -4.3702693 78.91064
v 34.75736 -1.7981405 101.37448
v 14.687313 -1.8677084 103.2631
v 34.6676 -0.009195656 126.26208
v 14.541814 0.16910073 127.69238
v 33.85916 1.3083477 151.06041
v 13.703297 1.6236006 152.26114
v 32.538155 2.2649546 175.76869
v 12.375932 2.6212826 176.951
v 21.045734 5.0116353 28.885023
v 5.951103 5.961187 15.090893
v 11.537168 6.275976 8.616088
v 30.393564 5.758467 13.787445
v 0.049424767 5.056015 19.108246
v 6.692902 3.5461578 36.628605
v -7.368721 3.781669 20.1404
v -7.052782 1.7281632 38.90522
v -26.303658 0.43560317 31.932783
v -13.548834 2.7831924 18.182295
v 31.880377 5.6612186 -1.8244835
v 12.660139 5.9355836 -2.6078517
v 11.948621 5.1947417 -17.282001
v 31.140488 5.02149 -18.51531
v 28.277668 4.1965904 -37.56768
v 7.9160357 4.342956 -35.606926
v 3.766396 2.853549 -54.044495
v 24.238237 2.6969547 -55.985054
v -0.70595545 1.9528201 -78.011284
v 19.776909 1.8139732 -78.91773
v -4.4108562 1.5120006 -102.5395
v 15.847199 1.4204414 -103.34666
v -7.070162 1.3191898 -127.3193
v 13.123798 1.27487 -127.765625
v -8.630738 1.2522707 -152.15302
v 11.561995 1.240658 -152.27928
v -9.1351595 1.240375 -176.95099
v 11.064838 1.240375 -176.95099
vt 1 0.5577869
vt 0 0.5577869
vt 0 0.5967908
vt 1 0.5967908
vt 0 0.5086423
vt 1 0.5086423
vt 0 0.45695594
vt 1 0.45695594
vt 1 0.39620784
vt 0 0.39620784
vt 0 0.340498
vt 1 0.340498
vt 1 0.2951082
vt 0 0.2951082
vt 0 0.25710332
vt 1 0.25710332
vt 0 0.22273363
vt 1 0.22273363
vt 1 0.1602747
vt 0 0.1602747
vt 1 0.108669914
vt 0 0.108669914
vt 1 0.06920765
vt 0 0.06920765
vt 1 0.040344648
vt 0 0.040344648
vt 1 0.018117987
vt 0 0.018117987
vt 1 0
vt 0 0
vt 1 0.74445015
vt 0 0.74445015
vt 0 0.77277046
vt 1 0.77277046
vt 0 0.7127571
vt 1 0.7127571
vt 0 0.67543364
vt 1 0.67543364
vt 1 0.634148
vt 0 0.634148
vt 1 0.79869753
vt 0 0.79869753
vt 0 0.8222366
vt 1 0.8222366
vt 1 0.8432228
vt 0 0.8432228
vt 0 0.8791906
vt 1 0.8791906
vt 0 0.90966576
vt 1 0.90966576
vt 0 0.9362644
vt 1 0.9362644
vt 0 0.9598038
vt 1 0.9598038
vt 0 0.98088926
vt 1 0.98088926
vt 0 1
vt 1 1
vn -0.07337535 0.99721646 -0.013240325
vn -0.07240896 0.997279 -0.013840882
vn -0.108631514 0.9940136 0.0116709
vn -0.110346645 0.993806 0.013162517
vn -0.010701625 0.99953675 -0.028490933
vn -0.008967528 0.9995555 -0.028430589
vn 0.06772455 0.997689 -0.0054941415
vn 0.07250808 0.99736327 -0.0030046531
vn 0.13922681 0.988359 0.061337385
vn 0.14095488 0.9878022 0.066171385
vn 0.11598416 0.9871292 0.11010769
vn 0.12029891 0.9866384 0.10987631
vn 0.06365307 0.99371207 0.09211156
vn 0.06067102 0.9941147 0.08975089
vn 0.022808589 0.9986578 0.04650146
vn 0.023799215 0.9985636 0.048004705
vn -0.0005801651 0.9999763 0.006861844
vn -0.00012078073 0.9999702 0.0077175493
vn -0.019466165 0.99862957 -0.048580665
vn -0.020386238 0.9984108 -0.05253778
vn -0.02467333 0.9954455 -0.092084415
vn -0.024232179 0.9954282 -0.09238747
vn -0.012705049 0.9961713 -0.086494625
vn -0.011817859 0.9962599 -0.085596114
vn 0.0020968274 0.99773777 -0.06719311
vn 0.0028037685 0.99781895 -0.06595061
vn 0.011280735 0.99879175 -0.047832105
vn 0.011660782 0.9988405 -0.046709727
vn 0.014351947 0.9991455 -0.038758747
vn 0.014351949 0.9991455 -0.03875875
vn -0.01601134 0.9965211 0.08178877
vn -0.019442102 0.9961999 0.08489873
vn 0.016792988 0.9995776 0.023722608
vn 0.017467422 0.9996549 0.019618297
vn -0.0854045 0.9894907 0.116680525
vn -0.08516574 0.9895141 0.116655834
vn -0.12219085 0.9872268 0.102239095
vn -0.1224918 0.9869856 0.10418821
vn -0.12346057 0.9906246 0.058484323
vn -0.12335165 0.99058247 0.059419367
vn 0.016669031 0.99940264 -0.030272756
vn 0.016557861 0.99939585 -0.03055764
vn 0.0072512687 0.9989544 -0.045137748
vn 0.0074576056 0.99895453 -0.045102924
vn 0.0021343934 0.9980457 -0.062451933
vn 0.001819921 0.9978967 -0.06479866
vn 0.0025378992 0.99842936 -0.05596712
vn 0.0022087856 0.9982659 -0.058824066
vn 0.004725212 0.99961495 -0.027343757
vn 0.004692966 0.999567 -0.029046673
vn 0.003972266 0.9999174 -0.012224906
vn 0.004075788 0.9999093 -0.0128437895
vn 0.0022093551 0.9999871 -0.0045763184
vn 0.002281835 0.99998593 -0.0047833384
vn 0.00080803677 0.99999905 -0.0011712487
vn 0.00083214644 0.9999989 -0.0012137612
vn 0.0002867056 1 -0.0002519942
vn 0.00028670565 1 -0.0002519942
g WindSwirl_06a_0
f 3/3/3 2/2/2 1/1/1
f 4/4/4 3/3/3 1/1/1
f 1/1/1 2/2/2 5/5/5
f 6/6/6 1/1/1 5/5/5
f 6/6/6 5/5/5 7/7/7
f 8/8/8 6/6/6 7/7/7
f 8/8/8 7/7/7 9/9/9
f 7/7/7 10/10/10 9/9/9
f 9/9/9 10/10/10 11/11/11
f 12/12/12 9/9/9 11/11/11
f 12/12/12 11/11/11 13/13/13
f 11/11/11 14/14/14 13/13/13
f 13/13/13 14/14/14 15/15/15
f 16/16/16 13/13/13 15/15/15
f 16/16/16 15/15/15 17/17/17
f 18/18/18 16/16/16 17/17/17
f 19/19/19 18/18/18 17/17/17
f 20/20/20 19/19/19 17/17/17
f 21/21/21 19/19/19 20/20/20
f 22/22/22 21/21/21 20/20/20
f 23/23/23 21/21/21 22/22/22
f 24/24/24 23/23/23 22/22/22
f 25/25/25 23/23/23 24/24/24
f 26/26/26 25/25/25 24/24/24
f 27/27/27 25/25/25 26/26/26
f 28/28/28 27/27/27 26/26/26
f 29/29/29 27/27/27 28/28/28
f 30/30/30 29/29/29 28/28/28
f 33/33/33 32/32/32 31/31/31
f 34/34/34 33/33/33 31/31/31
f 31/31/31 32/32/32 35/35/35
f 36/36/36 31/31/31 35/35/35
f 36/36/36 35/35/35 37/37/37
f 38/38/38 36/36/36 37/37/37
f 38/38/38 37/37/37 39/39/39
f 37/37/37 40/40/40 39/39/39
f 39/39/39 40/40/40 3/3/3
f 4/4/4 39/39/39 3/3/3
f 34/34/34 41/41/41 33/33/33
f 41/41/41 42/42/42 33/33/33
f 43/43/43 42/42/42 41/41/41
f 44/44/44 43/43/43 41/41/41
f 44/44/44 45/45/45 43/43/43
f 45/45/45 46/46/46 43/43/43
f 46/46/46 45/45/45 47/47/47
f 45/45/45 48/48/48 47/47/47
f 47/47/47 48/48/48 49/49/49
f 48/48/48 50/50/50 49/49/49
f 49/49/49 50/50/50 51/51/51
f 50/50/50 52/52/52 51/51/51
f 51/51/51 52/52/52 53/53/53
f 52/52/52 54/54/54 53/53/53
f 53/53/53 54/54/54 55/55/55
f 54/54/54 56/56/56 55/55/55
f 55/55/55 56/56/56 57/57/57
f 56/56/56 58/58/58 57/57/57
