g WindSwirl_06g
v -9.375275 1.7101288 -42.667633
v 12.016556 2.7556763 -33.70926
v 21.673676 4.4217224 -66.30013
v -0.3452301 3.3110046 -72.84629
v 28.21096 5.2340546 -100.055374
v 5.517021 4.053192 -103.586464
v 31.990265 5.526001 -133.96472
v 8.770706 4.290512 -134.99747
v 33.235283 5.57283 -167.26514
v 9.804985 4.315445 -167.26514
v -21.061104 -0.6147766 -12.805359
v -0.056655884 0.39050293 -2.7646484
v -33.754112 -3.0399323 17.573883
v -12.665817 -2.02594 26.834305
v -44.8973 -4.7706146 49.74121
v -23.189629 -3.6922455 55.722168
v -51.256783 -5.543167 84.33359
v -29.508965 -4.4606323 84.53
v -49.17492 -5.3269653 120.84161
v -29.711632 -4.481842 113.58237
v -32.269707 -3.5700989 153.31583
v -19.73626 -3.44516 138.95221
v 3.5619583 0.153656 167.26514
v 3.235466 -1.0578461 150.2457
v 39.312836 3.8690338 152.7143
v 25.968346 1.3046417 141.59018
v 51.540936 5.1398163 114.29126
v 32.991234 2.0344849 117.629
v 35.91678 3.516098 78.26343
v 21.675774 0.85853577 96.72125
vt 1 0.5358479
vt 0 0.5358478
vt 0 0.5843489
vt 1 0.58434904
vt 0 0.62968993
vt 1 0.62969
vt 0 0.67305446
vt 1 0.6730545
vt 0 0.71540976
vt 1 0.7154099
vt 1 0.48346472
vt 0 0.4834646
vt 1 0.42624718
vt 0 0.42624712
vt 1 0.36304432
vt 0 0.3630442
vt 1 0.29515207
vt 0 0.295152
vt 1 0.22476715
vt 0 0.22476703
vt 1 0.14763325
vt 0 0.14763314
vt 1 0.06560922
vt 0 0.0656091
vt 1 -0.024594128
vt 0 -0.024594247
vt 1 -0.121006966
vt 0 -0.121007085
vt 1 -0.28459013
vt 0 -0.28459024
vn 0.06578103 -0.9969829 -0.041206095
vn 0.06613176 -0.99693346 -0.04183695
vn 0.058018275 -0.99802834 -0.02394237
vn 0.057797447 -0.99805546 -0.023338892
vn 0.05351847 -0.9985348 -0.008010168
vn 0.053513866 -0.9985353 -0.007974555
vn 0.05307635 -0.9985902 -0.00078402535
vn 0.053066958 -0.9985905 -0.0008380072
vn 0.05334503 -0.9985759 0.0007614907
vn 0.05334502 -0.9985759 0.0007614906
vn 0.07061733 -0.9962542 -0.0499076
vn 0.07063981 -0.99625057 -0.049948014
vn 0.066112496 -0.9969043 -0.042553186
vn 0.06585091 -0.99694 -0.04212341
vn 0.05636589 -0.9981172 -0.0241857
vn 0.056380663 -0.99811554 -0.024217725
vn 0.04928535 -0.99876654 -0.006039145
vn 0.049513344 -0.9987503 -0.006804724
vn 0.047427237 -0.99877757 0.013925589
vn 0.047359727 -0.99880624 0.011960003
vn 0.061235607 -0.9971488 0.044096462
vn 0.060292553 -0.9972619 0.0428215
vn 0.10242049 -0.99250644 0.0666414
vn 0.100998364 -0.9926616 0.06650002
vn 0.15219237 -0.9874242 0.04278907
vn 0.15056394 -0.98758554 0.04477892
vn 0.16220261 -0.98673767 -0.006256344
vn 0.16313179 -0.98659956 -0.0030638427
vn 0.15655589 -0.98733926 -0.025525952
vn 0.15655588 -0.98733926 -0.02552595
g WindSwirl_06g_0
f 3/3/3 2/2/2 1/1/1
f 4/4/4 3/3/3 1/1/1
f 5/5/5 3/3/3 4/4/4
f 6/6/6 5/5/5 4/4/4
f 7/7/7 5/5/5 6/6/6
f 8/8/8 7/7/7 6/6/6
f 9/9/9 7/7/7 8/8/8
f 10/10/10 9/9/9 8/8/8
f 1/1/1 2/2/2 11/11/11
f 2/2/2 12/12/12 11/11/11
f 11/11/11 12/12/12 13/13/13
f 12/12/12 14/14/14 13/13/13
f 13/13/13 14/14/14 15/15/15
f 14/14/14 16/16/16 15/15/15
f 15/15/15 16/16/16 17/17/17
f 16/16/16 18/18/18 17/17/17
f 17/17/17 18/18/18 19/19/19
f 18/18/18 20/20/20 19/19/19
f 19/19/19 20/20/20 21/21/21
f 20/20/20 22/22/22 21/21/21
f 21/21/21 22/22/22 23/23/23
f 22/22/22 24/24/24 23/23/23
f 23/23/23 24/24/24 25/25/25
f 24/24/24 26/26/26 25/25/25
f 25/25/25 26/26/26 27/27/27
f 26/26/26 28/28/28 27/27/27
f 27/27/27 28/28/28 29/29/29
f 28/28/28 30/30/30 29/29/29
