g WindSwirl_06f
v -11.179733 -1.0615845 -152.97449
v -34.243057 -2.2841187 -151.90985
v -34.228302 -2.2827148 -177.76453
v -10.810562 -1.0265198 -176.99548
v -31.054138 -1.981308 -125.11578
v -8.764847 -0.8322754 -130.07535
v -0.13619995 -0.012939453 -108.83481
v -21.675148 -1.0907288 -100.403656
v -7.4322586 0.26171875 -79.58801
v 13.74707 1.3053589 -89.206696
v 26.78331 2.543213 -67.84111
v 5.493492 1.4890747 -59.419006
v 12.995201 2.201416 -37.54077
v 34.7452 3.29924 -42.702423
v 16.048103 2.4913025 -15.133621
v 37.977196 3.6061401 -15.513992
v 36.495224 3.4654236 12.556
v 15.753433 2.4633179 6.5774536
v 9.7920685 1.8972626 25.110825
v 25.40931 2.4127502 38.656845
v -0.7500534 -0.07122803 54.192543
v -5.4554977 0.4494171 35.839905
v -23.573608 -1.2709961 35.208084
v -31.731766 -3.0131073 52.509758
v -52.45479 -4.9808655 29.831253
v -35.086853 -2.3642426 20.597595
v -38.20462 -2.6602936 1.5136261
v -58.80121 -5.583496 -0.0138549805
v -31.65158 -2.0380402 -16.427689
v -48.63829 -4.618469 -28.406006
v -25.310715 -2.4033966 -47.39598
v -16.582573 -0.6071625 -28.961868
v 2.324257 1.1881409 -33.52214
v 3.9888458 0.37875366 -53.939194
v 32.160393 3.0538025 -43.39456
v 20.204681 2.8859863 -26.367325
v 32.393333 4.0433655 -10.904846
v 51.597763 4.8994904 -21.00409
v 58.801216 5.583496 7.6030426
v 37.256332 4.505142 8.641556
v 34.98166 4.289139 27.81427
v 54.741398 5.197998 36.41942
v 19.770782 2.8447876 41.86534
v 37.873856 3.5963287 55.73947
v 16.556778 1.5721588 68.71019
v -1.6648254 0.8093567 54.528397
v -18.841843 -0.8216858 73.65362
v 0.49134064 0.04664612 85.16887
v -28.189865 -1.7093353 99.302895
v -7.351494 -0.6980591 106.71645
v -10.339233 -0.98176575 129.70152
v -32.494064 -2.118042 126.01834
v -34.333237 -2.2926788 152.31712
v -11.259422 -1.0691528 153.35316
v -34.79779 -2.336792 177.76453
v -11.367493 -1.0794067 177.76453
vt 1 0.9192603
vt 0 0.9192603
vt 0 0.9488377
vt 1 0.9488377
vt 0 0.8891803
vt 1 0.8891803
vt 1 0.85750866
vt 0 0.85750866
vt 0 0.8257869
vt 1 0.8257869
vt 1 0.7950915
vt 0 0.7950915
vt 0 0.765623
vt 1 0.765623
vt 0 0.7357303
vt 1 0.7357303
vt 1 0.70107776
vt 0 0.70107776
vt 0 0.65679103
vt 1 0.65679103
vt 1 0.6099607
vt 0 0.6099607
vt 0 0.56336373
vt 1 0.56336373
vt 1 0.5161968
vt 0 0.5161968
vt 0 0.46922663
vt 1 0.46922663
vt 0 0.41778508
vt 1 0.41778508
vt 1 0.37232712
vt 0 0.37232712
vt 0 0.32764822
vt 1 0.32764822
vt 1 0.28122583
vt 0 0.28122583
vt 0 0.23275489
vt 1 0.23275489
vt 1 0.18228155
vt 0 0.18228155
vt 0 0.13300216
vt 1 0.13300216
vt 0 0.090950504
vt 1 0.090950504
vt 1 0.057232134
vt 0 0.057232134
vt 0 0.028695688
vt 1 0.028695688
vt 0 0.0049307793
vt 1 0.0049307793
vt 1 -0.015010886
vt 0 -0.015010886
vt 0 -0.033284657
vt 1 -0.033284657
vt 0 -0.05116228
vt 1 -0.05116228
vn -0.053050056 0.99858946 -0.0021881931
vn -0.053051665 0.99858934 -0.0021679334
vn -0.053249985 0.9985812 0.0003202469
vn -0.053249985 0.9985812 0.00032024694
vn -0.054113068 0.99848515 -0.009958026
vn -0.05415427 0.9984812 -0.01012812
vn -0.057789553 0.9981248 -0.020182231
vn -0.057454854 0.99815756 -0.019505385
vn -0.059380375 0.9979595 -0.023470309
vn -0.05927998 0.9979698 -0.023283133
vn -0.056405988 0.99825007 -0.017752545
vn -0.0565949 0.99823284 -0.018118035
vn -0.052728157 0.99856395 -0.009477617
vn -0.052746203 0.9985625 -0.009527321
vn -0.050557695 0.998719 -0.0021043683
vn -0.050529327 0.9987206 -0.0019721908
vn -0.050240517 0.99869496 0.0091799395
vn -0.05018971 0.99870455 0.00837652
vn -0.058478683 0.99786526 0.029073574
vn -0.058792096 0.99783224 0.029568175
vn -0.08167325 0.9954921 0.048217487
vn -0.08144127 0.99551517 0.048134096
vn -0.11574723 0.9923172 0.04369265
vn -0.115638226 0.9923274 0.04375061
vn -0.13818765 0.9901737 0.021451417
vn -0.13838242 0.990158 0.020910505
vn -0.14080843 0.9900299 -0.0037121936
vn -0.14082006 0.99002856 -0.003623639
vn -0.13190234 0.9908999 -0.026814923
vn -0.13196914 0.9908937 -0.02671789
vn -0.1150556 0.9924568 -0.042327415
vn -0.11515418 0.9924476 -0.0422755
vn -0.091257334 0.99474937 -0.046323188
vn -0.09112541 0.994762 -0.04631224
vn -0.067859694 0.99699354 -0.037403155
vn -0.067750916 0.9970042 -0.03731311
vn -0.05454441 0.99830556 -0.020272965
vn -0.05461368 0.9982986 -0.020427845
vn -0.04981259 0.9987551 -0.0026504442
vn -0.04982065 0.9987544 -0.0027574366
vn -0.05585985 0.99825996 0.018887259
vn -0.055548623 0.99828845 0.018289888
vn -0.06777699 0.99706143 0.03570183
vn -0.06630996 0.9972024 0.034502216
vn -0.067921355 0.9970907 0.03459531
vn -0.06671376 0.99722004 0.03318772
vn -0.058518317 0.9980428 0.022047643
vn -0.058605637 0.9980348 0.022177963
vn -0.05270914 0.99855036 0.010906525
vn -0.052576385 0.99856275 0.010396519
vn -0.051961362 0.9986401 0.0042264587
vn -0.051927596 0.9986412 0.0043905657
vn -0.052820224 0.99860305 0.0014025657
vn -0.052827198 0.9986027 0.001388616
vn -0.053283054 0.99857926 0.000476919
vn -0.053283058 0.99857926 0.00047691903
g WindSwirl_06f_0
f 3/3/3 2/2/2 1/1/1
f 4/4/4 3/3/3 1/1/1
f 1/1/1 2/2/2 5/5/5
f 6/6/6 1/1/1 5/5/5
f 6/6/6 5/5/5 7/7/7
f 5/5/5 8/8/8 7/7/7
f 7/7/7 8/8/8 9/9/9
f 10/10/10 7/7/7 9/9/9
f 10/10/10 9/9/9 11/11/11
f 9/9/9 12/12/12 11/11/11
f 11/11/11 12/12/12 13/13/13
f 14/14/14 11/11/11 13/13/13
f 14/14/14 13/13/13 15/15/15
f 16/16/16 14/14/14 15/15/15
f 16/16/16 15/15/15 17/17/17
f 15/15/15 18/18/18 17/17/17
f 17/17/17 18/18/18 19/19/19
f 20/20/20 17/17/17 19/19/19
f 20/20/20 19/19/19 21/21/21
f 19/19/19 22/22/22 21/21/21
f 21/21/21 22/22/22 23/23/23
f 24/24/24 21/21/21 23/23/23
f 24/24/24 23/23/23 25/25/25
f 23/23/23 26/26/26 25/25/25
f 25/25/25 26/26/26 27/27/27
f 28/28/28 25/25/25 27/27/27
f 28/28/28 27/27/27 29/29/29
f 30/30/30 28/28/28 29/29/29
f 30/30/30 29/29/29 31/31/31
f 29/29/29 32/32/32 31/31/31
f 31/31/31 32/32/32 33/33/33
f 34/34/34 31/31/31 33/33/33
f 34/34/34 33/33/33 35/35/35
f 33/33/33 36/36/36 35/35/35
f 35/35/35 36/36/36 37/37/37
f 38/38/38 35/35/35 37/37/37
f 38/38/38 37/37/37 39/39/39
f 37/37/37 40/40/40 39/39/39
f 39/39/39 40/40/40 41/41/41
f 42/42/42 39/39/39 41/41/41
f 42/42/42 41/41/41 43/43/43
f 44/44/44 42/42/42 43/43/43
f 44/44/44 43/43/43 45/45/45
f 43/43/43 46/46/46 45/45/45
f 45/45/45 46/46/46 47/47/47
f 48/48/48 45/45/45 47/47/47
f 48/48/48 47/47/47 49/49/49
f 50/50/50 48/48/48 49/49/49
f 50/50/50 49/49/49 51/51/51
f 49/49/49 52/52/52 51/51/51
f 51/51/51 52/52/52 53/53/53
f 54/54/54 51/51/51 53/53/53
f 54/54/54 53/53/53 55/55/55
f 56/56/56 54/54/54 55/55/55
