g WindSwirl_06b
v 31.103504 0.4706936 -2.7752552
v 14.163045 1.7980483 0.948483
v 14.491008 2.0928133 10.423415
v 30.355927 0.18354872 15.6242895
v 11.178664 1.3702023 -4.437893
v 22.795605 0.79866874 -18.807701
v 4.832636 0.6310996 -7.566855
v 4.950638 0.6546255 -24.696857
v -9.140812 -0.83403563 -21.096031
v -2.5263603 -0.7728053 -6.3953395
v -5.9427524 -2.469978 -1.516984
v -19.111744 -2.9040976 -11.326808
v -24.186798 -4.4032507 0.97470295
v -8.060223 -3.9601665 6.9276886
v -9.497854 -5.0478306 17.888327
v -26.771551 -5.2908936 14.26537
v -11.563123 -5.7070384 34.535435
v -29.300913 -5.7053876 32.498756
v -29.905777 -5.2826514 51.429443
v -12.002682 -5.6324997 53.464916
v -30.446363 -3.6436 69.59538
v -12.538834 -3.9740877 71.75709
v -31.103504 -1.6351323 92.1845
v -13.143316 -1.6983936 93.90191
v -31.023182 -0.008362035 114.81594
v -13.013112 0.15377112 116.116585
v -30.299734 1.1897409 137.36621
v -12.262744 1.4764152 138.45808
v -29.117596 2.059628 159.83461
v -11.074918 2.3836534 160.90974
v -18.833313 4.557312 26.266487
v -5.325496 5.4207826 13.722846
v -10.324327 5.7070355 7.8350067
v -27.198456 5.23644 12.537563
v -0.044229012 4.5976686 17.376013
v -5.9893136 3.2246852 33.308083
v 6.5940876 3.4388463 18.314598
v 6.3113613 1.5714986 35.378315
v 23.538498 0.3961141 29.037954
v 12.124518 2.5308855 16.534
v -28.528967 5.148008 -1.6590873
v -11.329247 5.3975005 -2.3714404
v -10.692528 4.723819 -15.715322
v -27.866858 4.5662737 -16.836828
v -25.30499 3.8161535 -34.16203
v -7.083866 3.949251 -32.379032
v -3.3704553 2.594864 -49.145153
v -21.690203 2.452466 -50.909798
v 0.6317422 1.7757897 -70.93926
v -17.69787 1.6495297 -71.76354
v 3.9471672 1.374932 -93.243904
v -14.181271 1.291673 -93.97791
v 6.3269143 1.1996002 -115.77732
v -11.744165 1.1592983 -116.18319
v 7.723436 1.1387477 -138.35977
v -10.346545 1.1281877 -138.4746
v 8.17483 1.1279304 -160.90971
v -9.901653 1.1279304 -160.90971
vt 1 0.30837077
vt 0 0.30837077
vt 0 0.34737468
vt 1 0.34737468
vt 0 0.2592262
vt 1 0.2592262
vt 0 0.20753984
vt 1 0.20753984
vt 1 0.14679174
vt 0 0.14679174
vt 0 0.0910819
vt 1 0.0910819
vt 1 0.0456921
vt 0 0.0456921
vt 0 0.007687226
vt 1 0.007687226
vt 0 -0.026682466
vt 1 -0.026682466
vt 1 -0.0891414
vt 0 -0.0891414
vt 1 -0.14074618
vt 0 -0.14074618
vt 1 -0.18020844
vt 0 -0.18020844
vt 1 -0.20907146
vt 0 -0.20907146
vt 1 -0.23129812
vt 0 -0.23129812
vt 1 -0.2494161
vt 0 -0.2494161
vt 1 0.49503404
vt 0 0.49503404
vt 0 0.52335435
vt 1 0.52335435
vt 0 0.463341
vt 1 0.463341
vt 0 0.42601752
vt 1 0.42601752
vt 1 0.3847319
vt 0 0.3847319
vt 1 0.5492814
vt 0 0.5492814
vt 0 0.5728205
vt 1 0.5728205
vt 1 0.5938067
vt 0 0.5938067
vt 0 0.6297745
vt 1 0.6297745
vt 0 0.66024965
vt 1 0.66024965
vt 0 0.6868483
vt 1 0.6868483
vt 0 0.7103877
vt 1 0.7103877
vt 0 0.73147315
vt 1 0.73147315
vt 0 0.7505839
vt 1 0.7505839
vn -0.07443462 -0.99713707 0.01331304
vn -0.07367133 -0.9971873 0.013779927
vn -0.11030656 -0.9938298 -0.011616974
vn -0.11220065 -0.9935974 -0.013238579
vn -0.011159754 -0.9995315 0.028500633
vn -0.008691424 -0.9995584 0.028416118
vn 0.06876871 -0.9976173 0.0055171964
vn 0.073701546 -0.9972759 0.0029904186
vn 0.14129801 -0.9880894 -0.060945157
vn 0.14326848 -0.9874557 -0.06637225
vn 0.11758397 -0.98694104 -0.11009675
vn 0.12257335 -0.9863635 -0.109831244
vn 0.06483138 -0.9936254 -0.09222481
vn 0.061532356 -0.99407023 -0.08965504
vn 0.02313006 -0.99865365 -0.046430666
vn 0.024238842 -0.99854904 -0.048086423
vn -0.0006107128 -0.9999765 -0.006823104
vn -9.898443E-05 -0.99996996 -0.0077611413
vn -0.019767871 -0.99862635 0.04852548
vn -0.0207284 -0.998401 0.052590884
vn -0.02507814 -0.9954358 0.092079386
vn -0.02461788 -0.9954184 0.09239058
vn -0.01291996 -0.9961677 0.08650384
vn -0.011999729 -0.9962585 0.08558672
vn 0.0021273044 -0.9977373 0.067199
vn 0.002852417 -0.9978192 0.06594485
vn 0.011462646 -0.9987896 0.047833476
vn 0.011849879 -0.99883837 0.046708066
vn 0.014584013 -0.99914217 0.038758565
vn 0.014584013 -0.99914217 0.038758565
vn -0.016624672 -0.996485 -0.08210472
vn -0.019464795 -0.99622154 -0.08463817
vn 0.017091865 -0.9995764 -0.023558479
vn 0.01771203 -0.9996462 -0.019844458
vn -0.08656177 -0.98939425 -0.116644986
vn -0.086800486 -0.98937047 -0.11666921
vn -0.124135904 -0.986987 -0.10220994
vn -0.1244444 -0.9867425 -0.10417704
vn -0.12538534 -0.9903634 -0.058812436
vn -0.12533759 -0.9903454 -0.059215937
vn 0.016942663 -0.99939847 0.030262148
vn 0.016821666 -0.9993912 0.030567273
vn 0.0073746834 -0.9989536 0.045136712
vn 0.007572432 -0.9989536 0.04510386
vn 0.0021620514 -0.99804246 0.06250231
vn 0.001856812 -0.99790025 0.06474387
vn 0.002571739 -0.99842584 0.056028403
vn 0.0022517284 -0.99826944 0.058762133
vn 0.0048011644 -0.99961394 0.027366364
vn 0.0047692712 -0.99956733 0.029023806
vn 0.0040380494 -0.99991703 0.012234072
vn 0.004140137 -0.99990904 0.01283467
vn 0.0022460807 -0.999987 0.0045791315
vn 0.0023177536 -0.99998593 0.004780589
vn 0.000821375 -0.99999905 0.001171714
vn 0.0008453468 -0.9999989 0.0012133111
vn 0.0002913453 -1 0.00025198548
vn 0.0002913453 -1 0.0002519855
g WindSwirl_06b_0
f 3/3/3 2/2/2 1/1/1
f 4/4/4 3/3/3 1/1/1
f 1/1/1 2/2/2 5/5/5
f 6/6/6 1/1/1 5/5/5
f 6/6/6 5/5/5 7/7/7
f 8/8/8 6/6/6 7/7/7
f 8/8/8 7/7/7 9/9/9
f 7/7/7 10/10/10 9/9/9
f 9/9/9 10/10/10 11/11/11
f 12/12/12 9/9/9 11/11/11
f 12/12/12 11/11/11 13/13/13
f 11/11/11 14/14/14 13/13/13
f 13/13/13 14/14/14 15/15/15
f 16/16/16 13/13/13 15/15/15
f 16/16/16 15/15/15 17/17/17
f 18/18/18 16/16/16 17/17/17
f 19/19/19 18/18/18 17/17/17
f 20/20/20 19/19/19 17/17/17
f 21/21/21 19/19/19 20/20/20
f 22/22/22 21/21/21 20/20/20
f 23/23/23 21/21/21 22/22/22
f 24/24/24 23/23/23 22/22/22
f 25/25/25 23/23/23 24/24/24
f 26/26/26 25/25/25 24/24/24
f 27/27/27 25/25/25 26/26/26
f 28/28/28 27/27/27 26/26/26
f 29/29/29 27/27/27 28/28/28
f 30/30/30 29/29/29 28/28/28
f 33/33/33 32/32/32 31/31/31
f 34/34/34 33/33/33 31/31/31
f 31/31/31 32/32/32 35/35/35
f 36/36/36 31/31/31 35/35/35
f 36/36/36 35/35/35 37/37/37
f 38/38/38 36/36/36 37/37/37
f 38/38/38 37/37/37 39/39/39
f 37/37/37 40/40/40 39/39/39
f 39/39/39 40/40/40 3/3/3
f 4/4/4 39/39/39 3/3/3
f 34/34/34 41/41/41 33/33/33
f 41/41/41 42/42/42 33/33/33
f 43/43/43 42/42/42 41/41/41
f 44/44/44 43/43/43 41/41/41
f 44/44/44 45/45/45 43/43/43
f 45/45/45 46/46/46 43/43/43
f 46/46/46 45/45/45 47/47/47
f 45/45/45 48/48/48 47/47/47
f 47/47/47 48/48/48 49/49/49
f 48/48/48 50/50/50 49/49/49
f 49/49/49 50/50/50 51/51/51
f 50/50/50 52/52/52 51/51/51
f 51/51/51 52/52/52 53/53/53
f 52/52/52 54/54/54 53/53/53
f 53/53/53 54/54/54 55/55/55
f 54/54/54 56/56/56 55/55/55
f 55/55/55 56/56/56 57/57/57
f 56/56/56 58/58/58 57/57/57
