g Hat_Tall
v -0.20099384 1.0759934 0.21630186
v -0.22358745 1.5154707 0.055377286
v -0.12320019 1.5434396 0.11930777
v -0.10593654 1.1012053 0.2662768
v -0.008715698 1.5539569 0.14476493
v -0.0058011794 1.1123645 0.28849566
v -0.25466263 1.0258731 0.11718428
v -0.27489546 1.4632564 -0.06543624
v -0.28389904 0.97062343 0.008098987
v -0.29308122 1.4083668 -0.18838117
v -0.26844162 0.91515785 -0.10158666
v -0.27249926 1.3508286 -0.31223404
v -0.20714961 0.8626339 -0.20525701
v -0.21094722 1.2950728 -0.4184474
v -0.09157717 0.8402755 -0.24923469
v -0.09752381 1.267707 -0.46465364
v 0.022808572 0.8325935 -0.26421767
v 0.023311146 1.2586507 -0.4826395
v 0.09619961 1.1052821 0.27467632
v 0.107815854 1.5480987 0.12890737
v 0.19601141 1.0840003 0.23279892
v 0.21420324 1.5243001 0.07356916
v 0.2596889 1.0362467 0.13855752
v 0.2774136 1.4743954 -0.04248568
v 0.30007115 0.9824011 0.032365143
v 0.30792716 1.4204881 -0.16340695
v 0.29600835 0.92654175 -0.078131646
v 0.30001995 1.3623755 -0.28844368
v 0.24568886 0.8717668 -0.18643987
v 0.24978256 1.3043648 -0.39930233
v 0.13515554 0.84484833 -0.23981309
v 0.1417755 1.2725333 -0.45470986
v 0.022808572 0.8325935 -0.26421767
v 0.023311146 1.2586507 -0.4826395
v -0.18090087 1.5421128 -0.012227336
v -0.22355604 1.4986774 -0.11275421
v -0.11284056 1.5388417 -0.09696427
v -0.09688777 1.5652936 0.042537145
v 0.0007424185 1.5516344 -0.081719086
v -0.0057752756 1.5744586 0.06405265
v -0.112874016 1.4882151 -0.2236367
v -0.23701443 1.4514147 -0.21849972
v 0.0076197735 1.4988813 -0.22162004
v -0.10221306 1.4240397 -0.34191424
v -0.21787713 1.4029942 -0.32177752
v 0.014291487 1.4279156 -0.34773275
v -0.07413431 1.3368375 -0.4425635
v -0.1668452 1.35921 -0.40305382
v 0.020874402 1.329122 -0.45820215
v -0.22358745 1.5154707 0.055377286
v -0.12320019 1.5434396 0.11930777
v -0.008715698 1.5539569 0.14476493
v -0.27249926 1.3508286 -0.31223404
v -0.29308122 1.4083668 -0.18838117
v -0.27489546 1.4632564 -0.06543624
v -0.09752381 1.267707 -0.46465364
v -0.21094722 1.2950728 -0.4184474
v 0.023311146 1.2586507 -0.4826395
v 0.12997346 1.4287225 -0.332266
v 0.12819707 1.493077 -0.21361926
v 0.25286412 1.4612947 -0.19814341
v 0.22879116 1.5078005 -0.09395746
v 0.11562099 1.5434494 -0.08747082
v 0.17623255 1.5493156 0.002612924
v 0.087102465 1.5690043 0.05018264
v 0.24432218 1.412316 -0.30257136
v 0.113871105 1.3406292 -0.43475115
v 0.20201018 1.3666492 -0.38772646
v 0.21420324 1.5243001 0.07356916
v 0.107815854 1.5480987 0.12890737
v 0.2774136 1.4743954 -0.04248568
v 0.30792716 1.4204881 -0.16340695
v 0.30001995 1.3623755 -0.28844368
v 0.1417755 1.2725333 -0.45470986
v 0.24978256 1.3043648 -0.39930233
v -0.20714961 0.8626339 -0.20525701
v -0.26844162 0.91515785 -0.10158666
v -0.12602438 0.904619 -0.12216609
v -0.09157717 0.8402755 -0.24923469
v 0.0156973 0.90213364 -0.12683462
v 0.022808572 0.8325935 -0.26421767
v -0.13861993 0.9735534 0.01413588
v -0.28389904 0.97062343 0.008098987
v 0.0080860555 0.97651225 0.020232065
v -0.12784101 1.0396687 0.14465761
v -0.25466263 1.0258731 0.11718428
v 0.00085121585 1.0473117 0.15997767
v -0.10593654 1.1012053 0.2662768
v -0.20099384 1.0759934 0.21630186
v -0.0058011794 1.1123645 0.28849566
v 0.13515554 0.84484833 -0.23981309
v 0.15632835 0.91031355 -0.11043327
v 0.24568886 0.8717668 -0.18643987
v 0.29600835 0.92654175 -0.078131646
v 0.15479204 0.979471 0.02632825
v 0.30007115 0.9824011 0.032365143
v 0.13057362 1.0448804 0.15539572
v 0.2596889 1.0362467 0.13855752
v 0.09619961 1.1052821 0.27467632
v 0.19601141 1.0840003 0.23279892
vt 0.26340368 0.24046516
vt 0.26340368 0.43735957
vt 0.3027761 0.43715674
vt 0.30333948 0.24046504
vt 0.33849972 0.4362745
vt 0.3385656 0.2403172
vt 0.22221987 0.24046516
vt 0.22221987 0.43735957
vt 0.18028963 0.24046493
vt 0.18028963 0.43735957
vt 0.13899775 0.24046504
vt 0.13899775 0.43735957
vt 0.095215425 0.24046516
vt 0.095215425 0.43735957
vt 0.053342715 0.24046516
vt 0.053342715 0.43735957
vt 0.014817374 0.24046516
vt 0.014817374 0.43735957
vt 0.3736007 0.24046504
vt 0.3741639 0.43715674
vt 0.41353664 0.24046516
vt 0.41353664 0.43735957
vt 0.45472 0.24046516
vt 0.45472 0.43735957
vt 0.49665043 0.24046493
vt 0.49665043 0.43735957
vt 0.53794223 0.24046504
vt 0.53794223 0.43735957
vt 0.58172435 0.24046516
vt 0.58172435 0.43735957
vt 0.62359744 0.24046516
vt 0.62359744 0.43735957
vt 0.66212255 0.24046516
vt 0.66212255 0.43735957
vt 0.28370818 0.47367358
vt 0.27179617 0.50776553
vt 0.30527896 0.49915385
vt 0.30905128 0.4560618
vt 0.33842504 0.49466482
vt 0.33842504 0.44998673
vt 0.30506897 0.54231155
vt 0.26786372 0.54431355
vt 0.33842504 0.5419774
vt 0.305772 0.5851909
vt 0.27159905 0.5808064
vt 0.33842504 0.58799267
vt 0.31076807 0.62663275
vt 0.28359357 0.61086756
vt 0.33842504 0.63356465
vt 0.26951936 0.45771137
vt 0.3027761 0.43715674
vt 0.33849972 0.4362745
vt 0.24965024 0.5847837
vt 0.24582541 0.5411309
vt 0.25070888 0.4986844
vt 0.30300975 0.64427406
vt 0.26839343 0.6237828
vt 0.3384698 0.6524424
vt 0.37116787 0.5851909
vt 0.37187096 0.54231155
vt 0.40907624 0.54431355
vt 0.40514353 0.50776553
vt 0.37166104 0.49915385
vt 0.39323178 0.47367358
vt 0.36788878 0.4560618
vt 0.40534094 0.5808064
vt 0.3661717 0.62663275
vt 0.3933464 0.61086756
vt 0.40742067 0.45771137
vt 0.3741639 0.43715674
vt 0.42623106 0.4986844
vt 0.43111464 0.5411309
vt 0.4272898 0.5847837
vt 0.37393036 0.64427406
vt 0.40854678 0.6237828
vt 0.04968384 0.81180346
vt 0.031996876 0.8412405
vt 0.06987052 0.83729553
vt 0.08079076 0.79859173
vt 0.10913906 0.8351289
vt 0.1089887 0.7917204
vt 0.062868744 0.8841695
vt 0.019906014 0.8834148
vt 0.10913906 0.8841695
vt 0.06831615 0.9294652
vt 0.028479367 0.9217346
vt 0.10913906 0.93293726
vt 0.077075675 0.97149086
vt 0.04674433 0.95546705
vt 0.10915539 0.97803557
vt 0.14020468 0.79708314
vt 0.14810765 0.83654135
vt 0.16785467 0.81255794
vt 0.18748994 0.8412405
vt 0.1551093 0.8841695
vt 0.200335 0.8841695
vt 0.15267944 0.9287105
vt 0.19553337 0.9179626
vt 0.14391953 0.97073656
vt 0.17726827 0.9539583
vn -0.77889085 0.1819385 0.6001895
vn -0.77096814 0.1852127 0.6093475
vn -0.39611918 0.28072006 0.87423444
vn -0.39819106 0.2804236 0.87338793
vn -0.045696877 0.30830246 0.95019025
vn -0.04570672 0.30830222 0.95018977
vn -0.956548 0.075304344 0.28168315
vn -0.95524454 0.07652266 0.2857486
vn -0.9995616 -0.015013048 0.025518348
vn -0.99945277 -0.013147331 0.030353807
vn -0.9515047 -0.14323415 -0.27225515
vn -0.9524873 -0.14192559 -0.2694904
vn -0.6925821 -0.3253714 -0.64378834
vn -0.6998572 -0.32221285 -0.6374785
vn -0.28767353 -0.43298474 -0.85426474
vn -0.29085913 -0.43250495 -0.85342854
vn 0.046126664 -0.4536167 -0.89000237
vn 0.046136845 -0.45361647 -0.8900019
vn 0.3127693 0.29473585 0.902943
vn 0.31063923 0.2949459 0.90360945
vn 0.71846586 0.21208379 0.66244036
vn 0.70970005 0.21501693 0.6708901
vn 0.92607945 0.11320514 0.3599465
vn 0.9243968 0.11436224 0.36388427
vn 0.99379164 0.02511796 0.10838456
vn 0.9932073 0.02696929 0.11319014
vn 0.9757958 -0.10443316 -0.19213626
vn 0.97649324 -0.1030889 -0.1892977
vn 0.75611204 -0.29620868 -0.58357084
vn 0.7627209 -0.29276302 -0.5766686
vn 0.37471548 -0.41965005 -0.8267298
vn 0.37781054 -0.4190418 -0.82562894
vn 0.046126664 -0.4536167 -0.89000237
vn 0.046136845 -0.45361647 -0.8900019
vn -0.38772157 0.91722834 -0.091455854
vn -0.44725764 0.8570105 -0.25591746
vn -0.15474328 0.9448193 -0.28874055
vn -0.18070708 0.9834046 -0.016138785
vn -0.00850743 0.96463394 -0.26345575
vn -0.020482574 0.9997607 0.007680458
vn -0.16321562 0.89228433 -0.42093852
vn -0.45036456 0.80445266 -0.38733405
vn -0.0007050367 0.90619713 -0.4228549
vn -0.13289171 0.8207198 -0.5556608
vn -0.4217188 0.7349818 -0.53099424
vn 0.0074595716 0.81728554 -0.5761847
vn -0.1359346 0.6028635 -0.786179
vn -0.32217064 0.6176413 -0.7174436
vn 0.021304214 0.59660447 -0.80225265
vn -0.47853088 0.8770031 0.043287605
vn -0.2512675 0.9494791 0.18802664
vn -0.02947595 0.97077334 0.2381812
vn -0.6347337 0.57656205 -0.51447976
vn -0.67825645 0.66771245 -0.30680323
vn -0.64200544 0.7539269 -0.13936733
vn -0.20456208 0.36206216 -0.9094313
vn -0.44083554 0.4672223 -0.766399
vn 0.032300346 0.337087 -0.9409193
vn 0.14537281 0.8263318 -0.54409784
vn 0.16151449 0.8988333 -0.40744528
vn 0.44818884 0.822575 -0.34999588
vn 0.43208164 0.874745 -0.21937795
vn 0.14000028 0.9507636 -0.27649313
vn 0.35673654 0.9322427 -0.060518924
vn 0.14169355 0.98990685 -0.0027404572
vn 0.43437508 0.75224787 -0.49542034
vn 0.1762889 0.60916054 -0.77320474
vn 0.35543668 0.6313072 -0.68928665
vn 0.43760425 0.89547944 0.08135751
vn 0.19638775 0.9585069 0.20663108
vn 0.6204839 0.77938896 -0.08690531
vn 0.6739357 0.6949842 -0.25061426
vn 0.6514897 0.602503 -0.4610329
vn 0.2645384 0.37152338 -0.88993806
vn 0.4837108 0.4858685 -0.72798055
vn -0.00077009125 -0.89222723 0.4515862
vn -0.0007873819 -0.8923625 0.4513188
vn -0.0007749585 -0.8923208 0.45140097
vn -0.0007702638 -0.8922274 0.45158565
vn -0.00076189125 -0.8923114 0.4514199
vn -0.00077052787 -0.89222753 0.45158544
vn -0.00079744286 -0.892232 0.45157647
vn -0.0008095047 -0.8922465 0.45154792
vn -0.0007701039 -0.8922309 0.45157865
vn -0.0007947204 -0.89212495 0.45178807
vn -0.0008160171 -0.8920773 0.45188215
vn -0.00077987544 -0.8921362 0.45176566
vn -0.0007705462 -0.8922271 0.4515863
vn -0.000770251 -0.89222676 0.4515869
vn -0.00077058724 -0.8922274 0.45158565
vn -0.0007708322 -0.89222753 0.4515855
vn -0.00074701704 -0.8923202 0.45140234
vn -0.000771112 -0.89222735 0.45158577
vn -0.00072625163 -0.89236104 0.4513216
vn -0.00074259593 -0.8922309 0.45157883
vn -0.00072759594 -0.8922448 0.45155144
vn -0.00076704565 -0.89212465 0.45178872
vn -0.00075522956 -0.8920764 0.45188412
vn -0.00077042606 -0.89222753 0.4515855
vn -0.0007701251 -0.89222723 0.45158616
g Hat_Tall_0
f 3/3/3 2/2/2 1/1/1
f 4/4/4 3/3/3 1/1/1
f 5/5/5 3/3/3 4/4/4
f 6/6/6 5/5/5 4/4/4
f 1/1/1 2/2/2 7/7/7
f 2/2/2 8/8/8 7/7/7
f 7/7/7 8/8/8 9/9/9
f 8/8/8 10/10/10 9/9/9
f 9/9/9 10/10/10 11/11/11
f 10/10/10 12/12/12 11/11/11
f 11/11/11 12/12/12 13/13/13
f 12/12/12 14/14/14 13/13/13
f 15/15/15 13/13/13 14/14/14
f 16/16/16 15/15/15 14/14/14
f 17/17/17 15/15/15 16/16/16
f 18/18/18 17/17/17 16/16/16
f 5/5/5 6/6/6 19/19/19
f 20/20/20 5/5/5 19/19/19
f 20/20/20 19/19/19 21/21/21
f 22/22/22 20/20/20 21/21/21
f 22/22/22 21/21/21 23/23/23
f 24/24/24 22/22/22 23/23/23
f 24/24/24 23/23/23 25/25/25
f 26/26/26 24/24/24 25/25/25
f 26/26/26 25/25/25 27/27/27
f 28/28/28 26/26/26 27/27/27
f 28/28/28 27/27/27 29/29/29
f 30/30/30 28/28/28 29/29/29
f 29/29/29 31/31/31 30/30/30
f 31/31/31 32/32/32 30/30/30
f 31/31/31 33/33/33 32/32/32
f 33/33/33 34/34/34 32/32/32
f 37/37/37 36/36/36 35/35/35
f 38/38/38 37/37/37 35/35/35
f 39/39/39 37/37/37 38/38/38
f 40/40/40 39/39/39 38/38/38
f 37/37/37 41/41/41 36/36/36
f 41/41/41 42/42/42 36/36/36
f 43/43/43 41/41/41 37/37/37
f 39/39/39 43/43/43 37/37/37
f 41/41/41 44/44/44 42/42/42
f 44/44/44 45/45/45 42/42/42
f 46/46/46 44/44/44 41/41/41
f 43/43/43 46/46/46 41/41/41
f 44/44/44 47/47/47 45/45/45
f 47/47/47 48/48/48 45/45/45
f 49/49/49 47/47/47 44/44/44
f 46/46/46 49/49/49 44/44/44
f 38/38/38 35/35/35 50/50/50
f 51/51/51 38/38/38 50/50/50
f 40/40/40 38/38/38 51/51/51
f 52/52/52 40/40/40 51/51/51
f 42/42/42 45/45/45 53/53/53
f 54/54/54 42/42/42 53/53/53
f 36/36/36 42/42/42 54/54/54
f 55/55/55 36/36/36 54/54/54
f 35/35/35 36/36/36 55/55/55
f 50/50/50 35/35/35 55/55/55
f 48/48/48 47/47/47 56/56/56
f 57/57/57 48/48/48 56/56/56
f 45/45/45 48/48/48 57/57/57
f 53/53/53 45/45/45 57/57/57
f 47/47/47 49/49/49 58/58/58
f 56/56/56 47/47/47 58/58/58
f 49/49/49 46/46/46 59/59/59
f 59/59/59 46/46/46 60/60/60
f 59/59/59 60/60/60 61/61/61
f 61/61/61 60/60/60 62/62/62
f 60/60/60 63/63/63 62/62/62
f 62/62/62 63/63/63 64/64/64
f 63/63/63 65/65/65 64/64/64
f 63/63/63 39/39/39 65/65/65
f 39/39/39 40/40/40 65/65/65
f 43/43/43 39/39/39 63/63/63
f 60/60/60 43/43/43 63/63/63
f 46/46/46 43/43/43 60/60/60
f 66/66/66 59/59/59 61/61/61
f 67/67/67 59/59/59 66/66/66
f 68/68/68 67/67/67 66/66/66
f 67/67/67 49/49/49 59/59/59
f 49/49/49 67/67/67 58/58/58
f 64/64/64 65/65/65 69/69/69
f 65/65/65 70/70/70 69/69/69
f 65/65/65 40/40/40 70/70/70
f 64/64/64 69/69/69 71/71/71
f 62/62/62 64/64/64 71/71/71
f 40/40/40 52/52/52 70/70/70
f 62/62/62 71/71/71 72/72/72
f 61/61/61 62/62/62 72/72/72
f 61/61/61 72/72/72 73/73/73
f 66/66/66 61/61/61 73/73/73
f 67/67/67 68/68/68 74/74/74
f 68/68/68 75/75/75 74/74/74
f 66/66/66 73/73/73 75/75/75
f 68/68/68 66/66/66 75/75/75
f 67/67/67 74/74/74 58/58/58
f 78/78/78 77/77/77 76/76/76
f 79/79/79 78/78/78 76/76/76
f 80/80/80 78/78/78 79/79/79
f 81/81/81 80/80/80 79/79/79
f 78/78/78 82/82/82 77/77/77
f 82/82/82 83/83/83 77/77/77
f 84/84/84 82/82/82 78/78/78
f 80/80/80 84/84/84 78/78/78
f 82/82/82 85/85/85 83/83/83
f 85/85/85 86/86/86 83/83/83
f 87/87/87 85/85/85 82/82/82
f 84/84/84 87/87/87 82/82/82
f 85/85/85 88/88/88 86/86/86
f 88/88/88 89/89/89 86/86/86
f 90/90/90 88/88/88 85/85/85
f 87/87/87 90/90/90 85/85/85
f 80/80/80 81/81/81 91/91/91
f 92/92/92 80/80/80 91/91/91
f 84/84/84 80/80/80 92/92/92
f 92/92/92 91/91/91 93/93/93
f 94/94/94 92/92/92 93/93/93
f 95/95/95 92/92/92 94/94/94
f 95/95/95 84/84/84 92/92/92
f 87/87/87 84/84/84 95/95/95
f 96/96/96 95/95/95 94/94/94
f 97/97/97 95/95/95 96/96/96
f 97/97/97 87/87/87 95/95/95
f 90/90/90 87/87/87 97/97/97
f 98/98/98 97/97/97 96/96/96
f 99/99/99 97/97/97 98/98/98
f 99/99/99 90/90/90 97/97/97
f 100/100/100 99/99/99 98/98/98
