g Knife
v -0.5354701 0.33627558 0.26194945
v -0.48945242 0.31304133 0.26194948
v -0.6233123 0.04791855 0.30352983
v -0.66933006 0.0711528 0.3035298
v -0.6900839 0.08180874 0.26270175
v -0.5562954 0.3467902 0.22895455
v -0.5562954 0.34679022 0.1936391
v -0.69007605 0.08182424 0.19363889
v -0.6692508 0.07130962 0.16064401
v -0.5354701 0.33627558 0.1606442
v -0.6232331 0.04807537 0.16064401
v -0.4894524 0.31304133 0.1606442
v -0.6024081 0.037560873 0.19363889
v -0.46862742 0.30252686 0.19363908
v -0.46862742 0.30252683 0.22895455
v -0.6024159 0.037545368 0.26270178
v -0.6233123 0.04791855 0.30352983
v -0.48945242 0.31304133 0.26194948
v -0.67804533 0.04525543 0.25693893
v -0.66350335 0.04588272 0.2843634
v -0.64710575 0.03760361 0.2843634
v -0.6389771 0.025529958 0.25693893
v -0.66933006 0.0711528 0.3035298
v -0.6233123 0.04791855 0.30352983
v -0.6024159 0.037545368 0.26270178
v -0.63897705 0.025529966 0.21069488
v -0.6024081 0.037560873 0.19363889
v -0.6471057 0.037603624 0.18327045
v -0.6232331 0.04807537 0.16064401
v -0.66350335 0.045882735 0.18327045
v -0.6692508 0.07130962 0.16064401
v -0.67804533 0.045255437 0.21069492
v -0.07843612 1.1264094 0.23054464
v -0.07144128 1.186676 0.25534424
v -0.042232946 1.2480947 0.16064489
v -0.059038933 1.1648273 0.16064483
v -0.12031235 1.0434693 0.30207604
v -0.12074945 1.0889199 0.3451547
v -0.16693021 0.9992592 0.39508727
v -0.16242875 0.9600537 0.3427637
v -0.22404802 0.88790023 0.4346691
v -0.21167916 0.86250836 0.375781
v -0.2889841 0.75904316 0.45420474
v -0.27298346 0.74108917 0.38974357
v -0.35463223 0.62752885 0.46465954
v -0.3352585 0.6177471 0.39305624
v -0.45200315 0.38652277 0.3930561
v -0.47167268 0.39645386 0.4649175
v -0.059038933 1.1648273 0.16064483
v -0.042232946 1.2480947 0.16064489
v -0.04858813 1.2513034 0.16064489
v -0.10561266 1.1883423 0.16064483
v -0.16242865 0.96005374 0.16064468
v -0.20900238 0.9835688 0.16064468
v -0.21167909 0.86250836 0.1606446
v -0.2582528 0.8860234 0.1606446
v -0.27266943 0.74171096 0.1606445
v -0.31924313 0.76522595 0.1606445
v -0.33525842 0.6177472 0.16064443
v -0.38183215 0.6412622 0.16064443
v -0.4520031 0.38652283 0.16064426
v -0.4985768 0.4100378 0.16064426
v -0.10561266 1.1883423 0.16064483
v -0.04858813 1.2513034 0.16064489
v -0.08066819 1.1913347 0.25534424
v -0.12500985 1.1499244 0.23054464
v -0.13006318 1.0936111 0.34514406
v -0.16688608 1.0669844 0.30207604
v -0.20900244 0.9835687 0.34276366
v -0.17631276 1.003947 0.39495528
v -0.23328824 0.8924858 0.434439
v -0.2582529 0.8860233 0.37578097
v -0.29738814 0.7632352 0.45405918
v -0.31955716 0.7646041 0.38974357
v -0.36245903 0.6314806 0.4646577
v -0.38183224 0.6412621 0.3930562
v -0.47890726 0.40010658 0.4649175
v -0.49857688 0.41003776 0.39305606
v -0.49857688 0.41003776 0.39305606
v -0.47890726 0.40010658 0.4649175
v -0.47167268 0.39645386 0.4649175
v -0.45200315 0.38652277 0.3930561
v -0.49857685 0.41003776 0.26194948
v -0.45200312 0.38652277 0.2619495
v -0.4985768 0.4100378 0.16064426
v -0.4520031 0.38652283 0.16064426
v -0.45200312 0.38652277 0.2619495
v -0.33525848 0.6177472 0.2619497
v -0.33525842 0.6177472 0.16064443
v -0.4520031 0.38652283 0.16064426
v -0.3352585 0.6177471 0.39305624
v -0.45200315 0.38652277 0.3930561
v -0.27298346 0.74108917 0.38974357
v -0.27266946 0.74171096 0.26194978
v -0.21167916 0.86250836 0.375781
v -0.21167913 0.86250836 0.25787076
v -0.16242875 0.9600537 0.3427637
v -0.16242868 0.96005374 0.2517737
v -0.21167909 0.86250836 0.1606446
v -0.27266943 0.74171096 0.1606445
v -0.16242865 0.96005374 0.16064468
v -0.059038933 1.1648273 0.16064483
v -0.07843612 1.1264094 0.23054464
v -0.12031235 1.0434693 0.30207604
v -0.4985768 0.4100378 0.16064426
v -0.38183215 0.6412622 0.16064443
v -0.38183218 0.6412621 0.26194966
v -0.49857685 0.41003776 0.26194948
v -0.49857688 0.41003776 0.39305606
v -0.38183224 0.6412621 0.3930562
v -0.31924316 0.7652259 0.26194975
v -0.31955716 0.7646041 0.38974357
v -0.25825283 0.8860233 0.25787073
v -0.31924313 0.76522595 0.1606445
v -0.2582528 0.8860234 0.1606446
v -0.20900239 0.9835687 0.2517737
v -0.20900238 0.9835688 0.16064468
v -0.2582529 0.8860233 0.37578097
v -0.20900244 0.9835687 0.34276366
v -0.16688608 1.0669844 0.30207604
v -0.12500985 1.1499244 0.23054464
v -0.10561266 1.1883423 0.16064483
v -0.16693021 0.9992592 0.39508727
v -0.22404802 0.88790023 0.4346691
v -0.23328824 0.8924858 0.434439
v -0.17631276 1.003947 0.39495528
v -0.29738814 0.7632352 0.45405918
v -0.2889841 0.75904316 0.45420474
v -0.36245903 0.6314806 0.4646577
v -0.35463223 0.62752885 0.46465954
v -0.47890726 0.40010658 0.4649175
v -0.47167268 0.39645386 0.4649175
v -0.12074945 1.0889199 0.3451547
v -0.13006318 1.0936111 0.34514406
v -0.07144128 1.186676 0.25534424
v -0.08066819 1.1913347 0.25534424
v -0.042232946 1.2480947 0.16064489
v -0.04858813 1.2513034 0.16064489
v -0.5562954 0.34679022 0.1936391
v -0.519124 0.42041197 0.19363914
v -0.519124 0.42041197 0.22895461
v -0.5562954 0.3467902 0.22895455
v -0.4982987 0.40989733 0.26194948
v -0.5354701 0.33627558 0.26194945
v -0.452281 0.38666308 0.2619495
v -0.48945242 0.31304133 0.26194948
v -0.49829867 0.40989733 0.16064426
v -0.45228094 0.38666308 0.16064426
v -0.46862742 0.30252686 0.19363908
v -0.43145597 0.3761486 0.19363914
v -0.46862742 0.30252683 0.22895455
v -0.43145597 0.3761486 0.22895461
v -0.48945242 0.31304133 0.26194948
v -0.452281 0.38666308 0.2619495
v -0.519124 0.42041197 0.19363914
v -0.49829867 0.40989733 0.16064426
v -0.45228094 0.38666308 0.16064426
v -0.43145597 0.3761486 0.19363914
v -0.43145597 0.3761486 0.22895461
v -0.519124 0.42041197 0.22895461
v -0.4982987 0.40989733 0.26194948
v -0.452281 0.38666308 0.2619495
vt 0.68743956 0.6029371
vt 0.6452088 0.6029371
vt 0.6355727 0.8918594
vt 0.68743443 0.8918593
vt 0.73119366 0.89185935
vt 0.75139236 0.6029372
vt 0.7856338 0.6029372
vt 0.7943829 0.89185935
vt 0.8326891 0.8918593
vt 0.8251139 0.6029371
vt 0.8671477 0.8918594
vt 0.8604643 0.6029371
vt 0.9008814 0.89185935
vt 0.8943388 0.6029372
vt 0.92700756 0.6029374
vt 0.94639206 0.8918596
vt 0.98029196 0.89185965
vt 0.9547583 0.60293734
vt 0.7406726 0.9171303
vt 0.7196715 0.928717
vt 0.7198783 0.9454688
vt 0.7413192 0.95704216
vt 0.6982583 0.9135919
vt 0.698799 0.9606034
vt 0.73400474 0.98186815
vt 0.7756015 0.95703083
vt 0.7915746 0.9818515
vt 0.7972573 0.9454445
vt 0.8211355 0.96056896
vt 0.7975216 0.92869276
vt 0.8219056 0.9135574
vt 0.77601206 0.91711915
vt 0.22338806 0.8248435
vt 0.2017877 0.8744476
vt 0.28427067 0.93366754
vt 0.28427067 0.86232865
vt 0.16108431 0.74391735
vt 0.12356293 0.7790842
vt 0.0800718 0.6912428
vt 0.1256455 0.66252714
vt 0.04559603 0.58223724
vt 0.09688737 0.5673502
vt 0.028580453 0.45655745
vt 0.08472603 0.44887912
vt 0.019474354 0.32853204
vt 0.08184057 0.32853204
vt 0.08184057 0.10292199
vt 0.019249465 0.10292199
vt 0.28427067 0.86232865
vt 0.3038917 0.93366754
vt 0.31009266 0.93366754
vt 0.3297136 0.86232865
vt 0.28427067 0.6625272
vt 0.32971352 0.6625272
vt 0.28427067 0.5673502
vt 0.32971352 0.5673502
vt 0.28427067 0.44948584
vt 0.32971352 0.44948584
vt 0.28427067 0.32853204
vt 0.3297135 0.32853204
vt 0.28427067 0.10292199
vt 0.32948735 0.10292202
vt 0.3297136 0.86232865
vt 0.32971373 0.93366754
vt 0.41219673 0.8744476
vt 0.39059627 0.8248434
vt 0.4904121 0.7790754
vt 0.45290008 0.74391735
vt 0.48833886 0.66252714
vt 0.5337976 0.6912043
vt 0.5681878 0.58217514
vt 0.51709694 0.56735015
vt 0.585277 0.45651752
vt 0.5292583 0.44887903
vt 0.59450823 0.32853192
vt 0.5321436 0.32853198
vt 0.59473467 0.1029219
vt 0.53240037 0.10292193
vt 0.53240037 0.10292193
vt 0.5955472 0.08363846
vt 0.59554714 0.076545686
vt 0.5326574 0.05726233
vt 0.41793457 0.10292196
vt 0.4179192 0.05726233
vt 0.32948735 0.10292202
vt 0.32926145 0.05726248
vt 0.19603397 0.10292199
vt 0.19603397 0.32853204
vt 0.28427067 0.32853204
vt 0.28427067 0.10292199
vt 0.08184057 0.32853204
vt 0.08184057 0.10292199
vt 0.08472603 0.44887912
vt 0.19603397 0.44948584
vt 0.09688737 0.5673502
vt 0.19958688 0.5673502
vt 0.1256455 0.66252714
vt 0.20489748 0.6625272
vt 0.28427067 0.5673502
vt 0.28427067 0.44948584
vt 0.28427067 0.6625272
vt 0.28427067 0.86232865
vt 0.22338806 0.8248435
vt 0.16108431 0.74391735
vt 0.32948735 0.10292202
vt 0.3297135 0.32853204
vt 0.41795015 0.32853198
vt 0.41793457 0.10292196
vt 0.53240037 0.10292193
vt 0.5321436 0.32853198
vt 0.4179502 0.44948578
vt 0.5292583 0.44887903
vt 0.4143973 0.5673502
vt 0.32971352 0.44948584
vt 0.32971352 0.5673502
vt 0.4090868 0.66252714
vt 0.32971352 0.6625272
vt 0.51709694 0.56735015
vt 0.48833886 0.66252714
vt 0.45290008 0.74391735
vt 0.39059627 0.8248434
vt 0.3297136 0.86232865
vt 0.5657943 0.7033181
vt 0.60630774 0.59028745
vt 0.5681878 0.58217514
vt 0.5337976 0.6912043
vt 0.585277 0.45651752
vt 0.6213108 0.45655727
vt 0.59450823 0.32853192
vt 0.6307079 0.32857054
vt 0.59473467 0.1029219
vt 0.63122725 0.10299918
vt 0.52230316 0.79518473
vt 0.4904121 0.7790754
vt 0.44407848 0.89054805
vt 0.41219673 0.8744476
vt 0.36159548 0.9497683
vt 0.32971373 0.93366754
vt 0.7856338 0.6029372
vt 0.7863195 0.5266626
vt 0.7506076 0.5266628
vt 0.75139236 0.6029372
vt 0.6873503 0.5266626
vt 0.68743956 0.6029371
vt 0.64532727 0.5266626
vt 0.6452088 0.6029371
vt 0.824075 0.5266626
vt 0.85805404 0.52666265
vt 0.8943388 0.6029372
vt 0.8918985 0.5266628
vt 0.92700756 0.6029374
vt 0.92455053 0.5266628
vt 0.9547583 0.60293734
vt 0.95223874 0.5266628
vt 0.7863195 0.5266626
vt 0.82136965 0.5040686
vt 0.8216287 0.4495553
vt 0.78690505 0.42488486
vt 0.7497659 0.4248836
vt 0.7506076 0.5266628
vt 0.71547353 0.5040659
vt 0.7151283 0.44955257
vn -0.35286993 0.31225106 0.882033
vn 0.46076712 -0.09855232 0.8820324
vn 0.4129909 -0.13233227 0.90106976
vn -0.3516857 0.2537511 0.90107024
vn -0.87962973 0.39349425 0.26723358
vn -0.8537539 0.4644902 0.23527236
vn -0.8609683 0.43470082 -0.26413783
vn -0.89277834 0.36542192 -0.26346463
vn -0.3882395 0.13469818 -0.91166145
vn -0.35995004 0.18173851 -0.9150995
vn 0.3388963 -0.23243098 -0.9116606
vn 0.35995194 -0.18173818 -0.9150989
vn 0.8241086 -0.5014311 -0.26346102
vn 0.8609691 -0.4347012 -0.26413447
vn 0.88065594 -0.4112095 0.23526964
vn 0.8388907 -0.47418383 0.26723057
vn 0.4129909 -0.13233227 0.90106976
vn 0.46076712 -0.09855232 0.8820324
vn -0.77973235 -0.61608034 0.11163529
vn -0.6058333 -0.63274944 0.48228014
vn -0.14945273 -0.8631754 0.48227808
vn -0.032796755 -0.9932081 0.11163357
vn -0.3516857 0.2537511 0.90107024
vn 0.4129909 -0.13233227 0.90106976
vn 0.8388907 -0.47418383 0.26723057
vn -0.035903983 -0.9946616 -0.09674271
vn 0.8241086 -0.5014311 -0.26346102
vn -0.1971956 -0.86363554 -0.46394765
vn 0.3388963 -0.23243098 -0.9116606
vn -0.5778584 -0.67143875 -0.46395016
vn -0.3882395 0.13469818 -0.91166145
vn -0.7790572 -0.61944354 -0.09674482
vn 0.94833326 -0.21583116 0.23255321
vn 0.95479727 -0.20759514 0.21275921
vn 0.9669234 -0.18978022 0.170419
vn 0.9669234 -0.1897802 0.170419
vn 0.91884327 -0.26610208 0.2914047
vn 0.92262006 -0.25822663 0.28651562
vn 0.8932807 -0.31605217 0.31962582
vn 0.89098984 -0.32040143 0.32168317
vn 0.87063414 -0.36333758 0.33163518
vn 0.86959606 -0.36561033 0.33186084
vn 0.85806346 -0.40136987 0.32035813
vn 0.85800827 -0.4021683 0.31950355
vn 0.85486203 -0.4255591 0.29683393
vn 0.8549081 -0.42532313 0.29703915
vn 0.85366166 -0.43153495 0.29161516
vn 0.85366166 -0.43153495 0.29161516
vn 3.0875748E-07 5.9808383E-07 -1
vn 0.15695071 0.31085625 -0.9374086
vn 0.15695056 0.31085595 -0.9374087
vn 3.0875734E-07 5.9808383E-07 -1
vn 2.5907048E-07 6.032938E-07 -1
vn 2.590705E-07 6.0329387E-07 -1
vn 3.5871105E-07 6.2649406E-07 -1
vn 3.5871096E-07 6.2649406E-07 -1
vn 4.2665786E-07 5.5887307E-07 -1
vn 4.2665786E-07 5.588732E-07 -1
vn 4.4101682E-07 5.562862E-07 -1
vn 4.4101682E-07 5.5628607E-07 -1
vn 4.516363E-07 5.9159214E-07 -1
vn 4.516363E-07 5.915921E-07 -1
vn -0.726796 0.66537607 0.1704177
vn -0.726796 0.66537607 0.1704177
vn -0.7339307 0.64504397 0.21275324
vn -0.7367206 0.63495135 0.23255034
vn -0.7568671 0.5903851 0.28035274
vn -0.76144093 0.5829527 0.28350303
vn -0.79573536 0.52856284 0.29567993
vn -0.79251 0.533348 0.2957494
vn -0.8222818 0.4843993 0.29868034
vn -0.823564 0.48205426 0.29894146
vn -0.8423493 0.44884324 0.29830745
vn -0.8427239 0.44826302 0.29812178
vn -0.85215807 0.43366033 0.2928572
vn -0.8520776 0.4337836 0.29290885
vn -0.85408235 0.4307012 0.29161602
vn -0.85408235 0.4307012 0.29161602
vn -0.45070845 -0.8926712 0
vn -0.343531 -0.6802376 0.64750546
vn -0.34353125 -0.680238 0.6475048
vn -0.45070845 -0.8926712 0
vn -0.45070818 -0.8926713 -3.2565356E-07
vn -0.45070818 -0.8926713 -3.2565345E-07
vn -0.45070803 -0.8926714 -6.746592E-07
vn -0.45070806 -0.8926714 -6.7465925E-07
vn 0.8926716 -0.45070785 2.6200618E-07
vn 0.8926716 -0.45070785 2.7957918E-07
vn 0.8926716 -0.4507078 3.7854844E-07
vn 0.8926716 -0.45070767 4.6519622E-07
vn 0.89267147 -0.45070782 2.017192E-07
vn 0.89267147 -0.450708 1.0500242E-07
vn 0.8926716 -0.45070773 3.1083434E-07
vn 0.8926716 -0.45070773 3.1729982E-07
vn 0.8926716 -0.45070767 1.448006E-07
vn 0.8926716 -0.45070767 2.466136E-07
vn 0.8926716 -0.4507078 2.1612671E-07
vn 0.8926716 -0.45070785 0
vn 0.89267147 -0.45070782 3.859096E-07
vn 0.8926716 -0.45070773 3.3290874E-07
vn 0.8926716 -0.45070785 -1.13872815E-07
vn 0.89267164 -0.45070767 -3.6971804E-07
vn 0.8926716 -0.45070773 -2.4432458E-07
vn 0.89267147 -0.45070788 6.146387E-07
vn -0.89267164 0.45070755 0
vn -0.8926716 0.45070767 0
vn -0.8926716 0.4507078 -1.3239809E-07
vn -0.8926716 0.45070785 -1.02186206E-07
vn -0.89267147 0.45070794 -1.8114487E-07
vn -0.8926716 0.45070785 -2.3470167E-07
vn -0.8926716 0.4507078 -1.3954792E-07
vn -0.89267164 0.45070755 -3.3439525E-07
vn -0.8926716 0.45070785 0
vn -0.89267147 0.450708 1.1096966E-07
vn -0.89267147 0.45070782 3.8590977E-07
vn -0.8926716 0.45070785 0
vn -0.8926716 0.45070785 2.2774579E-07
vn -0.8926716 0.45070767 -3.0882498E-07
vn -0.8926716 0.45070785 -3.8935485E-07
vn -0.89267164 0.45070767 -6.1463874E-07
vn -0.89267164 0.45070767 0
vn -0.8926716 0.45070767 0
vn 0.15422814 0.33472294 0.9296098
vn 0.080682136 0.20208113 0.97603977
vn 0.08055538 0.20183523 0.9761011
vn 0.15396242 0.3342843 0.9298116
vn 0.034251127 0.0993491 0.994463
vn 0.034227192 0.09926842 0.9944719
vn 0.0096734 0.026315583 0.9996069
vn 0.009624357 0.026182083 0.99961084
vn -0.343531 -0.6802376 0.64750546
vn -0.34353125 -0.680238 0.6475048
vn 0.24602047 0.49532905 0.83314043
vn 0.24578902 0.4949077 0.8334591
vn 0.3207525 0.63621676 0.7016737
vn 0.32075202 0.63621587 0.70167476
vn 0.15695071 0.31085625 -0.9374086
vn 0.15695056 0.31085595 -0.9374087
vn -0.84476596 0.4265198 -0.3231893
vn -0.84476596 0.42651984 -0.32318926
vn -0.8447661 0.4265199 0.3231891
vn -0.8447661 0.4265198 0.32318902
vn -0.35995117 0.18173787 0.9150992
vn -0.3599511 0.18173781 0.9150992
vn 0.35995105 -0.18173876 0.9150991
vn 0.35995126 -0.1817389 0.91509897
vn -0.3599503 0.18173838 -0.9150995
vn 0.35995194 -0.1817381 -0.9150989
vn 0.84476715 -0.4265204 -0.32318532
vn 0.8447673 -0.4265204 -0.32318518
vn 0.844767 -0.42652056 0.3231856
vn 0.8447669 -0.4265206 0.32318577
vn 0.35995126 -0.1817389 0.91509897
vn 0.35995105 -0.18173876 0.9150991
vn 0.45070803 0.8926714 0
vn 0.45070806 0.8926714 3.0880202E-07
vn 0.45070818 0.8926714 3.088021E-07
vn 0.45070803 0.8926714 0
vn 0.450708 0.89267147 0
vn 0.45070803 0.8926714 0
vn 0.45070818 0.8926714 -3.0880207E-07
vn 0.45070818 0.8926714 -3.0880202E-07
g Knife_0
f 3/3/3 2/2/2 1/1/1
f 4/4/4 3/3/3 1/1/1
f 4/4/4 1/1/1 5/5/5
f 1/1/1 6/6/6 5/5/5
f 5/5/5 6/6/6 7/7/7
f 8/8/8 5/5/5 7/7/7
f 9/9/9 8/8/8 7/7/7
f 10/10/10 9/9/9 7/7/7
f 9/9/9 10/10/10 11/11/11
f 10/10/10 12/12/12 11/11/11
f 13/13/13 11/11/11 12/12/12
f 14/14/14 13/13/13 12/12/12
f 13/13/13 14/14/14 15/15/15
f 16/16/16 13/13/13 15/15/15
f 16/16/16 15/15/15 17/17/17
f 15/15/15 18/18/18 17/17/17
f 5/5/5 8/8/8 19/19/19
f 5/5/5 19/19/19 20/20/20
f 21/21/21 20/20/20 19/19/19
f 22/22/22 21/21/21 19/19/19
f 20/20/20 21/21/21 23/23/23
f 23/23/23 5/5/5 20/20/20
f 21/21/21 24/24/24 23/23/23
f 21/21/21 22/22/22 24/24/24
f 22/22/22 25/25/25 24/24/24
f 22/22/22 26/26/26 25/25/25
f 26/26/26 22/22/22 19/19/19
f 26/26/26 27/27/27 25/25/25
f 27/27/27 26/26/26 28/28/28
f 29/29/29 27/27/27 28/28/28
f 29/29/29 28/28/28 30/30/30
f 30/30/30 28/28/28 26/26/26
f 31/31/31 29/29/29 30/30/30
f 31/31/31 30/30/30 32/32/32
f 32/32/32 26/26/26 19/19/19
f 32/32/32 30/30/30 26/26/26
f 8/8/8 32/32/32 19/19/19
f 8/8/8 31/31/31 32/32/32
f 35/35/35 34/34/34 33/33/33
f 36/36/36 35/35/35 33/33/33
f 33/33/33 34/34/34 37/37/37
f 34/34/34 38/38/38 37/37/37
f 38/38/38 39/39/39 37/37/37
f 39/39/39 40/40/40 37/37/37
f 39/39/39 41/41/41 40/40/40
f 41/41/41 42/42/42 40/40/40
f 41/41/41 43/43/43 42/42/42
f 43/43/43 44/44/44 42/42/42
f 43/43/43 45/45/45 44/44/44
f 45/45/45 46/46/46 44/44/44
f 46/46/46 45/45/45 47/47/47
f 45/45/45 48/48/48 47/47/47
f 51/51/51 50/50/50 49/49/49
f 52/52/52 51/51/51 49/49/49
f 52/52/52 49/49/49 53/53/53
f 54/54/54 52/52/52 53/53/53
f 54/54/54 53/53/53 55/55/55
f 56/56/56 54/54/54 55/55/55
f 56/56/56 55/55/55 57/57/57
f 58/58/58 56/56/56 57/57/57
f 58/58/58 57/57/57 59/59/59
f 60/60/60 58/58/58 59/59/59
f 60/60/60 59/59/59 61/61/61
f 62/62/62 60/60/60 61/61/61
f 65/65/65 64/64/64 63/63/63
f 66/66/66 65/65/65 63/63/63
f 67/67/67 65/65/65 66/66/66
f 68/68/68 67/67/67 66/66/66
f 67/67/67 68/68/68 69/69/69
f 70/70/70 67/67/67 69/69/69
f 70/70/70 69/69/69 71/71/71
f 69/69/69 72/72/72 71/71/71
f 71/71/71 72/72/72 73/73/73
f 72/72/72 74/74/74 73/73/73
f 73/73/73 74/74/74 75/75/75
f 74/74/74 76/76/76 75/75/75
f 77/77/77 75/75/75 76/76/76
f 78/78/78 77/77/77 76/76/76
f 81/81/81 80/80/80 79/79/79
f 82/82/82 81/81/81 79/79/79
f 82/82/82 79/79/79 83/83/83
f 84/84/84 82/82/82 83/83/83
f 83/83/83 85/85/85 84/84/84
f 85/85/85 86/86/86 84/84/84
f 89/89/89 88/88/88 87/87/87
f 90/90/90 89/89/89 87/87/87
f 88/88/88 91/91/91 87/87/87
f 91/91/91 92/92/92 87/87/87
f 93/93/93 91/91/91 88/88/88
f 94/94/94 93/93/93 88/88/88
f 95/95/95 93/93/93 94/94/94
f 96/96/96 95/95/95 94/94/94
f 95/95/95 96/96/96 97/97/97
f 96/96/96 98/98/98 97/97/97
f 99/99/99 96/96/96 94/94/94
f 100/100/100 99/99/99 94/94/94
f 100/100/100 94/94/94 88/88/88
f 89/89/89 100/100/100 88/88/88
f 101/101/101 98/98/98 96/96/96
f 99/99/99 101/101/101 96/96/96
f 101/101/101 102/102/102 98/98/98
f 102/102/102 103/103/103 98/98/98
f 98/98/98 103/103/103 104/104/104
f 97/97/97 98/98/98 104/104/104
f 107/107/107 106/106/106 105/105/105
f 108/108/108 107/107/107 105/105/105
f 108/108/108 109/109/109 107/107/107
f 109/109/109 110/110/110 107/107/107
f 111/111/111 107/107/107 110/110/110
f 107/107/107 111/111/111 106/106/106
f 112/112/112 111/111/111 110/110/110
f 113/113/113 111/111/111 112/112/112
f 111/111/111 113/113/113 114/114/114
f 111/111/111 114/114/114 106/106/106
f 113/113/113 115/115/115 114/114/114
f 113/113/113 116/116/116 115/115/115
f 116/116/116 117/117/117 115/115/115
f 118/118/118 113/113/113 112/112/112
f 113/113/113 118/118/118 119/119/119
f 116/116/116 113/113/113 119/119/119
f 116/116/116 119/119/119 120/120/120
f 121/121/121 116/116/116 120/120/120
f 116/116/116 121/121/121 117/117/117
f 121/121/121 122/122/122 117/117/117
f 125/125/125 124/124/124 123/123/123
f 126/126/126 125/125/125 123/123/123
f 125/125/125 127/127/127 124/124/124
f 127/127/127 128/128/128 124/124/124
f 127/127/127 129/129/129 128/128/128
f 129/129/129 130/130/130 128/128/128
f 130/130/130 129/129/129 131/131/131
f 132/132/132 130/130/130 131/131/131
f 126/126/126 123/123/123 133/133/133
f 134/134/134 126/126/126 133/133/133
f 133/133/133 135/135/135 134/134/134
f 135/135/135 136/136/136 134/134/134
f 135/135/135 137/137/137 136/136/136
f 137/137/137 138/138/138 136/136/136
f 141/141/141 140/140/140 139/139/139
f 142/142/142 141/141/141 139/139/139
f 143/143/143 141/141/141 142/142/142
f 144/144/144 143/143/143 142/142/142
f 145/145/145 143/143/143 144/144/144
f 146/146/146 145/145/145 144/144/144
f 139/139/139 140/140/140 10/10/10
f 140/140/140 147/147/147 10/10/10
f 10/10/10 147/147/147 12/12/12
f 147/147/147 148/148/148 12/12/12
f 12/12/12 148/148/148 149/149/149
f 148/148/148 150/150/150 149/149/149
f 149/149/149 150/150/150 151/151/151
f 150/150/150 152/152/152 151/151/151
f 151/151/151 152/152/152 153/153/153
f 152/152/152 154/154/154 153/153/153
f 157/157/157 156/156/156 155/155/155
f 158/158/158 157/157/157 155/155/155
f 159/159/159 158/158/158 155/155/155
f 160/160/160 159/159/159 155/155/155
f 160/160/160 161/161/161 159/159/159
f 161/161/161 162/162/162 159/159/159
